<svg xmlns="http://www.w3.org/2000/svg" fill="none" viewBox="0 0 850 263" height="263" width="850">
<g clip-path="url(#clip0_4826_5)">
<path fill="white" d="M47.0004 119.263C47.144 118.555 47.5228 117.919 48.0734 117.46C48.624 117.001 49.3132 116.747 50.0259 116.741H62.2775C63.9143 116.741 64.6436 115.995 65.617 114.545L71.0169 104.532C71.2733 104.065 71.6487 103.677 72.1037 103.407C72.5588 103.138 73.0768 102.997 73.6037 103H118.684C119.845 103 120.81 103.883 120.905 105.021C122.717 127.219 125.016 142.266 139.572 155.885C141.098 157.314 140.122 160 138.015 160H31.3037C29.1926 160 28.2151 157.307 29.745 155.877C40.1638 146.125 44.3395 135.458 46.5439 121.652C46.6535 120.959 46.7906 120.295 46.925 119.627L46.999 119.263H47.0004ZM181.265 159.687C180.05 159.687 179.067 158.717 179.067 157.523V118.814C179.067 117.618 178.083 116.649 176.87 116.649H156.512C155.3 116.649 154.316 115.68 154.316 114.485V105.479C154.316 104.283 155.3 103.314 156.513 103.314H221.488C223.111 103.314 224.175 104.988 223.462 106.426L219.012 115.433C218.826 115.801 218.543 116.11 218.194 116.325C217.845 116.54 217.445 116.652 217.037 116.649H199.44C198.227 116.649 197.244 117.618 197.244 118.814V157.523C197.244 158.718 196.259 159.686 195.046 159.686H181.265V159.687ZM260.073 136.652C261.721 136.652 262.782 134.931 262.023 133.491L254.543 119.292C253.715 117.721 251.427 117.741 250.626 119.326L243.456 133.524C242.73 134.963 243.792 136.652 245.423 136.652H260.073V136.652ZM277.091 159.687C276.692 159.689 276.3 159.581 275.956 159.375C275.612 159.169 275.331 158.872 275.14 158.517L270.955 150.551C270.764 150.195 270.482 149.899 270.138 149.693C269.795 149.488 269.403 149.38 269.004 149.383H236.91C236.029 149.383 235.234 149.9 234.888 150.699L231.576 158.369C231.401 158.764 231.117 159.099 230.758 159.333C230.399 159.567 229.981 159.69 229.554 159.687H216.217C214.587 159.687 213.524 157.999 214.248 156.561L240.421 104.518C240.791 103.781 241.555 103.314 242.39 103.314H263.072C263.881 103.314 264.624 103.751 265.007 104.454L293.426 156.497C294.215 157.938 293.154 159.687 291.492 159.687H277.09H277.091ZM299.068 157.523C299.068 158.718 300.052 159.686 301.265 159.686H348.802C364.684 159.686 372.624 154.282 372.624 143.471V142.411C372.624 140.088 372.185 138.017 371.309 136.198C370.432 134.379 369.272 132.965 367.828 131.955C366.385 130.894 365.07 130.086 363.884 129.53C363.576 129.385 363.264 129.249 362.949 129.12C362.223 128.824 362.183 127.542 362.878 127.182C363.755 126.727 364.736 126.095 365.819 125.287C366.902 124.428 367.752 123.317 368.37 121.953C369.042 120.539 369.376 118.973 369.376 117.254V116.195C369.376 112.406 367.778 109.326 364.581 106.95C361.384 104.527 355.969 103.314 348.337 103.314H301.265C300.052 103.314 299.068 104.283 299.068 105.479V157.523V157.523ZM319.288 115.209H345.243C349.42 115.209 351.508 116.7 351.508 119.68V119.832C351.508 122.862 349.42 124.378 345.243 124.378H319.287C318.073 124.378 317.089 123.409 317.089 122.213V117.375C317.089 116.18 318.073 115.209 319.287 115.209H319.288ZM319.288 136.349H346.791C351.534 136.349 353.906 138.093 353.906 141.577V141.881C353.906 143.345 353.39 144.634 352.359 145.746C351.328 146.857 349.472 147.411 346.791 147.411H319.287C318.073 147.411 317.089 146.442 317.089 145.247V138.514C317.089 137.318 318.073 136.349 319.287 136.349H319.288ZM379.843 105.479C379.843 104.283 380.827 103.314 382.039 103.314H395.67C396.881 103.314 397.864 104.283 397.864 105.479V143.505C397.864 144.7 398.849 145.669 400.061 145.669H433.457C434.673 145.669 435.657 146.638 435.657 147.834V157.523C435.657 158.718 434.673 159.686 433.457 159.686H382.039C380.827 159.686 379.843 158.717 379.843 157.523V105.479V105.479ZM446.698 103.314C445.482 103.314 444.498 104.283 444.498 105.479V157.523C444.498 158.718 445.482 159.686 446.698 159.686H503.714C504.928 159.686 505.911 158.717 505.911 157.523V148.743C505.911 147.548 504.928 146.579 503.714 146.579H464.487C463.271 146.579 462.288 145.61 462.288 144.414V139.499C462.288 138.304 463.271 137.335 464.487 137.335H501.938C503.15 137.335 504.133 136.366 504.133 135.17V126.618C504.133 125.422 503.15 124.454 501.938 124.454H464.487C463.271 124.454 462.288 123.484 462.288 122.29V118.283C462.288 117.087 463.271 116.118 464.487 116.118H502.943C504.155 116.118 505.137 115.149 505.137 113.954V105.479C505.137 104.283 504.155 103.314 502.943 103.314H446.695H446.698ZM514.117 105.479C514.117 104.283 515.101 103.314 516.316 103.314H529.942C531.158 103.314 532.141 104.283 532.141 105.479V143.505C532.141 144.7 533.125 145.669 534.337 145.669H567.123C568.753 145.669 569.813 147.356 569.091 148.795L564.214 158.485C564.027 158.849 563.744 159.154 563.397 159.366C563.05 159.578 562.652 159.689 562.247 159.687H516.316C515.1 159.687 514.117 158.717 514.117 157.523V105.479V105.479ZM622.142 133.491C622.903 134.931 621.841 136.652 620.192 136.652H605.544C603.912 136.652 602.853 134.963 603.577 133.524L610.746 119.326C611.547 117.741 613.833 117.721 614.663 119.292L622.141 133.491H622.142ZM635.262 158.517C635.639 159.235 636.39 159.687 637.213 159.687H651.611C653.272 159.687 654.334 157.938 653.547 156.497L625.13 104.453C624.936 104.105 624.655 103.816 624.315 103.616C623.974 103.415 623.587 103.311 623.194 103.313H602.495C601.67 103.313 600.911 103.772 600.539 104.497L573.69 156.541C572.945 157.981 574.005 159.687 575.646 159.687H589.034C589.87 159.687 590.633 159.22 591.001 158.483L594.974 150.587C595.344 149.848 596.109 149.381 596.941 149.381H629.127C629.945 149.381 630.701 149.833 631.076 150.551L635.263 158.517H635.262ZM658.454 105.479C658.454 104.283 659.439 103.314 660.653 103.314H677.67C678.243 103.314 678.797 103.537 679.205 103.933L711.572 135.17C712.961 136.512 715.306 135.541 715.306 133.623V105.479C715.306 104.283 716.291 103.314 717.502 103.314H730.896C732.113 103.314 733.096 104.283 733.096 105.479V157.523C733.096 158.718 732.113 159.686 730.897 159.686H716.196C715.627 159.686 715.075 159.468 714.667 159.074L679.974 125.897C678.58 124.566 676.247 125.539 676.247 127.452V157.523C676.247 158.718 675.264 159.689 674.048 159.689H660.655C659.439 159.689 658.454 158.718 658.454 157.524V105.479V105.479ZM741.921 157.523C741.921 158.718 742.904 159.686 744.117 159.686H778.666C785.112 159.686 790.809 159.106 795.759 157.944C800.708 156.782 804.626 155.316 807.513 153.549C810.4 151.781 812.747 149.634 814.553 147.108C816.412 144.584 817.648 142.159 818.267 139.835C818.883 137.46 819.193 134.935 819.193 132.258V129.985C819.193 127.712 818.937 125.59 818.421 123.62C817.957 121.6 817.185 119.554 816.099 117.482C815.016 115.411 813.446 113.569 811.381 111.952C809.319 110.284 806.846 108.795 803.959 107.481C801.07 106.118 797.461 105.081 793.129 104.375C788.797 103.667 783.949 103.314 778.588 103.314H744.117C742.904 103.314 741.921 104.283 741.921 105.479V157.523V157.523ZM759.942 118.814C759.942 117.618 760.925 116.649 762.141 116.649H778.659C794.076 116.649 801.787 121.474 801.787 131.122V131.577C801.787 141.275 794.076 146.124 778.659 146.124H762.14C760.925 146.124 759.942 145.155 759.942 143.959V118.814V118.814Z" clip-rule="evenodd" fill-rule="evenodd"></path>
</g>
<defs>
<clipPath id="clip0_4826_5">
<rect transform="translate(29 103)" fill="white" height="57" width="791"></rect>
</clipPath>
</defs>
</svg>
