<svg xmlns="http://www.w3.org/2000/svg" fill="none" viewBox="0 0 850 263" height="263" width="850">
<path fill="white" d="M302.716 137.427C300.304 134.693 297.168 132.441 293.79 131.074C290.171 129.626 286.231 128.742 282.29 128.903C277.948 128.903 273.525 129.546 269.424 131.235C261.623 134.049 255.27 140 251.973 147.72C248.595 156.084 248.595 165.412 251.973 173.776C255.19 181.496 261.543 187.447 269.424 190.1C273.444 191.548 277.948 192.432 282.29 192.432C287.035 192.432 291.619 191.467 295.961 189.618C300.545 187.607 304.727 184.31 307.863 180.289L297.087 172.087C295.157 174.419 292.906 176.429 290.332 177.877C287.518 179.485 284.14 180.45 280.843 180.289C276.822 180.45 273.042 179.083 269.906 176.51C266.77 173.776 264.92 169.996 264.599 165.975H310.839V161.793C310.999 157.049 310.195 152.304 308.828 147.72C307.3 143.941 305.37 140.402 302.716 137.427ZM264.438 154.636C264.84 150.696 266.609 147.077 269.263 144.262C272.238 141.528 276.018 140.241 280.039 140.322C284.06 140.081 288.161 141.367 291.217 144.101C294.031 146.916 295.559 150.696 295.398 154.636C295.559 154.636 264.438 154.636 264.438 154.636ZM372.439 136.06C370.509 133.728 368.257 132.039 365.523 130.752C362.306 129.305 358.768 128.581 355.229 128.742C351.047 128.5 346.705 129.707 343.167 132.119C340.352 134.13 338.181 136.864 336.653 139.92H336.411V130.189H322.178V190.583H337.296V157.772C337.296 155.842 337.537 153.832 338.1 151.982C338.663 150.213 339.467 148.444 340.513 147.157C341.719 145.71 343.086 144.584 344.855 143.78C346.866 142.815 349.037 142.413 351.208 142.574C353.38 142.413 355.551 143.136 357.4 144.504C358.848 145.71 359.974 147.238 360.778 148.927C361.421 150.857 361.984 152.706 362.145 154.717C362.306 156.727 362.386 158.657 362.386 160.265V190.824H377.505V152.545C377.505 149.57 377.103 146.434 376.459 143.619C375.414 140.965 374.208 138.392 372.439 136.06ZM412.406 112.819H397.288V130.27H384.823V143.217H397.288V170.881C397.288 174.017 397.529 177.073 398.092 180.209C398.494 182.621 399.539 184.954 401.067 186.964C402.676 188.894 404.686 190.181 407.179 190.985C410.396 191.95 413.693 192.352 417.07 192.352C419.081 192.352 421.091 192.191 423.182 191.95C425.192 191.709 427.203 191.307 428.972 190.342V177.636C427.927 178.44 426.56 178.842 425.192 179.083C423.745 179.324 422.217 179.485 420.77 179.485C418.196 179.887 415.623 178.842 414.014 176.751C412.808 174.58 412.084 172.006 412.245 169.594V143.136H428.892V130.27H412.406V112.819ZM471.593 128.822C467.814 128.661 464.195 129.787 460.898 131.637C457.762 133.647 455.188 136.462 453.741 139.839H453.499V130.27H438.461V190.663H453.58V158.335C453.58 157.129 453.821 155.762 454.143 154.556C454.545 152.787 455.349 151.178 456.475 149.731C457.842 147.801 459.45 146.353 461.3 145.308C463.873 143.941 466.849 143.136 469.824 143.297C471.031 143.297 472.237 143.458 473.443 143.539C474.649 143.699 475.856 144.101 477.062 144.343V129.787C476.097 129.546 475.293 129.385 474.328 129.144C473.363 128.903 472.558 128.903 471.593 128.822ZM485.023 130.27H500.142V190.663H485.023V130.27ZM492.422 100.837C489.848 100.676 487.436 101.802 485.506 103.571C483.736 105.179 482.771 107.511 482.771 109.924C482.771 112.337 483.736 114.669 485.506 116.277C487.275 118.046 489.848 119.092 492.422 119.011C494.995 119.011 497.568 118.046 499.418 116.438C501.187 114.829 502.233 112.417 502.233 109.924C502.233 107.431 501.187 105.099 499.418 103.41C497.568 101.641 494.995 100.676 492.422 100.837ZM531.505 96.0922C528.69 97.2984 526.358 99.2284 524.589 101.641C522.819 104.375 521.774 107.351 521.211 110.406C520.568 114.186 520.246 117.966 520.246 121.745V130.27H507.781V143.217H520.246V190.744H535.365V143.217H549.277V130.35H535.365V119.333C535.365 117.724 535.525 116.116 535.606 114.588C535.767 113.221 536.249 111.854 536.973 110.648C537.616 109.602 538.742 108.637 539.948 107.914C541.396 107.27 543.165 106.868 544.773 106.949C545.819 106.949 546.945 107.109 547.91 107.19C548.875 107.351 549.92 107.592 551.046 107.833L552.011 94.9663C548.875 94.4034 545.658 94.0013 542.441 94.0013C538.903 93.9209 535.123 94.6446 531.505 96.0922ZM596.723 163.402C596.723 165.332 596.482 167.342 595.919 169.192C595.517 170.961 594.552 172.73 593.507 174.017C592.3 175.464 590.933 176.59 589.164 177.394C587.154 178.359 584.982 178.761 582.811 178.601C580.64 178.761 578.388 178.038 576.619 176.831C575.171 175.625 574.045 174.097 573.402 172.408C572.759 170.478 572.196 168.629 572.035 166.618C571.874 164.608 571.794 162.678 571.794 161.07V130.43H556.675V168.548C556.675 171.524 557.077 174.66 557.721 177.475C558.364 180.289 559.731 182.863 561.5 185.034C563.43 187.366 565.682 189.055 568.416 190.342C571.633 191.709 575.171 192.352 578.71 192.272C582.891 192.513 587.234 191.307 590.772 188.894C593.587 186.884 595.758 184.149 597.367 181.094H597.608V190.824H611.922V130.591H596.804L596.723 163.402ZM674.326 139.437H674.085C672.074 135.899 668.938 133.084 665.319 131.315C661.54 129.707 657.519 128.742 653.257 128.903C648.914 128.742 644.732 129.707 640.712 131.315C637.173 132.923 633.957 135.256 631.383 138.07C628.649 141.046 626.799 144.423 625.432 148.203C624.065 152.224 623.422 156.405 623.422 160.667C623.422 164.849 624.065 168.87 625.593 172.73C626.96 176.349 628.971 179.726 631.705 182.621C634.439 185.517 637.656 187.607 641.194 189.216C645.135 190.824 649.316 191.789 653.498 191.628C657.278 191.628 661.057 190.824 664.596 189.457C668.134 188.09 671.109 185.838 673.281 182.863H673.522V187.286C673.522 190.1 673.281 192.835 672.557 195.488C671.994 197.82 670.949 199.911 669.421 201.841C667.812 203.771 665.802 205.058 663.47 206.023C660.494 207.068 657.519 207.631 654.383 207.471C650.442 207.631 646.663 206.827 643.044 205.138C639.505 203.53 636.449 201.359 633.554 198.785L624.467 211.089C628.488 214.708 633.233 217.442 638.38 218.89C643.526 220.337 648.914 221.061 654.302 221.061C659.449 221.222 664.676 220.418 669.582 218.649C673.602 217.201 677.302 214.708 680.277 211.491C683.092 208.275 685.263 204.495 686.469 200.313C687.836 195.569 688.48 190.583 688.48 185.597V130.35H674.165L674.326 139.437ZM672.959 167.181C672.155 169.192 670.949 171.122 669.34 172.73C667.732 174.338 665.802 175.545 663.631 176.349C661.218 177.314 658.806 177.796 656.232 177.716C653.82 177.716 651.407 177.314 649.236 176.349C647.065 175.545 645.215 174.178 643.526 172.569C640.31 169.353 638.38 164.849 638.54 160.265C638.54 157.692 638.942 155.28 639.907 152.867C641.516 148.524 644.893 145.147 649.075 143.539C651.407 142.574 653.9 142.171 656.473 142.171C661.299 141.93 666.043 143.619 669.582 146.996C672.959 150.374 674.728 155.119 674.407 159.863C674.407 162.598 673.924 165.01 672.959 167.181ZM760.534 161.633C760.695 156.888 759.89 152.143 758.523 147.559C757.317 143.78 755.307 140.241 752.733 137.266C750.321 134.532 747.185 132.28 743.807 130.913C740.188 129.465 736.248 128.581 732.307 128.742C727.965 128.742 723.542 129.385 719.44 131.074C715.5 132.521 712.042 134.693 709.067 137.427C706.091 140.241 703.679 143.619 702.07 147.399C698.693 155.762 698.693 165.09 702.07 173.454C705.287 181.174 711.64 187.125 719.521 189.779C723.542 191.226 728.045 192.111 732.388 192.111C737.132 192.111 741.716 191.146 746.059 189.296C750.803 187.286 754.824 183.989 757.96 179.968L747.185 171.765C745.254 174.097 743.003 176.108 740.429 177.555C737.615 179.164 734.237 180.129 730.94 179.968C727 180.129 723.14 178.761 720.003 176.188C716.867 173.454 715.017 169.674 714.696 165.653H760.775L760.534 161.633ZM714.455 154.475C714.857 150.535 716.626 146.916 719.28 144.101C722.255 141.367 726.035 140.081 730.056 140.161C734.076 139.92 738.178 141.206 741.234 143.941C744.048 146.755 745.576 150.535 745.415 154.475C745.496 154.475 714.455 154.475 714.455 154.475ZM245.781 114.347C236.211 104.456 222.942 98.6655 209.191 98.5047C186.593 98.5047 166.891 113.382 160.779 135.014C154.587 156.647 163.594 179.726 182.814 191.467C202.034 203.208 226.561 200.957 243.207 185.677L245.781 183.265L235.889 170.398L232.753 173.373C219.082 186.321 197.45 185.838 184.503 172.167C171.555 158.496 171.957 137.025 185.468 123.917C198.978 110.809 220.61 111.211 233.718 124.721L235.889 127.053L248.435 116.92L245.781 114.347ZM216.911 63.6839C169.867 59.3413 128.13 93.9209 123.787 140.965C119.445 188.009 154.024 229.746 201.069 234.089C203.079 234.25 205.09 234.33 207.02 234.33L207.663 218.89C205.894 218.89 204.125 218.89 202.355 218.649C170.59 215.673 144.776 191.789 139.63 160.426C134.483 129.063 150.968 98.0222 179.999 84.9141C209.03 71.806 243.207 79.9282 263.392 104.777L275.294 95.0467C260.819 77.3549 239.75 66.0964 216.911 63.6839ZM279.154 51.7821C235.005 19.8563 175.013 21.6255 132.875 56.205C90.7357 90.7846 77.2256 149.329 99.9033 198.866L113.976 192.513C91.942 144.745 108.91 87.97 153.703 60.1455C198.495 32.321 256.798 42.2124 290.011 82.9841L292.745 81.0541L302.073 73.4948C295.398 65.2922 287.678 57.9742 279.154 51.7821Z"></path>
</svg>
