<svg xmlns="http://www.w3.org/2000/svg" fill="none" viewBox="0 0 850 263" height="263" width="850">
<path fill="white" d="M198.859 113.938C198.463 110.428 196.831 107.709 193.963 105.781C191.094 103.828 187.484 102.852 183.132 102.852C180.016 102.852 177.321 103.346 175.046 104.335C172.771 105.299 171.003 106.634 169.742 108.339C168.506 110.02 167.888 111.936 167.888 114.086C167.888 115.89 168.308 117.447 169.149 118.757C170.014 120.067 171.139 121.167 172.524 122.057C173.934 122.922 175.442 123.651 177.049 124.245C178.656 124.813 180.202 125.283 181.686 125.654L189.104 127.582C191.527 128.175 194.012 128.978 196.559 129.991C199.106 131.005 201.467 132.34 203.643 133.996C205.819 135.652 207.575 137.703 208.91 140.15C210.27 142.597 210.95 145.526 210.95 148.937C210.95 153.238 209.837 157.057 207.612 160.394C205.411 163.73 202.209 166.363 198.006 168.291C193.827 170.219 188.77 171.183 182.835 171.183C177.148 171.183 172.227 170.28 168.073 168.476C163.919 166.672 160.667 164.113 158.318 160.801C155.969 157.465 154.671 153.51 154.424 148.937H165.922C166.145 151.681 167.035 153.967 168.593 155.796C170.175 157.601 172.19 158.948 174.638 159.837C177.111 160.703 179.819 161.135 182.761 161.135C186 161.135 188.881 160.628 191.403 159.615C193.95 158.577 195.953 157.143 197.412 155.314C198.871 153.46 199.6 151.298 199.6 148.826C199.6 146.577 198.958 144.735 197.672 143.302C196.411 141.868 194.692 140.682 192.516 139.742C190.365 138.803 187.929 137.975 185.209 137.258L176.233 134.811C170.15 133.155 165.329 130.721 161.768 127.507C158.232 124.294 156.464 120.043 156.464 114.753C156.464 110.378 157.651 106.56 160.025 103.297C162.398 100.034 165.613 97.5007 169.668 95.6964C173.723 93.8673 178.298 92.9528 183.392 92.9528C188.535 92.9528 193.072 93.8549 197.004 95.6593C200.96 97.4637 204.076 99.9477 206.351 103.112C208.626 106.251 209.813 109.859 209.912 113.938H198.859Z"></path>
<path fill="white" d="M259.845 146.305V112.974H270.972V169.922H260.068V160.06H259.474C258.164 163.1 256.062 165.634 253.169 167.66C250.3 169.662 246.727 170.664 242.45 170.664C238.79 170.664 235.551 169.86 232.732 168.254C229.938 166.622 227.737 164.212 226.13 161.024C224.547 157.835 223.756 153.893 223.756 149.197V112.974H234.846V147.862C234.846 151.743 235.922 154.832 238.073 157.131C240.224 159.43 243.018 160.579 246.455 160.579C248.532 160.579 250.597 160.06 252.65 159.022C254.727 157.984 256.445 156.414 257.805 154.313C259.19 152.212 259.87 149.543 259.845 146.305Z"></path>
<path fill="white" d="M286.764 169.922V93.9909H297.854V122.206H298.522C299.164 121.019 300.092 119.647 301.303 118.09C302.515 116.533 304.196 115.173 306.348 114.012C308.499 112.825 311.343 112.232 314.879 112.232C319.478 112.232 323.583 113.394 327.193 115.717C330.803 118.041 333.634 121.39 335.687 125.765C337.764 130.14 338.802 135.404 338.802 141.559C338.802 147.714 337.776 152.991 335.724 157.39C333.671 161.765 330.852 165.139 327.267 167.512C323.681 169.86 319.589 171.034 314.99 171.034C311.528 171.034 308.697 170.453 306.496 169.292C304.32 168.13 302.614 166.771 301.378 165.213C300.141 163.656 299.189 162.272 298.522 161.061H297.594V169.922H286.764ZM297.631 141.448C297.631 145.452 298.212 148.962 299.375 151.977C300.537 154.993 302.218 157.353 304.419 159.059C306.62 160.74 309.315 161.58 312.505 161.58C315.818 161.58 318.588 160.703 320.813 158.948C323.039 157.168 324.72 154.758 325.857 151.718C327.02 148.678 327.601 145.254 327.601 141.448C327.601 137.691 327.032 134.317 325.895 131.326C324.782 128.335 323.1 125.975 320.85 124.245C318.625 122.514 315.843 121.649 312.505 121.649C309.29 121.649 306.57 122.477 304.345 124.133C302.144 125.79 300.475 128.101 299.338 131.067C298.2 134.033 297.631 137.493 297.631 141.448Z"></path>
<path fill="white" d="M375.253 171.071C369.739 171.071 364.991 169.823 361.01 167.327C357.054 164.806 354.012 161.333 351.886 156.908C349.759 152.484 348.696 147.417 348.696 141.707C348.696 135.924 349.784 130.819 351.96 126.395C354.136 121.946 357.202 118.473 361.159 115.977C365.115 113.48 369.776 112.232 375.142 112.232C379.469 112.232 383.327 113.035 386.714 114.642C390.102 116.224 392.834 118.449 394.911 121.316C397.013 124.183 398.262 127.532 398.657 131.363H387.864C387.271 128.694 385.911 126.395 383.784 124.467C381.682 122.539 378.863 121.575 375.327 121.575C372.236 121.575 369.529 122.391 367.204 124.022C364.905 125.629 363.112 127.928 361.826 130.918C360.54 133.884 359.898 137.394 359.898 141.448C359.898 145.6 360.528 149.184 361.789 152.2C363.05 155.215 364.831 157.551 367.13 159.207C369.455 160.863 372.187 161.691 375.327 161.691C377.429 161.691 379.333 161.308 381.039 160.542C382.77 159.751 384.217 158.626 385.379 157.168C386.566 155.71 387.394 153.955 387.864 151.903H398.657C398.262 155.586 397.063 158.873 395.06 161.765C393.057 164.657 390.374 166.931 387.011 168.587C383.673 170.243 379.754 171.071 375.253 171.071Z"></path>
<path fill="white" d="M434.515 171.071C429.174 171.071 424.513 169.848 420.532 167.401C416.551 164.954 413.46 161.531 411.259 157.131C409.058 152.731 407.958 147.59 407.958 141.707C407.958 135.8 409.058 130.634 411.259 126.21C413.46 121.785 416.551 118.35 420.532 115.903C424.513 113.456 429.174 112.232 434.515 112.232C439.856 112.232 444.517 113.456 448.498 115.903C452.479 118.35 455.57 121.785 457.771 126.21C459.972 130.634 461.072 135.8 461.072 141.707C461.072 147.59 459.972 152.731 457.771 157.131C455.57 161.531 452.479 164.954 448.498 167.401C444.517 169.848 439.856 171.071 434.515 171.071ZM434.552 161.765C438.014 161.765 440.882 160.851 443.157 159.022C445.432 157.193 447.113 154.758 448.201 151.718C449.314 148.678 449.871 145.328 449.871 141.67C449.871 138.037 449.314 134.7 448.201 131.66C447.113 128.595 445.432 126.136 443.157 124.282C440.882 122.428 438.014 121.501 434.552 121.501C431.066 121.501 428.172 122.428 425.873 124.282C423.598 126.136 421.904 128.595 420.791 131.66C419.703 134.7 419.159 138.037 419.159 141.67C419.159 145.328 419.703 148.678 420.791 151.718C421.904 154.758 423.598 157.193 425.873 159.022C428.172 160.851 431.066 161.765 434.552 161.765Z"></path>
<path fill="white" d="M484.541 136.109V169.922H473.451V112.974H484.096V122.243H484.801C486.111 119.227 488.164 116.805 490.958 114.976C493.777 113.147 497.325 112.232 501.603 112.232C505.485 112.232 508.885 113.048 511.803 114.679C514.721 116.286 516.983 118.683 518.591 121.872C520.198 125.06 521.001 129.003 521.001 133.699V169.922H509.911V135.034C509.911 130.906 508.836 127.68 506.684 125.357C504.533 123.009 501.578 121.835 497.82 121.835C495.248 121.835 492.961 122.391 490.958 123.503C488.98 124.615 487.41 126.247 486.247 128.397C485.11 130.523 484.541 133.093 484.541 136.109Z"></path>
<path fill="white" d="M578.566 126.877L568.515 128.657C568.094 127.371 567.427 126.148 566.512 124.986C565.622 123.825 564.41 122.873 562.877 122.131C561.344 121.39 559.427 121.019 557.128 121.019C553.988 121.019 551.366 121.724 549.265 123.132C547.163 124.517 546.112 126.309 546.112 128.508C546.112 130.412 546.817 131.944 548.226 133.106C549.636 134.268 551.91 135.219 555.051 135.961L564.101 138.037C569.343 139.248 573.25 141.114 575.822 143.635C578.393 146.156 579.679 149.431 579.679 153.46C579.679 156.871 578.69 159.912 576.712 162.581C574.758 165.226 572.026 167.302 568.515 168.81C565.028 170.317 560.985 171.071 556.386 171.071C550.006 171.071 544.801 169.712 540.771 166.993C536.74 164.249 534.268 160.356 533.353 155.314L544.072 153.683C544.74 156.476 546.112 158.589 548.189 160.023C550.266 161.432 552.974 162.136 556.312 162.136C559.947 162.136 562.852 161.382 565.028 159.874C567.204 158.342 568.292 156.476 568.292 154.276C568.292 152.496 567.625 151.001 566.289 149.79C564.979 148.579 562.963 147.664 560.243 147.046L550.6 144.933C545.284 143.722 541.352 141.794 538.805 139.149C536.283 136.504 535.022 133.155 535.022 129.102C535.022 125.74 535.961 122.799 537.841 120.278C539.72 117.756 542.316 115.791 545.63 114.383C548.943 112.949 552.739 112.232 557.017 112.232C563.174 112.232 568.02 113.567 571.556 116.236C575.092 118.881 577.429 122.428 578.566 126.877Z"></path>
<path fill="white" d="M615.87 171.071C610.356 171.071 605.609 169.823 601.628 167.327C597.671 164.806 594.63 161.333 592.503 156.908C590.377 152.484 589.313 147.417 589.313 141.707C589.313 135.924 590.401 130.819 592.577 126.395C594.753 121.946 597.82 118.473 601.776 115.977C605.732 113.48 610.393 112.232 615.759 112.232C620.086 112.232 623.944 113.035 627.331 114.642C630.719 116.224 633.451 118.449 635.529 121.316C637.63 124.183 638.879 127.532 639.275 131.363H628.481C627.888 128.694 626.528 126.395 624.401 124.467C622.299 122.539 619.481 121.575 615.945 121.575C612.854 121.575 610.146 122.391 607.822 124.022C605.522 125.629 603.729 127.928 602.444 130.918C601.158 133.884 600.515 137.394 600.515 141.448C600.515 145.6 601.145 149.184 602.406 152.2C603.668 155.215 605.448 157.551 607.748 159.207C610.072 160.863 612.804 161.691 615.945 161.691C618.046 161.691 619.95 161.308 621.657 160.542C623.387 159.751 624.834 158.626 625.996 157.168C627.183 155.71 628.011 153.955 628.481 151.903H639.275C638.879 155.586 637.68 158.873 635.677 161.765C633.674 164.657 630.991 166.931 627.628 168.587C624.29 170.243 620.371 171.071 615.87 171.071Z"></path>
<path fill="white" d="M651.134 169.922V112.974H662.225V169.922H651.134ZM656.735 104.187C654.806 104.187 653.15 103.544 651.765 102.259C650.405 100.949 649.725 99.3916 649.725 97.5872C649.725 95.7582 650.405 94.201 651.765 92.9157C653.15 91.6057 654.806 90.9507 656.735 90.9507C658.664 90.9507 660.308 91.6057 661.668 92.9157C663.053 94.201 663.745 95.7582 663.745 97.5872C663.745 99.3916 663.053 100.949 661.668 102.259C660.308 103.544 658.664 104.187 656.735 104.187Z"></path>
<path fill="white" d="M701.142 171.071C695.801 171.071 691.14 169.848 687.159 167.401C683.178 164.954 680.087 161.531 677.886 157.131C675.686 152.731 674.585 147.59 674.585 141.707C674.585 135.8 675.686 130.634 677.886 126.21C680.087 121.785 683.178 118.35 687.159 115.903C691.14 113.456 695.801 112.232 701.142 112.232C706.483 112.232 711.144 113.456 715.125 115.903C719.106 118.35 722.197 121.785 724.398 126.21C726.599 130.634 727.699 135.8 727.699 141.707C727.699 147.59 726.599 152.731 724.398 157.131C722.197 161.531 719.106 164.954 715.125 167.401C711.144 169.848 706.483 171.071 701.142 171.071ZM701.179 161.765C704.641 161.765 707.509 160.851 709.784 159.022C712.059 157.193 713.741 154.758 714.829 151.718C715.941 148.678 716.498 145.328 716.498 141.67C716.498 138.037 715.941 134.7 714.829 131.66C713.741 128.595 712.059 126.136 709.784 124.282C707.509 122.428 704.641 121.501 701.179 121.501C697.693 121.501 694.8 122.428 692.5 124.282C690.225 126.136 688.531 128.595 687.419 131.66C686.331 134.7 685.787 138.037 685.787 141.67C685.787 145.328 686.331 148.678 687.419 151.718C688.531 154.758 690.225 157.193 692.5 159.022C694.8 160.851 697.693 161.765 701.179 161.765Z"></path>
<path fill="white" d="M776.168 146.305V112.974H787.295V169.922H776.39V160.06H775.797C774.486 163.1 772.384 165.634 769.491 167.66C766.623 169.662 763.05 170.664 758.772 170.664C755.112 170.664 751.873 169.86 749.054 168.254C746.26 166.622 744.059 164.212 742.452 161.024C740.869 157.835 740.078 153.893 740.078 149.197V112.974H751.168V147.862C751.168 151.743 752.244 154.832 754.395 157.131C756.547 159.43 759.341 160.579 762.778 160.579C764.855 160.579 766.92 160.06 768.972 159.022C771.049 157.984 772.768 156.414 774.128 154.313C775.512 152.212 776.192 149.543 776.168 146.305Z"></path>
<path fill="white" d="M844.888 126.877L834.836 128.657C834.416 127.371 833.748 126.148 832.833 124.986C831.943 123.825 830.731 122.873 829.198 122.131C827.665 121.39 825.749 121.019 823.449 121.019C820.309 121.019 817.688 121.724 815.586 123.132C813.484 124.517 812.433 126.309 812.433 128.508C812.433 130.412 813.138 131.944 814.547 133.106C815.957 134.268 818.232 135.219 821.372 135.961L830.422 138.037C835.664 139.248 839.571 141.114 842.143 143.635C844.714 146.156 846 149.431 846 153.46C846 156.871 845.011 159.912 843.033 162.581C841.08 165.226 838.347 167.302 834.836 168.81C831.349 170.317 827.307 171.071 822.707 171.071C816.328 171.071 811.123 169.712 807.092 166.993C803.061 164.249 800.589 160.356 799.674 155.314L810.393 153.683C811.061 156.476 812.433 158.589 814.51 160.023C816.587 161.432 819.295 162.136 822.633 162.136C826.268 162.136 829.173 161.382 831.349 159.874C833.525 158.342 834.613 156.476 834.613 154.276C834.613 152.496 833.946 151.001 832.61 149.79C831.3 148.579 829.285 147.664 826.565 147.046L816.921 144.933C811.605 143.722 807.673 141.794 805.126 139.149C802.604 136.504 801.343 133.155 801.343 129.102C801.343 125.74 802.283 122.799 804.162 120.278C806.041 117.756 808.637 115.791 811.951 114.383C815.264 112.949 819.06 112.232 823.338 112.232C829.495 112.232 834.341 113.567 837.877 116.236C841.413 118.881 843.75 122.428 844.888 126.877Z"></path>
<g clip-path="url(#clip0_5472_136)">
<path fill="white" d="M117.133 99.7775C117.133 85.5505 105.582 74 91.3552 74H28.7775C14.5505 74 3 85.5505 3 99.7775V162.355C3 176.582 14.5505 188.133 28.7775 188.133H91.3552C105.582 188.133 117.133 176.582 117.133 162.355V99.7775Z" clip-rule="evenodd" fill-rule="evenodd"></path>
<path fill="url(#paint0_radial_5472_136)" d="M10.4678 131.066C10.4678 158.459 32.6735 180.665 60.0665 180.665C87.4594 180.665 109.665 158.459 109.665 131.066C109.665 103.673 87.4594 81.4678 60.0665 81.4678C32.6735 81.4678 10.4678 103.673 10.4678 131.066ZM60.1824 131.066C82.3758 131.066 84.868 128.464 84.868 106.269C84.868 128.464 87.3591 131.066 109.554 131.066C87.3591 131.066 84.868 133.67 84.868 155.864C84.868 133.67 82.3758 131.066 60.1824 131.066ZM35.2671 121.875C42.0593 121.875 44.4624 124.278 44.4624 131.07C44.4624 137.862 42.0593 140.265 35.2671 140.265C28.4749 140.265 26.0719 137.862 26.0719 131.07C26.0719 124.278 28.4749 121.875 35.2671 121.875ZM60.0665 81.5792C60.0665 103.775 62.6701 106.267 84.8658 106.267C62.6701 106.267 60.0665 108.87 60.0665 131.066C60.0665 108.87 57.4628 106.267 35.2671 106.267C57.4628 106.267 60.0665 103.775 60.0665 81.5792Z"></path>
</g>
<defs>
<radialGradient gradientTransform="translate(10.4678 131.066) scale(106.665)" gradientUnits="userSpaceOnUse" r="1" cy="0" cx="0" id="paint0_radial_5472_136">
<stop></stop>
<stop offset="0.54"></stop>
<stop offset="1"></stop>
</radialGradient>
<clipPath id="clip0_5472_136">
<rect transform="translate(3 74)" fill="white" height="114.133" width="114.133"></rect>
</clipPath>
</defs>
</svg>
