<svg xmlns="http://www.w3.org/2000/svg" fill="none" viewBox="0 0 405 232" height="232" width="405">
<path fill="white" d="M405 111.188H312.916C311.909 111.22 310.917 110.941 310.073 110.39C309.229 109.838 308.574 109.041 308.196 108.104C307.818 107.168 307.735 106.138 307.959 105.153C308.182 104.168 308.702 103.275 309.446 102.596L374.548 37.2488L367.738 30.4179L302.594 95.7216C301.916 96.4688 301.026 96.9894 300.044 97.2137C299.062 97.4379 298.035 97.3548 297.102 96.9756C296.168 96.5963 295.373 95.9393 294.823 95.0928C294.274 94.2463 293.996 93.2511 294.028 92.2413V0H284.434V92.3704C284.465 93.3801 284.187 94.3753 283.638 95.2218C283.088 96.0683 282.293 96.7254 281.36 97.1046C280.426 97.4838 279.399 97.5669 278.417 97.3427C277.435 97.1184 276.546 96.5975 275.868 95.8504L210.723 30.5466L203.913 37.3778L269.015 102.724C269.76 103.404 270.279 104.297 270.503 105.282C270.726 106.267 270.643 107.297 270.265 108.233C269.887 109.17 269.232 109.967 268.388 110.519C267.544 111.07 266.552 111.349 265.546 111.317H0V120.941H265.546C266.552 120.909 267.544 121.188 268.388 121.739C269.232 122.29 269.887 123.088 270.265 124.024C270.643 124.961 270.726 125.991 270.503 126.976C270.279 127.961 269.76 128.854 269.015 129.533L203.913 194.88L210.723 201.711L275.868 136.407C276.546 135.66 277.435 135.139 278.417 134.915C279.399 134.691 280.426 134.774 281.36 135.153C282.293 135.532 283.088 136.189 283.638 137.036C284.187 137.882 284.465 138.878 284.434 139.887V232H294.028V139.63C293.996 138.62 294.274 137.625 294.823 136.778C295.373 135.932 296.168 135.275 297.102 134.895C298.035 134.516 299.062 134.433 300.044 134.657C301.026 134.882 301.916 135.402 302.594 136.15L367.738 201.453L374.548 194.622L309.446 129.276C308.702 128.596 308.182 127.703 307.959 126.718C307.735 125.733 307.818 124.703 308.196 123.767C308.574 122.83 309.229 122.033 310.073 121.481C310.917 120.93 311.909 120.651 312.916 120.683H405V111.188Z"></path>
</svg>
