<svg xmlns="http://www.w3.org/2000/svg" fill="none" viewBox="0 0 850 263" height="263" width="850">
<path fill="white" d="M509.39 186.069C496.355 186.069 486.508 175.097 486.508 160.562V160.28C486.508 145.932 496.355 135.148 509.39 135.148C517.361 135.148 523.55 138.336 529.458 145.37L546.338 132.335C537.429 120.706 525.52 114.986 509.765 114.986C483.32 114.986 463.252 134.773 463.252 160.843V161.124C463.252 173.69 468.034 185.319 476.474 193.759C484.914 202.011 496.355 206.7 508.64 206.7C525.238 206.7 537.148 200.792 546.995 187.757L530.115 175.66C524.676 181.943 518.955 186.069 509.39 186.069ZM619.297 172.846C627.549 169.377 637.302 161.874 637.302 145.932V145.651C637.302 137.024 634.77 130.365 629.706 125.301C623.517 118.925 613.764 115.736 600.917 115.736H558.998V204.449H581.786V177.066H594.821L613.108 204.637H639.178L617.796 173.597L619.297 172.846ZM614.514 147.527C614.514 155.029 608.794 159.624 599.698 159.624H581.692V135.242H599.51C609.075 135.242 614.514 139.743 614.514 147.339V147.527ZM718.044 168.72V151.184H674.25V134.96H722.639V116.017H651.744V204.731H723.202V185.6H674.157V168.72H718.044ZM809.852 128.302C800.943 120.144 788.19 115.924 772.716 115.924H738.769V204.637H772.248C787.721 204.637 800.568 200.136 809.665 191.883C818.292 183.912 822.887 172.94 822.887 159.999V159.718C823.075 146.87 818.48 136.086 809.852 128.302ZM799.631 160.468C799.631 175.472 789.409 184.85 773.185 184.85H761.745V135.804H773.373C789.596 135.804 799.818 145.182 799.818 160.186L799.631 160.468ZM408.204 114.892C383.822 114.892 365.536 134.679 365.536 160.749C365.536 187.194 384.479 206.419 410.455 206.419C424.615 206.419 435.775 201.636 444.871 191.789L435.962 183.818C428.179 190.945 420.677 194.04 410.924 194.04C395.638 194.04 384.479 184.287 381.947 168.533L381.478 165.813H449.748C449.935 164.688 449.935 163.562 449.935 162.437C449.935 149.215 446.09 137.399 439.432 128.959C431.93 119.675 421.239 114.892 408.204 114.892ZM381.29 156.435L381.572 153.716C383.635 137.68 393.95 127.271 407.829 127.271C421.99 127.271 431.836 137.492 433.618 153.716L433.899 156.435H381.29ZM300.736 114.705C280.48 114.705 260.13 130.459 260.13 160.562C260.13 183.349 274.009 206.419 300.736 206.419C312.833 206.419 322.586 200.98 330.369 190.008L334.683 183.818V204.543H351.094V71.0981H334.589V135.617L330.276 130.084C322.304 119.675 312.645 114.705 300.736 114.705ZM334.964 160.562C334.964 178.848 322.398 192.727 305.706 192.727C288.826 192.727 276.729 179.223 276.729 160.562C276.729 141.619 288.638 128.396 305.706 128.396C322.304 128.302 334.964 142.087 334.964 160.562Z"></path>
<path fill="white" d="M166.822 168.533L202.926 204.637H167.384L108.024 145.088H144.784C161.195 145.088 174.512 131.678 174.512 115.361C174.512 99.0437 161.195 85.6336 144.784 85.6336H132.874L103.147 56H143.565C176.387 56 203.114 82.6327 203.114 115.549C202.926 139.555 192.235 158.498 166.822 168.533Z"></path>
<path fill="white" d="M63.1042 92.1042L27 56H62.5416L122.09 115.549H85.1419C68.7309 115.549 55.4145 128.959 55.4145 145.276C55.4145 161.593 68.8246 175.003 85.1419 175.003H97.0516L126.779 204.731H86.4548C53.6327 204.731 27 178.098 27 145.182C27 121.081 37.6906 102.138 63.1042 92.1042Z"></path>
</svg>
