<svg xmlns="http://www.w3.org/2000/svg" fill="none" viewBox="0 0 850 263" height="263" width="850">
<path fill="white" d="M65.3081 210.649C64.9623 211.426 64.9303 212.308 65.2188 213.108C65.5073 213.908 66.0937 214.563 66.8531 214.934C67.6125 215.305 68.4852 215.362 69.2856 215.093C70.0859 214.824 70.7508 214.25 71.1389 213.494L65.3081 210.649V210.649ZM96.6387 152.874C95.8871 152.48 95.0125 152.399 94.2023 152.648C93.392 152.897 92.7106 153.456 92.304 154.206C91.8974 154.956 91.7979 155.837 92.0268 156.661C92.2558 157.484 92.795 158.184 93.529 158.61L96.6387 152.874V152.874ZM204.093 209.458L201.093 210.688L204.093 209.458ZM199.532 213.56L197.977 216.424L199.532 213.56ZM139.475 63.1217L142.391 64.5411L139.475 63.1217ZM71.1389 213.494L142.391 64.5411L136.56 61.6958L65.3081 210.649L71.1389 213.494V213.494ZM142.391 64.5411L201.087 210.688L207.099 208.235L148.39 62.0817L142.391 64.5411ZM201.087 210.688L96.6387 152.868L93.529 158.604L197.977 216.424L201.087 210.688V210.688ZM201.087 210.688L197.977 216.424C203.322 219.381 209.386 213.939 207.099 208.235L201.093 210.688H201.087ZM142.391 64.5411L148.39 62.0817C146.284 56.8295 138.996 56.5875 136.553 61.6958L142.384 64.5411H142.391Z"></path>
<path fill="white" d="M259.723 177.485H244.551L278.641 82.7534H295.155L329.245 177.485H314.073L287.291 99.9605H286.551L259.723 177.485ZM262.267 140.388H311.483V152.415H262.267V140.388Z"></path>
<path fill="white" d="M370.459 205.609C364.816 205.609 359.959 204.868 355.888 203.388C351.849 201.908 348.549 199.95 345.99 197.514C343.43 195.078 341.518 192.41 340.254 189.512L352.142 184.608C352.974 185.965 354.084 187.399 355.472 188.91C356.89 190.452 358.802 191.763 361.208 192.842C363.644 193.921 366.774 194.461 370.598 194.461C375.84 194.461 380.172 193.181 383.595 190.622C387.018 188.093 388.73 184.053 388.73 178.503V164.533H387.851C387.018 166.045 385.816 167.725 384.243 169.575C382.701 171.426 380.573 173.029 377.86 174.386C375.146 175.743 371.615 176.421 367.267 176.421C361.655 176.421 356.598 175.111 352.095 172.489C347.624 169.837 344.078 165.937 341.456 160.787C338.866 155.606 337.571 149.238 337.571 141.683C337.571 134.128 338.851 127.652 341.41 122.256C344.001 116.859 347.547 112.727 352.049 109.859C356.551 106.961 361.655 105.511 367.36 105.511C371.769 105.511 375.331 106.251 378.045 107.731C380.758 109.181 382.871 110.877 384.382 112.82C385.924 114.762 387.111 116.474 387.943 117.954H388.961V106.436H402.514V179.058C402.514 185.164 401.095 190.175 398.258 194.091C395.421 198.007 391.582 200.906 386.741 202.787C381.93 204.668 376.503 205.609 370.459 205.609ZM370.32 164.95C374.298 164.95 377.659 164.025 380.404 162.174C383.179 160.293 385.276 157.611 386.695 154.126C388.144 150.611 388.869 146.401 388.869 141.498C388.869 136.718 388.159 132.509 386.741 128.87C385.322 125.232 383.241 122.395 380.496 120.359C377.752 118.293 374.36 117.26 370.32 117.26C366.157 117.26 362.688 118.339 359.912 120.498C357.137 122.626 355.04 125.525 353.622 129.194C352.234 132.864 351.54 136.965 351.54 141.498C351.54 146.155 352.249 150.24 353.668 153.756C355.086 157.271 357.183 160.016 359.959 161.989C362.765 163.963 366.219 164.95 370.32 164.95Z"></path>
<path fill="white" d="M434.893 135.3V177.485H421.063V106.436H434.338V118H435.217C436.851 114.238 439.411 111.216 442.895 108.934C446.411 106.652 450.836 105.511 456.171 105.511C461.012 105.511 465.252 106.529 468.891 108.564C472.53 110.569 475.351 113.56 477.356 117.538C479.36 121.516 480.362 126.434 480.362 132.293V177.485H466.532V133.958C466.532 128.809 465.19 124.784 462.508 121.886C459.825 118.956 456.14 117.491 451.453 117.491C448.245 117.491 445.393 118.185 442.895 119.573C440.428 120.961 438.47 122.996 437.021 125.679C435.602 128.331 434.893 131.538 434.893 135.3Z"></path>
<path fill="white" d="M528.838 178.919C522.177 178.919 516.365 177.393 511.4 174.34C506.435 171.287 502.58 167.016 499.836 161.527C497.091 156.038 495.719 149.624 495.719 142.285C495.719 134.914 497.091 128.469 499.836 122.95C502.58 117.43 506.435 113.143 511.4 110.091C516.365 107.038 522.177 105.511 528.838 105.511C535.499 105.511 541.312 107.038 546.277 110.091C551.241 113.143 555.096 117.43 557.841 122.95C560.585 128.469 561.957 134.914 561.957 142.285C561.957 149.624 560.585 156.038 557.841 161.527C555.096 167.016 551.241 171.287 546.277 174.34C541.312 177.393 535.499 178.919 528.838 178.919ZM528.885 167.309C533.202 167.309 536.779 166.168 539.616 163.886C542.453 161.604 544.55 158.567 545.907 154.774C547.294 150.981 547.988 146.802 547.988 142.238C547.988 137.705 547.294 133.542 545.907 129.749C544.55 125.925 542.453 122.857 539.616 120.544C536.779 118.232 533.202 117.075 528.885 117.075C524.537 117.075 520.929 118.232 518.061 120.544C515.224 122.857 513.111 125.925 511.724 129.749C510.367 133.542 509.688 137.705 509.688 142.238C509.688 146.802 510.367 150.981 511.724 154.774C513.111 158.567 515.224 161.604 518.061 163.886C520.929 166.168 524.537 167.309 528.885 167.309Z"></path>
<path fill="white" d="M630.636 123.782L618.1 126.002C617.576 124.399 616.743 122.873 615.602 121.423C614.492 119.974 612.981 118.787 611.069 117.861C609.157 116.936 606.768 116.474 603.9 116.474C599.983 116.474 596.715 117.353 594.094 119.11C591.472 120.837 590.162 123.073 590.162 125.817C590.162 128.192 591.041 130.104 592.798 131.553C594.556 133.003 597.393 134.19 601.309 135.115L612.596 137.705C619.133 139.216 624.006 141.544 627.213 144.69C630.42 147.835 632.023 151.921 632.023 156.948C632.023 161.203 630.79 164.996 628.323 168.326C625.887 171.626 622.479 174.216 618.1 176.097C613.752 177.978 608.71 178.919 602.975 178.919C595.019 178.919 588.527 177.223 583.501 173.831C578.475 170.408 575.391 165.551 574.25 159.26L587.618 157.225C588.45 160.71 590.162 163.346 592.752 165.135C595.342 166.893 598.719 167.771 602.882 167.771C607.415 167.771 611.039 166.831 613.752 164.95C616.466 163.038 617.823 160.71 617.823 157.965C617.823 155.745 616.99 153.879 615.325 152.368C613.691 150.857 611.177 149.716 607.785 148.945L595.759 146.309C589.129 144.798 584.226 142.392 581.049 139.093C577.904 135.793 576.331 131.615 576.331 126.558C576.331 122.364 577.503 118.694 579.847 115.549C582.19 112.403 585.428 109.952 589.56 108.194C593.693 106.406 598.426 105.511 603.761 105.511C611.439 105.511 617.484 107.176 621.893 110.507C626.303 113.806 629.217 118.232 630.636 123.782Z"></path>
<path fill="white" d="M680.395 106.436V117.538H641.587V106.436H680.395ZM651.994 89.4142H665.825V156.624C665.825 159.307 666.225 161.326 667.027 162.683C667.829 164.009 668.862 164.919 670.126 165.412C671.422 165.875 672.825 166.106 674.336 166.106C675.446 166.106 676.417 166.029 677.25 165.875C678.082 165.721 678.73 165.597 679.192 165.505L681.69 176.93C680.889 177.238 679.748 177.547 678.267 177.855C676.787 178.194 674.937 178.379 672.717 178.41C669.078 178.472 665.686 177.824 662.54 176.467C659.395 175.111 656.851 173.014 654.908 170.177C652.965 167.34 651.994 163.778 651.994 159.492V89.4142Z"></path>
<path fill="white" d="M695.694 177.485V106.436H709.525V177.485H695.694ZM702.679 95.4737C700.274 95.4737 698.207 94.672 696.481 93.0684C694.784 91.4341 693.936 89.4913 693.936 87.2402C693.936 84.9583 694.784 83.0155 696.481 81.412C698.207 79.7776 700.274 78.9604 702.679 78.9604C705.084 78.9604 707.135 79.7776 708.831 81.412C710.558 83.0155 711.421 84.9583 711.421 87.2402C711.421 89.4913 710.558 91.4341 708.831 93.0684C707.135 94.672 705.084 95.4737 702.679 95.4737Z"></path>
<path fill="white" d="M758.058 178.919C751.182 178.919 745.261 177.362 740.296 174.247C735.362 171.102 731.569 166.769 728.917 161.249C726.265 155.729 724.939 149.408 724.939 142.285C724.939 135.069 726.296 128.701 729.01 123.181C731.724 117.63 735.547 113.298 740.481 110.183C745.415 107.068 751.228 105.511 757.92 105.511C763.316 105.511 768.127 106.513 772.351 108.518C776.576 110.491 779.984 113.267 782.574 116.844C785.195 120.421 786.752 124.599 787.246 129.379H773.785C773.045 126.049 771.349 123.181 768.697 120.776C766.076 118.37 762.561 117.168 758.151 117.168C754.296 117.168 750.92 118.185 748.021 120.221C745.153 122.225 742.917 125.093 741.314 128.824C739.71 132.525 738.909 136.903 738.909 141.961C738.909 147.141 739.695 151.613 741.268 155.375C742.84 159.137 745.061 162.051 747.928 164.117C750.827 166.183 754.235 167.216 758.151 167.216C760.772 167.216 763.147 166.738 765.274 165.782C767.433 164.796 769.237 163.393 770.686 161.573C772.166 159.754 773.199 157.564 773.785 155.005H787.246C786.752 159.6 785.257 163.701 782.759 167.309C780.261 170.917 776.915 173.754 772.721 175.82C768.558 177.886 763.671 178.919 758.058 178.919Z"></path>
</svg>
