<svg xmlns="http://www.w3.org/2000/svg" fill="none" viewBox="0 0 850 263" height="263" width="850">
<path fill="white" d="M139.697 185.84H151.231L165.548 229.063L180.08 185.84H191.452L201.879 247.812H190.507L183.862 208.667L170.68 247.812H160.28L147.287 208.667L140.507 247.812H129L139.697 185.84ZM248.286 201.968H259.739V247.812H248.286V242.976C246.044 245.11 243.775 246.65 241.533 247.595C239.264 248.541 236.806 249 234.159 249C228.243 249 223.111 246.704 218.789 242.111C214.467 237.519 212.306 231.819 212.306 224.984C212.306 217.906 214.386 212.125 218.573 207.587C222.759 203.075 227.838 200.806 233.834 200.806C236.59 200.806 239.156 201.346 241.587 202.373C243.991 203.399 246.233 204.966 248.286 207.046V201.968ZM236.185 211.423C232.619 211.423 229.648 212.666 227.298 215.178C224.947 217.69 223.759 220.905 223.759 224.849C223.759 228.82 224.947 232.062 227.352 234.628C229.756 237.195 232.727 238.465 236.212 238.465C239.831 238.465 242.83 237.195 245.234 234.682C247.611 232.17 248.826 228.901 248.826 224.795C248.826 220.824 247.638 217.582 245.234 215.124C242.857 212.666 239.831 211.423 236.185 211.423ZM273.002 201.968H282.862V207.749C283.942 205.48 285.347 203.751 287.13 202.562C288.885 201.373 290.83 200.779 292.964 200.779C294.45 200.779 295.99 201.184 297.637 201.968L294.045 211.882C292.694 211.207 291.587 210.883 290.695 210.883C288.939 210.883 287.427 211.963 286.211 214.151C284.996 216.34 284.374 220.635 284.374 227.037L284.428 229.28V247.812H273.002V201.968ZM302.689 201.968H314.385L325.973 229.009L337.507 201.968H349.177L329.674 247.812H322.218L302.689 201.968ZM406.172 228.226H369.22C369.76 231.468 371.192 234.061 373.515 235.979C375.838 237.897 378.782 238.87 382.375 238.87C386.67 238.87 390.37 237.357 393.45 234.358L403.147 238.924C400.743 242.355 397.853 244.867 394.449 246.542C391.073 248.19 387.102 249 382.456 249C375.27 249 369.409 246.731 364.898 242.193C360.36 237.654 358.118 231.981 358.118 225.146C358.118 218.15 360.387 212.341 364.871 207.722C369.382 203.102 375.027 200.779 381.834 200.779C389.047 200.779 394.908 203.102 399.446 207.722C403.957 212.341 406.227 218.447 406.227 226.038L406.172 228.226ZM394.638 219.176C393.882 216.61 392.369 214.557 390.154 212.936C387.912 211.342 385.319 210.531 382.375 210.531C379.187 210.531 376.378 211.45 373.947 213.233C372.434 214.367 371.03 216.34 369.733 219.176H394.638ZM418.598 184.3H430.105V247.812H418.598V184.3Z"></path>
<path fill="white" d="M459.062 185.84H490.126V191.945H465.221V211.315H490.126V217.42H465.221V247.785H459.062V185.84ZM503.443 201.968H509.386V223.39C509.386 228.604 509.683 232.197 510.223 234.169C511.061 236.979 512.655 239.194 515.032 240.815C517.409 242.436 520.245 243.246 523.54 243.246C526.809 243.246 529.618 242.436 531.887 240.869C534.183 239.275 535.75 237.195 536.641 234.629C537.236 232.873 537.506 229.118 537.506 223.39V201.968H543.53V224.471C543.53 230.792 542.8 235.547 541.342 238.762C539.856 241.977 537.641 244.462 534.697 246.272C531.725 248.082 528.025 249 523.568 249C519.084 249 515.383 248.082 512.384 246.272C509.386 244.462 507.171 241.922 505.685 238.708C504.227 235.466 503.47 230.576 503.47 224.066V201.968H503.443ZM583.967 206.993L580.158 210.91C576.998 207.857 573.945 206.317 570.92 206.317C569.002 206.317 567.381 206.939 566.031 208.208C564.653 209.478 563.978 210.964 563.978 212.639C563.978 214.124 564.545 215.556 565.653 216.907C566.787 218.285 569.137 219.906 572.73 221.743C577.106 224.012 580.077 226.2 581.671 228.307C583.211 230.441 583.994 232.846 583.994 235.52C583.994 239.275 582.67 242.463 580.023 245.083C577.403 247.677 574.08 249 570.137 249C567.489 249 564.977 248.433 562.573 247.271C560.169 246.11 558.197 244.516 556.603 242.517L560.304 238.303C563.302 241.706 566.49 243.381 569.866 243.381C572.217 243.381 574.242 242.625 575.89 241.112C577.538 239.599 578.375 237.816 578.375 235.763C578.375 234.088 577.835 232.575 576.728 231.252C575.62 229.955 573.162 228.307 569.299 226.362C565.166 224.228 562.357 222.121 560.871 220.041C559.386 217.96 558.656 215.61 558.656 212.936C558.656 209.451 559.845 206.56 562.195 204.264C564.572 201.968 567.57 200.806 571.19 200.806C575.458 200.806 579.699 202.859 583.967 206.993ZM600.768 183.112C602.119 183.112 603.254 183.598 604.226 184.543C605.171 185.489 605.658 186.651 605.658 188.001C605.658 189.325 605.171 190.46 604.226 191.405C603.254 192.378 602.119 192.837 600.768 192.837C599.445 192.837 598.31 192.351 597.338 191.405C596.392 190.46 595.906 189.325 595.906 188.001C595.906 186.651 596.392 185.489 597.338 184.543C598.31 183.598 599.445 183.112 600.768 183.112ZM597.824 201.968H603.767V247.812H597.824V201.968ZM641.935 200.806C648.985 200.806 654.82 203.373 659.466 208.478C663.68 213.125 665.787 218.663 665.787 225.038C665.787 231.441 663.572 237.033 659.115 241.841C654.658 246.623 648.931 249.027 641.962 249.027C634.939 249.027 629.212 246.65 624.755 241.841C620.298 237.06 618.083 231.441 618.083 225.038C618.083 218.69 620.19 213.179 624.404 208.532C628.996 203.373 634.885 200.806 641.935 200.806ZM641.935 206.587C637.046 206.587 632.859 208.397 629.347 212.017C625.836 215.637 624.08 220.014 624.08 225.173C624.08 228.469 624.863 231.576 626.484 234.439C628.078 237.303 630.239 239.518 632.967 241.085C635.695 242.625 638.667 243.408 641.935 243.408C645.177 243.408 648.175 242.625 650.903 241.085C653.631 239.518 655.792 237.33 657.386 234.439C658.98 231.576 659.79 228.496 659.79 225.173C659.79 220.014 658.007 215.664 654.496 212.017C650.984 208.397 646.797 206.587 641.935 206.587ZM681.022 201.968H686.91V210.207C689.26 207.047 691.881 204.696 694.744 203.156C697.607 201.59 700.714 200.806 704.117 200.806C707.548 200.806 710.573 201.671 713.22 203.427C715.868 205.156 717.839 207.506 719.082 210.45C720.352 213.395 720.973 217.988 720.973 224.228V247.812H715.111V225.93C715.111 220.662 714.868 217.123 714.436 215.367C713.734 212.341 712.41 210.072 710.492 208.532C708.547 207.02 706.008 206.236 702.902 206.236C699.336 206.236 696.149 207.425 693.339 209.775C690.53 212.152 688.639 215.07 687.748 218.555C687.181 220.824 686.91 224.984 686.91 231.036V247.839H681.022V201.968Z"></path>
<path fill="white" d="M391.748 28.5604L314.574 131.783C313.304 133.269 312.251 134.917 311.387 136.7C310.549 138.51 310.117 140.455 310.117 142.562C310.117 146.804 311.603 150.397 314.574 153.368C317.545 156.34 321.138 157.826 325.379 157.826C330.457 157.826 334.482 155.799 337.453 151.801L374.136 102.851L410.603 152.125C413.547 156.124 417.707 157.853 422.353 157.853C426.594 157.853 430.186 156.367 433.158 153.395C436.129 150.424 437.615 146.831 437.615 142.589C437.615 138.78 436.561 135.701 434.427 133.377L434.103 133.053L393.234 77.2949L411.44 53.0087C412.926 51.3068 414.762 49.4698 417.004 47.4437C419.219 45.4446 421.515 44.418 423.839 44.418C426.162 44.418 428.431 45.4176 430.673 47.4437C432.888 49.4428 434.643 51.3068 435.913 53.0087L510.548 152.098C513.735 155.908 517.652 157.826 522.298 157.826C526.539 157.826 530.132 156.34 533.103 153.368C536.074 150.397 537.56 146.804 537.56 142.562C537.56 138.753 536.507 135.674 534.373 133.35L534.048 133.026L457.172 29.506C453.363 24.6433 448.555 20.6722 442.72 17.5925C436.885 14.5128 430.592 13 423.811 13C417.464 13 411.467 14.3777 405.875 17.1332C400.257 19.8887 395.557 23.6978 391.748 28.5604Z" clip-rule="evenodd" fill-rule="evenodd"></path>
</svg>
