<svg xmlns="http://www.w3.org/2000/svg" fill="none" viewBox="0 0 850 263" height="263" width="850">
<path fill="white" d="M314.674 108.629C315.889 113.129 315.707 117.601 315.358 122.144C314.856 128.545 314.088 134.876 312.105 140.984C304.872 163.235 290.602 178.483 267.717 184.73C260.876 186.603 253.81 186.715 246.647 186.156C238.507 185.513 230.437 184.618 222.604 182.368C204.284 177.099 187.515 168.867 173.064 156.19C161.111 145.694 151.952 133.353 147.302 117.965C144.943 110.18 144.077 102.269 146.241 94.2748C148.294 86.6996 153.32 81.9895 160.483 81.3047C165.119 80.8574 169.503 82.2691 173.524 84.4634C180.659 88.3768 187.711 92.4439 194.72 96.5669C207.747 104.226 220.453 112.444 234.137 118.943C245.349 124.268 256.98 128.182 269.281 129.845C277.854 131.005 286.413 130.879 294.819 128.517C305.124 125.624 312.356 119.684 314.674 108.629Z"></path>
<path fill="white" d="M263.78 120.467C262.104 109.202 259.172 98.6913 255.402 88.4326C253.126 82.2131 250.487 76.1333 248.016 69.9837C245 62.4644 243.199 54.6795 243.227 46.5732C243.241 43.9456 243.771 41.2342 244.581 38.7324C246.829 31.87 252.959 28.7532 260.471 30.4584C267.578 32.0796 273.526 35.9231 278.943 40.5633C295.21 54.4978 305.822 72.1501 311.77 92.5556C313.822 99.6137 311.114 106.029 306.52 111.578C301.298 117.881 294.121 120.257 286.386 121.557C280.242 122.591 274.14 122.27 268.024 121.501C266.684 121.319 265.372 120.858 263.78 120.467Z"></path>
<path fill="white" d="M617.429 131.802C617.429 117.364 617.429 102.926 617.429 88.4886C617.429 87.6779 617.415 86.8533 617.429 86.0427C617.555 80.5639 618.49 79.6555 624.048 79.6415C633.472 79.6415 642.883 79.6135 652.308 79.6415C677.357 79.7253 699.279 98.4957 703.314 123.304C707.922 151.564 688.765 178.441 660.574 183.207C657.838 183.668 655.031 183.906 652.266 183.92C642.492 184.003 632.732 183.976 622.959 183.948C618.867 183.934 617.82 182.969 617.485 178.916C617.387 177.756 617.429 176.596 617.429 175.422C617.415 160.9 617.429 146.351 617.429 131.802ZM627.971 174.5C629.479 174.569 630.736 174.681 631.992 174.681C638.276 174.695 644.559 174.793 650.828 174.653C653.956 174.583 657.125 174.402 660.169 173.731C689.142 167.33 700.075 137.979 690.203 114.82C683.096 98.1323 669.51 89.9142 651.582 88.9777C644.629 88.6144 637.633 88.8939 630.652 88.9079C629.772 88.9079 628.893 89.1455 627.971 89.2712C627.971 117.769 627.971 145.988 627.971 174.5Z"></path>
<path fill="white" d="M525.345 144.981C515.599 144.981 506.076 144.981 496.148 144.981C496.065 146.309 495.911 147.539 495.911 148.769C495.897 158.79 495.911 168.797 495.897 178.818C495.883 183.361 492.63 185.527 488.441 183.598C487.464 183.151 486.696 181.837 486.235 180.747C485.858 179.838 486.067 178.678 486.067 177.63C486.067 147.12 486.067 116.609 486.067 86.0845C486.067 85.3857 486.039 84.6869 486.081 83.9881C486.263 80.8993 487.31 79.6833 490.34 79.6694C502.906 79.6135 515.487 79.292 528.026 79.7672C545.116 80.4241 558.576 94.0511 559.177 111.088C559.651 124.506 551.972 135.841 539.838 141.781C538.735 142.326 537.604 142.829 536.194 143.486C539.573 149.51 542.756 155.17 545.94 160.83C549.193 166.617 552.46 172.389 555.658 178.189C556.147 179.07 556.579 180.132 556.565 181.11C556.551 181.907 556.021 182.969 555.379 183.416C552.879 185.177 547.127 183.78 545.577 181.054C542.589 175.799 539.684 170.474 536.752 165.191C533.248 158.874 529.757 152.57 526.252 146.267C526.057 145.876 525.75 145.526 525.345 144.981ZM496.162 135.226C496.889 135.393 497.335 135.589 497.768 135.589C507.766 135.603 517.763 135.924 527.732 135.505C542.086 134.904 552.516 119.237 548.062 105.554C545.032 96.2454 536.166 89.6765 526.182 89.5367C517.232 89.4249 508.296 89.4948 499.346 89.5228C498.341 89.5228 497.335 89.7044 496.162 89.8163C496.162 105.023 496.162 119.977 496.162 135.226Z"></path>
<path fill="white" d="M453.66 168.224C453.66 160.383 453.66 152.501 453.66 144.227C452.305 144.115 451.091 143.933 449.862 143.919C444.514 143.891 439.166 143.919 433.819 143.891C432.66 143.891 431.501 143.765 430.356 143.626C428.303 143.402 427.214 142.284 427.298 140.145C427.326 139.558 427.284 138.985 427.298 138.398C427.354 134.876 428.01 134.163 431.64 134.108C436.402 134.052 441.177 134.094 445.952 134.094C450.253 134.094 454.553 134.052 458.868 134.108C462.512 134.163 463.685 135.282 463.713 138.943C463.769 149.3 463.699 159.67 463.755 170.027C463.769 173.367 462.065 175.45 459.315 176.945C452.613 180.593 445.506 183.081 437.994 184.353C424.827 186.589 412.023 185.709 400.015 179.293C384.279 170.88 374.742 157.784 372.243 140.173C369.045 117.615 377.451 99.6557 396.133 86.9651C414.564 74.4422 440.13 75.141 457.569 88.8379C458.854 89.8442 460.125 90.8785 461.228 92.0525C462.833 93.7436 462.833 95.1972 461.437 97.0421C461.018 97.6011 460.529 98.1043 460.027 98.5935C457.653 100.955 456.662 101.081 454.107 98.845C450.127 95.3649 445.785 92.5137 440.856 90.585C419.94 82.4087 396.985 91.8708 386.96 110.949C378.386 127.273 380.565 148.853 394.639 162.899C402.877 171.131 412.847 175.52 424.659 175.59C433.874 175.646 442.699 174.164 450.993 169.985C451.621 169.678 452.236 169.342 452.822 168.979C453.087 168.811 453.311 168.532 453.66 168.224Z"></path>
<path fill="white" d="M190.866 233.578C190.378 226.254 191.467 219.308 194.189 212.683C198.881 201.292 207.412 194.905 219.811 194.332C229.906 193.871 240.001 193.801 250.11 193.591C250.878 193.577 251.66 193.801 252.442 193.913C247.653 214.22 211.978 237.365 190.866 233.578Z"></path>
<path fill="white" d="M580.176 131.718C580.176 116.483 580.176 101.249 580.176 86.0007C580.176 84.9525 580.093 83.8903 580.26 82.87C580.386 82.1153 580.679 81.2068 581.21 80.7176C583.067 79.0404 585.385 79.4737 587.507 79.921C589.504 80.3403 590.118 82.0314 590.146 83.9462C590.16 84.7568 590.16 85.5814 590.16 86.392C590.16 116.637 590.16 146.882 590.16 177.113C590.16 177.574 590.16 178.049 590.16 178.511C590.09 183.361 587.032 185.527 582.536 183.668C581.559 183.263 580.763 181.963 580.316 180.887C579.939 179.992 580.19 178.818 580.19 177.784C580.176 162.424 580.176 147.078 580.176 131.718Z"></path>
</svg>
