<svg xmlns="http://www.w3.org/2000/svg" fill="none" viewBox="0 0 850 263" height="263" width="850">
<g filter="url(#filter0_i_317_1338)">
<path fill="white" d="M82.7641 174.831C85.3432 173.658 87.9224 172.289 90.1047 170.335C95.0642 166.23 95.858 160.757 92.0886 155.675C89.9063 152.743 87.1287 150.202 84.1527 148.443C77.2093 143.947 69.0749 142.383 60.941 141.992C57.1716 142.578 53.6007 142.774 49.831 143.751C41.4986 145.706 34.3568 149.811 29 155.088V156.457C29 164.08 30.7855 171.508 33.5631 178.154C38.1261 163.689 53.9972 154.893 68.0832 160.17C70.2655 161.148 72.4478 162.516 74.2333 164.275C77.2093 167.012 77.2089 170.14 74.4317 173.072C73.2411 174.44 71.8525 175.612 70.2655 176.785C62.3296 182.063 55.7826 188.514 50.6247 196.137C50.0294 196.723 49.6326 197.505 49.0377 198.287C50.2278 199.264 51.4184 200.046 52.807 201.024C59.9492 189.295 69.8686 180.695 82.7641 174.831Z"></path>
<path fill="white" d="M91.8886 182.258C96.8485 180.304 101.808 178.349 106.768 176.199C114.505 172.876 120.854 167.989 125.615 160.952C129.385 155.479 130.377 149.615 128.789 142.969C126.607 134.76 121.449 128.113 114.902 122.836C99.6261 109.935 81.7708 103.876 61.5351 103.484C50.0282 103.68 39.5135 105.83 29.7922 109.74C29.3957 112.28 29.1973 115.017 29.1973 117.754V131.241C36.3391 127.136 44.0766 124.595 52.409 123.618C71.8514 121.272 89.3098 125.963 103.991 139.255C105.975 141.015 107.76 142.969 109.149 145.315C114.109 152.352 113.514 160.17 107.363 166.23C104.586 168.967 101.213 171.312 97.6422 173.267C93.2776 175.808 88.913 177.763 84.3499 179.717C72.8431 185.19 63.7174 193.205 57.1705 203.76C58.7575 204.738 60.5429 205.519 62.13 206.301C68.8753 194.964 78.7951 187.145 91.8886 182.258Z"></path>
<path fill="white" d="M123.039 64H83.361C64.9104 64 48.6425 72.9917 38.7227 86.8698C39.3179 86.6745 39.7148 86.6745 40.3101 86.4788C47.0551 85.1106 54.1973 84.7196 58.165 84.3289C89.5111 84.9153 114.111 94.6887 134.546 114.431C142.283 122.054 147.243 131.241 148.235 141.992C149.227 153.916 144.465 163.494 135.538 171.312C129.388 176.981 121.651 180.109 113.913 182.845C108.953 184.604 104.39 186.364 99.4305 187.927C86.7335 192.032 77.0125 199.069 69.8703 208.842C74.0365 209.82 78.5995 210.406 83.1626 210.406H122.841C152.996 210.406 177.398 186.364 177.398 156.652V117.754C177.597 88.0426 152.996 64 123.039 64Z"></path>
</g>
<path fill="white" d="M257.136 194.044C249.836 194.044 243.315 192.487 237.572 189.372C231.829 186.16 227.303 181.488 223.994 175.356C220.685 169.224 219.03 161.729 219.03 152.872V128.928C219.03 115.593 222.68 105.422 229.98 98.414C237.28 91.3087 247.159 87.756 259.618 87.756C271.882 87.756 281.323 91.114 287.942 97.83C294.561 104.449 297.87 113.355 297.87 124.548V125.278H282.248V124.11C282.248 119.925 281.421 116.177 279.766 112.868C278.111 109.461 275.629 106.785 272.32 104.838C269.011 102.891 264.777 101.918 259.618 101.918C251.831 101.918 245.748 104.303 241.368 109.072C236.988 113.744 234.798 120.265 234.798 128.636V153.164C234.798 161.437 236.988 168.007 241.368 172.874C245.748 177.643 251.88 180.028 259.764 180.028C267.551 180.028 273.245 177.887 276.846 173.604C280.447 169.321 282.248 163.773 282.248 156.96V155.062H254.8V141.484H297.87V192H283.27V181.634H280.934C280.058 183.483 278.744 185.381 276.992 187.328C275.337 189.275 272.904 190.881 269.692 192.146C266.577 193.411 262.392 194.044 257.136 194.044ZM318.621 192V120.022H333.367V128.49H335.703C336.871 125.473 338.721 123.283 341.251 121.92C343.879 120.46 347.091 119.73 350.887 119.73H359.501V133.308H350.303C345.437 133.308 341.446 134.671 338.331 137.396C335.217 140.024 333.659 144.112 333.659 149.66V192H318.621ZM395.424 194.044C390.266 194.044 385.642 193.168 381.554 191.416C377.564 189.664 374.352 187.085 371.918 183.678C369.582 180.271 368.414 176.135 368.414 171.268C368.414 166.304 369.582 162.216 371.918 159.004C374.352 155.695 377.612 153.213 381.7 151.558C385.886 149.903 390.606 149.076 395.862 149.076H417.762V144.404C417.762 140.219 416.497 136.861 413.966 134.33C411.436 131.799 407.542 130.534 402.286 130.534C397.128 130.534 393.186 131.751 390.46 134.184C387.735 136.617 385.934 139.781 385.058 143.674L371.042 139.148C372.21 135.255 374.06 131.751 376.59 128.636C379.218 125.424 382.674 122.845 386.956 120.898C391.239 118.951 396.398 117.978 402.432 117.978C411.776 117.978 419.125 120.363 424.478 125.132C429.832 129.901 432.508 136.666 432.508 145.426V175.064C432.508 177.984 433.871 179.444 436.596 179.444H442.728V192H431.486C428.08 192 425.306 191.124 423.164 189.372C421.023 187.62 419.952 185.235 419.952 182.218V181.78H417.762C416.984 183.24 415.816 184.943 414.258 186.89C412.701 188.837 410.414 190.54 407.396 192C404.379 193.363 400.388 194.044 395.424 194.044ZM397.614 181.634C403.649 181.634 408.516 179.931 412.214 176.524C415.913 173.02 417.762 168.251 417.762 162.216V160.756H396.738C392.748 160.756 389.536 161.632 387.102 163.384C384.669 165.039 383.452 167.521 383.452 170.83C383.452 174.139 384.718 176.767 387.248 178.714C389.779 180.661 393.234 181.634 397.614 181.634ZM470.002 192L445.766 120.022H461.68L480.806 180.904H483.142L502.268 120.022H518.182L493.946 192H470.002ZM532.774 192V120.022H547.812V192H532.774ZM540.366 110.24C537.446 110.24 534.964 109.315 532.92 107.466C530.973 105.519 530 103.037 530 100.02C530 97.0027 530.973 94.5693 532.92 92.72C534.964 90.7733 537.446 89.8 540.366 89.8C543.383 89.8 545.865 90.7733 547.812 92.72C549.758 94.5693 550.732 97.0027 550.732 100.02C550.732 103.037 549.758 105.519 547.812 107.466C545.865 109.315 543.383 110.24 540.366 110.24ZM597.139 192C592.759 192 589.255 190.686 586.627 188.058C584.097 185.43 582.831 181.926 582.831 177.546V132.724H562.975V120.022H582.831V96.224H597.869V120.022H619.331V132.724H597.869V174.918C597.869 177.838 599.232 179.298 601.957 179.298H616.995V192H597.139ZM668.158 194.044C660.955 194.044 654.531 192.584 648.886 189.664C643.338 186.647 638.958 182.364 635.746 176.816C632.534 171.268 630.928 164.698 630.928 157.106V154.916C630.928 147.324 632.534 140.803 635.746 135.352C638.958 129.804 643.338 125.521 648.886 122.504C654.531 119.487 660.955 117.978 668.158 117.978C675.361 117.978 681.785 119.487 687.43 122.504C693.075 125.521 697.504 129.804 700.716 135.352C703.928 140.803 705.534 147.324 705.534 154.916V157.106C705.534 164.698 703.928 171.268 700.716 176.816C697.504 182.364 693.075 186.647 687.43 189.664C681.785 192.584 675.361 194.044 668.158 194.044ZM668.158 180.612C674.777 180.612 680.13 178.519 684.218 174.334C688.403 170.051 690.496 164.163 690.496 156.668V155.354C690.496 147.859 688.452 142.019 684.364 137.834C680.276 133.551 674.874 131.41 668.158 131.41C661.637 131.41 656.283 133.551 652.098 137.834C648.01 142.019 645.966 147.859 645.966 155.354V156.668C645.966 164.163 648.01 170.051 652.098 174.334C656.283 178.519 661.637 180.612 668.158 180.612ZM724.256 192V120.022H739.002V130.826H741.338C742.701 127.906 745.134 125.181 748.638 122.65C752.142 120.119 757.349 118.854 764.26 118.854C769.711 118.854 774.529 120.071 778.714 122.504C782.997 124.937 786.355 128.393 788.788 132.87C791.221 137.25 792.438 142.555 792.438 148.784V192H777.4V149.952C777.4 143.723 775.843 139.148 772.728 136.228C769.613 133.211 765.331 131.702 759.88 131.702C753.651 131.702 748.638 133.746 744.842 137.834C741.143 141.922 739.294 147.859 739.294 155.646V192H724.256Z"></path>
<defs>
<filter color-interpolation-filters="sRGB" filterUnits="userSpaceOnUse" height="148.406" width="150.4" y="62" x="27" id="filter0_i_317_1338">
<feFlood result="BackgroundImageFix" flood-opacity="0"></feFlood>
<feBlend result="shape" in2="BackgroundImageFix" in="SourceGraphic" mode="normal"></feBlend>
<feColorMatrix result="hardAlpha" values="0 0 0 0 0 0 0 0 0 0 0 0 0 0 0 0 0 0 127 0" type="matrix" in="SourceAlpha"></feColorMatrix>
<feOffset dy="-2" dx="-2"></feOffset>
<feGaussianBlur stdDeviation="6"></feGaussianBlur>
<feComposite k3="1" k2="-1" operator="arithmetic" in2="hardAlpha"></feComposite>
<feColorMatrix values="0 0 0 0 0 0 0 0 0 0 0 0 0 0 0 0 0 0 0.74 0" type="matrix"></feColorMatrix>
<feBlend result="effect1_innerShadow_317_1338" in2="shape" mode="normal"></feBlend>
</filter>
</defs>
</svg>
