<svg xmlns="http://www.w3.org/2000/svg" fill="none" viewBox="0 0 850 263" height="263" width="850">
<path fill="white" d="M158.834 107.605V51.8094L134.747 94.7373H129.086L104.896 51.8094V107.605H95.6318V34.5147H105.411L131.865 81.9722L158.422 34.5147H168.098V107.605H158.834Z"></path>
<path fill="white" d="M215.245 108.12C210.098 108.12 205.432 107.091 201.246 105.032C197.06 102.973 193.423 100.193 190.335 96.6933C187.315 93.1245 184.982 89.144 183.335 84.7517C181.688 80.2908 180.865 75.7269 180.865 71.0601C180.865 66.1874 181.723 61.5548 183.438 57.1625C185.222 52.7016 187.658 48.7554 190.747 45.3239C193.903 41.8238 197.575 39.0786 201.761 37.0883C205.947 35.0294 210.51 34 215.451 34C220.598 34 225.264 35.0638 229.45 37.1913C233.636 39.3188 237.239 42.1669 240.258 45.7357C243.278 49.3044 245.611 53.285 247.258 57.6773C248.905 62.0696 249.729 66.5648 249.729 71.163C249.729 76.0357 248.871 80.7026 247.155 85.1635C245.44 89.5558 243.003 93.502 239.847 97.0021C236.759 100.434 233.122 103.144 228.936 105.135C224.75 107.125 220.186 108.12 215.245 108.12ZM190.232 71.0601C190.232 74.7661 190.815 78.3691 191.982 81.8693C193.217 85.3007 194.933 88.3548 197.129 91.0313C199.324 93.7079 201.966 95.8354 205.055 97.4139C208.143 98.9924 211.574 99.7816 215.348 99.7816C219.26 99.7816 222.759 98.9581 225.847 97.311C228.936 95.6638 231.543 93.4677 233.671 90.7225C235.867 87.9773 237.514 84.889 238.611 81.4575C239.778 78.026 240.361 74.5602 240.361 71.0601C240.361 67.3541 239.744 63.7853 238.509 60.3538C237.342 56.9223 235.626 53.8683 233.362 51.1918C231.166 48.4466 228.524 46.319 225.436 44.8092C222.416 43.2307 219.054 42.4415 215.348 42.4415C211.437 42.4415 207.937 43.265 204.849 44.9121C201.761 46.4906 199.119 48.6525 196.923 51.3976C194.795 54.1428 193.148 57.2312 191.982 60.6627C190.815 64.0255 190.232 67.4913 190.232 71.0601Z"></path>
<path fill="white" d="M325.803 107.605V51.8094L301.716 94.7373H296.054L271.864 51.8094V107.605H262.6V34.5147H272.379L298.834 81.9722L325.391 34.5147H335.067V107.605H325.803Z"></path>
<path fill="white" d="M402.183 99.3698V107.605H352.568V34.5147H401.257V42.7503H361.832V66.4276H396.11V74.1484H361.832V99.3698H402.183Z"></path>
<path fill="white" d="M424.157 51.6035V107.605H414.892V34.5147H422.716L467.389 91.649V34.6177H476.654V107.605H468.213L424.157 51.6035Z"></path>
<path fill="white" d="M546.807 42.7503H521.588V107.605H512.324V42.7503H487.105V34.5147H546.807V42.7503Z"></path>
<path fill="white" d="M584.767 108.12C579.62 108.12 574.954 107.091 570.768 105.032C566.582 102.973 562.945 100.193 559.857 96.6933C556.837 93.1245 554.504 89.144 552.857 84.7517C551.21 80.2908 550.387 75.7269 550.387 71.0601C550.387 66.1874 551.245 61.5548 552.96 57.1625C554.744 52.7016 557.181 48.7554 560.269 45.3239C563.425 41.8238 567.097 39.0786 571.283 37.0883C575.469 35.0294 580.032 34 584.973 34C590.12 34 594.786 35.0638 598.972 37.1913C603.158 39.3188 606.761 42.1669 609.781 45.7357C612.8 49.3044 615.133 53.285 616.78 57.6773C618.427 62.0696 619.251 66.5648 619.251 71.163C619.251 76.0357 618.393 80.7026 616.677 85.1635C614.962 89.5558 612.526 93.502 609.369 97.0021C606.281 100.434 602.644 103.144 598.458 105.135C594.272 107.125 589.708 108.12 584.767 108.12ZM559.754 71.0601C559.754 74.7661 560.337 78.3691 561.504 81.8693C562.739 85.3007 564.455 88.3548 566.651 91.0313C568.847 93.7079 571.489 95.8354 574.577 97.4139C577.665 98.9924 581.096 99.7816 584.87 99.7816C588.782 99.7816 592.282 98.9581 595.37 97.311C598.458 95.6638 601.065 93.4677 603.193 90.7225C605.389 87.9773 607.036 84.889 608.134 81.4575C609.3 78.026 609.883 74.5602 609.883 71.0601C609.883 67.3541 609.266 63.7853 608.031 60.3538C606.864 56.9223 605.148 53.8683 602.884 51.1918C600.688 48.4466 598.046 46.319 594.958 44.8092C591.938 43.2307 588.576 42.4415 584.87 42.4415C580.959 42.4415 577.459 43.265 574.371 44.9121C571.283 46.4906 568.641 48.6525 566.445 51.3976C564.317 54.1428 562.67 57.2312 561.504 60.6627C560.337 64.0255 559.754 67.4913 559.754 71.0601Z"></path>
<path fill="white" d="M662.282 108.12C656.449 108.12 651.543 107.125 647.563 105.135C643.582 103.076 640.392 100.331 637.99 96.8992C635.588 93.3991 633.838 89.4528 632.74 85.0605C631.642 80.6682 631.093 76.1387 631.093 71.4718V34.5147H640.357V71.4718C640.357 75.0406 640.7 78.5407 641.387 81.9722C642.141 85.3351 643.342 88.3548 644.989 91.0313C646.636 93.7079 648.866 95.8354 651.68 97.4139C654.494 98.9924 657.993 99.7816 662.18 99.7816C666.434 99.7816 669.968 98.9924 672.782 97.4139C675.595 95.7668 677.826 93.6049 679.473 90.9284C681.12 88.1832 682.286 85.1292 682.972 81.7663C683.727 78.4035 684.105 74.972 684.105 71.4718V34.5147H693.369V71.4718C693.369 76.4132 692.786 81.1143 691.619 85.5753C690.521 89.9676 688.737 93.8451 686.266 97.208C683.796 100.571 680.571 103.247 676.59 105.238C672.679 107.159 667.91 108.12 662.282 108.12Z"></path>
<path fill="white" d="M752.751 49.8535C751.927 48.8927 750.829 47.9662 749.457 47.074C748.084 46.1818 746.54 45.3925 744.825 44.7062C743.109 43.9513 741.222 43.368 739.163 42.9562C737.173 42.4758 735.08 42.2356 732.884 42.2356C727.257 42.2356 723.105 43.2993 720.429 45.4269C717.753 47.5544 716.414 50.4711 716.414 54.1771C716.414 56.7851 717.101 58.844 718.473 60.3538C719.846 61.8637 721.939 63.099 724.752 64.0598C727.634 65.0207 731.271 66.0158 735.663 67.0452C740.742 68.1433 745.133 69.4816 748.839 71.0601C752.545 72.6386 755.393 74.7661 757.383 77.4426C759.373 80.0506 760.368 83.5507 760.368 87.943C760.368 91.4431 759.682 94.4971 758.309 97.1051C757.005 99.6444 755.152 101.772 752.751 103.488C750.349 105.135 747.535 106.37 744.31 107.194C741.085 107.949 737.585 108.326 733.811 108.326C730.105 108.326 726.468 107.949 722.899 107.194C719.4 106.37 716.071 105.203 712.915 103.694C709.758 102.184 706.807 100.296 704.062 98.0316L708.488 90.2078C709.586 91.3745 710.993 92.5412 712.709 93.7079C714.493 94.806 716.483 95.8354 718.679 96.7962C720.944 97.757 723.38 98.5463 725.987 99.164C728.595 99.713 731.271 99.9875 734.016 99.9875C739.232 99.9875 743.281 99.061 746.163 97.208C749.045 95.2864 750.486 92.5069 750.486 88.8695C750.486 86.1243 749.663 83.9281 748.016 82.281C746.437 80.6339 744.07 79.2613 740.913 78.1632C737.756 77.0652 733.913 75.9671 729.384 74.869C724.443 73.6337 720.292 72.2954 716.929 70.8542C713.567 69.3443 711.027 67.3884 709.312 64.9863C707.665 62.5843 706.841 59.4616 706.841 55.6184C706.841 50.9516 707.974 47.0053 710.238 43.7797C712.503 40.5541 715.625 38.1178 719.605 36.4707C723.586 34.8236 728.08 34 733.09 34C736.384 34 739.438 34.3431 742.251 35.0294C745.133 35.7157 747.81 36.6766 750.28 37.9119C752.751 39.1472 755.015 40.6228 757.074 42.3385L752.751 49.8535Z"></path>
<path fill="white" d="M103.703 163.424H78.4834V228.279H69.2192V163.424H44V155.189H103.703V163.424Z"></path>
<path fill="white" d="M173.005 155.189V228.279H163.74V195.028H123.493V228.279H114.228V155.189H123.493V186.793H163.74V155.189H173.005Z"></path>
<path fill="white" d="M240.14 220.044V228.279H190.525V155.189H239.214V163.424H199.79V187.102H234.067V194.822H199.79V220.044H240.14Z"></path>
<path fill="white" d="M252.85 228.279V155.189H284.142C287.367 155.189 290.318 155.875 292.994 157.248C295.671 158.552 298.004 160.336 299.994 162.601C301.984 164.797 303.528 167.302 304.626 170.116C305.724 172.861 306.273 175.675 306.273 178.557C306.273 181.92 305.621 185.111 304.317 188.131C303.082 191.151 301.298 193.724 298.965 195.852C296.7 197.979 294.024 199.455 290.936 200.278L308.641 228.279H298.141L281.466 202.029H262.114V228.279H252.85ZM262.114 193.793H284.245C286.784 193.793 288.98 193.107 290.833 191.734C292.754 190.293 294.23 188.406 295.259 186.072C296.357 183.739 296.906 181.234 296.906 178.557C296.906 175.812 296.288 173.307 295.053 171.042C293.818 168.709 292.205 166.856 290.215 165.483C288.225 164.111 286.029 163.424 283.627 163.424H262.114V193.793Z"></path>
<path fill="white" d="M342.735 155.189H350.559L380.41 228.279H370.528L361.881 206.867H331.207L322.663 228.279H312.781L342.735 155.189ZM359.823 199.661L346.647 165.895L333.06 199.661H359.823Z"></path>
<path fill="white" d="M390.164 228.279V155.189H420.633C423.858 155.189 426.809 155.875 429.485 157.248C432.161 158.552 434.495 160.336 436.485 162.601C438.475 164.797 440.019 167.302 441.117 170.116C442.215 172.861 442.764 175.675 442.764 178.557C442.764 182.538 441.872 186.347 440.087 189.984C438.303 193.553 435.799 196.47 432.573 198.734C429.348 200.93 425.574 202.029 421.25 202.029H399.428V228.279H390.164ZM399.428 193.793H420.736C423.275 193.793 425.471 193.107 427.323 191.734C429.245 190.361 430.72 188.508 431.75 186.175C432.848 183.842 433.397 181.302 433.397 178.557C433.397 175.675 432.779 173.101 431.544 170.836C430.309 168.503 428.696 166.684 426.706 165.38C424.716 164.076 422.52 163.424 420.118 163.424H399.428V193.793Z"></path>
<path fill="white" d="M503.912 220.044V228.279H454.297V155.189H502.986V163.424H463.562V187.102H497.839V194.822H463.562V220.044H503.912Z"></path>
<path fill="white" d="M546.782 228.794C540.949 228.794 536.042 227.799 532.062 225.809C528.082 223.75 524.891 221.005 522.489 217.573C520.087 214.073 518.337 210.127 517.239 205.735C516.141 201.342 515.592 196.813 515.592 192.146V155.189H524.856V192.146C524.856 195.715 525.2 199.215 525.886 202.646C526.641 206.009 527.842 209.029 529.488 211.705C531.135 214.382 533.366 216.509 536.179 218.088C538.993 219.666 542.493 220.456 546.679 220.456C550.933 220.456 554.468 219.666 557.281 218.088C560.095 216.441 562.325 214.279 563.972 211.602C565.619 208.857 566.785 205.803 567.472 202.44C568.227 199.077 568.604 195.646 568.604 192.146V155.189H577.868V192.146C577.868 197.087 577.285 201.788 576.118 206.249C575.02 210.642 573.236 214.519 570.766 217.882C568.295 221.245 565.07 223.921 561.09 225.912C557.178 227.833 552.409 228.794 546.782 228.794Z"></path>
<path fill="white" d="M647.029 163.424H621.81V228.279H612.545V163.424H587.326V155.189H647.029V163.424Z"></path>
<path fill="white" d="M657.555 228.279V155.189H666.819V228.279H657.555Z"></path>
<path fill="white" d="M679.559 191.219C679.559 186.758 680.314 182.4 681.823 178.145C683.402 173.822 685.666 169.91 688.617 166.41C691.636 162.841 695.308 160.027 699.631 157.968C703.954 155.841 708.861 154.777 714.351 154.777C720.87 154.777 726.463 156.287 731.129 159.306C735.796 162.258 739.261 166.067 741.526 170.733L734.217 175.469C732.776 172.38 730.923 169.944 728.659 168.16C726.463 166.307 724.061 165.003 721.453 164.248C718.914 163.493 716.41 163.115 713.939 163.115C709.89 163.115 706.288 163.939 703.131 165.586C700.043 167.233 697.435 169.429 695.308 172.175C693.18 174.92 691.568 178.008 690.47 181.44C689.441 184.802 688.926 188.2 688.926 191.631C688.926 195.406 689.543 199.043 690.779 202.543C692.082 206.043 693.867 209.132 696.131 211.808C698.396 214.485 701.072 216.612 704.16 218.191C707.248 219.769 710.611 220.559 714.248 220.559C716.787 220.559 719.395 220.112 722.071 219.22C724.747 218.328 727.252 216.955 729.585 215.102C731.919 213.181 733.771 210.71 735.144 207.69L742.864 211.911C741.354 215.549 739.021 218.637 735.864 221.176C732.708 223.716 729.174 225.637 725.262 226.941C721.419 228.245 717.611 228.897 713.836 228.897C708.827 228.897 704.229 227.833 700.043 225.706C695.857 223.51 692.22 220.627 689.132 217.058C686.112 213.421 683.745 209.372 682.029 204.911C680.382 200.381 679.559 195.818 679.559 191.219Z"></path>
<path fill="white" d="M797.383 170.527C796.559 169.567 795.461 168.64 794.089 167.748C792.716 166.856 791.172 166.067 789.457 165.38C787.741 164.625 785.854 164.042 783.795 163.63C781.805 163.15 779.712 162.91 777.516 162.91C771.889 162.91 767.737 163.973 765.061 166.101C762.385 168.228 761.047 171.145 761.047 174.851C761.047 177.459 761.733 179.518 763.105 181.028C764.478 182.538 766.571 183.773 769.384 184.734C772.267 185.695 775.904 186.69 780.296 187.719C785.374 188.817 789.766 190.156 793.471 191.734C797.177 193.313 800.025 195.44 802.015 198.117C804.005 200.725 805 204.225 805 208.617C805 212.117 804.314 215.171 802.941 217.779C801.637 220.318 799.785 222.446 797.383 224.162C794.981 225.809 792.167 227.044 788.942 227.868C785.717 228.623 782.217 229 778.443 229C774.737 229 771.1 228.623 767.531 227.868C764.032 227.044 760.703 225.877 757.547 224.368C754.39 222.858 751.439 220.97 748.694 218.706L753.121 210.882C754.219 212.048 755.625 213.215 757.341 214.382C759.125 215.48 761.115 216.509 763.311 217.47C765.576 218.431 768.012 219.22 770.62 219.838C773.227 220.387 775.904 220.661 778.649 220.661C783.864 220.661 787.913 219.735 790.795 217.882C793.677 215.96 795.118 213.181 795.118 209.543C795.118 206.798 794.295 204.602 792.648 202.955C791.069 201.308 788.702 199.935 785.545 198.837C782.388 197.739 778.546 196.641 774.016 195.543C769.075 194.308 764.924 192.969 761.561 191.528C758.199 190.018 755.66 188.062 753.944 185.66C752.297 183.258 751.474 180.136 751.474 176.292C751.474 171.626 752.606 167.679 754.87 164.454C757.135 161.228 760.257 158.792 764.238 157.145C768.218 155.498 772.713 154.674 777.722 154.674C781.016 154.674 784.07 155.017 786.883 155.703C789.766 156.39 792.442 157.351 794.912 158.586C797.383 159.821 799.647 161.297 801.706 163.012L797.383 170.527Z"></path>
</svg>
