<svg xmlns="http://www.w3.org/2000/svg" fill="none" viewBox="0 0 850 263" height="263" width="850">
<g clip-path="url(#clip0_7007_312)">
<g clip-path="url(#clip1_7007_312)">
<path fill="white" d="M185.977 133.065C193.294 135.887 194.812 141.855 194.812 148.961V151.214C194.812 165.427 180.825 169.512 173.036 172.063C165.246 174.613 152.853 178.352 151.932 178.6C151.011 178.847 150.613 178.129 150.613 177.386V173.078C150.613 172.137 151.285 171.84 151.857 171.667C152.429 171.493 163.056 168.2 171.767 165.476C180.477 162.753 185.429 156.538 185.429 150.744V149.184C185.429 144.504 184.11 141.979 178.386 139.651L157.034 130.96C149.692 128.162 148.199 122.17 148.199 115.064V112.786C148.199 98.573 162.16 94.4875 169.95 91.9619C177.739 89.4363 190.133 85.6727 191.054 85.4251C191.975 85.1775 192.373 85.8708 192.373 86.6383V90.9219C192.371 91.2629 192.247 91.5922 192.024 91.8508C191.801 92.1094 191.492 92.2804 191.153 92.3333L171.244 98.5235C162.558 101.272 157.581 107.462 157.581 113.38V114.989C157.556 119.471 158.85 121.947 164.599 124.423L185.977 133.065Z"></path>
<path fill="white" d="M164.997 108.825C165.001 108.628 165.065 108.438 165.181 108.279C165.296 108.119 165.458 107.999 165.644 107.933C170.945 106.225 185.554 101.619 186.126 101.471C186.698 101.322 186.897 101.743 186.897 102.189V104.665C186.9 104.868 186.828 105.066 186.695 105.22C186.562 105.375 186.378 105.477 186.176 105.507L166.316 112.044C166.176 112.086 166.027 112.095 165.882 112.07C165.738 112.046 165.601 111.988 165.482 111.901C165.364 111.815 165.268 111.702 165.201 111.572C165.134 111.442 165.098 111.298 165.097 111.152L164.997 108.825Z"></path>
<path fill="white" d="M164.997 116.996C165.001 116.799 165.065 116.609 165.181 116.449C165.296 116.29 165.458 116.17 165.644 116.104C170.945 114.396 185.554 109.79 186.126 109.642C186.698 109.493 186.897 109.914 186.897 110.36V112.836C186.9 113.039 186.828 113.237 186.695 113.391C186.562 113.546 186.378 113.648 186.176 113.678L166.266 120.016C166.124 120.059 165.973 120.068 165.826 120.042C165.68 120.016 165.541 119.956 165.423 119.867C165.304 119.777 165.208 119.662 165.142 119.528C165.077 119.395 165.044 119.248 165.047 119.1L164.997 116.996Z"></path>
<path fill="white" d="M177.864 155.177C177.867 155.375 177.806 155.569 177.69 155.73C177.573 155.89 177.407 156.009 177.217 156.068C171.916 157.801 157.307 162.407 156.735 162.53C156.162 162.654 155.963 162.258 155.963 161.812V159.336C155.966 159.134 156.04 158.94 156.172 158.786C156.303 158.632 156.485 158.529 156.685 158.494L176.595 152.18C176.735 152.132 176.885 152.119 177.032 152.141C177.179 152.164 177.319 152.221 177.439 152.309C177.559 152.396 177.655 152.511 177.721 152.644C177.786 152.777 177.818 152.924 177.814 153.072L177.864 155.177Z"></path>
<path fill="white" d="M177.864 147.03C177.866 147.225 177.804 147.416 177.687 147.572C177.57 147.729 177.405 147.843 177.217 147.897C171.916 149.63 157.307 154.236 156.735 154.36C156.162 154.483 155.963 154.087 155.963 153.642V151.165C155.966 150.963 156.04 150.769 156.172 150.615C156.303 150.461 156.485 150.358 156.685 150.324C157.183 150.324 170.647 145.891 176.595 144.01C176.735 143.962 176.885 143.948 177.032 143.97C177.179 143.993 177.319 144.05 177.439 144.138C177.559 144.225 177.655 144.341 177.721 144.473C177.786 144.606 177.818 144.753 177.814 144.901L177.864 147.03Z"></path>
<path fill="white" d="M110.296 81.2159C110.47 81.3623 110.691 81.4414 110.918 81.4388C111.059 81.4421 111.198 81.415 111.327 81.3594C111.456 81.3039 111.571 81.2211 111.665 81.1169L112.163 80.5474C112.343 80.3665 112.445 80.1216 112.445 79.8665C112.445 79.6113 112.343 79.3665 112.163 79.1855L82.7215 53.6325C82.6268 53.5499 82.5162 53.4876 82.3963 53.4492C82.2765 53.4109 82.15 53.3974 82.0247 53.4096C81.8957 53.4105 81.7685 53.4398 81.6523 53.4954C81.5361 53.5511 81.4338 53.6317 81.3527 53.7315L80.5564 54.6229C80.4727 54.7216 80.4097 54.836 80.3713 54.9594C80.3328 55.0827 80.3196 55.2125 80.3324 55.341C80.3622 55.5935 80.4761 55.8289 80.6559 56.0095L110.296 81.2159Z"></path>
<path fill="white" d="M151.235 55.3168C151.29 55.5239 151.413 55.7069 151.584 55.8369C151.756 55.9669 151.965 56.0365 152.181 56.0349H152.405L153.176 55.8615C153.426 55.7917 153.639 55.63 153.773 55.4093C153.907 55.1885 153.952 54.9253 153.898 54.673L144.814 16.9377C144.785 16.8141 144.731 16.6974 144.657 16.5943C144.582 16.4913 144.488 16.4039 144.379 16.3372C144.27 16.2705 144.15 16.2258 144.024 16.2056C143.898 16.1854 143.769 16.1902 143.645 16.2196L142.5 16.492C142.375 16.5237 142.258 16.5797 142.155 16.6568C142.052 16.7339 141.966 16.8305 141.901 16.9411C141.836 17.0517 141.794 17.1741 141.777 17.301C141.761 17.4279 141.769 17.557 141.803 17.6805L151.235 55.3168Z"></path>
<path fill="white" d="M115.025 76.0408C115.115 76.1343 115.223 76.2088 115.343 76.2598C115.462 76.3109 115.591 76.3374 115.721 76.3379C115.979 76.3336 116.227 76.2369 116.418 76.0655L116.991 75.4961C117.172 75.3151 117.273 75.0703 117.273 74.8151C117.273 74.56 117.172 74.3152 116.991 74.1342L89.9885 46.1794C89.8067 45.9994 89.5606 45.8984 89.3041 45.8984C89.0477 45.8984 88.8016 45.9994 88.6197 46.1794L87.7985 46.9717C87.6176 47.1527 87.5161 47.3975 87.5161 47.6526C87.5161 47.9078 87.6176 48.1526 87.7985 48.3336L115.025 76.0408Z"></path>
<path fill="white" d="M125.825 67.0279C125.914 67.1569 126.033 67.2626 126.171 67.336C126.31 67.4093 126.465 67.448 126.622 67.4488C126.818 67.4524 127.011 67.3915 127.169 67.2755L127.841 66.8298C128.055 66.6885 128.205 66.4683 128.256 66.2176C128.307 65.9669 128.257 65.7062 128.115 65.4927L106.414 33.3038C106.351 33.1821 106.263 33.0751 106.156 32.9897C106.049 32.9044 105.924 32.8426 105.791 32.8086C105.541 32.7693 105.284 32.8221 105.07 32.9571L104.099 33.6257C103.991 33.6956 103.897 33.7864 103.825 33.8927C103.752 33.999 103.702 34.1187 103.676 34.2447C103.65 34.3682 103.65 34.4957 103.675 34.6192C103.701 34.7428 103.752 34.8598 103.825 34.9628L125.825 67.0279Z"></path>
<path fill="white" d="M120.226 71.2869C120.319 71.4003 120.437 71.4907 120.57 71.5509C120.704 71.6111 120.851 71.6394 120.997 71.6335C121.188 71.623 121.371 71.5538 121.52 71.4355L122.142 70.9402C122.242 70.8608 122.325 70.7625 122.387 70.6509C122.449 70.5394 122.488 70.4168 122.502 70.2902C122.515 70.1637 122.504 70.0356 122.468 69.9134C122.432 69.7913 122.372 69.6774 122.292 69.5784L97.9273 39.3456C97.8482 39.2477 97.7502 39.1667 97.639 39.1071C97.5279 39.0476 97.4059 39.0108 97.2803 38.9989C97.0232 38.9716 96.7652 39.0424 96.5586 39.197L95.6626 39.9398C95.5643 40.0186 95.4828 40.1161 95.423 40.2267C95.3632 40.3372 95.3262 40.4586 95.3142 40.5836C95.2915 40.839 95.3622 41.094 95.5133 41.3017L120.226 71.2869Z"></path>
<path fill="white" d="M131.749 63.2646C131.833 63.4146 131.955 63.5395 132.104 63.6265C132.253 63.7136 132.422 63.7596 132.595 63.7599C132.76 63.7573 132.922 63.7148 133.068 63.6361L133.789 63.2399C134.009 63.1104 134.17 62.902 134.239 62.6578C134.309 62.4136 134.281 62.1522 134.163 61.9276L115.423 27.8568C115.359 27.741 115.272 27.6398 115.166 27.5598C115.061 27.4798 114.94 27.4228 114.811 27.3924C114.681 27.3621 114.547 27.3591 114.417 27.3836C114.287 27.4082 114.163 27.4597 114.054 27.5349L113.059 28.0797C112.945 28.1391 112.845 28.2208 112.764 28.3199C112.684 28.419 112.624 28.5334 112.589 28.6561C112.554 28.7789 112.545 28.9074 112.561 29.0339C112.578 29.1604 112.62 29.2822 112.685 29.392L131.749 63.2646Z"></path>
<path fill="white" d="M93.1242 139.28V138.512C93.099 138.26 92.9753 138.028 92.7798 137.866C92.5843 137.704 92.3326 137.625 92.079 137.646L53.156 140.889C52.8949 140.912 52.6535 141.037 52.4841 141.236C52.3992 141.334 52.3354 141.448 52.2969 141.572C52.2584 141.695 52.2458 141.826 52.2601 141.954C52.2601 142.326 52.2601 142.722 52.2601 143.118C52.2844 143.359 52.3966 143.583 52.5754 143.747C52.7543 143.911 52.9874 144.004 53.2307 144.009L92.0292 140.444C92.1852 140.468 92.3447 140.453 92.4939 140.402C92.6431 140.351 92.7774 140.264 92.8853 140.149C92.9931 140.035 93.0713 139.896 93.1129 139.744C93.1546 139.593 93.1585 139.433 93.1242 139.28Z"></path>
<path fill="white" d="M137.995 60.0454C138.077 60.2131 138.204 60.355 138.362 60.4554C138.52 60.5559 138.703 60.6111 138.891 60.6149C139.021 60.6485 139.158 60.6485 139.289 60.6149L140.011 60.293C140.128 60.2446 140.235 60.1731 140.324 60.0827C140.413 59.9923 140.483 59.885 140.53 59.767C140.576 59.6491 140.598 59.5231 140.595 59.3965C140.591 59.2699 140.562 59.1453 140.508 59.0302L124.88 23.3996C124.826 23.2847 124.751 23.1816 124.656 23.0965C124.562 23.0114 124.452 22.9461 124.332 22.9044C124.214 22.8553 124.087 22.8301 123.959 22.8301C123.831 22.8301 123.704 22.8553 123.585 22.9044L122.54 23.3501C122.309 23.4628 122.13 23.6581 122.038 23.8968C121.945 24.1355 121.947 24.4001 122.042 24.6376L137.995 60.0454Z"></path>
<path fill="white" d="M144.515 57.3719C144.578 57.5657 144.701 57.7347 144.867 57.8548C145.032 57.9749 145.231 58.0399 145.436 58.0404H145.735L146.481 57.7681C146.604 57.7317 146.718 57.6709 146.816 57.5894C146.915 57.5079 146.996 57.4074 147.054 57.294C147.112 57.1806 147.146 57.0565 147.155 56.9295C147.163 56.8024 147.146 56.675 147.104 56.5548L134.66 19.7851C134.621 19.6622 134.557 19.5483 134.473 19.4503C134.389 19.3522 134.285 19.272 134.169 19.2143C134.053 19.1565 133.927 19.1226 133.798 19.1143C133.668 19.106 133.538 19.1236 133.416 19.1661L132.321 19.5375C132.196 19.5763 132.081 19.6403 131.983 19.7255C131.884 19.8108 131.804 19.9154 131.748 20.0327C131.699 20.1504 131.674 20.2767 131.674 20.4041C131.674 20.5316 131.699 20.6579 131.748 20.7756L144.515 57.3719Z"></path>
<path fill="white" d="M53.181 122.542L92.0293 125.959C92.2704 125.96 92.5033 125.872 92.6827 125.712C92.8621 125.552 92.9752 125.331 92.9999 125.092V124.275C93.0207 124.023 92.9411 123.772 92.7782 123.578C92.6153 123.383 92.3821 123.26 92.1289 123.235L53.4797 119.471C53.3521 119.458 53.223 119.469 53.1 119.506C52.977 119.542 52.8624 119.602 52.7629 119.683C52.6633 119.763 52.5809 119.863 52.5202 119.975C52.4596 120.088 52.422 120.211 52.4095 120.338C52.4095 120.709 52.4095 121.081 52.4095 121.477C52.3967 121.606 52.4099 121.735 52.4484 121.859C52.4869 121.982 52.5498 122.096 52.6335 122.195C52.7732 122.367 52.9655 122.489 53.181 122.542Z"></path>
<path fill="white" d="M94.1446 146.213V145.495C94.0961 145.245 93.9526 145.023 93.7441 144.876C93.5356 144.728 93.2779 144.666 93.0247 144.703L54.3257 151.239C54.2059 151.266 54.093 151.317 53.9943 151.389C53.8957 151.462 53.8136 151.554 53.7533 151.66C53.6089 151.87 53.5469 152.126 53.5791 152.378L53.8031 153.592C53.8479 153.81 53.9657 154.008 54.1373 154.152C54.309 154.295 54.5245 154.377 54.7488 154.384H54.9479L93.2736 147.377C93.4111 147.366 93.5447 147.326 93.6655 147.259C93.7862 147.192 93.8913 147.101 93.9738 146.991C94.0562 146.881 94.1141 146.754 94.1435 146.62C94.173 146.486 94.1734 146.347 94.1446 146.213Z"></path>
<path fill="white" d="M56.814 101.99L94.3184 112.043H94.5673C94.7785 112.042 94.9839 111.974 95.1539 111.85C95.3239 111.725 95.4496 111.55 95.513 111.35L95.7121 110.557C95.781 110.311 95.749 110.048 95.623 109.825C95.497 109.602 95.2874 109.438 95.0401 109.369L57.5109 99.0187C57.2667 98.9492 57.0048 98.9776 56.7815 99.098C56.5582 99.2184 56.3911 99.421 56.3163 99.6625C56.1919 100.034 56.0923 100.405 55.9928 100.777C55.9074 101.017 55.9074 101.279 55.9928 101.52C56.0796 101.66 56.2001 101.776 56.3435 101.858C56.4869 101.94 56.6486 101.986 56.814 101.99Z"></path>
<path fill="white" d="M54.4751 112.216L92.8754 118.976H93.0248C93.2534 118.975 93.4747 118.895 93.6514 118.751C93.8282 118.607 93.9496 118.406 93.9953 118.184V117.416C94.0391 117.167 93.9828 116.91 93.8385 116.702C93.6942 116.494 93.4735 116.35 93.2238 116.302L55.0475 109.146C54.9216 109.121 54.792 109.121 54.6661 109.146C54.5402 109.171 54.4205 109.22 54.314 109.292C54.2075 109.363 54.1164 109.455 54.0458 109.562C53.9752 109.668 53.9265 109.788 53.9027 109.913L53.6787 111.102C53.6389 111.355 53.7015 111.613 53.8529 111.82C54.0049 112.023 54.2262 112.164 54.4751 112.216Z"></path>
<path fill="white" d="M68.6356 73.0694L102.233 92.7294C102.459 92.851 102.724 92.8829 102.973 92.8186C103.222 92.7543 103.438 92.5986 103.577 92.3828L103.975 91.6895C104.104 91.4721 104.143 91.213 104.082 90.9677C104.022 90.7223 103.867 90.5104 103.651 90.3772L70.2284 70.42C70.0015 70.2938 69.7375 70.25 69.4817 70.2962C69.2321 70.3621 69.0179 70.5219 68.8845 70.7419L68.2872 71.7324C68.2203 71.8425 68.1763 71.9649 68.1576 72.0922C68.139 72.2195 68.1461 72.3493 68.1785 72.4739C68.211 72.5984 68.2681 72.7153 68.3466 72.8176C68.4251 72.9198 68.5234 73.0055 68.6356 73.0694Z"></path>
<path fill="white" d="M59.8005 92.0368L96.3841 105.432C96.4907 105.455 96.601 105.455 96.7076 105.432C96.9085 105.43 97.1039 105.367 97.2683 105.252C97.4326 105.137 97.5582 104.976 97.6285 104.789L97.9022 104.071C97.9853 103.827 97.9724 103.561 97.8661 103.327C97.7599 103.093 97.5682 102.907 97.3298 102.808L60.8955 89.1151C60.6544 89.0281 60.3901 89.0281 60.1489 89.1151C60.0288 89.1652 59.9204 89.2394 59.8305 89.3331C59.7405 89.4269 59.671 89.5381 59.6263 89.6598C59.6263 90.0312 59.3526 90.4026 59.2281 90.7493C59.1764 90.8708 59.1503 91.0015 59.1514 91.1334C59.1525 91.2653 59.1807 91.3956 59.2343 91.5163C59.288 91.6369 59.3659 91.7454 59.4632 91.8349C59.5606 91.9244 59.6754 91.9931 59.8005 92.0368Z"></path>
<path fill="white" d="M63.7824 82.3308L99.1216 98.9452C99.2605 98.9798 99.4058 98.9798 99.5447 98.9452C99.7273 98.9478 99.9066 98.8977 100.061 98.801C100.216 98.7044 100.339 98.5653 100.416 98.4005L100.739 97.732C100.798 97.6188 100.833 97.4948 100.842 97.3678C100.851 97.2407 100.834 97.1131 100.793 96.9927C100.751 96.8723 100.685 96.7616 100.598 96.6674C100.512 96.5731 100.408 96.4973 100.291 96.4444L65.1512 79.5328C65.0345 79.4778 64.907 79.4492 64.7779 79.4492C64.6487 79.4492 64.5212 79.4778 64.4046 79.5328C64.2816 79.5687 64.1684 79.632 64.0735 79.7177C63.9787 79.8035 63.9046 79.9096 63.857 80.0281L63.3344 81.1175C63.2851 81.2352 63.2598 81.3614 63.2598 81.4889C63.2598 81.6164 63.2851 81.7427 63.3344 81.8603C63.4265 82.0627 63.5843 82.2284 63.7824 82.3308Z"></path>
<path fill="white" d="M106.016 86.8121C106.179 86.9174 106.368 86.9772 106.563 86.9855C106.718 86.9875 106.871 86.9525 107.01 86.8836C107.148 86.8147 107.268 86.7138 107.359 86.5893L107.832 85.9208C107.908 85.8192 107.963 85.7034 107.993 85.5804C108.022 85.4574 108.027 85.3297 108.006 85.2048C107.985 85.08 107.939 84.9607 107.871 84.8539C107.803 84.7472 107.713 84.6553 107.608 84.5837L76.0768 61.7791C75.9776 61.6975 75.8611 61.6395 75.736 61.6094C75.611 61.5794 75.4807 61.5781 75.3551 61.6057C75.2315 61.6225 75.1126 61.6641 75.0057 61.7279C74.8987 61.7918 74.8059 61.8765 74.7329 61.9772L74.0609 62.8933C73.984 62.9995 73.929 63.1199 73.8991 63.2474C73.8692 63.3749 73.865 63.507 73.8867 63.6361C73.9172 63.8798 74.0423 64.1019 74.2352 64.2551L106.016 86.8121Z"></path>
<path fill="white" d="M246.377 107.933L246.626 108.701C246.693 108.897 246.821 109.066 246.991 109.186C247.16 109.306 247.363 109.37 247.571 109.369H247.845L285.051 97.7813C285.174 97.7467 285.288 97.687 285.387 97.606C285.486 97.525 285.566 97.4244 285.623 97.3108C285.72 97.0726 285.72 96.8062 285.623 96.568L285.275 95.4785C285.191 95.2386 285.023 95.0366 284.802 94.909C284.561 94.822 284.297 94.822 284.056 94.909L246.949 106.794C246.731 106.883 246.553 107.047 246.448 107.256C246.342 107.466 246.317 107.707 246.377 107.933Z"></path>
<path fill="white" d="M240.976 95.2309L241.35 95.9243C241.432 96.0759 241.554 96.2023 241.703 96.2897C241.852 96.377 242.023 96.4219 242.196 96.4195C242.343 96.4561 242.497 96.4561 242.644 96.4195L277.236 78.5422C277.464 78.421 277.636 78.2162 277.715 77.9713C277.794 77.7264 277.774 77.4605 277.659 77.2299C277.485 76.8833 277.286 76.5366 277.112 76.1652C276.986 75.9427 276.778 75.7772 276.532 75.7034C276.287 75.6296 276.022 75.6531 275.793 75.769L241.375 93.9434C241.262 94.0007 241.163 94.0799 241.082 94.1761C241.001 94.2723 240.94 94.3837 240.903 94.5037C240.866 94.6237 240.853 94.7498 240.866 94.8747C240.878 94.9996 240.916 95.1207 240.976 95.2309Z"></path>
<path fill="white" d="M180.054 54.1524H180.85C181.089 54.16 181.322 54.0774 181.502 53.9212C181.682 53.765 181.796 53.5469 181.821 53.3105L186.499 14.8819C186.501 14.617 186.403 14.361 186.226 14.1638C186.058 13.9715 185.83 13.8408 185.579 13.7924H184.409C184.153 13.7713 183.898 13.8498 183.698 14.0114C183.499 14.1729 183.37 14.405 183.339 14.6591L179.208 53.0877C179.19 53.2133 179.199 53.3411 179.232 53.4634C179.266 53.5857 179.324 53.7 179.403 53.7994C179.482 53.8989 179.58 53.9814 179.692 54.042C179.804 54.1027 179.927 54.1402 180.054 54.1524Z"></path>
<path fill="white" d="M237.442 89.2877L237.865 89.9315C237.952 90.0703 238.073 90.1843 238.217 90.2625C238.361 90.3406 238.523 90.3802 238.687 90.3772C238.871 90.3744 239.051 90.3232 239.209 90.2287L272.06 69.3554C272.168 69.2854 272.262 69.1946 272.334 69.0883C272.407 68.982 272.457 68.8623 272.483 68.7363C272.536 68.6241 272.564 68.5015 272.564 68.3773C272.564 68.2532 272.536 68.1306 272.483 68.0183C272.284 67.6716 272.06 67.3497 271.861 67.0279C271.714 66.8129 271.489 66.6639 271.232 66.613C270.976 66.562 270.711 66.6132 270.492 66.7555L237.716 87.9507C237.502 88.092 237.353 88.3122 237.301 88.5629C237.25 88.8135 237.301 89.0743 237.442 89.2877Z"></path>
<path fill="white" d="M233.51 83.6426L233.983 84.2616C234.075 84.3781 234.192 84.4722 234.326 84.5366C234.459 84.601 234.606 84.634 234.755 84.633C234.971 84.6388 235.183 84.5687 235.352 84.4349L266.112 60.7637C266.312 60.603 266.442 60.3715 266.475 60.1176C266.507 59.8638 266.44 59.6072 266.286 59.4018L265.565 58.4857C265.488 58.3857 265.39 58.3031 265.278 58.2433C265.167 58.1836 265.044 58.148 264.918 58.139C264.79 58.1148 264.659 58.12 264.533 58.1543C264.408 58.1887 264.293 58.2512 264.196 58.3371L233.51 82.3303C233.344 82.5088 233.252 82.7431 233.252 82.9864C233.252 83.2297 233.344 83.4641 233.51 83.6426Z"></path>
<path fill="white" d="M250.931 127.295C250.678 127.308 250.44 127.419 250.268 127.604C250.096 127.789 250.004 128.034 250.011 128.286V129.103C250.029 129.353 250.143 129.586 250.327 129.756C250.512 129.926 250.755 130.02 251.006 130.019L289.954 128.608C290.219 128.595 290.469 128.479 290.651 128.286C290.739 128.195 290.808 128.086 290.85 127.966C290.893 127.846 290.91 127.719 290.9 127.593V126.454C290.897 126.328 290.87 126.204 290.818 126.089C290.767 125.974 290.693 125.871 290.601 125.785C290.399 125.614 290.144 125.518 289.879 125.513L250.931 127.295Z"></path>
<path fill="white" d="M248.219 114.52L248.393 115.238C248.434 115.456 248.552 115.653 248.725 115.793C248.898 115.934 249.115 116.009 249.339 116.005H249.538L287.664 107.884C287.791 107.858 287.911 107.808 288.018 107.736C288.125 107.663 288.216 107.571 288.287 107.463C288.375 107.231 288.375 106.976 288.287 106.745C288.287 106.348 288.112 105.952 288.038 105.556C287.978 105.305 287.823 105.087 287.604 104.949C287.386 104.81 287.122 104.761 286.868 104.813L248.965 113.455C248.73 113.508 248.524 113.647 248.386 113.844C248.247 114.041 248.188 114.281 248.219 114.52Z"></path>
<path fill="white" d="M249.463 121.403V122.146C249.488 122.382 249.602 122.601 249.782 122.757C249.962 122.913 250.195 122.995 250.434 122.988L289.332 118.234C289.46 118.219 289.583 118.178 289.695 118.115C289.807 118.052 289.905 117.967 289.984 117.866C290.063 117.764 290.121 117.648 290.154 117.524C290.187 117.401 290.195 117.271 290.178 117.144L290.028 115.981C290.013 115.853 289.973 115.73 289.909 115.619C289.845 115.508 289.76 115.41 289.658 115.331C289.556 115.253 289.44 115.196 289.315 115.163C289.191 115.13 289.061 115.121 288.933 115.139L250.309 120.314C250.181 120.329 250.058 120.369 249.946 120.433C249.834 120.496 249.735 120.581 249.657 120.682C249.578 120.784 249.52 120.899 249.487 121.023C249.454 121.147 249.446 121.276 249.463 121.403Z"></path>
<path fill="white" d="M243.963 101.47L244.261 102.164C244.37 102.393 244.559 102.574 244.793 102.675C245.026 102.775 245.289 102.787 245.531 102.708L281.592 87.852C281.822 87.746 282.008 87.5616 282.114 87.3321C282.164 87.2144 282.189 87.0882 282.189 86.9607C282.189 86.8332 282.164 86.7069 282.114 86.5892L281.666 85.4998C281.562 85.2616 281.368 85.0736 281.126 84.9764C280.884 84.8791 280.613 84.8803 280.372 84.9798L244.485 100.208C244.248 100.306 244.059 100.495 243.961 100.731C243.863 100.968 243.864 101.234 243.963 101.47Z"></path>
<path fill="white" d="M200.262 59.1047L201.008 59.4018C201.123 59.4274 201.242 59.4274 201.357 59.4018C201.552 59.4034 201.743 59.348 201.907 59.2423C202.071 59.1367 202.199 58.9855 202.278 58.8075L216.861 22.9045C216.91 22.7868 216.936 22.6606 216.936 22.5331C216.936 22.4056 216.91 22.2794 216.861 22.1617C216.752 21.9249 216.556 21.7388 216.314 21.6417L215.244 21.2208C215.125 21.1717 214.998 21.1465 214.87 21.1465C214.742 21.1465 214.615 21.1717 214.497 21.2208C214.266 21.3268 214.081 21.5112 213.974 21.7407L199.714 57.8419C199.666 57.9605 199.642 58.0874 199.643 58.2154C199.645 58.3433 199.672 58.4697 199.722 58.5872C199.773 58.7047 199.847 58.811 199.94 58.8998C200.032 58.9886 200.142 59.0583 200.262 59.1047Z"></path>
<path fill="white" d="M193.692 56.8518L194.463 57.0747C194.553 57.1001 194.648 57.1001 194.737 57.0747C194.946 57.0765 195.15 57.0095 195.316 56.8841C195.483 56.7587 195.603 56.5819 195.658 56.3814L206.981 19.2403C207.02 19.1184 207.033 18.9901 207.022 18.8629C207.01 18.7357 206.973 18.6121 206.912 18.4993C206.852 18.3864 206.77 18.2866 206.671 18.2055C206.572 18.1244 206.457 18.0638 206.334 18.027L205.214 17.7051C205.096 17.6561 204.969 17.6309 204.841 17.6309C204.713 17.6309 204.586 17.6561 204.468 17.7051C204.239 17.8351 204.07 18.048 203.995 18.2994L193.045 55.4405C192.966 55.5714 192.92 55.7194 192.911 55.8719C192.903 56.0244 192.931 56.1766 192.995 56.3156C193.059 56.4545 193.155 56.5759 193.277 56.6694C193.398 56.7628 193.541 56.8254 193.692 56.8518Z"></path>
<path fill="white" d="M186.947 55.2171L187.694 55.3656H187.893C188.115 55.3647 188.33 55.2879 188.502 55.1482C188.675 55.0085 188.793 54.8143 188.839 54.598L196.852 16.6399C196.914 16.3971 196.878 16.14 196.753 15.9229C196.627 15.7058 196.422 15.5456 196.18 15.4761L194.936 15.2533C194.81 15.2281 194.681 15.2281 194.555 15.2531C194.429 15.2782 194.309 15.3279 194.203 15.3992C194.096 15.4706 194.005 15.5623 193.934 15.669C193.864 15.7757 193.815 15.8953 193.791 16.0209L186.226 54.0781C186.173 54.324 186.219 54.5807 186.354 54.7934C186.489 55.0061 186.702 55.1581 186.947 55.2171Z"></path>
<path fill="white" d="M206.608 61.9277L207.305 62.2743C207.452 62.3091 207.606 62.3091 207.753 62.2743C207.932 62.2735 208.107 62.2247 208.26 62.1332C208.413 62.0417 208.539 61.9109 208.624 61.7544L226.393 27.337C226.52 27.1166 226.555 26.8553 226.49 26.6096C226.424 26.364 226.265 26.1538 226.045 26.0247L224.925 25.3809C224.689 25.275 224.422 25.2622 224.177 25.3449C223.932 25.4277 223.728 25.5998 223.606 25.8266L206.185 60.4916C206.108 60.6109 206.057 60.7454 206.037 60.8859C206.017 61.0263 206.027 61.1695 206.067 61.3057C206.107 61.4419 206.176 61.5679 206.27 61.6752C206.363 61.7825 206.478 61.8686 206.608 61.9277Z"></path>
<path fill="white" d="M228.832 78.3936L229.354 78.9383C229.443 79.0419 229.554 79.1246 229.679 79.1803C229.803 79.236 229.939 79.2633 230.076 79.2602C230.316 79.2647 230.548 79.1758 230.723 79.0126L259.442 52.7662C259.631 52.592 259.747 52.3532 259.766 52.0977C259.769 51.9699 259.746 51.8427 259.699 51.7237C259.652 51.6047 259.582 51.4962 259.492 51.4044L258.671 50.513C258.493 50.3323 258.253 50.226 257.999 50.2159C257.872 50.2037 257.743 50.2196 257.623 50.2624C257.502 50.3052 257.393 50.3738 257.302 50.4635L228.881 77.0317C228.699 77.2093 228.593 77.4494 228.584 77.7028C228.574 77.9561 228.663 78.2034 228.832 78.3936Z"></path>
<path fill="white" d="M212.68 65.2703L213.377 65.716C213.535 65.8105 213.715 65.8617 213.9 65.8645C214.066 65.8625 214.228 65.8182 214.372 65.7358C214.516 65.6535 214.636 65.5358 214.721 65.3941L235.452 32.5614C235.548 32.3232 235.548 32.0568 235.452 31.8186C235.424 31.6965 235.373 31.5811 235.3 31.4791C235.228 31.377 235.135 31.2904 235.029 31.2243L234.058 30.63C233.95 30.5614 233.83 30.5146 233.704 30.4924C233.578 30.4701 233.449 30.4729 233.324 30.5005C233.199 30.5281 233.081 30.5801 232.976 30.6533C232.871 30.7265 232.782 30.8196 232.714 30.9272L212.382 63.958C212.313 64.0632 212.267 64.181 212.245 64.3044C212.223 64.4279 212.226 64.5544 212.253 64.6766C212.281 64.7989 212.333 64.9144 212.407 65.0163C212.48 65.1183 212.573 65.2046 212.68 65.2703Z"></path>
<path fill="white" d="M223.83 73.54L224.452 74.0847C224.627 74.248 224.859 74.3368 225.099 74.3323C225.233 74.3338 225.366 74.3082 225.49 74.2571C225.614 74.2061 225.727 74.1306 225.82 74.0352L252.051 45.3128C252.221 45.1221 252.31 44.8738 252.3 44.6195C252.27 44.3669 252.156 44.1316 251.977 43.9509L251.13 43.1833C250.936 43.019 250.688 42.931 250.434 42.9357C250.171 42.96 249.925 43.0737 249.737 43.2576L223.755 72.1781C223.584 72.3687 223.495 72.6191 223.509 72.8744C223.523 73.1297 223.638 73.3691 223.83 73.54Z"></path>
<path fill="white" d="M218.578 69.1827L219.2 69.6284C219.36 69.7625 219.564 69.8331 219.773 69.8265C219.922 69.8315 220.07 69.8002 220.205 69.7355C220.339 69.6708 220.456 69.5746 220.544 69.4551L244.187 38.6032C244.266 38.5027 244.324 38.3876 244.358 38.2645C244.392 38.1414 244.401 38.0128 244.385 37.8862C244.369 37.7595 244.328 37.6373 244.264 37.5266C244.2 37.416 244.114 37.319 244.013 37.2414L243.042 36.5233C242.833 36.3734 242.573 36.3103 242.317 36.3472C242.062 36.3842 241.831 36.5183 241.673 36.7214L218.28 67.8209C218.207 67.929 218.156 68.0506 218.132 68.1785C218.107 68.3064 218.109 68.438 218.137 68.5652C218.165 68.6924 218.218 68.8127 218.294 68.9188C218.37 69.0249 218.467 69.1147 218.578 69.1827Z"></path>
<path fill="white" d="M208.275 202.345C208.153 202.118 207.949 201.946 207.704 201.863C207.459 201.781 207.192 201.794 206.956 201.899L206.26 202.246C206.032 202.367 205.86 202.572 205.781 202.817C205.702 203.062 205.722 203.328 205.836 203.558L223.133 238.223C223.245 238.446 223.442 238.615 223.68 238.694C223.787 238.717 223.897 238.717 224.004 238.694C224.143 238.729 224.288 238.729 224.427 238.694L225.472 238.174C225.703 238.062 225.879 237.863 225.963 237.622C226.047 237.381 226.032 237.116 225.92 236.886L208.275 202.345Z"></path>
<path fill="white" d="M230.474 185.286C230.386 185.194 230.28 185.12 230.162 185.07C230.045 185.02 229.918 184.994 229.79 184.994C229.662 184.994 229.535 185.02 229.418 185.07C229.3 185.12 229.194 185.194 229.106 185.286L228.558 185.855C228.466 185.943 228.392 186.049 228.341 186.166C228.291 186.283 228.265 186.409 228.265 186.536C228.265 186.663 228.291 186.789 228.341 186.906C228.392 187.024 228.466 187.129 228.558 187.217L256.904 213.934C257.084 214.108 257.325 214.205 257.576 214.206C257.83 214.196 258.07 214.09 258.248 213.909L259.045 213.067C259.227 212.882 259.329 212.633 259.329 212.374C259.329 212.115 259.227 211.866 259.045 211.681L230.474 185.286Z"></path>
<path fill="white" d="M220.122 194.794C219.964 194.591 219.733 194.456 219.477 194.419C219.222 194.383 218.962 194.446 218.753 194.596L218.156 195.041C217.951 195.198 217.817 195.428 217.779 195.682C217.742 195.936 217.806 196.195 217.956 196.403L240.977 227.626C241.061 227.752 241.176 227.854 241.311 227.924C241.446 227.993 241.596 228.027 241.748 228.023C241.953 228.026 242.153 227.966 242.321 227.849L243.291 227.131C243.495 226.974 243.63 226.744 243.667 226.49C243.704 226.236 243.641 225.978 243.49 225.769L220.122 194.794Z"></path>
<path fill="white" d="M225.522 190.238C225.34 190.058 225.094 189.957 224.837 189.957C224.581 189.957 224.335 190.058 224.153 190.238L223.556 190.783C223.463 190.871 223.389 190.976 223.339 191.093C223.289 191.21 223.263 191.336 223.263 191.464C223.263 191.591 223.289 191.717 223.339 191.834C223.389 191.951 223.463 192.057 223.556 192.145L249.289 221.115C249.461 221.31 249.701 221.433 249.961 221.461C250.198 221.454 250.427 221.367 250.608 221.214L251.454 220.446C251.549 220.361 251.627 220.259 251.683 220.144C251.738 220.029 251.77 219.905 251.777 219.778C251.786 219.651 251.769 219.524 251.726 219.405C251.683 219.286 251.616 219.176 251.528 219.084L225.522 190.238Z"></path>
<path fill="white" d="M201.905 205.292C201.858 205.173 201.788 205.064 201.699 204.972C201.609 204.88 201.503 204.806 201.384 204.756C201.266 204.705 201.139 204.678 201.011 204.677C200.882 204.675 200.755 204.699 200.635 204.748L199.963 205.02C199.844 205.066 199.734 205.136 199.642 205.225C199.549 205.314 199.475 205.42 199.424 205.537C199.373 205.655 199.346 205.781 199.345 205.909C199.343 206.037 199.368 206.164 199.416 206.283L213.452 242.458C213.497 242.58 213.566 242.691 213.656 242.785C213.746 242.878 213.855 242.953 213.975 243.003C214.098 243.026 214.225 243.026 214.348 243.003C214.463 243.028 214.582 243.028 214.696 243.003L215.866 242.557C216.104 242.459 216.292 242.27 216.39 242.033C216.488 241.797 216.488 241.531 216.389 241.294L201.905 205.292Z"></path>
<path fill="white" d="M214.372 198.83C214.306 198.72 214.218 198.625 214.115 198.549C214.011 198.473 213.893 198.419 213.768 198.389C213.643 198.359 213.513 198.354 213.386 198.375C213.259 198.395 213.138 198.44 213.029 198.508L212.381 198.904C212.271 198.97 212.175 199.057 212.099 199.16C212.023 199.264 211.969 199.381 211.939 199.505C211.908 199.63 211.904 199.759 211.924 199.885C211.944 200.011 211.99 200.132 212.058 200.241L232.341 233.371C232.426 233.513 232.546 233.63 232.69 233.713C232.833 233.795 232.996 233.839 233.162 233.841C233.346 233.839 233.527 233.787 233.685 233.693L234.68 233.074C234.79 233.011 234.884 232.926 234.957 232.823C235.03 232.72 235.08 232.603 235.103 232.48C235.157 232.363 235.185 232.236 235.185 232.108C235.185 231.98 235.157 231.853 235.103 231.737L214.372 198.83Z"></path>
<path fill="white" d="M195.309 207.669C195.229 207.426 195.057 207.223 194.83 207.103C194.603 206.983 194.337 206.955 194.09 207.025L193.343 207.248C193.096 207.318 192.886 207.482 192.76 207.704C192.634 207.927 192.602 208.191 192.671 208.437L203.646 245.751C203.701 245.952 203.822 246.128 203.988 246.254C204.155 246.379 204.358 246.446 204.567 246.444H204.841L205.961 246.123C206.084 246.086 206.198 246.025 206.297 245.944C206.397 245.863 206.479 245.763 206.539 245.65C206.599 245.538 206.636 245.414 206.648 245.287C206.66 245.16 206.646 245.031 206.608 244.909L195.309 207.669Z"></path>
<path fill="white" d="M180.477 209.799H179.73C179.477 209.836 179.248 209.965 179.086 210.162C178.925 210.36 178.844 210.61 178.859 210.864L182.866 249.441C182.885 249.684 182.995 249.911 183.175 250.076C183.355 250.241 183.592 250.333 183.837 250.332L185.056 250.208C185.184 250.195 185.308 250.155 185.419 250.091C185.531 250.027 185.627 249.94 185.703 249.837C185.855 249.639 185.926 249.391 185.902 249.144L181.547 210.641C181.516 210.389 181.386 210.159 181.186 210.001C180.985 209.844 180.731 209.771 180.477 209.799Z"></path>
<path fill="white" d="M188.54 209.452C188.486 209.203 188.336 208.985 188.122 208.846C187.907 208.707 187.646 208.658 187.395 208.709L186.599 208.858C186.349 208.911 186.13 209.061 185.99 209.274C185.85 209.488 185.801 209.747 185.852 209.997L193.319 248.079C193.359 248.3 193.476 248.5 193.648 248.644C193.821 248.789 194.039 248.869 194.264 248.871H194.438L195.608 248.648C195.86 248.589 196.079 248.435 196.219 248.217C196.358 248 196.407 247.737 196.355 247.485L188.54 209.452Z"></path>
<path fill="white" d="M287.565 156.612L249.488 148.293C249.364 148.263 249.235 148.259 249.109 148.279C248.983 148.299 248.862 148.344 248.753 148.41C248.645 148.477 248.55 148.565 248.476 148.668C248.401 148.771 248.347 148.887 248.318 149.011L248.144 149.754C248.092 150.006 248.14 150.269 248.28 150.486C248.419 150.704 248.638 150.858 248.891 150.918L286.868 159.683H287.092C287.312 159.673 287.522 159.594 287.693 159.455C287.863 159.317 287.984 159.127 288.038 158.915C288.038 158.544 288.212 158.148 288.286 157.751C288.339 157.506 288.293 157.249 288.158 157.036C288.023 156.824 287.81 156.671 287.565 156.612Z"></path>
<path fill="white" d="M175.126 13.0003H173.956C173.828 12.9936 173.7 13.013 173.579 13.0572C173.458 13.1015 173.348 13.1697 173.255 13.2578C173.162 13.3458 173.088 13.4518 173.037 13.5693C172.987 13.6869 172.961 13.8134 172.961 13.9412L172.164 52.7413C172.161 52.8669 172.183 52.9919 172.229 53.109C172.275 53.226 172.344 53.3326 172.432 53.4227C172.521 53.5127 172.626 53.5842 172.742 53.633C172.859 53.6819 172.984 53.707 173.11 53.7069H173.906C174.16 53.707 174.403 53.6087 174.584 53.4329C174.765 53.2571 174.871 53.0178 174.877 52.766L176.072 14.0403C176.084 13.9136 176.068 13.7859 176.025 13.666C175.982 13.5462 175.913 13.4373 175.823 13.347C175.643 13.1484 175.394 13.0247 175.126 13.0003Z"></path>
<path fill="white" d="M289.282 146.312L250.608 141.36C250.354 141.325 250.096 141.391 249.891 141.544C249.686 141.697 249.55 141.925 249.513 142.177V142.969C249.477 143.222 249.544 143.479 249.698 143.683C249.851 143.887 250.08 144.022 250.334 144.059L288.958 149.407H289.083C289.319 149.404 289.546 149.318 289.723 149.163C289.901 149.009 290.018 148.797 290.053 148.565L290.203 147.402C290.22 147.269 290.21 147.134 290.172 147.005C290.134 146.877 290.07 146.758 289.983 146.655C289.897 146.553 289.789 146.469 289.669 146.41C289.548 146.351 289.416 146.318 289.282 146.312Z"></path>
<path fill="white" d="M284.927 166.74L247.746 155.028C247.501 154.95 247.236 154.971 247.008 155.087C246.779 155.203 246.606 155.404 246.526 155.647L246.277 156.414C246.205 156.657 246.23 156.919 246.346 157.144C246.461 157.37 246.66 157.543 246.9 157.628L283.956 169.661C284.054 169.685 284.157 169.685 284.255 169.661C284.401 169.701 284.556 169.701 284.703 169.661C284.93 169.535 285.106 169.334 285.2 169.092C285.2 168.745 285.424 168.374 285.549 168.002C285.598 167.885 285.623 167.758 285.623 167.631C285.623 167.503 285.598 167.377 285.549 167.26C285.49 167.132 285.404 167.02 285.297 166.93C285.189 166.84 285.063 166.775 284.927 166.74Z"></path>
<path fill="white" d="M290.078 135.912L251.131 134.328C251.003 134.321 250.875 134.339 250.755 134.382C250.635 134.424 250.524 134.49 250.429 134.575C250.335 134.66 250.258 134.763 250.203 134.878C250.148 134.992 250.117 135.117 250.11 135.244V136.036C250.107 136.163 250.129 136.289 250.174 136.407C250.22 136.526 250.289 136.634 250.377 136.726C250.465 136.818 250.57 136.892 250.686 136.944C250.803 136.995 250.928 137.023 251.056 137.026L289.979 139.032C290.217 139.029 290.447 138.941 290.626 138.784C290.724 138.702 290.803 138.599 290.859 138.484C290.914 138.369 290.945 138.244 290.949 138.116C290.949 137.72 290.949 137.324 290.949 136.927C290.964 136.679 290.881 136.435 290.719 136.246C290.556 136.057 290.327 135.937 290.078 135.912Z"></path>
<path fill="white" d="M271.762 195.141L239.011 174.094C238.903 174.025 238.783 173.978 238.657 173.956C238.531 173.934 238.402 173.937 238.277 173.964C238.152 173.992 238.034 174.044 237.929 174.117C237.824 174.19 237.735 174.283 237.667 174.391L237.194 175.084C237.061 175.303 237.018 175.563 237.074 175.813C237.129 176.062 237.279 176.28 237.493 176.421L270.094 197.691C270.249 197.796 270.43 197.856 270.617 197.864H270.841C271.092 197.801 271.312 197.652 271.463 197.443L272.06 196.527C272.207 196.309 272.261 196.042 272.21 195.784C272.136 195.526 271.978 195.3 271.762 195.141Z"></path>
<path fill="white" d="M234.979 179.888C234.883 179.805 234.771 179.743 234.649 179.705C234.528 179.668 234.4 179.656 234.274 179.67C234.148 179.684 234.026 179.723 233.916 179.787C233.806 179.85 233.71 179.935 233.635 180.036L233.137 180.655C233.057 180.754 232.997 180.868 232.961 180.99C232.925 181.113 232.913 181.241 232.927 181.367C232.941 181.494 232.98 181.616 233.042 181.728C233.103 181.839 233.187 181.938 233.287 182.017L263.848 206.134C264.022 206.258 264.23 206.327 264.445 206.332C264.593 206.333 264.74 206.3 264.874 206.236C265.008 206.171 265.125 206.077 265.216 205.961L265.938 205.045C266.111 204.85 266.2 204.596 266.186 204.336C266.172 204.077 266.056 203.833 265.863 203.658L234.979 179.888Z"></path>
<path fill="white" d="M281.368 176.595L245.406 161.565C245.289 161.512 245.162 161.485 245.034 161.483C244.905 161.481 244.778 161.505 244.659 161.553C244.54 161.602 244.433 161.674 244.343 161.766C244.253 161.857 244.183 161.966 244.137 162.085L243.813 162.803C243.764 162.92 243.739 163.045 243.739 163.172C243.739 163.299 243.763 163.425 243.812 163.542C243.86 163.659 243.932 163.766 244.022 163.856C244.112 163.945 244.218 164.017 244.336 164.066L280.173 179.343C280.295 179.377 280.424 179.377 280.546 179.343C280.738 179.343 280.925 179.287 281.085 179.181C281.244 179.075 281.369 178.925 281.442 178.749L281.915 177.684C281.964 177.467 281.935 177.241 281.836 177.043C281.736 176.844 281.571 176.686 281.368 176.595Z"></path>
<path fill="white" d="M276.988 186.077L242.495 168.002C242.382 167.941 242.258 167.904 242.131 167.891C242.004 167.878 241.875 167.89 241.752 167.927C241.63 167.964 241.516 168.024 241.417 168.105C241.318 168.186 241.236 168.286 241.176 168.398L240.802 169.092C240.686 169.319 240.662 169.583 240.736 169.827C240.811 170.072 240.977 170.278 241.2 170.404L275.519 188.801C275.666 188.838 275.82 188.838 275.967 188.801H276.241C276.494 188.727 276.708 188.558 276.838 188.331L277.386 187.291C277.447 187.179 277.485 187.056 277.498 186.929C277.511 186.802 277.498 186.674 277.461 186.552C277.424 186.43 277.363 186.317 277.282 186.218C277.201 186.12 277.101 186.038 276.988 185.978V186.077Z"></path>
<path fill="white" d="M173.533 210.269H172.787C172.658 210.268 172.531 210.294 172.413 210.345C172.295 210.395 172.188 210.469 172.1 210.561C172.011 210.654 171.943 210.764 171.898 210.884C171.854 211.004 171.834 211.131 171.841 211.259L172.414 250.034C172.414 250.16 172.439 250.284 172.488 250.4C172.537 250.516 172.609 250.621 172.699 250.708C172.79 250.796 172.897 250.865 173.015 250.911C173.132 250.957 173.258 250.978 173.384 250.975H174.604C174.731 250.972 174.857 250.944 174.973 250.892C175.09 250.841 175.195 250.767 175.283 250.675C175.371 250.583 175.439 250.475 175.485 250.356C175.531 250.238 175.553 250.112 175.549 249.985L174.529 211.209C174.51 210.958 174.398 210.721 174.214 210.547C174.03 210.374 173.787 210.274 173.533 210.269Z"></path>
<path fill="white" d="M107.583 177.733L107.16 177.139C107.086 177.034 106.991 176.944 106.882 176.876C106.773 176.808 106.651 176.762 106.523 176.741C106.396 176.72 106.265 176.725 106.14 176.755C106.014 176.785 105.896 176.84 105.792 176.916L73.9365 199.201C73.8286 199.269 73.737 199.359 73.6682 199.466C73.5994 199.573 73.5551 199.694 73.5383 199.82C73.5122 199.943 73.512 200.071 73.5377 200.194C73.5633 200.318 73.6144 200.435 73.6877 200.538L74.4094 201.528C74.4992 201.654 74.6189 201.756 74.7578 201.825C74.8967 201.894 75.0505 201.928 75.2058 201.924C75.4101 201.928 75.6105 201.867 75.7782 201.751L107.36 179.021C107.557 178.877 107.691 178.662 107.733 178.422C107.775 178.182 107.721 177.935 107.583 177.733Z"></path>
<path fill="white" d="M127.493 196.948L126.87 196.527C126.659 196.384 126.399 196.329 126.147 196.376C125.895 196.422 125.672 196.565 125.526 196.775L103.377 228.691C103.301 228.793 103.246 228.909 103.216 229.032C103.186 229.156 103.182 229.284 103.203 229.409C103.226 229.536 103.275 229.657 103.348 229.764C103.421 229.87 103.516 229.96 103.626 230.028L104.622 230.722C104.786 230.823 104.976 230.874 105.169 230.87H105.343C105.47 230.845 105.59 230.794 105.697 230.722C105.804 230.65 105.895 230.557 105.965 230.449L127.741 198.26C127.878 198.052 127.928 197.799 127.882 197.554C127.835 197.31 127.696 197.093 127.493 196.948Z"></path>
<path fill="white" d="M116.717 188.232L116.144 187.687C115.963 187.507 115.717 187.406 115.46 187.406C115.204 187.406 114.958 187.507 114.776 187.687L87.4002 215.271C87.2185 215.447 87.1117 215.687 87.1016 215.939C87.1171 216.198 87.2227 216.443 87.4002 216.632L88.2464 217.45C88.4265 217.623 88.6673 217.721 88.9183 217.722C89.0485 217.721 89.1774 217.695 89.2971 217.644C89.4168 217.593 89.525 217.518 89.6151 217.425L116.717 189.594C116.898 189.413 116.999 189.168 116.999 188.913C116.999 188.658 116.898 188.413 116.717 188.232Z"></path>
<path fill="white" d="M121.893 192.812L121.296 192.317C121.114 192.137 120.868 192.036 120.611 192.036C120.355 192.036 120.109 192.137 119.927 192.317L95.0402 222.203C94.8891 222.411 94.8184 222.666 94.8411 222.921C94.8692 223.18 94.9935 223.418 95.1895 223.59L96.0854 224.308C96.2591 224.454 96.48 224.533 96.7076 224.531C96.8494 224.528 96.9891 224.495 97.1176 224.436C97.2462 224.376 97.3608 224.29 97.4542 224.184L122.017 194.05C122.147 193.862 122.205 193.635 122.182 193.409C122.16 193.182 122.057 192.971 121.893 192.812Z"></path>
<path fill="white" d="M111.914 183.181L111.391 182.562C111.209 182.382 110.963 182.281 110.707 182.281C110.45 182.281 110.204 182.382 110.022 182.562L80.3075 207.571C80.1115 207.742 79.9872 207.981 79.9591 208.239C79.9505 208.501 80.0391 208.756 80.2079 208.957L80.9297 209.799C81.1022 209.994 81.342 210.118 81.6016 210.146C81.8373 210.152 82.0673 210.073 82.2487 209.923L111.814 184.543C112.009 184.376 112.129 184.138 112.147 183.883C112.166 183.627 112.082 183.375 111.914 183.181Z"></path>
<path fill="white" d="M97.7531 159.509L97.5043 158.816C97.4628 158.695 97.3971 158.584 97.3112 158.49C97.2254 158.395 97.1211 158.319 97.0047 158.266C96.8884 158.213 96.7624 158.183 96.6343 158.18C96.5063 158.177 96.3789 158.199 96.2599 158.246L59.6017 171.469C59.3701 171.57 59.178 171.744 59.0542 171.964C59.0049 172.081 58.9795 172.208 58.9795 172.335C58.9795 172.463 59.0049 172.589 59.0542 172.707C59.2035 173.078 59.3279 173.474 59.4772 173.846C59.5728 174.08 59.7492 174.273 59.975 174.39C60.1148 174.416 60.2582 174.416 60.398 174.39H60.7216L97.2305 160.722C97.4602 160.629 97.6438 160.449 97.7415 160.222C97.8393 159.995 97.8435 159.739 97.7531 159.509Z"></path>
<path fill="white" d="M100.491 165.873L100.167 165.18C100.054 164.951 99.8563 164.774 99.6152 164.686C99.374 164.598 99.1081 164.607 98.8731 164.71L63.5587 181.151C63.4416 181.201 63.3365 181.276 63.2507 181.37C63.1649 181.464 63.1002 181.575 63.061 181.695C63.0117 181.813 62.9863 181.939 62.9863 182.067C62.9863 182.194 63.0117 182.321 63.061 182.438L63.5836 183.503C63.6578 183.67 63.7804 183.811 63.9355 183.908C64.0907 184.005 64.2715 184.054 64.4546 184.048C64.5935 184.082 64.7388 184.082 64.8777 184.048L100.018 167.26C100.145 167.205 100.259 167.124 100.352 167.022C100.446 166.921 100.518 166.801 100.562 166.671C100.607 166.54 100.623 166.402 100.611 166.265C100.599 166.127 100.558 165.994 100.491 165.873Z"></path>
<path fill="white" d="M95.613 152.948L95.4139 152.18C95.3442 151.934 95.1794 151.726 94.9555 151.601C94.7315 151.475 94.4668 151.443 94.2193 151.512L56.5407 161.565C56.4186 161.594 56.3043 161.648 56.2055 161.725C56.1067 161.802 56.0258 161.9 55.9683 162.01C55.9133 162.122 55.8848 162.245 55.8848 162.37C55.8848 162.494 55.9133 162.617 55.9683 162.729L56.2669 163.868C56.3002 163.987 56.3568 164.099 56.4337 164.197C56.5106 164.295 56.6062 164.376 56.7149 164.437C56.8773 164.485 57.0503 164.485 57.2126 164.437H57.4615L94.941 154.137C95.0653 154.105 95.1819 154.049 95.2837 153.972C95.3855 153.894 95.4704 153.797 95.5332 153.686C95.5961 153.575 95.6356 153.452 95.6493 153.325C95.663 153.198 95.6506 153.07 95.613 152.948Z"></path>
<path fill="white" d="M103.776 171.939L103.378 171.296C103.316 171.185 103.232 171.088 103.132 171.01C103.031 170.932 102.916 170.875 102.792 170.843C102.669 170.81 102.541 170.803 102.415 170.821C102.289 170.84 102.167 170.883 102.059 170.949L68.3619 190.436C68.1361 190.565 67.9704 190.778 67.9006 191.028C67.8308 191.278 67.8624 191.546 67.9886 191.773L68.6108 192.788C68.7442 193.008 68.9584 193.168 69.2081 193.234H69.4321C69.596 193.27 69.7659 193.27 69.9298 193.234L103.427 173.425C103.562 173.364 103.68 173.272 103.774 173.158C103.867 173.044 103.934 172.91 103.967 172.767C104.001 172.624 104.001 172.475 103.968 172.331C103.935 172.188 103.869 172.054 103.776 171.939Z"></path>
<path fill="white" d="M154.047 14.2381L152.902 14.4114C152.647 14.4494 152.416 14.5821 152.255 14.7828C152.113 14.9938 152.051 15.2485 152.081 15.5009L158.079 53.8305C158.115 54.0601 158.233 54.2691 158.411 54.4192C158.589 54.5693 158.816 54.6504 159.049 54.6476H159.199L159.995 54.5238C160.249 54.487 160.478 54.3517 160.632 54.1476C160.786 53.9435 160.852 53.687 160.816 53.4343L155.167 15.0552C155.124 14.8007 154.983 14.5729 154.774 14.4203C154.565 14.2676 154.304 14.2023 154.047 14.2381Z"></path>
<path fill="white" d="M166.565 210.145H165.769C165.513 210.131 165.261 210.216 165.066 210.382C164.871 210.548 164.749 210.782 164.723 211.036L161.986 249.737C161.972 249.996 162.052 250.25 162.21 250.455C162.391 250.634 162.628 250.748 162.882 250.777H164.051C164.3 250.778 164.54 250.683 164.721 250.512C164.901 250.342 165.009 250.109 165.022 249.861L167.511 211.16C167.517 211.031 167.498 210.902 167.454 210.781C167.41 210.66 167.341 210.549 167.253 210.454C167.165 210.359 167.059 210.283 166.941 210.23C166.822 210.177 166.695 210.148 166.565 210.145Z"></path>
<path fill="white" d="M164.574 13.1739H163.404C163.276 13.1779 163.15 13.2087 163.034 13.2641C162.918 13.3195 162.816 13.3984 162.732 13.4957C162.574 13.6913 162.494 13.9383 162.508 14.189L164.997 52.9148C165.021 53.1557 165.134 53.3795 165.312 53.5437C165.491 53.708 165.724 53.8013 165.968 53.8062H166.764C166.891 53.8 167.014 53.7685 167.129 53.7137C167.243 53.6589 167.344 53.5819 167.428 53.4872C167.512 53.3926 167.575 53.2821 167.615 53.1625C167.655 53.0429 167.67 52.9166 167.66 52.791L165.594 14.09C165.591 13.962 165.562 13.836 165.509 13.7196C165.455 13.6033 165.378 13.499 165.283 13.4133C165.187 13.3275 165.075 13.2621 164.953 13.2209C164.831 13.1797 164.702 13.1637 164.574 13.1739Z"></path>
<path fill="white" d="M133.441 200.587L132.744 200.166C132.518 200.048 132.255 200.021 132.01 200.09C131.764 200.159 131.555 200.319 131.425 200.538L112.237 234.311C112.14 234.55 112.14 234.816 112.237 235.054C112.265 235.179 112.319 235.297 112.396 235.4C112.473 235.502 112.572 235.587 112.685 235.648L113.681 236.193C113.836 236.23 113.998 236.23 114.153 236.193H114.427C114.673 236.118 114.879 235.949 115 235.723L133.963 201.9C134.02 201.78 134.052 201.65 134.056 201.518C134.061 201.385 134.038 201.254 133.989 201.13C133.94 201.007 133.866 200.896 133.771 200.802C133.677 200.709 133.565 200.636 133.441 200.587Z"></path>
<path fill="white" d="M159.646 209.427H158.9C158.646 209.392 158.388 209.458 158.183 209.611C157.978 209.764 157.842 209.992 157.805 210.244L151.508 248.401C151.476 248.653 151.538 248.909 151.683 249.119C151.841 249.327 152.072 249.468 152.33 249.515L153.524 249.688H153.673C153.909 249.685 154.136 249.599 154.314 249.444C154.492 249.29 154.609 249.078 154.644 248.846L160.443 210.492C160.478 210.246 160.415 209.996 160.265 209.796C160.116 209.597 159.894 209.464 159.646 209.427Z"></path>
<path fill="white" d="M139.687 203.658L138.941 203.311C138.703 203.21 138.434 203.205 138.193 203.297C137.951 203.39 137.755 203.572 137.647 203.806L121.52 239.14C121.471 239.257 121.445 239.384 121.445 239.511C121.445 239.639 121.471 239.765 121.52 239.882C121.565 240.004 121.634 240.115 121.724 240.209C121.814 240.303 121.922 240.377 122.043 240.427L123.063 240.873C123.193 240.91 123.331 240.91 123.461 240.873H123.81C124.046 240.775 124.234 240.588 124.332 240.353L140.185 204.945C140.239 204.828 140.268 204.702 140.272 204.573C140.276 204.445 140.254 204.317 140.208 204.197C140.162 204.077 140.092 203.968 140.002 203.875C139.913 203.782 139.806 203.709 139.687 203.658Z"></path>
<path fill="white" d="M152.828 208.09L152.081 207.917C151.83 207.856 151.566 207.894 151.343 208.024C151.12 208.153 150.956 208.363 150.886 208.61L141.28 246.197C141.226 246.449 141.271 246.713 141.405 246.933C141.539 247.154 141.752 247.316 142.002 247.386L143.122 247.658H143.371C143.588 247.654 143.798 247.579 143.969 247.445C144.14 247.311 144.262 247.125 144.316 246.915L153.549 209.254C153.596 209.006 153.548 208.748 153.415 208.533C153.281 208.318 153.072 208.16 152.828 208.09Z"></path>
<path fill="white" d="M146.133 206.134L145.436 205.887C145.192 205.807 144.925 205.824 144.693 205.934C144.461 206.045 144.282 206.241 144.192 206.481L131.25 243.077C131.201 243.195 131.176 243.321 131.176 243.449C131.176 243.576 131.201 243.702 131.25 243.82C131.378 244.046 131.58 244.222 131.823 244.315L132.968 244.712H133.291C133.496 244.711 133.695 244.646 133.861 244.526C134.026 244.406 134.149 244.237 134.212 244.043L146.655 207.323C146.727 207.095 146.713 206.85 146.617 206.632C146.521 206.413 146.349 206.237 146.133 206.134Z"></path>
<path fill="white" d="M92.7757 132.224V131.456C92.7757 131.2 92.6734 130.954 92.4914 130.773C92.3094 130.592 92.0625 130.49 91.8051 130.49L52.8324 130.144C52.7039 130.141 52.5761 130.164 52.4565 130.21C52.3369 130.257 52.2278 130.327 52.1355 130.416C52.0378 130.503 51.9605 130.61 51.9089 130.73C51.8573 130.85 51.8327 130.979 51.8369 131.109V132.273C51.8418 132.515 51.9356 132.747 52.1007 132.925C52.2658 133.103 52.4906 133.215 52.7328 133.239H91.7304C91.8683 133.25 92.0069 133.231 92.137 133.184C92.267 133.137 92.3855 133.063 92.4845 132.967C92.5835 132.871 92.6607 132.755 92.7109 132.627C92.7611 132.499 92.7832 132.361 92.7757 132.224Z"></path>
</g>
<g clip-path="url(#clip2_7007_312)">
<path fill="white" d="M367.688 85.5438C368.428 85.5438 368.695 86.016 368.695 86.5473V89.4987C368.695 90.2071 368.428 90.5908 367.777 90.5908H347.765C338.883 90.5908 334.443 93.2766 334.443 99.7109V101.157C334.443 106.116 335.627 108.831 341.873 111.34L362.596 120.017C365.676 121.133 368.298 123.237 370.05 125.998C371.802 128.76 372.585 132.023 372.277 135.276V137.992C372.277 151.893 361.057 152.985 349.452 152.985C343.028 152.985 334.236 152.719 327.456 151.982C326.805 151.982 326.539 151.627 326.539 150.889V147.938C326.538 147.8 326.566 147.662 326.623 147.536C326.679 147.409 326.762 147.296 326.865 147.204C326.969 147.112 327.091 147.043 327.224 147.001C327.356 146.96 327.496 146.947 327.634 146.964H351.643C359.873 146.964 365.409 145.164 365.409 137.932V135.955C365.61 133.648 365.027 131.34 363.755 129.402C362.482 127.465 360.594 126.01 358.392 125.271L336.189 116.151C328.789 113.199 327.604 107.768 327.604 101.393V99.4157C327.604 86.4882 337.64 84.5107 350.163 84.5107C356.018 84.5606 361.867 84.9054 367.688 85.5438Z"></path>
<path fill="white" d="M435.362 85.1016C436.102 85.1016 436.546 85.4557 436.546 86.1936V89.9715C436.572 90.1323 436.558 90.2968 436.508 90.4515C436.457 90.6063 436.371 90.7469 436.255 90.862C436.14 90.9771 435.999 91.0634 435.844 91.1138C435.688 91.1642 435.523 91.1773 435.362 91.1521H400.015V117.066H432.076C432.905 117.066 433.26 117.42 433.26 118.158V121.936C433.26 122.762 432.905 123.117 432.076 123.117H400.015V146.728H435.362C435.515 146.706 435.671 146.718 435.819 146.764C435.967 146.809 436.103 146.887 436.216 146.992C436.33 147.097 436.418 147.226 436.475 147.369C436.532 147.512 436.557 147.667 436.546 147.82V151.628C436.566 151.786 436.549 151.947 436.497 152.098C436.444 152.249 436.356 152.386 436.242 152.497C436.127 152.609 435.988 152.692 435.835 152.741C435.682 152.79 435.521 152.803 435.362 152.779H394.39C394.21 152.803 394.026 152.786 393.853 152.728C393.68 152.669 393.523 152.572 393.394 152.444C393.265 152.315 393.168 152.159 393.11 151.987C393.051 151.814 393.034 151.631 393.058 151.451V86.5183C393.029 86.3359 393.042 86.1491 393.098 85.973C393.154 85.7969 393.251 85.6364 393.381 85.5043C393.51 85.3723 393.669 85.2724 393.844 85.2127C394.02 85.153 394.207 85.1351 394.39 85.1606L435.362 85.1016Z"></path>
<path fill="white" d="M510.23 85.1018C510.38 85.0759 510.533 85.0863 510.678 85.132C510.823 85.1777 510.954 85.2575 511.062 85.3645C511.169 85.4716 511.249 85.6028 511.295 85.7471C511.341 85.8915 511.351 86.0447 511.325 86.1939V151.481C511.325 152.277 510.97 152.632 510.23 152.632H505.789C505.284 152.694 504.772 152.6 504.322 152.362C503.872 152.125 503.506 151.755 503.273 151.303L464.966 94.0448V151.481C464.985 151.636 464.968 151.794 464.917 151.943C464.866 152.091 464.781 152.226 464.67 152.337C464.559 152.448 464.423 152.532 464.275 152.583C464.126 152.634 463.967 152.651 463.811 152.632H459.045C458.886 152.656 458.725 152.643 458.572 152.594C458.419 152.545 458.28 152.462 458.165 152.35C458.051 152.238 457.963 152.102 457.91 151.951C457.858 151.8 457.841 151.639 457.861 151.481V86.2234C457.861 85.4855 458.305 85.1313 459.045 85.1313H463.93C466.475 85.1313 466.89 85.397 468.192 87.1974L504.309 141.209V86.2234C504.309 85.4855 504.694 85.1313 505.493 85.1313L510.23 85.1018Z"></path>
<path fill="white" d="M573.7 85.5434C574.44 85.5434 574.707 86.0157 574.707 86.5469V89.4984C574.707 90.2068 574.44 90.5905 573.789 90.5905H553.777C544.896 90.5905 540.485 93.2763 540.485 99.7105V101.157C540.485 106.115 541.639 108.831 547.886 111.339L568.608 120.017C571.689 121.133 574.31 123.237 576.062 125.998C577.814 128.76 578.597 132.023 578.289 135.276V137.991C578.289 151.893 567.069 152.985 555.464 152.985C549.04 152.985 540.248 152.719 533.469 151.981C532.847 151.981 532.551 151.627 532.551 150.889V147.938C532.55 147.799 532.578 147.662 532.635 147.536C532.691 147.409 532.774 147.296 532.877 147.204C532.981 147.111 533.103 147.042 533.236 147.001C533.368 146.96 533.508 146.947 533.646 146.964H557.655C565.885 146.964 571.421 145.163 571.421 137.932V135.955C571.639 133.626 571.058 131.292 569.773 129.335C568.487 127.378 566.574 125.914 564.345 125.182L542.172 116.062C534.741 113.11 533.557 107.68 533.557 101.304V99.3268C533.557 86.3994 543.623 84.4219 556.115 84.4219C561.992 84.4991 567.861 84.8735 573.7 85.5434Z"></path>
<path fill="white" d="M604.785 85.1016C605.584 85.1016 605.94 85.4557 605.94 86.1936V151.48C605.94 152.277 605.584 152.631 604.785 152.631H600.167C599.427 152.631 599.072 152.277 599.072 151.48V86.2231C599.046 86.074 599.056 85.9207 599.102 85.7764C599.148 85.6321 599.228 85.5009 599.335 85.3938C599.442 85.2867 599.574 85.207 599.719 85.1613C599.864 85.1155 600.017 85.1052 600.167 85.1311L604.785 85.1016Z"></path>
<path fill="white" d="M677.316 103.341C677.316 111.547 675.155 116.977 669.707 118.335V118.689C677.316 120.135 679.121 127.367 679.121 134.863C679.121 150.034 670.714 153.192 657.126 153.192C652.863 153.192 637.646 153.015 631.933 152.72C631.045 152.72 630.778 152.454 630.778 151.569V86.2229C630.778 85.308 631.045 85.1309 631.933 85.0423C637.646 84.6881 649.962 84.5996 654.136 84.5996C669.234 84.6586 677.316 88.5251 677.316 103.341ZM637.735 90.7092V115.885H652.123C665.267 115.885 670.418 115.177 670.418 103.784C670.418 92.8637 664.823 90.7092 653.692 90.7092H637.735ZM637.735 121.67V147.053H657.392C667.073 147.053 672.194 144.957 672.194 134.775C672.194 123.825 666.836 121.67 658.34 121.67H637.735Z"></path>
<path fill="white" d="M706.83 85.1016C707.57 85.1016 708.014 85.4557 708.014 86.1936V146.581H742.237C742.39 146.558 742.546 146.571 742.693 146.616C742.841 146.662 742.977 146.74 743.09 146.845C743.204 146.949 743.293 147.078 743.35 147.221C743.407 147.365 743.431 147.519 743.421 147.673V151.48C743.441 151.639 743.424 151.8 743.371 151.951C743.318 152.102 743.231 152.238 743.116 152.35C743.001 152.461 742.862 152.545 742.709 152.594C742.557 152.643 742.395 152.655 742.237 152.631H702.39C702.207 152.661 702.019 152.647 701.843 152.591C701.666 152.535 701.505 152.439 701.373 152.31C701.24 152.181 701.14 152.022 701.08 151.847C701.02 151.673 701.002 151.486 701.028 151.303V86.2231C701.017 86.0692 701.042 85.915 701.099 85.7716C701.156 85.6283 701.244 85.4995 701.358 85.3948C701.472 85.2901 701.607 85.212 701.755 85.1664C701.903 85.1208 702.059 85.1087 702.212 85.1311L706.83 85.1016Z"></path>
<path fill="white" d="M803.931 85.1015C804.083 85.0782 804.238 85.0899 804.385 85.1356C804.531 85.1814 804.666 85.2599 804.777 85.3653C804.888 85.4708 804.974 85.6002 805.028 85.7437C805.081 85.8873 805.101 86.0412 805.086 86.1936V89.9715C805.11 90.1294 805.097 90.2909 805.048 90.443C804.999 90.5952 804.915 90.7339 804.803 90.8484C804.692 90.9628 804.554 91.0498 804.403 91.1025C804.252 91.1552 804.09 91.1721 803.931 91.152H768.584V117.066H800.645C801.474 117.066 801.829 117.42 801.829 118.158V121.936C801.829 122.762 801.474 123.117 800.645 123.117H768.584V146.728H803.931C804.082 146.711 804.235 146.726 804.379 146.774C804.523 146.822 804.655 146.901 804.765 147.005C804.875 147.109 804.961 147.236 805.016 147.377C805.072 147.518 805.096 147.669 805.086 147.82V151.628C805.105 151.784 805.088 151.942 805.037 152.09C804.986 152.238 804.901 152.373 804.79 152.484C804.679 152.595 804.544 152.679 804.395 152.73C804.246 152.781 804.087 152.798 803.931 152.779H762.989C762.806 152.808 762.619 152.795 762.442 152.739C762.266 152.683 762.105 152.587 761.972 152.457C761.84 152.328 761.739 152.17 761.68 151.995C761.62 151.82 761.602 151.634 761.627 151.451V86.5182C761.596 86.333 761.61 86.1432 761.668 85.9644C761.726 85.7857 761.825 85.6232 761.958 85.4905C762.091 85.3577 762.254 85.2585 762.434 85.2012C762.613 85.1438 762.803 85.1299 762.989 85.1605L803.931 85.1015Z"></path>
<path fill="white" d="M342.021 186.337C342.021 189.082 341.281 190.882 339.475 191.355C342.021 191.827 342.613 194.306 342.613 196.726C342.613 201.803 339.801 202.836 335.271 202.865C333.85 202.865 328.788 202.865 326.893 202.688C326.597 202.688 326.479 202.688 326.479 202.305V180.67C326.479 180.346 326.479 180.287 326.864 180.257C328.788 180.257 332.785 180.257 334.265 180.257C339.268 180.11 342.021 181.408 342.021 186.337ZM328.788 182.146V190.528H333.584C337.965 190.528 339.682 190.292 339.682 186.485C339.682 182.677 337.817 182.117 334.087 182.117L328.788 182.146ZM328.788 192.476V200.947H335.36C338.617 200.947 340.304 200.268 340.304 196.844C340.304 193.421 338.528 192.476 335.686 192.476H328.788Z"></path>
<path fill="white" d="M354.839 180.257C355.106 180.257 355.224 180.257 355.224 180.611V202.393C355.224 202.659 355.224 202.777 354.839 202.777H353.3C353.063 202.777 352.945 202.777 352.945 202.393V180.67C352.945 180.434 352.945 180.316 353.33 180.316L354.839 180.257Z"></path>
<path fill="white" d="M383.674 191.532C383.674 200.386 381.957 202.925 374.793 202.925C367.629 202.925 365.912 200.357 365.912 191.532C365.912 182.707 367.629 180.11 374.793 180.08C381.957 180.051 383.674 182.707 383.674 191.532ZM368.102 191.532C368.102 198.822 369.109 200.918 374.704 200.918C380.299 200.918 381.365 198.822 381.335 191.532C381.306 184.242 380.329 182.117 374.704 182.117C369.079 182.117 368.073 184.242 368.102 191.532Z"></path>
<path fill="white" d="M408.215 180.227C408.274 180.161 408.357 180.12 408.446 180.115C408.535 180.109 408.622 180.139 408.689 180.198C408.756 180.257 408.796 180.339 408.802 180.428C408.807 180.517 408.778 180.604 408.719 180.67V181.939C408.719 182.205 408.719 182.323 408.363 182.323H401.258V202.423C401.258 202.688 401.258 202.806 400.874 202.806H399.364C399.097 202.806 398.979 202.806 398.979 202.423V182.264H391.874C391.637 182.264 391.489 182.264 391.489 181.851V180.67C391.485 180.619 391.492 180.567 391.509 180.518C391.527 180.47 391.555 180.425 391.592 180.389C391.629 180.352 391.673 180.324 391.722 180.307C391.77 180.289 391.822 180.282 391.874 180.287L408.215 180.227Z"></path>
<path fill="white" d="M431.751 180.227C431.988 180.227 432.166 180.227 432.166 180.581V181.85C432.171 181.905 432.164 181.96 432.144 182.011C432.125 182.062 432.094 182.108 432.054 182.145C432.014 182.182 431.965 182.209 431.913 182.225C431.86 182.24 431.805 182.244 431.751 182.234H419.909V190.882H430.597C430.863 190.882 430.981 190.882 430.981 191.236V192.476C430.981 192.741 430.981 192.859 430.597 192.859H419.909V200.74H431.751C431.988 200.74 432.136 200.74 432.136 201.094V202.363C432.14 202.415 432.134 202.467 432.116 202.515C432.098 202.564 432.07 202.608 432.033 202.645C431.997 202.681 431.952 202.709 431.904 202.727C431.855 202.745 431.803 202.751 431.751 202.747H418.074C418.013 202.757 417.951 202.753 417.893 202.734C417.834 202.716 417.781 202.683 417.737 202.64C417.694 202.597 417.661 202.544 417.643 202.485C417.624 202.427 417.62 202.365 417.63 202.304V180.67C417.62 180.609 417.624 180.547 417.643 180.489C417.661 180.431 417.694 180.377 417.737 180.334C417.781 180.291 417.834 180.258 417.893 180.24C417.951 180.221 418.013 180.217 418.074 180.227H431.751Z"></path>
<path fill="white" d="M456.085 180.227C456.138 180.23 456.19 180.245 456.238 180.27C456.285 180.294 456.327 180.328 456.36 180.37C456.394 180.412 456.418 180.46 456.432 180.511C456.446 180.563 456.448 180.617 456.44 180.67V181.673C456.44 181.968 456.44 182.086 456.055 182.086H450.638C445.072 182.086 444.006 184.182 444.006 191.472C444.006 198.762 445.072 200.887 450.667 200.858H456.055C456.351 200.858 456.47 200.858 456.47 201.241V202.274C456.474 202.326 456.467 202.378 456.45 202.426C456.432 202.475 456.404 202.519 456.367 202.556C456.33 202.592 456.286 202.62 456.237 202.638C456.189 202.656 456.136 202.663 456.085 202.658C454.284 202.828 452.476 202.907 450.667 202.894C443.444 202.894 441.786 200.267 441.786 191.472C441.786 182.677 443.503 180.05 450.667 180.05C452.147 180.05 454.427 180.079 456.085 180.227Z"></path>
<path fill="white" d="M483.617 180.198C483.665 180.193 483.713 180.199 483.758 180.215C483.803 180.232 483.844 180.258 483.878 180.291C483.912 180.325 483.938 180.366 483.955 180.411C483.971 180.456 483.977 180.504 483.972 180.552V202.334C483.972 202.599 483.972 202.718 483.617 202.718H482.078C481.782 202.718 481.663 202.718 481.663 202.334V192.21H468.371V202.334C468.376 202.385 468.369 202.437 468.351 202.486C468.333 202.534 468.305 202.579 468.268 202.615C468.232 202.652 468.187 202.68 468.139 202.698C468.09 202.715 468.038 202.722 467.986 202.718H466.447C466.395 202.722 466.343 202.715 466.294 202.698C466.246 202.68 466.201 202.652 466.165 202.615C466.128 202.579 466.1 202.534 466.082 202.486C466.064 202.437 466.057 202.385 466.062 202.334V180.67C466.062 180.434 466.24 180.316 466.476 180.316H467.927C468.164 180.316 468.312 180.316 468.312 180.67V190.292H481.604V180.67C481.604 180.434 481.604 180.316 481.989 180.316L483.617 180.198Z"></path>
<path fill="white" d="M512.687 180.198C512.924 180.198 513.072 180.198 513.072 180.552V202.305C513.072 202.6 513.072 202.718 512.716 202.718H511.236C511.061 202.741 510.884 202.707 510.729 202.622C510.575 202.537 510.452 202.405 510.378 202.246L497.529 183.179V202.334C497.535 202.389 497.528 202.443 497.508 202.495C497.489 202.546 497.458 202.591 497.418 202.629C497.378 202.666 497.329 202.693 497.277 202.709C497.224 202.724 497.169 202.727 497.115 202.718H495.576C495.524 202.723 495.472 202.716 495.423 202.698C495.374 202.68 495.33 202.652 495.293 202.616C495.257 202.579 495.229 202.535 495.211 202.486C495.193 202.438 495.186 202.386 495.191 202.334V180.67C495.191 180.434 495.191 180.316 495.576 180.316H497.204C498.062 180.316 498.24 180.316 498.625 180.995L510.674 198.999V180.67C510.674 180.434 510.674 180.316 511.059 180.316L512.687 180.198Z"></path>
<path fill="white" d="M541.492 191.472C541.492 200.327 539.775 202.835 532.611 202.865C525.447 202.894 523.729 200.297 523.729 191.472C523.729 182.647 525.447 180.021 532.611 180.021C539.775 180.021 541.492 182.647 541.492 191.472ZM525.92 191.472C525.92 198.762 526.956 200.828 532.522 200.828C538.087 200.828 539.183 198.762 539.183 191.472C539.183 184.182 538.147 182.028 532.522 182.028C526.897 182.028 525.92 184.182 525.92 191.472Z"></path>
<path fill="white" d="M553.955 180.168C554.192 180.168 554.34 180.168 554.34 180.522V200.681H565.738C565.975 200.681 566.152 200.681 566.152 201.035V202.304C566.158 202.358 566.15 202.413 566.131 202.464C566.112 202.515 566.081 202.561 566.04 202.598C566 202.635 565.952 202.663 565.9 202.678C565.847 202.694 565.792 202.697 565.738 202.688H552.446C552.385 202.698 552.323 202.694 552.264 202.675C552.206 202.656 552.152 202.624 552.109 202.581C552.065 202.537 552.033 202.484 552.014 202.426C551.996 202.367 551.991 202.305 552.002 202.245V180.67C552.002 180.434 552.15 180.316 552.386 180.316L553.955 180.168Z"></path>
<path fill="white" d="M591.73 191.443C591.73 200.297 590.013 202.836 582.849 202.836C575.685 202.836 573.968 200.268 573.968 191.443C573.968 182.618 575.685 179.991 582.849 179.991C590.013 179.991 591.73 182.618 591.73 191.443ZM576.158 191.443C576.158 198.733 577.195 200.829 582.76 200.799C588.326 200.77 589.421 198.733 589.421 191.443C589.421 184.153 588.385 182.028 582.76 182.028C577.135 182.028 576.158 184.153 576.158 191.443Z"></path>
<path fill="white" d="M615.945 180.168C615.996 180.172 616.045 180.186 616.09 180.209C616.136 180.231 616.176 180.263 616.209 180.301C616.242 180.34 616.267 180.384 616.283 180.432C616.298 180.48 616.304 180.531 616.3 180.582V181.615C616.305 181.666 616.298 181.718 616.28 181.767C616.263 181.815 616.234 181.859 616.198 181.896C616.161 181.932 616.117 181.961 616.068 181.978C616.019 181.996 615.967 182.003 615.916 181.998H610.409C604.785 181.998 603.778 184.153 603.778 191.443C603.778 198.733 604.814 200.799 610.409 200.799H615.383V191.945C615.383 191.709 615.531 191.591 615.768 191.591H617.189C617.425 191.591 617.573 191.591 617.573 191.945V201.33C617.622 201.494 617.622 201.668 617.573 201.832C616.804 202.895 612.659 202.806 610.528 202.806C603.334 202.806 601.646 200.238 601.646 191.443C601.646 182.648 603.364 179.991 610.528 179.991C612.067 179.991 614.465 180.021 615.945 180.168Z"></path>
<path fill="white" d="M629.89 180.139C630.156 180.139 630.275 180.139 630.275 180.493V202.275C630.275 202.54 630.275 202.658 629.89 202.658H628.35C628.114 202.658 627.995 202.658 627.995 202.275V180.493C627.995 180.257 628.143 180.139 628.38 180.139H629.89Z"></path>
<path fill="white" d="M655.675 180.11C655.727 180.105 655.779 180.112 655.828 180.13C655.876 180.147 655.921 180.176 655.957 180.212C655.994 180.249 656.022 180.293 656.04 180.341C656.058 180.39 656.064 180.442 656.06 180.493V181.733C656.06 182.028 655.912 182.146 655.675 182.146H643.833V190.794H654.52C654.787 190.794 654.935 190.794 654.935 191.148V192.476C654.935 192.742 654.787 192.86 654.52 192.86H643.833V200.682H655.675C655.727 200.677 655.779 200.684 655.828 200.702C655.876 200.719 655.921 200.747 655.957 200.784C655.994 200.821 656.022 200.865 656.04 200.913C656.058 200.962 656.064 201.014 656.06 201.065V202.305C656.06 202.6 655.912 202.718 655.675 202.718H642.028C641.967 202.728 641.905 202.724 641.846 202.705C641.788 202.687 641.734 202.655 641.691 202.611C641.647 202.568 641.615 202.515 641.596 202.456C641.578 202.398 641.573 202.336 641.584 202.275V180.671C641.584 180.375 641.584 180.228 642.057 180.228L655.675 180.11Z"></path>
<path fill="white" d="M678.766 180.257C679.003 180.257 679.092 180.257 679.092 180.581V181.614C679.092 181.85 679.091 181.969 678.795 181.969H672.194C669.233 181.969 667.753 182.884 667.753 184.92V185.392C667.753 187.045 668.138 187.96 670.21 188.786L677.108 191.738C678.135 192.107 679.01 192.806 679.594 193.725C680.178 194.644 680.439 195.731 680.335 196.814V197.729C680.335 202.363 676.605 202.717 672.727 202.717C670.275 202.739 667.825 202.63 665.385 202.393C665.178 202.393 665.089 202.393 665.089 202.039V201.035C665.089 200.99 665.098 200.945 665.116 200.904C665.134 200.862 665.161 200.825 665.194 200.794C665.228 200.764 665.267 200.741 665.31 200.726C665.353 200.712 665.399 200.706 665.444 200.71H673.467C676.19 200.71 678.055 200.12 678.055 197.759V197.11C678.123 196.332 677.926 195.554 677.496 194.901C677.067 194.248 676.43 193.757 675.687 193.509L668.286 190.557C667.3 190.217 666.465 189.545 665.924 188.655C665.383 187.766 665.172 186.716 665.326 185.687V185.038C665.326 180.729 668.671 180.05 672.845 180.05C674.821 180.019 676.797 180.088 678.766 180.257Z"></path>
</g>
</g>
<defs>
<clipPath id="clip0_7007_312">
<rect transform="translate(0.600098)" fill="white" height="263" width="849.2"></rect>
</clipPath>
<clipPath id="clip1_7007_312">
<rect transform="translate(52.1367 12.5)" fill="white" height="238" width="293"></rect>
</clipPath>
<clipPath id="clip2_7007_312">
<rect transform="translate(295.137 69.5)" fill="white" height="149" width="536"></rect>
</clipPath>
</defs>
</svg>
