<svg xmlns="http://www.w3.org/2000/svg" fill="none" viewBox="0 0 850 263" height="263" width="850">
<path fill="white" d="M544.805 72.8152H538.202C535.186 72.8152 532.577 75.2609 532.577 78.4402V151.81C532.577 171.946 545.131 187.435 565.675 187.435H578.8C581.816 187.435 584.425 184.989 584.425 181.81V177.082C584.425 173.902 581.979 171.457 578.8 171.457H568.854C555.485 171.457 551.083 163.06 550.512 145.125V108.44H578.963C581.979 108.44 584.588 105.995 584.588 102.815V98.0054C584.588 94.9891 582.142 92.3804 578.963 92.3804H550.43V78.4402C550.349 75.4239 547.903 72.8967 544.805 72.8152ZM698.148 92.3804H689.343C678.419 92.3804 669.615 96.538 663.664 103.386C657.876 96.4565 649.153 92.3804 638.148 92.3804H629.343C607.822 92.3804 594.86 108.522 594.86 129.391V181.81C594.86 184.826 597.305 187.435 600.485 187.435H607.088C610.104 187.435 612.713 184.989 612.713 181.81V132.163C612.713 119.446 618.664 108.44 633.827 108.44C648.99 108.44 654.778 119.609 654.778 132.163V181.81C654.778 184.826 657.224 187.435 660.403 187.435H667.17C670.186 187.435 672.794 184.989 672.794 181.81V132.163C672.794 119.446 678.746 108.44 693.909 108.44C709.072 108.44 714.778 119.609 714.778 132.163V181.81C714.778 184.826 717.224 187.435 720.403 187.435H726.925C729.941 187.435 732.55 184.989 732.55 181.81V129.391C732.224 108.522 719.506 92.3804 698.148 92.3804ZM505.104 92.3804C483.583 92.3804 470.621 108.522 470.621 129.391V181.81C470.621 184.826 473.066 187.435 476.246 187.435H482.849C485.865 187.435 488.474 184.989 488.474 181.81V132.163C488.474 119.446 494.425 108.44 509.588 108.44H516.925C519.941 108.44 522.55 105.995 522.55 102.815V98.0054C522.55 94.9891 520.104 92.3804 516.925 92.3804H505.104ZM449.506 82.0272H441.354C438.175 82.0272 435.566 79.4185 435.566 76.2391V68.25C435.566 65.0707 438.175 62.462 441.354 62.462H449.506C452.686 62.462 455.295 65.0707 455.295 68.25V76.2391C455.213 79.4185 452.686 82.0272 449.506 82.0272ZM417.061 119.935C408.664 100.043 388.365 88.0598 366.599 90.587C343.447 93.3587 325.186 112.761 323.963 136.076C322.414 164.12 344.833 187.272 372.387 187.272H387.142C390.159 187.272 392.767 185.723 392.767 182.707V176.185C392.767 173.168 390.322 171.457 387.224 171.457H373.121C356.327 171.457 342.061 156.457 341.49 139.582C340.92 122.054 355.023 107.707 372.387 107.707C382.903 107.707 392.686 112.924 398.311 121.891C401.653 126.864 403.284 132.652 403.284 138.685V181.728C403.284 184.745 405.729 187.353 408.909 187.353H415.267C418.284 187.353 420.892 184.908 420.892 181.728V138.685C420.974 132.245 419.588 125.886 417.061 119.935ZM442.088 187.435H448.691C451.708 187.435 454.316 184.989 454.316 181.81V98.0054C454.316 94.9891 451.871 92.3804 448.691 92.3804H442.088C439.072 92.3804 436.463 94.8261 436.463 98.0054V181.891C436.545 184.908 439.072 187.435 442.088 187.435ZM766.789 90.3424V81.212L762.795 90.3424H760.43L756.599 81.375V90.3424H753.583V75.9946H757.414L761.572 85.9402L765.729 75.9946H769.316V90.3424H766.789ZM746.979 78.6848V90.2609H743.963V78.6848H739.561V76.0761H751.3V78.6848H746.979ZM181.3 149.364C181.3 149.364 197.686 159.31 221.572 154.092L225.729 216.62C225.974 219.636 223.691 222 220.593 222H159.697C156.68 222 154.479 219.554 154.561 216.62L158.718 153.196C164.343 153.359 172.088 152.788 181.3 149.364ZM191.653 200.152C198.175 199.5 201.599 195.75 201.599 190.777C201.599 185.234 198.42 182.462 192.061 181.647L190.43 181.402C187.006 180.832 185.702 179.772 185.702 178.06C185.702 176.266 186.925 175.043 189.126 174.88C189.534 174.88 189.941 174.88 190.349 174.88C191.979 175.043 193.528 175.451 194.914 176.103C195.566 176.348 196.137 176.674 196.871 176.674C198.501 176.674 199.805 175.451 199.805 173.739C199.805 172.598 199.235 171.783 198.256 171.13C196.871 170.152 194.425 169.5 191.653 169.174V165.016C191.653 164.038 190.838 163.223 189.86 163.223C188.881 163.223 188.066 164.038 188.066 165.016V169.174C182.523 169.745 178.936 173.332 178.936 178.304C178.936 183.685 182.278 186.62 188.474 187.435L190.104 187.679C193.691 188.25 194.833 189.31 194.833 191.022C194.833 193.06 193.039 194.609 189.86 194.609C187.659 194.609 185.865 194.038 183.338 192.652C182.767 192.408 182.115 192.082 181.381 192.082C179.751 192.082 178.447 193.304 178.447 195.016C178.447 196.158 179.017 197.054 179.996 197.788C181.789 198.929 184.398 199.989 187.822 200.234V205.207C187.822 206.185 188.637 207 189.615 207C190.593 207 191.409 206.185 191.409 205.207L191.653 200.152ZM266.898 99.5544C268.121 74.8533 250.593 50.7228 226.626 44.2011C221.409 42.8152 215.621 42 210.24 42C209.017 42 207.795 42 206.653 42.163C189.371 43.3859 173.555 52.1087 164.017 65.6413C159.615 64.0924 154.887 63.4402 150.24 63.4402C141.925 63.4402 133.528 65.8043 126.273 70.0435C113.963 77.2174 105.729 89.3641 103.936 102.734C88.4467 111.049 79.2347 127.435 80.05 144.799C81.1913 168.766 101.49 187.679 126.191 187.679H149.751C150.322 187.679 150.892 187.272 150.892 186.701L152.034 174.799C152.034 174.554 151.871 174.228 151.789 173.984C151.545 173.739 151.218 173.576 150.974 173.576H125.05C116.49 173.576 108.501 170.152 102.55 163.957C96.5989 157.761 93.5826 149.609 93.9902 141.049C94.5608 129.147 102.305 118.304 113.718 113.495L116.083 112.516C116.49 112.353 116.653 111.946 116.735 111.701L117.305 106.728C117.958 96.9456 123.827 87.6522 133.039 82.2717C138.256 79.2554 144.208 77.625 149.996 77.625C154.398 77.625 158.718 78.6033 162.55 80.3967L168.583 83.3315C169.153 83.5761 169.724 83.3315 169.968 82.9239L173.718 76.5652C180.322 65.1522 193.284 57.4076 207.55 56.4293C212.278 56.1848 217.903 56.6739 222.876 58.0598C241.381 63.0326 254.996 83.0054 252.55 101.755L251.572 109.092C251.409 109.663 251.816 110.234 252.387 110.315L258.99 112.109C272.523 115.859 282.061 128.087 282.061 142.19C282.061 159.717 268.121 173.902 250.92 173.902H229.642C229.398 173.902 229.072 174.065 228.827 174.31C228.583 174.554 228.583 174.88 228.583 175.125L229.724 187.027C229.724 187.598 230.295 188.005 230.865 188.005H251.164C276.11 188.005 296.409 167.462 296.409 142.19C296.001 123.114 284.425 106.158 266.898 99.5544Z"></path>
</svg>
