<svg xmlns="http://www.w3.org/2000/svg" fill="none" viewBox="0 0 850 263" height="263" width="850">
<g clip-path="url(#clip0_366_1309)">
<g clip-path="url(#clip1_366_1309)">
<path fill="white" d="M107.341 93.7666L110.867 54.4694C110.986 53.155 110.721 51.8343 110.104 50.6662C109.486 49.4981 108.543 48.5325 107.387 47.8858C106.23 47.239 104.911 46.9387 103.587 47.0209C102.263 47.103 100.991 47.5642 99.9248 48.349L37.9537 93.7666L5.37758 66.3482C4.37493 65.5034 3.14945 64.9619 1.84731 64.7878C0.54516 64.6137 -0.779947 64.8145 -1.97115 65.3661C-3.16235 65.9176 -4.16974 66.7969 -4.87452 67.9003C-5.5793 69.0035 -5.95152 70.2843 -5.94773 71.5918V166.927C-5.94773 205.31 37.7999 227.484 68.9963 204.909L119.356 168.453C126.154 163.537 130.789 156.207 132.303 147.981C133.815 139.756 132.089 131.267 127.48 124.274L107.341 93.7666ZM74.4582 144.735C77.6755 144.735 80.2836 140.194 80.2836 134.592C80.2836 128.989 77.6755 124.448 74.4582 124.448C71.241 124.448 68.6329 128.989 68.6329 134.592C68.6329 140.194 71.241 144.735 74.4582 144.735ZM113.762 124.447C113.762 130.049 111.154 134.59 107.936 134.59C104.719 134.59 102.111 130.049 102.111 124.447C102.111 118.844 104.719 114.303 107.936 114.303C111.154 114.303 113.762 118.844 113.762 124.447Z" clip-rule="evenodd" fill-rule="evenodd"></path>
<path fill="white" d="M166.983 86.2081H183.923V137.665C185.538 133.361 193.293 120.278 213.651 120.278C234.009 120.278 243.566 133.72 243.566 153.444V211.727H226.626V157.389C226.626 141.436 219.244 134.981 207.71 134.981C184.284 134.981 183.923 160.802 183.923 173.317V211.653H166.983V86.2081Z"></path>
<path fill="white" d="M257.944 167.428C257.944 140.359 275.791 120.276 300.473 120.276C325.154 120.276 342.827 140.359 342.827 167.428C342.827 194.499 324.446 214.236 300.473 214.236C276.499 214.236 257.944 194.165 257.944 167.428V167.428ZM325.167 167.615C325.167 145.738 315.076 134.794 300.473 134.794C285.87 134.794 275.616 145.738 275.616 167.615C275.616 189.49 285.708 199.766 300.473 199.766C315.236 199.766 325.204 189.305 325.204 167.615H325.167Z"></path>
<path fill="white" d="M357.269 181.056V122.785H374.209V177.112C374.209 193.076 381.417 199.532 392.602 199.532C414.973 199.532 416.017 175.318 416.017 161.517V122.785H432.969V211.725H416.376V196.477C413.506 201.684 405.031 214.235 386.649 214.235C366.279 214.235 357.269 200.781 357.269 181.056Z"></path>
<path fill="white" d="M492.835 159.007L482.208 157.028C469.78 154.704 467.071 151.291 467.071 145.553C467.071 139.283 472.477 133.718 484.371 133.718C496.463 133.718 502.143 140.223 504.877 145.911H521.63C519.344 132.939 507.624 120.276 484.545 120.276C465.99 120.276 450.852 131.208 450.852 147.173C450.852 164.201 463.641 169.939 478.965 172.994L489.777 174.959C502.032 177.297 505.81 181.773 505.81 188.055C505.81 195.946 499.148 200.423 486.707 200.423C474.888 200.423 468.389 195.377 465.107 188.587H447.21C451.175 206.246 468.612 214.236 486.533 214.236C509.599 214.236 522.936 203.477 522.936 186.621C522.886 166.958 503.063 161.159 492.835 159.007V159.007Z"></path>
<path fill="white" d="M684.909 188.588C681.032 194.919 674.768 199.717 664.702 199.717C650.472 199.717 639.112 189.318 639.112 167.268C639.112 145.565 650.645 134.806 664.527 134.806C668.488 134.671 672.409 135.642 675.844 137.609C679.279 139.576 682.093 142.46 683.965 145.936H702.309C697.748 132.036 684.984 120.3 664.702 120.3C639.659 120.3 621.452 139.481 621.452 167.293C621.452 195.983 638.752 214.286 664.95 214.286C684.089 214.286 697.263 203.799 703.602 188.637L684.909 188.588Z"></path>
<path fill="white" d="M573.343 200.065C561.089 200.065 549.195 192.893 548.487 171.622H611.373C614.616 142.573 598.758 120.339 572.088 120.339C548.847 120.339 531.547 138.629 531.547 167.677C531.547 197.617 547.939 214.299 572.809 214.299C591.376 214.299 605.606 205.642 612.094 188.651H593.75C590.208 194.166 583.994 200.065 573.343 200.065V200.065ZM572.099 133.719C583.994 133.719 594.085 142.153 594.271 158.106H548.859C550.276 142.685 560.542 133.719 572.075 133.719H572.099Z"></path>
<path fill="white" d="M811.553 189.851V136.774H791.185V122.787H811.553V94.9875H828.492V122.787H852.64V136.774H828.492V188.416C828.492 194.513 831.202 197.195 837.328 197.195H856.069V211.726H834.084C819.308 211.726 811.553 204.554 811.553 189.851V189.851Z"></path>
<path fill="white" d="M749.038 120.276C722.553 120.276 713.369 141.484 713.369 145.911H731.614C731.614 140.594 738.698 134.435 749.013 134.435C762.174 134.435 766.513 142.461 766.513 150.932V158.104H738.475C734.771 158.104 731.103 158.831 727.68 160.241C724.258 161.652 721.149 163.721 718.53 166.327C715.911 168.934 713.834 172.029 712.418 175.435C711.002 178.84 710.273 182.491 710.275 186.176C710.275 193.618 713.245 200.755 718.535 206.017C723.823 211.279 730.995 214.236 738.475 214.236H742.638C748.079 214.236 753.396 212.611 757.899 209.57C762.401 206.531 765.883 202.214 767.892 197.183L768.302 196.156L768.39 198.271V211.725H783.526V151.476C783.476 133.718 773.186 120.276 749.038 120.276ZM766.537 178.163C766.537 184.066 764.18 189.728 759.985 193.902C755.789 198.077 750.1 200.423 744.167 200.423H741.071C739.167 200.424 737.278 200.052 735.518 199.328C733.757 198.602 732.157 197.54 730.809 196.199C729.461 194.859 728.39 193.268 727.661 191.517C726.931 189.764 726.556 187.887 726.556 185.991C726.556 184.095 726.931 182.217 727.661 180.465C728.39 178.713 729.461 177.122 730.809 175.782C732.157 174.441 733.757 173.379 735.518 172.654C737.278 171.929 739.167 171.557 741.071 171.559H766.537V178.163Z"></path>
</g>
</g>
<defs>
<clipPath id="clip0_366_1309">
<rect fill="white" height="263" width="849.2"></rect>
</clipPath>
<clipPath id="clip1_366_1309">
<rect transform="translate(-6 47)" fill="white" height="168.104" width="862.07"></rect>
</clipPath>
</defs>
</svg>
