<svg xmlns="http://www.w3.org/2000/svg" fill="none" viewBox="0 0 850 263" height="263" width="850">
<g clip-path="url(#clip0_369_1321)">
<path fill="white" d="M313.522 161.388L294.162 123.918V182.172H272.468V79.5663H294.162L323.135 137.09L352.251 79.5663H373.799V182.172H352.251V123.921L332.74 161.39L313.522 161.388ZM435.529 109.133L422.863 142.653H448.197L435.529 109.133ZM445.866 79.5639L485.761 182.175H463.337L455.185 161.974H415.728L407.723 182.175H385.3L425.194 79.5639H445.869H445.866ZM524.486 139.728C504.542 136.359 492.312 125.965 492.312 108.987C492.312 99.4725 495.951 92.0071 503.376 86.4436C510.801 80.7351 519.683 77.9547 530.018 77.9547C545.89 77.9547 558.993 83.3728 569.331 94.3495L554.77 109.718C547.055 101.812 538.465 97.8633 528.855 97.8633C519.683 97.8633 513.859 101.96 513.859 107.961C513.859 113.377 518.665 117.038 528.42 118.795L538.462 120.405C561.324 124.064 572.824 134.75 572.824 152.461C572.824 161.828 569.038 169.439 561.615 175.148C554.187 180.856 544.435 183.784 532.205 183.784C514.296 183.784 499.009 175.733 489.837 164.171L504.688 149.092C512.258 158.9 521.866 163.878 533.515 163.878C544.58 163.878 551.275 159.193 551.275 152.754C551.275 147.336 546.473 143.679 537.01 141.92L524.486 139.725V139.728ZM618.251 139.728C598.306 136.359 586.075 125.965 586.075 108.987C586.075 99.4725 589.714 92.0071 597.141 86.4436C604.565 80.7351 613.446 77.9547 623.783 77.9547C639.653 77.9547 652.758 83.3728 663.095 94.3495L648.535 109.718C640.818 101.812 632.23 97.8633 622.62 97.8633C613.446 97.8633 607.624 101.96 607.624 107.961C607.624 113.377 612.427 117.038 622.182 118.795L632.227 120.405C655.089 124.064 666.587 134.75 666.587 152.461C666.587 161.828 662.8 169.439 655.378 175.148C647.95 180.856 638.197 183.784 625.967 183.784C608.061 183.784 592.774 175.733 583.6 164.171L598.45 149.092C606.02 158.9 615.631 163.878 627.278 163.878C638.342 163.878 645.04 159.193 645.04 152.754C645.04 147.336 640.235 143.679 630.772 141.92L618.248 139.725L618.251 139.728ZM721.77 109.133L709.101 142.653H734.435L721.77 109.133ZM732.107 79.5639L771.999 182.175H749.578L741.426 161.974H701.966L693.961 182.175H671.538L711.432 79.5639H732.107Z"></path>
<path fill="white" d="M149.264 59C189.173 59 221.528 91.3546 221.528 131.264C221.528 171.174 189.173 203.528 149.264 203.528C109.355 203.528 77 171.174 77 131.264C77 91.3546 109.355 59 149.264 59ZM138.062 144.447H127.738L110.845 173.547C113.661 176.363 116.946 178.71 120.7 180.587L132.9 159.467L144.162 178.71H154.485L165.747 159.467L177.948 180.587C181.702 178.71 184.986 176.363 187.802 173.547L170.909 144.447H160.586L149.324 163.691L138.062 144.447ZM131.492 77.3306C127.738 78.7386 123.984 80.1466 120.23 82.4934L132.9 104.553H110.845L105.684 113.47L116.946 132.714H92.0755C92.0755 136.938 92.5448 141.162 93.4833 144.917H127.269C127.269 144.917 128.086 143.555 129.098 141.868L129.485 141.222C129.879 140.565 130.29 139.881 130.684 139.224L131.071 138.579C132.083 136.892 132.9 135.53 132.9 135.53L121.638 116.286H143.693L148.854 107.369L131.492 77.3306ZM166.686 76.8612L149.324 106.9L154.485 115.817H176.54L165.278 135.061L170.44 143.978H204.226C205.164 140.223 205.633 135.999 205.633 131.775L181.232 132.244L192.494 113.001L187.333 104.084H165.278L177.948 82.0241C174.663 80.1466 170.909 78.2693 166.686 76.8612Z"></path>
</g>
<defs>
<clipPath id="clip0_369_1321">
<rect transform="translate(77 59)" fill="white" height="144.56" width="694.999"></rect>
</clipPath>
</defs>
</svg>
