<svg xmlns="http://www.w3.org/2000/svg" fill="none" viewBox="0 0 850 263" height="263" width="850">
<g clip-path="url(#clip0_1064_1379)">
<path fill="white" d="M115.079 91.9414C94.9737 112.256 94.9737 145.269 115.079 165.583C119.847 170.41 125.522 174.242 131.778 176.857C138.034 179.472 144.745 180.818 151.523 180.818C158.301 180.818 165.012 179.472 171.268 176.857C177.524 174.242 183.199 170.41 187.967 165.583L172.398 149.862C169.674 152.622 166.43 154.814 162.855 156.31C159.279 157.806 155.443 158.577 151.568 158.577C147.693 158.577 143.857 157.806 140.281 156.31C136.705 154.814 133.462 152.622 130.738 149.862C125.211 144.257 122.111 136.696 122.111 128.818C122.111 120.939 125.211 113.378 130.738 107.774L115.079 91.9414Z"></path>
<path fill="white" d="M130.745 107.663L130.358 108.058L114.699 92.336L115.086 91.9418C119.853 87.116 125.529 83.2851 131.784 80.6706C138.039 78.0561 144.749 76.71 151.527 76.71C158.304 76.71 165.014 78.0561 171.269 80.6706C177.524 83.2851 183.2 87.116 187.967 91.9418L172.405 107.663C169.681 104.902 166.437 102.711 162.862 101.215C159.286 99.7186 155.45 98.9483 151.575 98.9483C147.7 98.9483 143.864 99.7186 140.288 101.215C136.712 102.711 133.469 104.902 130.745 107.663V107.663Z"></path>
<path fill="white" d="M697.481 98.9758C713.727 98.9758 726.962 112.256 726.962 128.759C726.962 145.165 713.823 158.542 697.481 158.542C681.242 158.542 668 145.262 668 128.759H645.961C645.961 157.463 669.063 180.807 697.488 180.807C725.906 180.807 749.007 157.47 749.007 128.759C749.007 100.055 725.906 76.7111 697.481 76.7111V98.9758ZM210.103 80.1279V177.784H232.528V100.539H257.859L268.105 80.1279H210.109H210.103ZM366.995 80.1279L334.517 144.093L300.396 80.1279H274.782L322.241 168.405L300.203 212.153H325.431L392.223 80.1279H366.995V80.1279ZM451.579 76.7042C431.087 76.7042 417.651 79.6368 402.089 82.9568V212.25H424.514V178.76C432.537 179.935 441.14 181.001 451.579 180.71C482.027 179.832 500.496 160.008 500.496 128.953C500.496 97.7032 480.867 76.7111 451.579 76.7111V76.7042ZM462.115 156.882C451.482 161.378 435.05 158.445 424.611 156.882V100.048C435.05 98.3879 451.192 95.2616 461.921 99.7574C472.264 104.149 478.16 114.213 478.16 128.759C478.257 143.215 472.361 152.587 462.115 156.882ZM626.726 80.1279H604.287V177.784H626.712V80.1279H626.726ZM578.293 158.058C573.46 158.833 569.303 159.13 565.63 159.13C556.544 159.13 551.518 156.294 551.518 141.064V100.442H582.642V80.1279H551.518V48H529.1V80.1279H500.779L511.605 100.532H529.1V142.336C529.1 167.817 540.699 180.71 563.511 180.71C571.823 180.71 577.14 179.832 584.099 178.075L588.352 177.003L578.3 158.051L578.293 158.058Z"></path>
<path fill="white" d="M667.999 128.759V129.347L645.961 129.153V128.759C645.961 100.055 669.063 76.7109 697.487 76.7109V98.9757C681.145 98.9757 668.006 112.353 668.006 128.759H667.999Z"></path>
</g>
<defs>
<clipPath id="clip0_1064_1379">
<rect transform="translate(100 48)" fill="white" height="166" width="649"></rect>
</clipPath>
</defs>
</svg>
