<svg xmlns="http://www.w3.org/2000/svg" fill="none" viewBox="0 0 850 263" height="263" width="850">
<path fill="white" d="M343.149 122.264C339.827 119.879 337.442 118.09 334.547 116.557C318.279 107.614 295.964 111.276 283.529 126.096C271.605 139.979 268.709 156.077 273.138 173.282C277.567 190.486 287.958 202.325 305.503 206.584C318.875 209.905 331.31 207.521 341.19 197.981C341.19 197.981 341.701 197.47 342.638 197.47V206.073H370.234C370.234 156.503 370.234 107.529 370.234 58.5552C361.291 58.5552 352.092 58.5552 342.638 58.5552C343.149 79.5074 343.149 100.289 343.149 122.264ZM331.651 181.288C319.727 187.505 305.503 181.799 301.159 169.364C297.838 160.421 298.774 151.818 304.481 144.153C309.251 137.595 316.405 134.614 324.411 135.55C333.013 136.487 338.635 141.257 341.957 149.433C343.404 152.755 343.745 156.588 343.745 160.761C343.49 168.853 340.764 176.944 331.651 181.288ZM225.442 114.258V122.264C222.546 120.475 219.735 118.09 216.839 116.557C200.571 107.614 178.853 111.788 166.418 126.096C153.642 141.257 151.257 158.973 156.878 177.455C162.585 194.66 178.853 209.224 201.082 207.435C209.089 206.924 216.839 204.114 223.057 198.492C223.568 197.981 224.505 197.556 225.442 196.704V205.306H253.037C253.974 197.641 253.548 115.705 252.526 113.917C244.094 114.258 234.896 114.258 225.442 114.258ZM222.716 174.218C217.946 181.373 210.792 184.609 202.275 183.758C193.332 182.821 187.455 178.051 184.133 169.875C182.685 166.553 181.748 162.72 181.748 159.824C181.748 153.607 184.133 147.9 187.966 143.216C196.568 133.166 212.666 133.166 221.268 143.727C227.826 151.733 228.337 165.02 222.716 174.218ZM653.6 57.8738C649.767 56.9369 595.428 57.3628 593.128 57.8738C592.617 62.0472 592.617 76.8671 593.639 79.8481H625.408V183.161C614.421 183.161 604.03 183.161 593.043 183.161C592.106 186.994 592.532 203.092 593.043 205.136H685.88C685.88 197.47 685.88 190.316 685.88 183.161C674.893 183.161 664.502 183.161 653.004 183.161C653.6 141.257 653.6 99.4376 653.6 57.8738ZM742.945 166.468H783.061C783.572 159.91 783.061 154.033 781.613 147.815C779.228 137.765 775.055 128.822 767.39 122.008C758.446 114.002 747.8 111.021 735.961 111.021C716.372 111.532 699.252 123.797 692.609 141.938C688.776 152.329 688.776 162.976 691.672 173.707C695.505 187.931 704.107 197.981 717.82 203.177C730.255 207.946 743.03 208.457 755.465 203.688C765.856 199.855 774.118 192.701 778.888 182.65C779.825 180.266 780.676 177.881 781.784 174.985C773.181 174.985 765.175 174.985 757.084 174.985C755.636 178.307 753.251 181.203 749.929 182.139C741.327 185.461 732.725 185.461 724.718 180.351C719.438 177.029 716.712 171.748 716.116 165.19H729.999C734.002 166.468 738.261 166.468 742.945 166.468ZM725.826 137.424C732.98 133.251 740.049 132.655 747.8 136.487C752.57 138.872 754.954 142.705 756.402 147.815V149.263C743.03 149.263 730.255 149.263 716.883 149.263C718.331 144.238 721.567 140.405 725.826 137.424ZM554.886 177.455C547.221 186.057 532.912 185.461 525.417 176.518C519.199 169.364 518.262 160.761 520.647 151.818C522.436 145.26 526.353 140.49 532.571 137.595C543.899 132.825 554.886 137.595 558.719 147.134C558.719 147.645 559.23 147.645 559.23 148.071H586.825C586.825 147.56 586.825 147.134 586.825 146.623C586.825 146.112 586.825 145.686 586.314 145.175C584.526 138.02 581.034 131.803 576.264 126.182C560.507 109.914 535.893 106.251 515.792 117.579C489.644 133.336 483.427 168.938 503.868 191.423C518.688 208.032 543.899 212.801 563.829 202.41C575.753 196.193 583.418 187.25 586.655 173.878C586.655 172.941 586.655 172.089 587.166 170.982C577.627 170.982 568.513 170.982 559.57 170.982C557.782 173.282 556.845 175.666 554.886 177.455ZM453.957 183.161C453.957 181.714 453.957 180.266 453.957 179.329C453.957 158.888 453.957 138.361 453.957 117.92C453.957 116.472 453.957 115.535 453.957 114.087C433.516 114.087 413.586 114.087 393.485 114.087V136.061H425.851C426.788 140.235 426.362 180.862 425.851 183.247C422.529 183.247 418.696 183.247 414.864 183.247C411.542 183.247 407.709 183.247 404.473 183.247C400.64 183.247 397.318 183.247 394.082 183.247C393.571 188.527 393.571 202.836 394.593 205.221H487.43C487.941 201.048 487.941 185.291 486.919 182.906C475.506 183.161 464.945 183.161 453.957 183.161ZM66 205.051C69.8327 205.562 91.2108 205.562 93.5957 204.54C93.5957 181.714 93.5957 158.802 93.5957 135.465H140.27C140.27 127.8 140.27 120.645 140.27 113.491C115.57 113.491 90.6998 113.491 66.0852 113.491C66 113.491 66 205.051 66 205.051ZM437.349 92.2832C447.74 92.2832 455.49 84.277 455.49 74.1416C455.49 64.0062 447.484 56 437.008 56C426.958 56 418.867 64.0062 418.867 74.1416C418.867 84.277 426.873 92.2832 437.349 92.2832Z"></path>
</svg>
