<svg xmlns="http://www.w3.org/2000/svg" fill="none" viewBox="0 0 850 263" height="263" width="850">
<path fill="white" d="M734.895 182.58H812.348V158.159H767.334C757.311 158.159 757.311 143.124 767.334 143.124H802.325V121.62H767.334C757.311 121.62 757.311 106.585 767.334 106.585H812.348V82.3464H734.895V182.58ZM649.787 182.58H724.325V158.159H689.698C686.145 158.159 682.773 156.793 680.222 154.15C677.762 151.69 676.395 148.227 676.395 144.673V82.3464H649.97L649.787 182.58ZM575.25 120.982V103.669H596.937C611.334 103.669 611.334 120.982 596.937 120.982H575.25ZM601.037 182.58C626.096 182.58 638.944 170.096 638.944 153.148C638.944 138.751 629.467 130.094 612.792 130.094V126.54C627.007 126.54 635.208 119.706 635.208 107.405C635.208 93.0076 623.727 82.3464 602.404 82.3464H548.551V182.58H601.037ZM575.25 160.893V140.755H598.121C616.528 140.755 616.528 160.893 598.121 160.893H575.25ZM475.472 139.571L484.128 106.585H494.152L502.808 139.571H475.472ZM437.474 182.58H464.537L469.64 162.442H508.458L513.287 182.58H540.624L518.846 102.758C510.645 72.4141 467.18 72.4141 458.979 102.758L437.474 182.58ZM386.446 182.58H412.78V120.071C412.78 112.69 418.794 106.585 426.266 106.585H444.399V82.3464H355.009V106.676H372.96C376.514 106.676 380.068 108.043 382.528 110.503C384.988 112.963 386.537 116.517 386.537 120.071V182.58H386.446ZM297.967 139.571L306.624 106.585H316.647L325.304 139.571H297.967ZM260.061 182.58H287.124L292.227 162.442H331.044L335.874 182.58H363.119L341.432 102.758C333.231 72.4141 289.766 72.4141 281.565 102.758L260.061 182.58ZM174.498 182.58H251.951V158.159H206.755C196.822 158.159 196.822 143.124 206.755 143.124H241.836V121.62H206.755C196.822 121.62 196.822 106.585 206.755 106.585H251.951V82.3464H174.498V182.58ZM39 182.58H65.6075V128.454L57.1332 106.676H60.8692L77.4533 147.68C80.8248 156.61 89.4813 162.533 99.1402 162.533C108.799 162.533 117.273 156.61 120.827 147.68L137.229 106.676H140.965L132.491 128.454V182.58H158.916V102.302C158.916 77.6992 124.29 71.2296 115.451 94.2833L100.871 132.19H97.3177L82.6472 94.4655C73.6262 71.2296 39 77.6992 39 102.302V182.58Z"></path>
</svg>
