<svg xmlns="http://www.w3.org/2000/svg" fill="none" viewBox="0 0 56 37" height="37" width="56">
<path fill="#CBCBCB" d="M44.8104 0.000496143V15.6253H53.1502V12.9226H47.6812V9.22755H52.9197V6.52483H47.6812V2.70305H53.1502V0.000329922H44.8104V0.000496143ZM31.0268 0.000496143H28.1309V9.88281C28.1309 10.85 28.2296 11.635 28.4269 12.2378C28.6241 12.8405 28.8496 13.3101 29.1033 13.6465C29.2724 13.8708 29.4977 14.1126 29.7796 14.3719C30.0615 14.6312 30.3961 14.873 30.7836 15.0973C31.1712 15.3216 31.615 15.5073 32.1153 15.6545C32.6156 15.8017 33.1615 15.8753 33.7534 15.8753C34.8244 15.8753 35.758 15.6476 36.554 15.192C37.3502 14.7365 37.9738 14.1933 38.4247 13.5625C38.7911 13.0439 39.0341 12.4586 39.1539 11.8068C39.2737 11.155 39.3337 10.5136 39.3337 9.88297V0.000659845H36.4378V9.88297C36.4378 10.0792 36.4238 10.3596 36.3956 10.7241C36.3674 11.0885 36.2688 11.4529 36.0996 11.8174C35.9305 12.1818 35.6627 12.5007 35.2965 12.774C34.9301 13.0473 34.4087 13.184 33.7323 13.184C33.0559 13.184 32.5345 13.0473 32.1681 12.774C31.8017 12.5007 31.534 12.1818 31.365 11.8174C31.1958 11.4529 31.0972 11.0885 31.069 10.7241C31.0408 10.3596 31.0268 10.0792 31.0268 9.88297V0.000496143ZM16.1815 0.000496143V15.6253H23.7744V12.9226H19.0471V0.000329922H16.1815V0.000496143ZM20.34 21.3752L26.8864 37H23.6976L22.0293 32.9671H16.4332L14.7649 37H11.5761L18.0803 21.3752H20.34ZM19.2523 25.5H19.2099L17.4263 30.25H21.0359L19.2523 25.5ZM1.99168 0H5.05207C5.48517 0 5.91496 0.00709822 6.34113 0.0211276C6.76729 0.0353221 7.18306 0.0775737 7.58826 0.147886C7.99346 0.218363 8.3848 0.338026 8.76211 0.506874C9.13941 0.675887 9.49576 0.908115 9.83115 1.20372C10.2223 1.55561 10.5402 1.99548 10.7848 2.52331C11.0293 3.05131 11.1516 3.58262 11.1516 4.11755C11.1516 4.61023 11.0852 5.02913 10.9525 5.37392C10.8198 5.71872 10.659 6.00739 10.4704 6.23962C10.2817 6.47185 10.0896 6.65489 9.89403 6.78858C9.69844 6.92227 9.53769 7.02444 9.41192 7.09475C9.66346 7.19329 9.94635 7.32715 10.2608 7.49599C10.5752 7.66501 10.865 7.89723 11.1306 8.19284C11.3962 8.48845 11.6196 8.86147 11.8014 9.31189C11.9831 9.76232 12.0739 10.3184 12.0739 10.9799C12.0739 11.4445 12.0179 11.8704 11.9062 12.2574C11.7944 12.6445 11.6477 12.9892 11.466 13.292C11.2844 13.5945 11.0783 13.862 10.8477 14.0943C10.6171 14.3265 10.3831 14.5272 10.1456 14.6961C9.85211 14.9072 9.52729 15.0725 9.17094 15.1922C8.81459 15.3119 8.45131 15.4033 8.08094 15.4667C7.71073 15.5301 7.35785 15.5723 7.02246 15.5934C6.72058 15.6124 6.4527 15.623 6.21882 15.6248L6.14207 15.6251H1.99168V0H5.05207H1.99168ZM6.36985 8.75022H4.8545V12.8752H6.30663C6.44693 12.8752 6.67849 12.8648 7.00117 12.8437C7.32401 12.8225 7.64669 12.7489 7.96936 12.6227C8.29204 12.4964 8.57972 12.2929 8.83225 12.0123C9.08478 11.7316 9.21105 11.3387 9.21105 10.8337C9.21105 10.6793 9.18299 10.4829 9.12687 10.2444C9.07075 10.0059 8.94102 9.778 8.73751 9.56046C8.534 9.34292 8.24648 9.15361 7.87462 8.99219C7.50276 8.83093 7.00117 8.75022 6.36985 8.75022ZM6.02967 2.75026H4.8545V6.12524H5.78243C5.94731 6.12524 6.16716 6.11814 6.44214 6.10411C6.71711 6.09008 6.98516 6.03033 7.24627 5.92487C7.50738 5.8194 7.73416 5.65071 7.92661 5.41865C8.11906 5.18659 8.21529 4.85962 8.21529 4.43775C8.21529 3.97362 8.0537 3.57634 7.7307 3.24591C7.40769 2.91548 6.84074 2.75026 6.02967 2.75026ZM5.0897 31.2357V37H7.95913V31.2357L13.0698 21.3752H9.90707L6.51394 28.5541L3.14176 21.3752H0L5.0897 31.2357ZM46.4634 21.3755C47.4133 21.3755 48.2375 21.4318 48.936 21.5444C49.6345 21.6569 50.2353 21.8047 50.7382 21.9877C51.2412 22.1708 51.6604 22.3678 51.9956 22.5789C52.3308 22.79 52.6103 22.9942 52.8337 23.1913C53.197 23.5149 53.5359 23.895 53.8501 24.3314C54.1644 24.7678 54.4367 25.2463 54.6673 25.7672C54.8979 26.288 55.076 26.844 55.2017 27.4352C55.3275 28.0265 55.3904 28.6248 55.3904 29.23C55.3904 29.9338 55.3031 30.6236 55.1285 31.2993C54.9538 31.9748 54.7059 32.6083 54.3846 33.1995C54.0632 33.7907 53.672 34.3255 53.2111 34.8042C52.7501 35.2828 52.2402 35.6769 51.6814 35.9866C51.3182 36.1837 50.9305 36.349 50.5184 36.4827C50.1063 36.6164 49.6768 36.7221 49.2297 36.7995C48.7827 36.8769 48.3287 36.9295 47.8677 36.9577C47.4067 36.986 46.9597 37 46.5266 37H42.9433L42.9432 21.3755H46.4634ZM46.3523 24.1251H45.8062V34.3752H46.4154C46.8075 34.3752 47.168 34.3646 47.4971 34.3435C47.8262 34.3222 48.1377 34.2869 48.4318 34.2375C48.7258 34.1882 49.0164 34.1141 49.3035 34.0152C49.5906 33.9163 49.8881 33.7821 50.1962 33.6128C50.5744 33.4009 50.9104 33.1363 51.2045 32.8186C51.4985 32.501 51.7436 32.1516 51.9397 31.7703C52.1357 31.3891 52.2828 30.9867 52.3808 30.5631C52.4789 30.1396 52.5279 29.7161 52.5279 29.2926C52.5279 28.5302 52.3774 27.8102 52.0763 27.1325C51.7751 26.4548 51.3725 25.89 50.8685 25.4383C50.2664 24.8877 49.5906 24.5312 48.8415 24.3687C48.0923 24.2063 47.2626 24.1251 46.3523 24.1251ZM42.9433 21.3752L42.9432 21.3755H42.943L42.9433 21.3752ZM33.796 21.375C34.6972 21.375 35.4432 21.4595 36.0346 21.6284C36.6258 21.7972 37.1467 22.0648 37.5973 22.4307C37.8224 22.6138 38.0443 22.8285 38.2625 23.0747C38.4808 23.321 38.6779 23.6026 38.8539 23.9193C39.0298 24.236 39.1706 24.5843 39.2762 24.9644C39.3819 25.3445 39.4347 25.7598 39.4347 26.2102C39.4347 26.4636 39.4101 26.7521 39.3607 27.0759C39.3115 27.3998 39.227 27.7305 39.1074 28.0684C38.9877 28.4062 38.8329 28.737 38.6428 29.0608C38.4528 29.3847 38.2169 29.6803 37.9353 29.9477C37.4707 30.3981 37.0201 30.7008 36.5837 30.8556C36.1473 31.0104 35.7319 31.1372 35.3378 31.2357L39.5826 37H36.0769L31.9377 31.0246H31.8954V37H29.0022V21.375H33.796ZM33.7072 24.1251H31.8651V28.8752H33.7072C34.2935 28.8752 34.768 28.7875 35.1308 28.6124C35.4937 28.4373 35.7763 28.2272 35.9787 27.9819C36.181 27.7366 36.3135 27.4773 36.3764 27.2042C36.4393 26.931 36.4707 26.6892 36.4707 26.4791C36.4707 26.269 36.4322 26.0272 36.3555 25.754C36.2787 25.4807 36.1356 25.2216 35.9263 24.9763C35.7169 24.731 35.4343 24.5279 35.0785 24.3668C34.7224 24.2057 34.2654 24.1251 33.7072 24.1251Z"></path>
</svg>
