<svg xmlns="http://www.w3.org/2000/svg" fill="none" viewBox="0 0 850 263" height="263" width="850">
<path stroke-miterlimit="10" stroke-width="0.672" stroke="white" fill="white" d="M536.136 160.995C514.387 160.995 496.755 143.364 496.755 121.614C496.755 99.8651 514.387 82.2332 536.136 82.2332C557.885 82.2332 575.517 99.8651 575.517 121.614C575.517 143.364 557.885 160.995 536.136 160.995ZM447.806 148.624C447.806 148.624 440.331 161.028 420.458 161.028C397.02 161.028 387.313 146.804 384.546 134.403H469.387C470.317 139.356 471.785 144.118 473.744 148.624H447.806ZM419.473 81.6915C451.643 81.6915 455.278 109.915 455.278 109.915H383.963C389.736 91.6314 402.78 81.6915 419.473 81.6915V81.6915ZM333.069 148.624C333.069 148.624 325.594 161.028 305.721 161.028C282.282 161.028 272.575 146.804 269.808 134.403H353.758C354.688 139.356 356.157 144.118 358.115 148.624H333.069ZM304.736 81.6915C336.905 81.6915 340.541 109.915 340.541 109.915H269.225C274.999 91.6314 288.043 81.6915 304.736 81.6915ZM216.326 110.897C213.237 110.443 210.603 110.062 208.429 109.746L207.974 109.68C205.6 109.343 203.46 109.065 201.43 108.828L195.169 108.099C193.079 107.855 190.467 107.573 187.356 107.25L185.453 107.118C182.147 106.692 179.024 106.29 176.247 104.593C173.329 102.809 171.587 99.0588 171.587 94.5619C171.587 91.5183 172.495 89.0074 174.365 86.8851C176.258 84.736 178.642 83.0992 181.462 82.0176C183.792 81.0856 186.073 80.5394 188.237 80.3764C190.698 80.191 193.594 80.1206 196.109 80.1358C199.469 80.1554 202.756 80.6526 205.875 81.6719C208.954 82.684 211.433 84.0508 213.208 85.6992C214.71 87.2557 215.978 88.9887 216.976 90.85C217.945 92.6561 218.437 94.7232 218.437 96.9943V97.8853H242.362C239.941 104.137 238.431 110.833 237.997 117.821C232.375 114.466 225.43 112.268 216.326 110.897V110.897ZM650.593 160.995C628.844 160.995 611.212 143.364 611.212 121.614C611.212 99.8651 628.844 82.2332 650.593 82.2332C665.95 82.2332 679.122 91.03 685.615 103.855H714C706.063 75.6924 680.16 54.983 649.494 54.983C625.362 54.983 604.173 67.8062 592.368 86.9929C580.564 67.8062 559.376 54.983 535.245 54.983C510.63 54.983 489.085 68.3301 477.431 88.1574C465.776 68.3301 444.232 54.983 419.617 54.983C395.32 54.983 374.003 67.979 362.248 87.3832C350.492 67.979 329.176 54.983 304.879 54.983C281.519 54.983 260.925 67.0016 248.922 85.1726C248.612 84.3992 248.282 83.6294 247.911 82.8658C245.701 78.3431 242.706 74.1332 239 70.3464C233.871 65.2419 227.387 61.4071 219.73 58.9461C212.114 56.4977 204.079 55.2565 195.849 55.2565C187.272 55.2565 180.261 56.3747 173.254 58.5799C166.226 60.7905 160.072 63.9918 154.96 68.0984C150.89 71.3969 147.482 75.45 144.832 80.1438C142.159 84.8786 140.803 89.7381 140.803 96.3466C140.803 100.497 141.571 104.496 143.085 108.23C144.595 111.96 146.803 115.405 149.65 118.469C152.479 121.523 155.843 124.158 159.648 126.299C163.448 128.442 167.792 130.028 172.553 131.013C178.632 132.313 184.988 133.258 191.443 133.825C197.873 134.396 203.288 135.09 209.277 135.885C213.248 136.504 216.426 137.899 218.719 140.033C220.986 142.15 222.088 145.77 222.088 149.268C222.088 152.438 221.241 155.023 219.567 156.952C217.842 158.943 215.63 160.497 212.991 161.573C210.284 162.677 207.332 163.433 204.215 163.824C201.061 164.223 198.07 164.425 195.327 164.425C190.729 164.425 186.814 163.985 183.693 163.12C180.605 162.267 177.764 160.883 175.263 159.019C173.29 157.489 171.618 155.382 170.294 152.757C168.973 150.146 168.303 147.5 168.303 144.893V144.002H136V144.893C136 151.019 137.442 156.728 140.284 161.858C143.101 166.95 146.587 171.364 150.641 174.973C156.276 180.063 162.97 183.848 170.538 186.224C178.074 188.591 186.326 189.791 195.066 189.791C204.488 189.791 213.347 188.635 221.396 186.353C229.496 184.056 236.464 180.224 242.109 174.964C245.65 171.662 248.568 167.646 250.784 163.025C250.929 162.722 251.056 162.405 251.192 162.094C263.427 178.439 282.939 189.036 304.879 189.036C329.176 189.036 350.492 176.04 362.248 156.635C374.003 176.04 395.32 189.036 419.617 189.036C444.232 189.036 465.776 175.689 477.431 155.861C489.085 175.689 510.63 189.036 535.245 189.036C543.817 189.036 552.009 187.401 559.551 184.455L577.736 208L598.802 190.597L582.003 169.966C585.966 166.103 589.449 161.753 592.363 157.017C604.167 176.208 625.358 189.036 649.494 189.036C678.948 189.036 704.008 169.928 712.977 143.463H683.233C676.17 154.033 664.258 160.995 650.593 160.995Z"></path>
</svg>
