<svg xmlns="http://www.w3.org/2000/svg" fill="none" viewBox="0 0 850 263" height="263" width="850">
<path fill="white" d="M179.905 106.07C194.22 106.07 225.994 111.059 225.994 129.694V145.667H206.189V136.526C206.189 127.702 190.553 124.705 180.892 124.705C158.108 124.705 141.467 140.677 141.467 165.66C141.467 192.282 158.778 209.595 182.065 209.595C189.231 209.595 207.696 207.268 207.696 197.941V188.782H227.502V204.922C227.502 222.57 197.049 228.23 180.743 228.23C144.967 228.23 119 201.106 119 166.666C119 131.686 145.618 106.07 179.905 106.07Z"></path>
<path fill="white" d="M236.548 210.414H248.852V123.867H235.71V108.062H269.979V149.334C269.99 151.726 269.828 154.115 269.495 156.483H269.83C272.709 151.248 276.951 146.891 282.106 143.872C287.261 140.853 293.137 139.286 299.11 139.337C317.91 139.337 328.725 149.167 328.725 171.636V210.414H341.048V226.219H307.542V175.955C307.542 165.642 304.88 158.661 294.233 158.661C279.342 158.661 269.923 171.692 269.923 187.274V210.414H282.078V226.219H236.548V210.414Z"></path>
<path fill="white" d="M389.5 139.337C413.978 139.337 427.287 157.153 427.287 179.604C427.287 182.117 426.785 186.771 426.785 186.771H368.057C369.379 202.409 380.696 210.414 393.503 210.414C407.314 210.414 418.129 201.422 418.129 201.422L426.282 216.315C416.578 224.129 404.471 228.345 392.013 228.248C363.888 228.248 346.427 207.938 346.427 183.811C346.427 157.656 364.055 139.337 389.5 139.337ZM405.49 174.261C405.155 162.626 398.044 155.645 389.017 155.645C378.202 155.645 370.533 163.092 368.541 174.261H405.49Z"></path>
<path fill="white" d="M436.985 210.414H449.234V160.653C449.287 160.16 449.225 159.662 449.053 159.198C448.881 158.734 448.604 158.315 448.243 157.976C447.882 157.637 447.448 157.386 446.974 157.243C446.5 157.1 445.999 157.07 445.511 157.153H436.204V141.348H458.336C465.781 141.348 469.504 144.829 469.504 150.823V154.658C469.493 155.906 469.381 157.152 469.169 158.382H469.504C473.823 149.744 484.396 139.412 498.449 139.412C510.269 139.412 518.757 144.997 522.071 157.898H522.406C525.114 152.382 529.306 147.731 534.511 144.465C539.716 141.2 545.728 139.45 551.872 139.412C568.997 139.412 579.16 149.409 579.16 171.711V210.489H591.464V226.294H557.959V175.62C557.959 165.977 556.097 158.661 546.325 158.661C531.843 158.661 524.677 173.126 524.677 188.763V210.414H536.999V226.219H503.698V175.62C503.698 166.461 502.209 158.661 492.232 158.661C477.248 158.661 470.435 174.466 470.435 189.769V210.414H482.571V226.219H436.985V210.414Z"></path>
<path fill="white" d="M598.798 210.414H611.176V157.153H597.96V141.348H632.248V210.414H644.384V226.219H598.798V210.414ZM610.934 108.025H632.248V126.827H610.934V108.025Z"></path>
<path fill="white" d="M652.909 210.414H665.158V157.153H652.128V141.348H665.158V137.513C665.158 110.054 687.122 106.572 698.44 106.572C701.338 106.56 704.232 106.778 707.095 107.224V124.202C704.952 123.815 702.776 123.646 700.599 123.699C695.778 123.699 686.285 124.705 686.285 137.01V141.348H705.42V157.153H686.34V210.414H700.655V226.219H652.909V210.414Z"></path>
<path fill="white" d="M735.463 243.849C738.659 243.919 741.802 243.019 744.477 241.268C747.152 239.516 749.233 236.996 750.448 234.038L752.774 228.695L723.643 157.153H713.554V141.348H755.324V157.153H745.198L760.685 200.082C761.651 202.94 762.275 205.902 762.547 208.906H763.049C763.512 205.891 764.292 202.933 765.376 200.082L780.677 157.153H770.867V141.348H810.962V157.153H801.32L770.03 237.203C763.552 253.957 750.894 261.18 736.431 261.18C729.139 261.215 721.986 259.196 715.788 255.353L722.619 239.883C726.38 242.517 730.872 243.904 735.463 243.849V243.849Z"></path>
<path fill="white" d="M44.6611 32.6292C45.363 31.9268 45.841 31.0319 46.0345 30.0578C46.228 29.0837 46.1283 28.0741 45.7482 27.1566C45.3681 26.2391 44.7245 25.455 43.8989 24.9033C43.0732 24.3516 42.1025 24.0571 41.1096 24.0571C40.1166 24.0571 39.1459 24.3516 38.3203 24.9033C37.4946 25.455 36.8511 26.2391 36.4709 27.1566C36.0908 28.0741 35.9912 29.0837 36.1847 30.0578C36.3782 31.0319 36.8561 31.9268 37.558 32.6292C38.0235 33.0974 38.5769 33.4689 39.1864 33.7224C39.7959 33.9759 40.4495 34.1064 41.1096 34.1064C41.7697 34.1064 42.4233 33.9759 43.0328 33.7224C43.6423 33.4689 44.1956 33.0974 44.6611 32.6292V32.6292ZM50.0619 73.4306C51.8273 73.2385 53.6013 73.1363 55.377 73.1243C56.6017 73.1243 57.7651 73.1244 58.9041 73.2591C59.1612 73.2974 59.3995 73.4166 59.5845 73.5993C59.7694 73.7821 59.8914 74.019 59.9328 74.2757V74.2145C60.3055 75.1443 60.9903 75.9153 61.8695 76.395C62.7488 76.8747 63.7675 77.0332 64.7509 76.8434C65.7343 76.6536 66.621 76.1272 67.2585 75.3546C67.8961 74.5821 68.2448 73.6116 68.2448 72.6099C68.2448 71.6082 67.8961 70.6377 67.2585 69.8652C66.621 69.0926 65.7343 68.5662 64.7509 68.3764C63.7675 68.1866 62.7488 68.3451 61.8695 68.8248C60.9903 69.3046 60.3055 70.0755 59.9328 71.0053V70.944C59.8914 71.2008 59.7694 71.4377 59.5845 71.6205C59.3995 71.8033 59.1612 71.9224 58.9041 71.9607C57.7651 72.0465 56.5894 72.0954 55.377 72.0954C53.6092 72.0896 51.843 71.9874 50.0864 71.7892C49.8416 71.7431 49.6166 71.6235 49.4416 71.4462C49.2665 71.2689 49.1497 71.0425 49.1067 70.797V70.797C48.6731 69.056 47.6178 67.5337 46.1396 66.5172C44.6614 65.5006 42.8625 65.06 41.0819 65.2784C39.3014 65.4969 37.6622 66.3592 36.4734 67.703C35.2846 69.0467 34.6284 70.7789 34.6284 72.5732C34.6284 74.3674 35.2846 76.0996 36.4734 77.4434C37.6622 78.7871 39.3014 79.6495 41.0819 79.8679C42.8625 80.0863 44.6614 79.6457 46.1396 78.6292C47.6178 77.6126 48.6731 76.0903 49.1067 74.3492V74.3492C49.161 74.1206 49.2799 73.9124 49.4493 73.7495C49.6187 73.5866 49.8314 73.4759 50.0619 73.4306V73.4306ZM58.2672 48.7367C58.4685 48.6024 58.705 48.5307 58.9469 48.5307C59.1889 48.5307 59.4254 48.6024 59.6266 48.7367C61.0156 49.8447 62.3442 51.0264 63.6068 52.2766C64.4641 53.134 65.2601 54.0037 66.0561 54.8734C66.2066 55.082 66.2875 55.3327 66.2875 55.59C66.2875 55.8472 66.2066 56.0979 66.0561 56.3065C65.6618 57.2276 65.6004 58.2572 65.8826 59.2185C66.1648 60.1799 66.773 61.013 67.6026 61.5746C68.4321 62.1362 69.4314 62.3913 70.4286 62.296C71.4258 62.2008 72.3587 61.7612 73.0671 61.0527C73.7754 60.3442 74.215 59.4111 74.3102 58.4137C74.4054 57.4163 74.1504 56.4169 73.5889 55.5872C73.0274 54.7574 72.1945 54.1492 71.2333 53.8669C70.2721 53.5846 69.2426 53.646 68.3218 54.0405V54.0405C68.112 54.1938 67.859 54.2764 67.5992 54.2764C67.3395 54.2764 67.0864 54.1938 66.8767 54.0405C66.0072 53.281 65.1376 52.4971 64.2804 51.5907C63.0385 50.336 61.8652 49.0153 60.7655 47.6342C60.6155 47.4347 60.5344 47.1918 60.5344 46.9422C60.5344 46.6925 60.6155 46.4497 60.7655 46.2501V46.2501C61.6766 44.7022 61.9894 42.8742 61.6448 41.1114C61.3002 39.3486 60.322 37.7731 58.8952 36.6824C57.4683 35.5917 55.6915 35.0614 53.9003 35.1917C52.1092 35.3219 50.4278 36.1038 49.1737 37.3894C47.9196 38.6751 47.1797 40.3757 47.0937 42.1698C47.0077 43.9639 47.5816 45.7274 48.707 47.1272C49.8323 48.527 51.4313 49.4661 53.2017 49.7671C54.9722 50.0682 56.7916 49.7103 58.3162 48.7612L58.2672 48.7367ZM44.7958 89.5135C48.1025 88.1293 51.2744 86.9412 54.3238 85.8388C54.416 85.8191 54.5117 85.8234 54.6017 85.8513C54.6918 85.8792 54.7732 85.9297 54.8381 85.998V85.998C55.2274 86.3082 55.7089 86.48 56.2067 86.4862C56.7044 86.4924 57.19 86.3327 57.5869 86.0323C57.9838 85.7319 58.2694 85.3079 58.3988 84.8271C58.5281 84.3464 58.4937 83.8363 58.3011 83.3772C58.1084 82.9182 57.7685 82.5363 57.3348 82.2919C56.9012 82.0475 56.3985 81.9545 55.9062 82.0274C55.4138 82.1004 54.9597 82.3352 54.6155 82.6949C54.2714 83.0545 54.0567 83.5185 54.0054 84.0137V84.0137C54.0046 84.1478 53.9599 84.278 53.878 84.3842C53.7962 84.4904 53.6817 84.5668 53.5522 84.6017C50.7232 85.998 47.7106 87.3944 44.4774 88.7418C41.2443 90.0892 38.3541 91.1916 35.4883 92.196C35.3288 92.2288 35.1643 92.2295 35.0045 92.1979C34.8446 92.1664 34.6927 92.1033 34.5576 92.0123L34.2637 91.7183V91.657C33.6262 91.1062 32.8213 90.7871 31.9797 90.7515C31.138 90.7158 30.309 90.9658 29.6273 91.4608C28.9456 91.9558 28.4512 92.6667 28.2244 93.4782C27.9976 94.2896 28.0517 95.1539 28.3779 95.9307C28.7041 96.7075 29.2833 97.3513 30.0214 97.7574C30.7595 98.1635 31.6131 98.3081 32.4438 98.1678C33.2744 98.0275 34.0332 97.6105 34.597 96.9845C35.1608 96.3584 35.4965 95.5602 35.5496 94.7193V94.7193C35.5496 94.56 35.5496 94.4131 35.5496 94.2538C35.5739 94.1064 35.6277 93.9653 35.7076 93.8391C35.7876 93.7128 35.8921 93.604 36.0149 93.5189C38.7949 92.196 41.7586 90.8364 44.8571 89.5135H44.7958ZM23.0212 67.5878C22.0281 67.5878 21.0573 67.8824 20.2315 68.4342C19.4058 68.986 18.7622 69.7704 18.3822 70.688C18.0022 71.6057 17.9027 72.6155 18.0965 73.5897C18.2902 74.5638 18.7685 75.4587 19.4707 76.1611C20.1729 76.8634 21.0676 77.3417 22.0416 77.5355C23.0156 77.7293 24.0252 77.6298 24.9427 77.2497C25.8602 76.8696 26.6444 76.2259 27.1961 75.4C27.7479 74.5741 28.0423 73.6032 28.0423 72.6099C28.0424 71.2885 27.5218 70.0203 26.5934 69.0803C25.6649 68.1402 24.4035 67.6039 23.0824 67.5878H23.0212ZM30.3692 54.2487C31.0139 54.5096 31.7186 54.586 32.4042 54.4691C33.0898 54.3523 33.7294 54.047 34.2514 53.5873V53.5873L34.5698 53.2688C34.8146 53.0945 35.1184 53.0241 35.4149 53.0728C38.3296 54.0772 41.3545 55.1796 44.5019 56.4658C47.6493 57.7519 50.9069 59.234 53.7972 60.6304C53.8794 60.6822 53.9465 60.7547 53.9917 60.8408C54.0368 60.9268 54.0585 61.0233 54.0544 61.1204C54.1032 61.5118 54.2545 61.8834 54.4929 62.1976C54.7313 62.5118 55.0484 62.7576 55.4121 62.9101C55.7759 63.0625 56.1734 63.1162 56.5645 63.0658C56.9557 63.0154 57.3266 62.8627 57.6399 62.623C57.9531 62.3834 58.1976 62.0653 58.3486 61.7009C58.4996 61.3365 58.5518 60.9387 58.4999 60.5477C58.448 60.1566 58.2938 59.7862 58.053 59.4739C57.8122 59.1615 57.4932 58.9182 57.1283 58.7686C56.7611 58.6127 56.3583 58.56 55.9634 58.6161C55.5685 58.6722 55.1964 58.835 54.8871 59.087V59.087C54.7933 59.1833 54.6699 59.2453 54.5367 59.2631C54.4034 59.2809 54.2681 59.2534 54.1523 59.185C51.1641 58.1684 48.029 57.0292 44.8081 55.7063C41.5872 54.3835 38.7582 53.0973 36.0027 51.7744C35.885 51.6702 35.7913 51.5419 35.7279 51.3981C35.6645 51.2544 35.6329 51.0986 35.6353 50.9415C35.6353 50.8067 35.6353 50.672 35.6353 50.5373C35.5701 49.8941 35.3363 49.2796 34.9577 48.7556C34.5791 48.2317 34.0691 47.8169 33.479 47.5532C32.8889 47.2894 32.2396 47.186 31.5968 47.2535C30.954 47.3209 30.3403 47.5568 29.8178 47.9372C29.2952 48.3177 28.8823 48.8292 28.6206 49.4203C28.3589 50.0114 28.2578 50.6611 28.3274 51.3038C28.397 51.9465 28.6348 52.5595 29.017 53.0808C29.3991 53.6022 29.912 54.0135 30.5039 54.2732L30.3692 54.2487ZM84.6222 16.0687C85.6182 16.0687 86.5918 15.7731 87.4198 15.2194C88.2478 14.6656 88.893 13.8787 89.2736 12.958C89.6542 12.0374 89.7531 11.0246 89.5579 10.0477C89.3627 9.07078 88.8821 8.17376 88.1769 7.47019C87.4718 6.76662 86.5738 6.28811 85.5966 6.09525C84.6194 5.90238 83.607 6.00383 82.6875 6.38674C81.7679 6.76966 80.9827 7.41683 80.4311 8.24633C79.8795 9.07583 79.5864 10.0504 79.5888 11.0466C79.592 12.3796 80.1237 13.657 81.0673 14.5985C82.0109 15.5399 83.2893 16.0687 84.6222 16.0687V16.0687ZM133.156 51.7499C130.4 53.0728 127.486 54.3957 124.363 55.6818C121.24 56.968 117.994 58.1316 115.006 59.1605C114.89 59.2289 114.755 59.2563 114.622 59.2386C114.489 59.2208 114.365 59.1588 114.271 59.0625V59.0625C113.883 58.749 113.402 58.5733 112.903 58.5629C112.404 58.5525 111.916 58.7081 111.515 59.0053C111.114 59.3024 110.823 59.7243 110.687 60.2047C110.552 60.6851 110.58 61.1969 110.766 61.6598C110.953 62.1226 111.288 62.5104 111.719 62.7622C112.15 63.014 112.652 63.1156 113.147 63.0511C113.642 62.9866 114.102 62.7596 114.454 62.4057C114.805 62.0519 115.03 61.5912 115.092 61.0959V61.0959C115.093 60.9998 115.117 60.9053 115.162 60.8202C115.207 60.7351 115.271 60.6617 115.349 60.6059C118.252 59.2095 121.326 57.8009 124.644 56.4413C127.963 55.0816 130.768 54.0527 133.731 53.0483C134.032 53.0052 134.337 53.0751 134.589 53.2443C134.686 53.3594 134.792 53.466 134.907 53.5628V53.5628C135.535 54.13 136.337 54.4679 137.181 54.5214C138.026 54.575 138.864 54.3411 139.558 53.8578C140.253 53.3745 140.764 52.6702 141.007 51.8596C141.251 51.049 141.213 50.1798 140.9 49.3935C140.587 48.6072 140.017 47.9501 139.283 47.5291C138.548 47.1081 137.693 46.948 136.857 47.0749C136.02 47.2019 135.251 47.6083 134.675 48.228C134.098 48.8478 133.749 49.6444 133.682 50.4883V50.9415C133.665 51.1054 133.611 51.2634 133.524 51.4034C133.437 51.5434 133.32 51.6619 133.18 51.7499H133.156ZM110.34 73.2591C111.479 73.1734 112.655 73.1243 113.88 73.1243C115.651 73.1363 117.421 73.2385 119.182 73.4306C119.423 73.4811 119.642 73.6027 119.813 73.7797C119.983 73.9566 120.096 74.1807 120.138 74.4228C120.571 76.1638 121.626 77.6861 123.105 78.7027C124.583 79.7192 126.382 80.1598 128.162 79.9414C129.943 79.723 131.582 78.8606 132.771 77.5169C133.96 76.1731 134.616 74.4409 134.616 72.6467C134.616 70.8524 133.96 69.1202 132.771 67.7764C131.582 66.4327 129.943 65.5703 128.162 65.3519C126.382 65.1335 124.583 65.5741 123.105 66.5906C121.626 67.6072 120.571 69.1295 120.138 70.8705V70.8705C120.095 71.1143 119.98 71.3396 119.808 71.5167C119.635 71.6938 119.413 71.8144 119.17 71.8627C117.413 72.0605 115.647 72.1628 113.88 72.1689C112.655 72.1689 111.491 72.1689 110.34 72.0342C110.083 71.9959 109.845 71.8767 109.66 71.694C109.475 71.5112 109.353 71.2743 109.312 71.0176V71.0788C108.939 70.149 108.254 69.378 107.375 68.8983C106.496 68.4186 105.477 68.2601 104.493 68.4499C103.51 68.6397 102.623 69.1661 101.986 69.9387C101.348 70.7112 100.999 71.6817 100.999 72.6834C100.999 73.6851 101.348 74.6556 101.986 75.4281C102.623 76.2007 103.51 76.7271 104.493 76.9169C105.477 77.1067 106.496 76.9482 107.375 76.4685C108.254 75.9888 108.939 75.2178 109.312 74.288V74.3492C109.338 74.0792 109.453 73.8257 109.64 73.6284C109.826 73.4311 110.072 73.3012 110.34 73.2591ZM131.686 32.6292C132.388 31.9268 132.866 31.0319 133.06 30.0578C133.253 29.0837 133.154 28.0741 132.773 27.1566C132.393 26.2391 131.75 25.455 130.924 24.9033C130.098 24.3516 129.128 24.0571 128.135 24.0571C127.142 24.0571 126.171 24.3516 125.345 24.9033C124.52 25.455 123.876 26.2391 123.496 27.1566C123.116 28.0741 123.016 29.0837 123.21 30.0578C123.403 31.0319 123.881 31.9268 124.583 32.6292C125.05 33.1014 125.606 33.4763 126.219 33.7322C126.832 33.988 127.489 34.1197 128.153 34.1197C128.817 34.1197 129.475 33.988 130.087 33.7322C130.7 33.4763 131.256 33.1014 131.723 32.6292H131.686ZM108.418 46.2256C108.557 46.4294 108.632 46.6707 108.632 46.9177C108.632 47.1647 108.557 47.4059 108.418 47.6098C107.314 48.9908 106.136 50.3116 104.89 51.5662C104.033 52.4359 103.164 53.2198 102.294 54.016C102.084 54.1693 101.831 54.2519 101.572 54.2519C101.312 54.2519 101.059 54.1693 100.849 54.016V54.016C99.9307 53.6239 98.9046 53.5637 97.9468 53.8459C96.989 54.128 96.1593 54.7349 95.6001 55.5622C95.0409 56.3896 94.7871 57.3859 94.8823 58.38C94.9774 59.3741 95.4157 60.3041 96.1217 61.0102C96.8278 61.7164 97.7576 62.1547 98.7515 62.2499C99.7454 62.3451 100.742 62.0913 101.569 61.532C102.396 60.9727 103.003 60.1428 103.285 59.1848C103.567 58.2268 103.507 57.2005 103.115 56.282V56.282C102.964 56.0734 102.883 55.8227 102.883 55.5655C102.883 55.3082 102.964 55.0575 103.115 54.8489C103.862 53.9792 104.658 53.1096 105.564 52.2521C106.829 51.0049 108.158 49.8233 109.544 48.7122C109.745 48.5779 109.982 48.5062 110.224 48.5062C110.466 48.5062 110.702 48.5779 110.904 48.7122V48.7122C112.443 49.6319 114.267 49.9566 116.029 49.6251C117.792 49.2935 119.372 48.3286 120.473 46.9122C121.574 45.4957 122.118 43.7256 122.004 41.9353C121.89 40.145 121.126 38.4582 119.854 37.1929C118.583 35.9275 116.893 35.1709 115.102 35.0656C113.312 34.9603 111.545 35.5136 110.134 36.6213C108.723 37.729 107.766 39.3145 107.443 41.0791C107.12 42.8437 107.454 44.6655 108.381 46.2011L108.418 46.2256ZM37.4723 112.591C36.7704 113.293 36.2924 114.188 36.0989 115.162C35.9054 116.136 36.0051 117.146 36.3852 118.063C36.7653 118.981 37.4089 119.765 38.2345 120.317C39.0602 120.868 40.0309 121.163 41.0238 121.163C42.0168 121.163 42.9875 120.868 43.8131 120.317C44.6388 119.765 45.2824 118.981 45.6625 118.063C46.0426 117.146 46.1422 116.136 45.9487 115.162C45.7552 114.188 45.2773 113.293 44.5754 112.591C43.6343 111.68 42.3762 111.171 41.0667 111.171C39.7572 111.171 38.4991 111.68 37.558 112.591H37.4723ZM106.691 121.741H106.238C106.076 121.717 105.921 121.658 105.786 121.566C105.65 121.475 105.537 121.355 105.454 121.214C104.131 118.458 102.809 115.543 101.523 112.407C100.237 109.271 99.0733 106.05 98.0445 103.061C97.9803 102.944 97.9551 102.81 97.9727 102.677C97.9904 102.545 98.0499 102.422 98.1425 102.326C98.4572 101.938 98.6333 101.456 98.6428 100.956C98.6522 100.457 98.4946 99.9685 98.1949 99.5689C97.8952 99.1692 97.4706 98.8811 96.9885 98.7504C96.5065 98.6196 95.9945 98.6537 95.534 98.8472C95.0751 99.035 94.6914 99.3698 94.4431 99.799C94.1947 100.228 94.0957 100.728 94.1615 101.219C94.2273 101.711 94.4543 102.167 94.8068 102.515C95.1593 102.864 95.6175 103.086 96.1096 103.147V103.147C96.2061 103.146 96.3012 103.169 96.3867 103.214C96.4721 103.259 96.5452 103.324 96.5994 103.404C97.9956 106.295 99.4039 109.381 100.763 112.701C102.123 116.02 103.213 118.825 104.156 121.79C104.183 121.936 104.179 122.087 104.145 122.232C104.112 122.378 104.048 122.515 103.96 122.635C103.847 122.739 103.741 122.849 103.641 122.965V122.965C103.204 123.466 102.908 124.075 102.785 124.729C102.661 125.383 102.715 126.057 102.939 126.683C103.163 127.31 103.551 127.864 104.062 128.291C104.572 128.717 105.187 128.999 105.843 129.108C106.499 129.217 107.173 129.149 107.794 128.91C108.414 128.672 108.96 128.272 109.375 127.752C109.79 127.232 110.058 126.611 110.153 125.952C110.247 125.294 110.164 124.622 109.912 124.007C109.651 123.375 109.22 122.828 108.666 122.427C108.113 122.027 107.458 121.789 106.776 121.741H106.691ZM110.94 96.4831C110.735 96.6254 110.492 96.7016 110.242 96.7016C109.993 96.7016 109.749 96.6254 109.544 96.4831C108.163 95.3795 106.842 94.2019 105.589 92.9554C104.731 92.098 103.935 91.2406 103.139 90.3709C102.986 90.1611 102.903 89.908 102.903 89.6482C102.903 89.3884 102.986 89.1353 103.139 88.9255V88.9255C103.534 88.0045 103.595 86.9749 103.313 86.0135C103.031 85.0521 102.422 84.2191 101.593 83.6575C100.763 83.0959 99.7639 82.8408 98.7667 82.936C97.7695 83.0312 96.8366 83.4709 96.1282 84.1793C95.4199 84.8878 94.9804 85.8209 94.8851 86.8183C94.7899 87.8157 95.045 88.8152 95.6065 89.6449C96.168 90.4746 97.0009 91.0829 97.9621 91.3651C98.9232 91.6474 99.9527 91.586 100.874 91.1916V91.1916C101.083 91.0383 101.336 90.9557 101.596 90.9557C101.856 90.9557 102.109 91.0383 102.319 91.1916C103.188 91.951 104.058 92.7472 104.915 93.6414C106.162 94.9028 107.343 96.2275 108.454 97.6101C108.591 97.8126 108.664 98.0515 108.664 98.296C108.664 98.5405 108.591 98.7794 108.454 98.9819V98.9819C107.527 100.518 107.194 102.339 107.517 104.104C107.84 105.869 108.797 107.454 110.207 108.562C111.618 109.669 113.385 110.223 115.176 110.117C116.966 110.012 118.656 109.256 119.928 107.99C121.199 106.725 121.964 105.038 122.078 103.248C122.192 101.458 121.647 99.6874 120.547 98.2709C119.446 96.8545 117.865 95.8896 116.103 95.558C114.34 95.2264 112.517 95.5512 110.977 96.4709L110.94 96.4831ZM124.534 112.591C123.832 113.293 123.354 114.188 123.161 115.162C122.967 116.136 123.067 117.146 123.447 118.063C123.827 118.981 124.471 119.765 125.296 120.317C126.122 120.868 127.093 121.163 128.086 121.163C129.079 121.163 130.049 120.868 130.875 120.317C131.701 119.765 132.344 118.981 132.724 118.063C133.105 117.146 133.204 116.136 133.011 115.162C132.817 114.188 132.339 113.293 131.637 112.591C130.696 111.68 129.438 111.171 128.129 111.171C126.819 111.171 125.561 111.68 124.62 112.591H124.534ZM95.3993 46.3604C95.9532 46.5877 96.5746 46.5865 97.1276 46.357C97.6807 46.1274 98.1204 45.6883 98.3507 45.1355C98.5026 44.7674 98.5532 44.3654 98.4972 43.9712C98.4412 43.5771 98.2807 43.205 98.0323 42.8939V42.8939C97.964 42.8289 97.9135 42.7475 97.8856 42.6575C97.8578 42.5674 97.8534 42.4717 97.8731 42.3795C98.9263 39.3295 100.114 36.157 101.547 32.8498C102.98 29.5425 104.217 26.7865 105.564 24.0305C105.649 23.9076 105.758 23.8031 105.884 23.7231C106.01 23.6431 106.151 23.5894 106.299 23.565H106.789C107.633 23.5131 108.435 23.1772 109.064 22.6119C109.693 22.0465 110.112 21.285 110.253 20.4511C110.395 19.6172 110.25 18.7599 109.843 18.0186C109.436 17.2774 108.79 16.6957 108.01 16.3682C107.23 16.0406 106.363 15.9865 105.548 16.2146C104.734 16.4426 104.021 16.9395 103.524 17.6244C103.028 18.3093 102.778 19.1419 102.815 19.9869C102.852 20.832 103.173 21.6397 103.727 22.2789V22.2789L104.021 22.5729C104.112 22.708 104.175 22.86 104.207 23.0198C104.238 23.1797 104.237 23.3442 104.205 23.5038C103.188 26.3823 102.061 29.3833 100.751 32.4945C99.4407 35.6058 98.0078 38.7415 96.6117 41.571C96.5768 41.7005 96.5005 41.815 96.3943 41.8969C96.2881 41.9787 96.1579 42.0235 96.0238 42.0242C95.5284 42.0764 95.0645 42.2923 94.7054 42.6376C94.3463 42.9829 94.1125 43.4381 94.0409 43.9311C93.9693 44.4242 94.0639 44.9271 94.3099 45.3603C94.5559 45.7936 94.9392 46.1325 95.3993 46.3236V46.3604ZM146.199 67.5878C145.206 67.5878 144.235 67.8824 143.409 68.4342C142.583 68.986 141.94 69.7704 141.56 70.688C141.18 71.6057 141.08 72.6155 141.274 73.5897C141.468 74.5638 141.946 75.4587 142.648 76.1611C143.35 76.8634 144.245 77.3417 145.219 77.5355C146.193 77.7293 147.203 77.6298 148.12 77.2497C149.038 76.8696 149.822 76.2259 150.374 75.4C150.925 74.5741 151.22 73.6032 151.22 72.6099C151.217 71.279 150.687 70.0035 149.746 69.0623C148.805 68.1212 147.529 67.5911 146.199 67.5878V67.5878ZM138.851 91.0691C138.208 90.8049 137.505 90.7246 136.819 90.8371C136.134 90.9496 135.493 91.2504 134.968 91.706V91.706V91.7673L134.687 92.0613C134.552 92.1523 134.4 92.2154 134.24 92.2469C134.08 92.2785 133.916 92.2778 133.756 92.245C130.866 91.2283 127.865 90.1014 124.755 88.7908C121.644 87.4801 118.521 86.047 115.68 84.6506C115.544 84.6115 115.426 84.5268 115.346 84.4108C115.266 84.2947 115.228 84.1544 115.239 84.0137V84.0137C115.186 83.5167 114.969 83.0515 114.623 82.6912C114.277 82.3308 113.82 82.0958 113.326 82.0232C112.832 81.9505 112.327 82.0442 111.892 82.2897C111.456 82.5351 111.115 82.9183 110.921 83.379C110.727 83.8397 110.692 84.3517 110.821 84.8346C110.95 85.3175 111.236 85.7438 111.634 86.0465C112.031 86.3492 112.518 86.5111 113.018 86.5067C113.518 86.5024 114.002 86.3321 114.394 86.0225V86.0225C114.46 85.9552 114.541 85.9053 114.631 85.8775C114.721 85.8497 114.816 85.8448 114.908 85.8633C117.958 86.9167 121.13 88.1049 124.436 89.538C127.743 90.9711 130.498 92.2205 133.254 93.5679C133.498 93.7455 133.668 94.0073 133.731 94.3028C133.731 94.4621 133.731 94.6091 133.731 94.7683C133.788 95.4136 134.013 96.0327 134.386 96.5627C134.758 97.0927 135.264 97.5149 135.852 97.7864C136.44 98.0579 137.089 98.1691 137.734 98.1087C138.379 98.0484 138.996 97.8186 139.524 97.4426C140.051 97.0667 140.47 96.558 140.738 95.9681C141.005 95.3781 141.112 94.728 141.047 94.0834C140.983 93.4389 140.749 92.8228 140.37 92.2978C139.99 91.7727 139.479 91.3573 138.887 91.0936L138.851 91.0691ZM86.4224 108.144C86.1842 108.101 85.964 107.989 85.7896 107.821C85.6153 107.653 85.4946 107.437 85.4427 107.201C85.2446 105.436 85.1424 103.661 85.1365 101.885C85.1365 100.66 85.1365 99.4964 85.2712 98.345C85.3119 98.09 85.4321 97.8544 85.6147 97.6718C85.7972 97.4892 86.0327 97.369 86.2877 97.3283H86.2142C87.1449 96.9567 87.9171 96.2724 88.398 95.3931C88.8789 94.5138 89.0385 93.4943 88.8494 92.5101C88.6602 91.5258 88.1341 90.6382 87.3615 89.9998C86.5889 89.3615 85.6181 89.0123 84.616 89.0123C83.6139 89.0123 82.6431 89.3615 81.8705 89.9998C81.0979 90.6382 80.5718 91.5258 80.3827 92.5101C80.1935 93.4943 80.3531 94.5138 80.834 95.3931C81.315 96.2724 82.0871 96.9567 83.0178 97.3283V97.3283C83.2745 97.3697 83.5114 97.4917 83.6941 97.6767C83.8769 97.8617 83.996 98.1 84.0343 98.3572C84.1078 99.4964 84.169 100.672 84.169 101.885C84.1571 103.653 84.0549 105.419 83.8629 107.177C83.8138 107.421 83.6913 107.644 83.5119 107.817C83.3325 107.99 83.1046 108.104 82.8586 108.144C81.1179 108.578 79.5959 109.633 78.5795 111.112C77.5632 112.59 77.1226 114.39 77.341 116.17C77.5594 117.951 78.4216 119.591 79.7651 120.78C81.1086 121.969 82.8405 122.625 84.6344 122.625C86.4283 122.625 88.1603 121.969 89.5037 120.78C90.8472 119.591 91.7094 117.951 91.9278 116.17C92.1462 114.39 91.7057 112.59 90.6893 111.112C89.6729 109.633 88.1509 108.578 86.4102 108.144H86.4224ZM73.6613 98.8594C73.2015 98.671 72.6921 98.6408 72.2132 98.7736C71.7343 98.9063 71.3131 99.1945 71.0158 99.5928C70.7185 99.9911 70.562 100.477 70.5709 100.974C70.5799 101.471 70.7537 101.951 71.065 102.338V102.338C71.1613 102.432 71.2233 102.555 71.2411 102.689C71.2588 102.822 71.2314 102.957 71.163 103.073C70.1465 106.062 69.0076 109.198 67.685 112.419C66.3623 115.641 65.0764 118.47 63.7537 121.226C63.6709 121.367 63.5575 121.488 63.4219 121.579C63.2862 121.67 63.1317 121.729 62.97 121.753H62.5168C61.6935 121.825 60.9187 122.174 60.3176 122.741C59.7166 123.309 59.3244 124.062 59.2045 124.88C59.0846 125.698 59.244 126.533 59.6569 127.249C60.0698 127.965 60.712 128.521 61.4799 128.827C62.2477 129.133 63.0963 129.171 63.8884 128.935C64.6806 128.699 65.3701 128.203 65.8454 127.526C66.3207 126.85 66.5541 126.033 66.5079 125.208C66.4617 124.382 66.1386 123.597 65.5907 122.978V122.978C65.4909 122.861 65.3847 122.751 65.2724 122.647C65.185 122.526 65.1236 122.389 65.092 122.244C65.0604 122.098 65.0592 121.948 65.0886 121.802C66.0806 118.887 67.1828 115.861 68.4687 112.713C69.7546 109.565 71.2365 106.307 72.6326 103.416C72.6869 103.336 72.76 103.271 72.8454 103.226C72.9309 103.181 73.026 103.158 73.1225 103.159V103.159C73.6146 103.098 74.0728 102.876 74.4253 102.528C74.7778 102.179 75.0047 101.723 75.0706 101.231C75.1364 100.74 75.0373 100.24 74.789 99.8112C74.5406 99.382 74.157 99.0473 73.6981 98.8594H73.6613ZM73.2572 42.061C73.1231 42.0602 72.993 42.0155 72.8868 41.9336C72.7806 41.8517 72.7042 41.7373 72.6693 41.6078C71.2732 38.7783 69.8649 35.765 68.5177 32.5313C67.1706 29.2975 66.0684 26.4068 65.0764 23.5405C65.0349 23.3823 65.0288 23.2169 65.0584 23.056C65.0881 22.8951 65.1527 22.7427 65.2478 22.6096C65.3581 22.5116 65.4438 22.4136 65.5418 22.3156H65.603C66.038 21.8116 66.3304 21.2005 66.45 20.5455C66.5696 19.8906 66.512 19.2155 66.2832 18.5903C66.0544 17.965 65.6626 17.4123 65.1485 16.9893C64.6345 16.5663 64.0167 16.2884 63.3592 16.1843C62.7017 16.0803 62.0283 16.1539 61.4088 16.3975C60.7893 16.6412 60.2461 17.046 59.8355 17.57C59.4249 18.0941 59.1618 18.7184 59.0734 19.3783C58.985 20.0382 59.0745 20.7098 59.3327 21.3235C59.6049 21.9626 60.0488 22.5138 60.6152 22.916C61.1816 23.3181 61.8483 23.5555 62.5413 23.6018H63.0312C63.1786 23.6261 63.3196 23.6799 63.4459 23.7598C63.5721 23.8398 63.681 23.9443 63.766 24.0672C65.1254 26.8232 66.4725 29.7508 67.7952 32.8865C69.1178 36.0222 70.367 39.3662 71.4692 42.4162C71.4889 42.5084 71.4845 42.6041 71.4567 42.6942C71.4288 42.7843 71.3783 42.8657 71.31 42.9306V42.9306C71.0613 43.2418 70.9014 43.6145 70.8475 44.0092C70.7936 44.4038 70.8476 44.8058 71.0038 45.1722C71.2328 45.7212 71.6705 46.1568 72.2205 46.3831C72.7706 46.6093 73.388 46.6078 73.9369 46.3787C74.4858 46.1497 74.9213 45.712 75.1475 45.1618C75.3737 44.6116 75.3722 43.9941 75.1432 43.4451C74.9891 43.0615 74.7309 42.7285 74.3976 42.4839C74.0643 42.2393 73.6693 42.0929 73.2572 42.061ZM84.6466 22.5606C82.827 22.5235 81.0583 23.1632 79.6831 24.3558C78.308 25.5483 77.4244 27.2089 77.2033 29.0158C76.9822 30.8227 77.4395 32.6474 78.4866 34.1364C79.5336 35.6255 81.0959 36.6728 82.8709 37.0756C83.1168 37.1156 83.3447 37.2297 83.5241 37.4026C83.7036 37.5755 83.826 37.799 83.8751 38.0433C84.0672 39.8008 84.1694 41.567 84.1813 43.3349C84.1813 44.5598 84.12 45.7234 84.0466 46.8748C84.0059 47.1298 83.8857 47.3654 83.7032 47.548C83.5206 47.7306 83.285 47.8508 83.0301 47.8915V47.8915C82.0994 48.2631 81.3272 48.9474 80.8463 49.8267C80.3654 50.706 80.2058 51.7255 80.3949 52.7097C80.5841 53.694 81.1102 54.5816 81.8828 55.22C82.6554 55.8583 83.6262 56.2075 84.6283 56.2075C85.6304 56.2075 86.6012 55.8583 87.3738 55.22C88.1464 54.5816 88.6725 53.694 88.8616 52.7097C89.0508 51.7255 88.8912 50.706 88.4103 49.8267C87.9294 48.9474 87.1572 48.2631 86.2265 47.8915H86.3C86.045 47.8508 85.8094 47.7306 85.6269 47.548C85.4443 47.3654 85.3242 47.1298 85.2835 46.8748C85.1978 45.7234 85.1488 44.5475 85.1488 43.3349C85.1546 41.5586 85.2568 39.784 85.4549 38.0188C85.5068 37.7824 85.6275 37.5666 85.8019 37.3987C85.9763 37.2308 86.1965 37.1184 86.4347 37.0756C88.2137 36.673 89.7793 35.623 90.8272 34.1298C91.875 32.6366 92.3302 30.8069 92.1042 28.9967C91.8781 27.1865 90.987 25.525 89.6042 24.3355C88.2213 23.1459 86.4455 22.5133 84.6222 22.5606H84.6466ZM60.7778 98.9942C60.6409 98.7916 60.5678 98.5527 60.5678 98.3083C60.5678 98.0638 60.6409 97.8248 60.7778 97.6223C61.8889 96.2397 63.0703 94.9151 64.3171 93.6536C65.1744 92.7962 66.0439 92 66.9134 91.2038C67.1232 91.0505 67.3762 90.9679 67.636 90.9679C67.8957 90.9679 68.1488 91.0505 68.3585 91.2038V91.2038C69.2768 91.5959 70.303 91.6561 71.2608 91.3739C72.2186 91.0918 73.0483 90.4849 73.6075 89.6576C74.1667 88.8302 74.4205 87.834 74.3253 86.8398C74.2301 85.8457 73.7919 84.9157 73.0858 84.2096C72.3798 83.5034 71.45 83.0651 70.4561 82.9699C69.4621 82.8747 68.466 83.1285 67.6388 83.6878C66.8116 84.2471 66.2049 85.077 65.9228 86.035C65.6407 86.993 65.7008 88.0193 66.0929 88.9378V88.9378C66.2461 89.1475 66.3287 89.4006 66.3287 89.6605C66.3287 89.9203 66.2461 90.1734 66.0929 90.3832C65.3458 91.2529 64.5498 92.1103 63.6435 92.9677C62.3896 94.2141 61.0691 95.3918 59.6879 96.4954C59.4829 96.6376 59.2393 96.7139 58.9898 96.7139C58.7403 96.7139 58.4967 96.6376 58.2917 96.4954V96.4954C56.7671 95.5462 54.9477 95.1884 53.1772 95.4894C51.4068 95.7905 49.8079 96.7296 48.6825 98.1294C47.5571 99.5291 46.9832 101.293 47.0692 103.087C47.1552 104.881 47.8951 106.581 49.1492 107.867C50.4033 109.153 52.0847 109.935 53.8759 110.065C55.667 110.195 57.4438 109.665 58.8707 108.574C60.2975 107.483 61.2757 105.908 61.6203 104.145C61.9649 102.382 61.6521 100.554 60.7411 99.0064L60.7778 98.9942ZM84.6222 129.151C83.6261 129.149 82.6518 129.442 81.8224 129.994C80.9931 130.545 80.346 131.331 79.9632 132.25C79.5803 133.17 79.4789 134.183 79.6717 135.16C79.8646 136.137 80.343 137.036 81.0464 137.741C81.7499 138.446 82.6467 138.927 83.6234 139.122C84.6001 139.317 85.6128 139.218 86.5333 138.838C87.4537 138.457 88.2406 137.812 88.7942 136.984C89.3478 136.155 89.6433 135.182 89.6433 134.185C89.6433 132.852 89.1147 131.574 88.1734 130.63C87.2321 129.686 85.955 129.154 84.6222 129.151V129.151Z"></path>
<path fill="white" d="M48.7207 57.76C48.9809 57.1287 49.0481 56.4345 48.9139 55.765C48.7797 55.0955 48.4501 54.4809 47.9667 53.9987C47.4833 53.5166 46.8679 53.1885 46.1982 53.0561C45.5286 52.9236 44.8346 52.9927 44.2042 53.2546C43.5737 53.5165 43.0351 53.9594 42.6562 54.5274C42.2773 55.0954 42.0753 55.763 42.0757 56.4457C42.076 57.1285 42.2787 57.7959 42.6582 58.3635C43.0376 58.9311 43.5767 59.3735 44.2074 59.6347C44.6268 59.8084 45.0763 59.8977 45.5302 59.8975C45.9841 59.8972 46.4335 59.8075 46.8527 59.6334C47.2719 59.4592 47.6527 59.2041 47.9732 58.8827C48.2938 58.5612 48.5478 58.1797 48.7207 57.76V57.76ZM62.8648 82.2427C63.9315 81.6472 65.0308 81.1119 66.1573 80.6393C66.9219 80.3187 67.6864 80.0473 68.4263 79.8006C68.5998 79.7573 68.7825 79.7697 68.9485 79.8361C69.1146 79.9026 69.2554 80.0196 69.3512 80.1706V80.1706C69.8308 80.6636 70.4671 80.974 71.1507 81.0487C71.8343 81.1233 72.5226 80.9576 73.0973 80.5798C73.672 80.2021 74.0973 79.636 74.3 78.9787C74.5027 78.3214 74.4703 77.6141 74.2083 76.9782C73.9462 76.3422 73.471 75.8174 72.8641 75.4938C72.2573 75.1703 71.5567 75.0682 70.8828 75.2052C70.2088 75.3421 69.6037 75.7095 69.1711 76.2443C68.7386 76.779 68.5058 77.4478 68.5126 78.1356V78.1356C68.5539 78.3086 68.5391 78.4902 68.4704 78.6543C68.4017 78.8184 68.2826 78.9563 68.1304 79.0483C67.4151 79.4059 66.6876 79.7513 65.923 80.0596C64.8001 80.5346 63.6515 80.9463 62.4826 81.293C62.3163 81.3328 62.1416 81.3184 61.9841 81.2518C61.8265 81.1852 61.6944 81.0701 61.6071 80.923C60.8745 79.921 59.8007 79.2218 58.5881 78.9574C57.3755 78.6929 56.108 78.8816 55.025 79.4877C53.9419 80.0939 53.1182 81.0756 52.7092 82.2475C52.3002 83.4195 52.3342 84.7007 52.8048 85.8493C53.2754 86.9979 54.1502 87.9345 55.2638 88.4823C56.3775 89.0301 57.6532 89.1512 58.85 88.8228C60.0469 88.4943 61.0821 87.7391 61.7604 86.6996C62.4387 85.66 62.7132 84.4081 62.5319 83.1801V83.1801C62.4738 83.0092 62.475 82.8237 62.5354 82.6535C62.5959 82.4834 62.7119 82.3387 62.8648 82.2427V82.2427ZM61.6317 64.4079C61.7193 64.2636 61.849 64.1496 62.0033 64.0813C62.1576 64.0129 62.3292 63.9935 62.4949 64.0256C63.6671 64.3744 64.8197 64.7862 65.9477 65.259C66.7122 65.5797 67.4521 65.9127 68.155 66.2704C68.3059 66.3637 68.4239 66.5018 68.4924 66.6654C68.561 66.8291 68.5766 67.0101 68.5373 67.1831V67.1831C68.5316 67.8676 68.7643 68.5327 69.1954 69.0644C69.6265 69.596 70.2292 69.961 70.9 70.0968C71.5709 70.2325 72.268 70.1305 72.8718 69.8082C73.4756 69.486 73.9485 68.9636 74.2092 68.3307C74.47 67.6978 74.5025 66.9939 74.301 66.3397C74.0995 65.6855 73.6766 65.1218 73.105 64.7454C72.5334 64.369 71.8486 64.2033 71.1681 64.2767C70.4877 64.3502 69.854 64.6582 69.3758 65.148V65.148C69.2829 65.3019 69.1423 65.4213 68.9754 65.4881C68.8085 65.5548 68.6244 65.5653 68.451 65.518C67.7111 65.2713 66.9465 65 66.182 64.6793C65.0597 64.2108 63.9646 63.6796 62.9018 63.0882C62.7571 62.999 62.6444 62.8662 62.5802 62.7087C62.5159 62.5513 62.5033 62.3775 62.5443 62.2125C62.7219 60.9939 62.4476 59.7524 61.7733 58.722C61.099 57.6916 60.0711 56.9435 58.8834 56.6188C57.6958 56.294 56.4303 56.4151 55.3257 56.959C54.2211 57.503 53.3536 58.4323 52.8866 59.5718C52.4197 60.7113 52.3857 61.9823 52.7909 63.1451C53.1962 64.308 54.0127 65.2825 55.0867 65.8848C56.1606 66.4871 57.4177 66.6757 58.6211 66.4151C59.8244 66.1544 60.8909 65.4624 61.6194 64.4696L61.6317 64.4079ZM63.839 93.8119C65.5778 92.0605 67.2795 90.4694 68.9319 89.0017C68.9889 88.9715 69.0524 88.9557 69.1169 88.9557C69.1814 88.9557 69.2449 88.9715 69.3018 89.0017V89.0017C69.5647 89.0792 69.8439 89.0835 70.109 89.0139C70.3741 88.9443 70.6152 88.8036 70.8063 88.607C70.997 88.4138 71.1334 88.1736 71.2015 87.9107C71.2696 87.6478 71.2672 87.3716 71.1943 87.11C71.1214 86.8484 70.9807 86.6108 70.7865 86.421C70.5923 86.2312 70.3515 86.0961 70.0883 86.0294C69.8251 85.9626 69.549 85.9666 69.2878 86.0409C69.0267 86.1151 68.7898 86.2571 68.6011 86.4523C68.4124 86.6476 68.2786 86.8892 68.2133 87.1528C68.1479 87.4164 68.1534 87.6925 68.229 87.9533C68.264 88.039 68.2696 88.1338 68.2451 88.2231C68.2206 88.3123 68.1672 88.3909 68.0934 88.4467V88.4467C66.6629 90.0747 65.1215 91.7521 63.4198 93.4542C61.718 95.1563 60.1889 96.6117 58.6228 98.0054C58.5331 98.075 58.4288 98.1233 58.3178 98.1468C58.2067 98.1703 58.0918 98.1684 57.9816 98.1411L57.7227 98.0301C57.289 97.8861 56.8246 97.8605 56.3778 97.9561C55.9309 98.0517 55.5177 98.265 55.1808 98.5739C54.844 98.8828 54.5958 99.2761 54.4619 99.7132C54.328 100.15 54.3133 100.615 54.4193 101.06C54.5252 101.504 54.748 101.913 55.0646 102.242C55.3812 102.572 55.7802 102.811 56.2201 102.935C56.66 103.058 57.125 103.062 57.567 102.946C58.0089 102.83 58.4117 102.597 58.7338 102.273C59.0696 101.935 59.3041 101.51 59.4109 101.046C59.5176 100.581 59.4924 100.097 59.3381 99.6459V99.6459C59.3098 99.5462 59.2684 99.4508 59.2148 99.3622C59.176 99.1579 59.2156 98.9465 59.3257 98.7702C60.6452 97.0928 62.1496 95.4647 63.7897 93.8119H63.839ZM44.2568 85.6222C43.6262 85.8844 43.0875 86.3278 42.7088 86.8962C42.3301 87.4647 42.1285 88.1327 42.1294 88.8158C42.1303 89.4988 42.3337 90.1663 42.7139 90.7338C43.0941 91.3012 43.634 91.7431 44.2653 92.0036C44.8966 92.2641 45.591 92.3315 46.2606 92.1973C46.9303 92.0631 47.5451 91.7333 48.0272 91.2495C48.5094 90.7658 48.8374 90.1499 48.9696 89.4798C49.1018 88.8096 49.0324 88.1153 48.7701 87.4846C48.5976 87.0589 48.3416 86.672 48.0172 86.3468C47.6929 86.0215 47.3067 85.7646 46.8815 85.591C46.4562 85.4174 46.0005 85.3308 45.5413 85.3361C45.082 85.3415 44.6285 85.4388 44.2074 85.6222H44.2568ZM45.4159 75.2247C45.8945 75.2209 46.3626 75.0839 46.7677 74.829C47.1728 74.5742 47.4989 74.2115 47.7096 73.7817V73.7817C47.7559 73.6853 47.7971 73.5865 47.8329 73.4857C47.9462 73.3108 48.1231 73.1869 48.3261 73.1403C50.4348 73.0046 52.6421 72.9183 54.9728 72.906C57.3034 72.8937 59.7697 72.98 61.977 73.1033C62.0398 73.1204 62.0979 73.1515 62.147 73.1942C62.1962 73.2369 62.235 73.2902 62.2606 73.35V73.35C62.3929 73.5895 62.5879 73.7884 62.8247 73.9253C63.0616 74.0622 63.3312 74.132 63.6047 74.127C63.8066 74.127 64.0064 74.0871 64.1927 74.0095C64.3791 73.9318 64.5482 73.818 64.6904 73.6747C64.8325 73.5314 64.9449 73.3614 65.021 73.1744C65.0971 72.9874 65.1354 72.7872 65.1338 72.5853C65.1306 72.2456 65.0153 71.9164 64.8058 71.649C64.5963 71.3815 64.3044 71.1908 63.9753 71.1064C63.6463 71.022 63.2986 71.0487 62.9863 71.1823C62.674 71.3159 62.4145 71.549 62.2483 71.8453C62.2158 71.9306 62.1556 72.0026 62.0773 72.0495C61.999 72.0965 61.9072 72.1158 61.8167 72.1043V72.1043C59.6587 72.2399 57.3774 72.3386 54.9728 72.351C52.5681 72.3633 50.4595 72.2893 48.3632 72.1783C48.2528 72.1598 48.1474 72.1185 48.054 72.0569C47.9605 71.9953 47.881 71.9148 47.8206 71.8206L47.7096 71.5493C47.4934 71.1231 47.1636 70.765 46.7567 70.5147C46.3497 70.2644 45.8814 70.1315 45.4036 70.1309C44.7525 70.176 44.1427 70.4665 43.6975 70.9438C43.2522 71.4211 43.0045 72.0497 43.0045 72.7025C43.0045 73.3553 43.2522 73.9838 43.6975 74.4611C44.1427 74.9384 44.7525 75.229 45.4036 75.2741L45.4159 75.2247ZM69.7704 36.743C70.401 36.4808 70.9398 36.0374 71.3184 35.469C71.6971 34.9005 71.8988 34.2325 71.8979 33.5495C71.897 32.8664 71.6935 32.1989 71.3133 31.6315C70.9331 31.0641 70.3932 30.6222 69.7619 30.3616C69.1306 30.1011 68.4362 30.0337 67.7666 30.1679C67.097 30.3021 66.4822 30.632 66 31.1157C65.5178 31.5994 65.1898 32.2153 65.0576 32.8855C64.9254 33.5556 64.9948 34.2499 65.2571 34.8806C65.4299 35.3003 65.6841 35.6817 66.0049 36.0027C66.3256 36.3238 66.7068 36.5782 67.1263 36.7513C67.5458 36.9244 67.9953 37.0128 68.4492 37.0114C68.903 37.0099 69.352 36.9188 69.7704 36.743V36.743ZM109.934 46.6101C108.54 48.1765 107.036 49.7799 105.383 51.408C103.731 53.0361 102.005 54.6518 100.377 56.0702C100.321 56.1441 100.243 56.1975 100.153 56.222C100.064 56.2466 99.9694 56.2409 99.8837 56.2059V56.2059C99.556 56.1117 99.2064 56.1288 98.8894 56.2546C98.5725 56.3803 98.3063 56.6077 98.1323 56.9009C97.9583 57.1942 97.8864 57.5369 97.9279 57.8754C97.9694 58.2138 98.122 58.529 98.3617 58.7715C98.6013 59.014 98.9147 59.1702 99.2526 59.2156C99.5905 59.2611 99.9339 59.1932 100.229 59.0225C100.524 58.8519 100.755 58.5883 100.884 58.2728C101.013 57.9573 101.035 57.6078 100.944 57.2789V57.2789C100.911 57.2208 100.893 57.1549 100.893 57.0878C100.893 57.0207 100.911 56.9547 100.944 56.8966C102.412 55.2439 104.002 53.5418 105.753 51.815C107.504 50.0883 109.034 48.6699 110.624 47.2762C110.799 47.1624 111.012 47.1224 111.216 47.1651L111.5 47.2885C112.049 47.4798 112.647 47.4788 113.195 47.2857C113.744 47.0925 114.21 46.7187 114.519 46.2255C114.827 45.7323 114.958 45.149 114.892 44.5712C114.825 43.9934 114.564 43.4555 114.151 43.0456C113.744 42.6355 113.21 42.375 112.636 42.3065C112.062 42.238 111.481 42.3654 110.989 42.6681C110.496 42.9708 110.12 43.4311 109.922 43.9742C109.724 44.5173 109.715 45.1115 109.897 45.6604V45.6604L110.008 45.9194C110.05 46.0386 110.062 46.1663 110.042 46.2911C110.023 46.4159 109.973 46.534 109.897 46.6348L109.934 46.6101ZM101.117 66.2457C101.832 65.888 102.56 65.555 103.324 65.2343C104.452 64.7615 105.605 64.3498 106.777 64.0009C106.943 63.9688 107.114 63.9883 107.268 64.0566C107.423 64.125 107.552 64.239 107.64 64.3833C108.375 65.3752 109.447 66.064 110.655 66.3198C111.862 66.5756 113.122 66.3808 114.195 65.772C115.269 65.1632 116.083 64.1826 116.484 63.0149C116.885 61.8473 116.845 60.5733 116.372 59.4332C115.898 58.293 115.024 57.3654 113.914 56.8253C112.804 56.2853 111.535 56.17 110.346 56.5012C109.157 56.8323 108.13 57.5871 107.459 58.6233C106.788 59.6595 106.519 60.9054 106.703 62.1262V62.1262C106.744 62.2912 106.731 62.465 106.667 62.6224C106.603 62.7798 106.49 62.9127 106.345 63.0019C105.286 63.5909 104.195 64.122 103.078 64.5929C102.301 64.9136 101.548 65.185 100.796 65.4316C100.625 65.4803 100.442 65.4703 100.276 65.4033C100.111 65.3363 99.973 65.2161 99.8837 65.0616V65.0616C99.4041 64.5687 98.7677 64.2583 98.0841 64.1836C97.4005 64.1089 96.7122 64.2747 96.1375 64.6524C95.5628 65.0302 95.1375 65.5963 94.9348 66.2536C94.7321 66.9108 94.7645 67.6182 95.0266 68.2541C95.2886 68.8901 95.7638 69.4149 96.3707 69.7384C96.9776 70.062 97.6781 70.164 98.3521 70.0271C99.026 69.8902 99.6312 69.5227 100.064 68.988C100.496 68.4532 100.729 67.7845 100.722 67.0967V67.0967C100.696 66.9391 100.715 66.7772 100.779 66.6305C100.842 66.4839 100.947 66.3588 101.08 66.2704L101.117 66.2457ZM103.99 34.8559C104.252 34.2253 104.322 33.5309 104.19 32.8608C104.057 32.1906 103.729 31.5748 103.247 31.091C102.765 30.6073 102.15 30.2775 101.481 30.1433C100.811 30.009 100.117 30.0764 99.4853 30.337C98.854 30.5975 98.314 31.0394 97.9338 31.6068C97.5536 32.1743 97.3503 32.8417 97.3493 33.5248C97.3484 34.2079 97.55 34.8759 97.9287 35.4443C98.3074 36.0128 98.8461 36.4561 99.4767 36.7183C100.315 37.0566 101.252 37.0537 102.089 36.7104C102.925 36.367 103.594 35.7104 103.953 34.8806L103.99 34.8559ZM92.7931 49.5703C92.9397 49.6587 93.0552 49.7904 93.1236 49.9473C93.1921 50.1041 93.2102 50.2784 93.1754 50.446C92.8233 51.6133 92.4117 52.7618 91.9423 53.8871C91.6217 54.6642 91.2764 55.3919 90.9311 56.0949C90.8421 56.2501 90.7045 56.3716 90.5396 56.4407C90.3746 56.5098 90.1916 56.5226 90.0186 56.4773V56.4773C89.4806 56.4704 88.9509 56.6103 88.4865 56.882C88.0221 57.1536 87.6405 57.5468 87.3828 58.0192C87.1251 58.4915 87.001 59.0252 87.0238 59.5629C87.0467 60.1005 87.2156 60.6217 87.5125 61.0705C87.8094 61.5193 88.2229 61.8787 88.7087 62.1099C89.1945 62.3412 89.7341 62.4356 90.2696 62.3831C90.805 62.3306 91.316 62.1331 91.7476 61.8118C92.1792 61.4906 92.5151 61.0577 92.7191 60.5598C92.9464 60.0167 93.0044 59.4177 92.8856 58.8411C92.7668 58.2645 92.4767 57.7372 92.0533 57.3283C91.8996 57.2378 91.7793 57.1 91.7104 56.9355C91.6415 56.771 91.6277 56.5886 91.671 56.4156C91.9299 55.6632 92.2012 54.9109 92.5219 54.1338C92.9952 53.0095 93.5261 51.9103 94.1126 50.8407C94.2038 50.6989 94.3381 50.5901 94.4956 50.5302C94.6531 50.4703 94.8258 50.4624 94.9881 50.5077C96.2118 50.6928 97.4609 50.4238 98.4999 49.7513C99.5389 49.0788 100.296 48.0492 100.628 46.8568C100.961 45.6645 100.845 44.3917 100.304 43.2785C99.7629 42.1653 98.8331 41.2887 97.6902 40.8139C96.5472 40.3392 95.2701 40.2991 94.0997 40.7013C92.9292 41.1034 91.9463 41.92 91.3364 42.9971C90.7265 44.0742 90.5316 45.3372 90.7886 46.5481C91.0456 47.759 91.7367 48.8339 92.7315 49.5703H92.7931ZM65.2201 110.327C64.9578 110.958 64.8884 111.652 65.0206 112.322C65.1528 112.992 65.4808 113.608 65.963 114.092C66.4452 114.576 67.06 114.905 67.7296 115.04C68.3992 115.174 69.0936 115.106 69.7249 114.846C70.3562 114.585 70.8961 114.144 71.2763 113.576C71.6565 113.009 71.8599 112.341 71.8608 111.658C71.8617 110.975 71.6601 110.307 71.2814 109.739C70.9028 109.17 70.3641 108.727 69.7334 108.465C69.3125 108.292 68.8616 108.204 68.4066 108.205C67.9516 108.207 67.5014 108.299 67.0819 108.476C66.6625 108.652 66.2821 108.91 65.9626 109.234C65.6431 109.558 65.3908 109.942 65.2201 110.364V110.327ZM111.537 97.9314L111.278 98.0424C111.168 98.0697 111.053 98.0717 110.942 98.0482C110.831 98.0247 110.726 97.9763 110.637 97.9068C109.071 96.5131 107.467 95.0083 105.84 93.3556C104.212 91.7028 102.597 89.9761 101.166 88.348C101.092 88.2923 101.039 88.2137 101.014 88.1244C100.99 88.0352 100.996 87.9403 101.031 87.8547V87.8547C101.106 87.5939 101.112 87.3177 101.046 87.0541C100.981 86.7905 100.847 86.5489 100.658 86.3537C100.47 86.1584 100.233 86.0164 99.9716 85.9422C99.7105 85.8679 99.4344 85.8639 99.1712 85.9307C98.908 85.9974 98.6671 86.1325 98.4729 86.3223C98.2787 86.5121 98.1381 86.7498 98.0652 87.0114C97.9924 87.273 97.9899 87.5492 98.058 87.8121C98.1261 88.0749 98.2625 88.3151 98.4532 88.5084C98.6443 88.705 98.8854 88.8457 99.1505 88.9153C99.4156 88.9848 99.6948 88.9806 99.9577 88.9031V88.9031C100.015 88.8728 100.078 88.857 100.143 88.857C100.207 88.857 100.271 88.8728 100.328 88.9031C101.98 90.3708 103.682 91.9619 105.42 93.7133C107.159 95.4647 108.565 96.9941 109.958 98.5851C110.069 98.7615 110.108 98.9729 110.069 99.1772C110.016 99.2658 109.974 99.3612 109.946 99.4609C109.946 99.4609 109.946 99.4609 109.946 99.4609C109.801 99.8936 109.773 100.357 109.867 100.804C109.96 101.251 110.171 101.665 110.478 102.003C110.785 102.341 111.176 102.591 111.612 102.727C112.048 102.863 112.512 102.881 112.957 102.778C113.401 102.675 113.81 102.455 114.142 102.141C114.473 101.826 114.714 101.43 114.841 100.991C114.968 100.552 114.975 100.088 114.863 99.6455C114.75 99.203 114.521 98.7987 114.2 98.4741C113.847 98.1507 113.411 97.932 112.94 97.8427C112.47 97.7534 111.984 97.7969 111.537 97.9684V97.9314ZM107.603 80.7997C107.516 80.9467 107.384 81.0619 107.226 81.1285C107.069 81.195 106.894 81.2095 106.728 81.1697C105.559 80.8211 104.411 80.4093 103.287 79.9363C102.523 79.6279 101.795 79.2826 101.092 78.9249C100.936 78.8375 100.813 78.7001 100.743 78.5346C100.674 78.3691 100.662 78.1852 100.71 78.0122C100.726 77.3209 100.499 76.6459 100.068 76.1051C99.637 75.5644 99.0297 75.1924 98.3523 75.0543C97.6749 74.9161 96.9705 75.0205 96.3622 75.3493C95.754 75.6781 95.2807 76.2103 95.0251 76.8528C94.7508 77.4888 94.7091 78.201 94.9073 78.8646C95.1056 79.5283 95.5312 80.1009 96.1094 80.482C96.6876 80.8632 97.3815 81.0285 98.0694 80.949C98.7573 80.8695 99.3953 80.5503 99.8714 80.0473V80.0473C99.9636 79.8958 100.102 79.7781 100.266 79.7115C100.431 79.6448 100.612 79.6329 100.784 79.6773C101.524 79.924 102.288 80.1953 103.065 80.516C104.187 80.991 105.282 81.5263 106.345 82.1194C106.485 82.2096 106.594 82.3412 106.656 82.4959C106.718 82.6506 106.73 82.8208 106.691 82.9828V82.9828C106.505 84.2067 106.774 85.456 107.447 86.4953C108.119 87.5345 109.149 88.2917 110.341 88.6241C111.533 88.9566 112.805 88.8412 113.918 88.2999C115.031 87.7585 115.908 86.8286 116.382 85.6854C116.857 84.5422 116.897 83.2648 116.495 82.0941C116.093 80.9234 115.276 79.9404 114.2 79.3303C113.123 78.7203 111.86 78.5254 110.649 78.7824C109.439 79.0394 108.364 79.7307 107.628 80.7257L107.603 80.7997ZM120.452 87.4476C120.19 88.0783 120.121 88.7726 120.253 89.4428C120.385 90.1129 120.713 90.7288 121.195 91.2125C121.677 91.6963 122.292 92.0261 122.962 92.1603C123.632 92.2945 124.326 92.2271 124.957 91.9666C125.589 91.7061 126.128 91.2642 126.509 90.6968C126.889 90.1293 127.092 89.4618 127.093 88.7788C127.094 88.0957 126.892 87.4277 126.514 86.8592C126.135 86.2908 125.596 85.8474 124.966 85.5852C124.115 85.2393 123.162 85.2449 122.316 85.601C121.47 85.9572 120.8 86.6346 120.452 87.4846V87.4476ZM84.5681 53.1348C84.9113 53.1429 85.2472 53.0353 85.5218 52.8293C85.7965 52.6233 85.9938 52.3309 86.0821 51.9991C86.1704 51.6673 86.1445 51.3154 86.0085 51.0001C85.8726 50.6849 85.6345 50.4245 85.3326 50.261V50.261C85.2714 50.2341 85.2173 50.1934 85.1745 50.142C85.1317 50.0906 85.1014 50.03 85.086 49.965C84.9627 47.7572 84.8887 45.4384 84.8887 42.9716C84.8887 40.5048 84.9997 38.4204 85.123 36.3237C85.1696 36.1206 85.2935 35.9436 85.4683 35.8303L85.7642 35.707C86.1948 35.5007 86.5585 35.1772 86.8137 34.7736C87.0689 34.3701 87.2052 33.9027 87.207 33.4252C87.214 32.9631 87.0966 32.5077 86.8672 32.1066C86.6378 31.7055 86.3048 31.3734 85.903 31.1451C85.5013 30.9169 85.0456 30.8008 84.5837 30.8092C84.1217 30.8175 83.6705 30.9498 83.2773 31.1924C82.884 31.4349 82.5632 31.7787 82.3483 32.1879C82.1335 32.597 82.0326 33.0564 82.0561 33.5179C82.0797 33.9794 82.2268 34.4261 82.4822 34.8112C82.7375 35.1963 83.0917 35.5057 83.5076 35.707L83.7666 35.818C83.8618 35.8773 83.9431 35.9564 84.0048 36.0501C84.0665 36.1438 84.1073 36.2498 84.1242 36.3607C84.2352 38.4574 84.3091 40.6529 84.2968 42.9716C84.2845 45.2904 84.1981 47.6585 84.0502 49.817C84.064 49.9078 84.0457 50.0007 83.9985 50.0795C83.9512 50.1583 83.8779 50.2181 83.7912 50.2486V50.2486C83.495 50.4149 83.262 50.6744 83.1284 50.9868C82.9948 51.2991 82.9682 51.6469 83.0525 51.976C83.1369 52.3051 83.3276 52.5971 83.595 52.8067C83.8623 53.0162 84.1914 53.1316 84.5311 53.1348H84.5681ZM122.376 53.2581C121.744 53.5185 121.203 53.9607 120.823 54.5287C120.442 55.0967 120.239 55.7649 120.238 56.4486C120.238 57.1324 120.44 57.8009 120.82 58.3695C121.199 58.9381 121.739 59.3812 122.371 59.6426C123.003 59.9039 123.698 59.9719 124.368 59.8378C125.039 59.7037 125.654 59.3736 126.137 58.8893C126.619 58.405 126.947 57.7883 127.079 57.1174C127.211 56.4464 127.141 55.7515 126.877 55.1205C126.702 54.6984 126.445 54.3153 126.121 53.9934C125.796 53.6714 125.411 53.417 124.988 53.2449C124.565 53.0729 124.112 52.9865 123.655 52.9909C123.198 52.9953 122.747 53.0903 122.327 53.2704L122.376 53.2581ZM123.905 70.0815C123.427 70.0822 122.959 70.215 122.552 70.4653C122.145 70.7157 121.815 71.0737 121.599 71.4999L121.488 71.7713C121.429 71.8665 121.35 71.9478 121.256 72.0096C121.162 72.0713 121.057 72.1121 120.946 72.129C118.849 72.24 116.654 72.3139 114.336 72.3016C112.018 72.2893 109.65 72.1906 107.492 72.055C107.402 72.0665 107.31 72.0472 107.231 72.0002C107.153 71.9532 107.093 71.8813 107.061 71.7959V71.7959C106.894 71.4996 106.635 71.2666 106.323 71.133C106.01 70.9994 105.663 70.9727 105.334 71.0571C105.004 71.1415 104.712 71.3322 104.503 71.5996C104.293 71.8671 104.178 72.1962 104.175 72.536C104.173 72.7378 104.212 72.938 104.288 73.125C104.364 73.312 104.476 73.4821 104.618 73.6254C104.761 73.7687 104.93 73.8825 105.116 73.9601C105.302 74.0377 105.502 74.0777 105.704 74.0777C105.978 74.0826 106.247 74.0129 106.484 73.876C106.721 73.7391 106.916 73.5402 107.048 73.3007V73.3007C107.074 73.2408 107.113 73.1875 107.162 73.1448C107.211 73.1021 107.269 73.0711 107.332 73.054C109.539 72.9307 111.87 72.8443 114.336 72.8567C116.802 72.869 118.874 72.9553 120.983 73.091C121.186 73.1376 121.363 73.2615 121.476 73.4363C121.512 73.5371 121.553 73.6359 121.599 73.7323V73.7323C121.801 74.1419 122.109 74.4901 122.49 74.7411C122.872 74.992 123.313 75.1365 123.769 75.1597C124.225 75.1829 124.679 75.0839 125.084 74.873C125.489 74.6621 125.831 74.3468 126.073 73.9598C126.315 73.5729 126.45 73.1282 126.463 72.6717C126.477 72.2152 126.368 71.7635 126.148 71.3631C125.928 70.9628 125.606 70.6284 125.214 70.3944C124.822 70.1604 124.374 70.0354 123.918 70.0322L123.905 70.0815ZM95.0991 94.7493C94.9354 94.7895 94.7632 94.7779 94.6064 94.716C94.4495 94.6542 94.3158 94.5451 94.2236 94.404C93.6347 93.3355 93.1037 92.2362 92.6328 91.1108C92.3122 90.3461 92.0409 89.5814 91.782 88.829C91.7387 88.656 91.7525 88.4736 91.8214 88.3091C91.8903 88.1446 92.0106 88.0068 92.1642 87.9163V87.9163C92.6508 87.4353 92.9549 86.7999 93.0244 86.1191C93.0939 85.4383 92.9243 84.7546 92.5449 84.1851C92.1655 83.6156 91.5998 83.196 90.9449 82.998C90.29 82.8001 89.5866 82.8362 88.9554 83.1002C88.3242 83.3642 87.8044 83.8397 87.4854 84.445C87.1663 85.0503 87.0677 85.7479 87.2065 86.4179C87.3454 87.088 87.713 87.689 88.2463 88.1176C88.7796 88.5463 89.4454 88.776 90.1296 88.7674V88.7674C90.3025 88.7241 90.4849 88.7379 90.6493 88.8068C90.8138 88.8757 90.9516 88.996 91.0421 89.1497C91.3874 89.8527 91.7326 90.5928 92.0533 91.3575C92.5227 92.4828 92.9343 93.6313 93.2864 94.7987C93.3212 94.9662 93.3031 95.1405 93.2346 95.2973C93.1661 95.4542 93.0507 95.586 92.9041 95.6743C91.9124 96.4093 91.2237 97.4818 90.9679 98.6896C90.7122 99.8974 90.907 101.157 91.5156 102.231C92.1243 103.305 93.1048 104.119 94.2722 104.52C95.4396 104.921 96.7133 104.881 97.8532 104.408C98.9932 103.934 99.9205 103.06 100.46 101.95C101 100.839 101.116 99.5701 100.785 98.3808C100.454 97.1915 99.6988 96.1644 98.6629 95.4932C97.627 94.822 96.3813 94.553 95.1608 94.737L95.0991 94.7493ZM84.5681 92.1592C84.2243 92.1574 83.8898 92.2707 83.6178 92.4809C83.3458 92.6912 83.1518 92.9864 83.0668 93.3195C82.9817 93.6527 83.0105 94.0047 83.1484 94.3196C83.2864 94.6345 83.5257 94.8943 83.8282 95.0577V95.0577C83.9145 95.0924 83.9868 95.1549 84.0337 95.2353C84.0806 95.3157 84.0994 95.4094 84.0872 95.5017V95.5017C84.2351 97.6601 84.3215 99.9419 84.3338 102.347C84.3461 104.752 84.2722 106.861 84.1612 108.958C84.1428 109.068 84.1014 109.174 84.0398 109.267C83.9782 109.361 83.8977 109.44 83.8036 109.501L83.5446 109.612C83.0265 109.869 82.6106 110.294 82.3643 110.817C82.1181 111.341 82.056 111.932 82.1881 112.495C82.3202 113.059 82.6388 113.561 83.0921 113.92C83.5454 114.279 84.1068 114.475 84.6852 114.475C85.2637 114.475 85.8251 114.279 86.2784 113.92C86.7317 113.561 87.0503 113.059 87.1824 112.495C87.3145 111.932 87.2524 111.341 87.0061 110.817C86.7599 110.294 86.344 109.869 85.8259 109.612V109.612L85.5299 109.488C85.3551 109.375 85.2313 109.198 85.1847 108.995C85.0613 106.886 84.9627 104.678 84.9504 102.335C84.938 99.9912 85.0244 97.5491 85.1477 95.3413C85.1629 95.2777 85.1934 95.2187 85.2363 95.1693C85.2792 95.1199 85.3334 95.0816 85.3943 95.0577V95.0577C85.6924 94.8903 85.9263 94.6287 86.0595 94.3138C86.1926 93.999 86.2174 93.6488 86.1298 93.3183C86.0423 92.9879 85.8474 92.6959 85.5759 92.4883C85.3043 92.2807 84.9715 92.1693 84.6297 92.1715L84.5681 92.1592ZM69.3388 56.2306C69.2532 56.2656 69.1583 56.2712 69.0691 56.2467C68.9799 56.2222 68.9013 56.1688 68.8456 56.0949C67.2178 54.6765 65.5408 53.1348 63.839 51.4327C62.1373 49.7306 60.6822 48.2012 59.2887 46.6348C59.22 46.5446 59.1722 46.4403 59.1487 46.3294C59.1253 46.2185 59.1268 46.1037 59.1531 45.9934L59.2641 45.7344C59.4416 45.1875 59.4292 44.5966 59.229 44.0575C59.0288 43.5184 58.6526 43.0627 58.1611 42.7642C57.6697 42.4656 57.0919 42.3418 56.5214 42.4127C55.9508 42.4837 55.4209 42.7451 55.0174 43.1549C54.614 43.5646 54.3607 44.0986 54.2985 44.6702C54.2363 45.2419 54.3689 45.8179 54.6749 46.3048C54.9808 46.7917 55.442 47.1611 55.984 47.353C56.526 47.545 57.1169 47.5483 57.661 47.3625L57.9446 47.2391C58.1488 47.1964 58.3617 47.2364 58.5366 47.3502C60.1273 48.7439 61.755 50.2486 63.4074 51.889C65.0598 53.5294 66.7492 55.3179 68.2167 56.9706C68.2502 57.0287 68.2679 57.0947 68.2679 57.1618C68.2679 57.2289 68.2502 57.2948 68.2167 57.3529V57.3529C68.1239 57.6845 68.1439 58.0376 68.2735 58.3566C68.4031 58.6756 68.635 58.9425 68.9327 59.1154C69.2303 59.2884 69.577 59.3575 69.9182 59.312C70.2595 59.2665 70.576 59.109 70.818 58.8641C71.06 58.6192 71.2139 58.3009 71.2554 57.9591C71.2969 57.6172 71.2238 57.2713 71.0474 56.9756C70.8711 56.6799 70.6016 56.4511 70.2812 56.3251C69.9608 56.1992 69.6076 56.1833 69.2772 56.2799L69.3388 56.2306ZM71.4352 40.8749C70.2971 41.3492 69.3715 42.2231 68.8326 43.3323C68.2936 44.4414 68.1785 45.7094 68.5088 46.8975C68.8391 48.0856 69.5921 49.112 70.6261 49.7837C71.6601 50.4554 72.9039 50.726 74.1234 50.5447C74.2902 50.5047 74.4653 50.5177 74.6244 50.5818C74.7835 50.6459 74.9187 50.7579 75.0113 50.9023C75.596 51.9625 76.1229 53.0536 76.5897 54.1708C76.9103 54.9479 77.1939 55.7002 77.4406 56.4526C77.4838 56.6256 77.47 56.808 77.4011 56.9725C77.3322 57.137 77.2119 57.2748 77.0583 57.3653V57.3653C76.6755 57.7421 76.4025 58.2159 76.2685 58.7361C76.1344 59.2563 76.1444 59.8031 76.2974 60.318C76.4503 60.8329 76.7405 61.2965 77.1367 61.6591C77.533 62.0216 78.0204 62.2695 78.5468 62.3762C79.0731 62.4828 79.6186 62.4442 80.1246 62.2644C80.6307 62.0847 81.0784 61.7706 81.4196 61.3558C81.7609 60.941 81.9828 60.4412 82.0617 59.9099C82.1406 59.3785 82.0735 58.8357 81.8675 58.3396C81.6365 57.7957 81.2499 57.3321 80.7562 57.0073C80.2625 56.6825 79.6838 56.511 79.093 56.5143V56.5143C78.92 56.5618 78.7361 56.55 78.5707 56.4807C78.4053 56.4114 78.2678 56.2886 78.1804 56.1319C77.8228 55.4289 77.4775 54.7012 77.1569 53.9241C76.6856 52.7954 76.274 51.6427 75.9238 50.4707C75.8896 50.3079 75.9069 50.1386 75.9732 49.9862C76.0394 49.8337 76.1515 49.7056 76.2937 49.6196V49.6196C77.2764 48.8827 77.9574 47.8132 78.2093 46.6109C78.4613 45.4086 78.267 44.1556 77.6629 43.0861C77.0587 42.0165 76.086 41.2035 74.9263 40.7988C73.7667 40.3942 72.4994 40.4256 71.3612 40.8872L71.4352 40.8749ZM76.3677 95.6373C76.2257 95.548 76.1143 95.4176 76.0482 95.2634C75.9821 95.1091 75.9645 94.9384 75.9978 94.774C76.3307 93.6516 76.713 92.5045 77.2309 91.3205C77.5515 90.5558 77.8968 89.8157 78.2544 89.1127C78.3434 88.9576 78.481 88.8361 78.6459 88.7669C78.8109 88.6978 78.994 88.685 79.1669 88.7304V88.7304C79.8543 88.7402 80.5237 88.5103 81.0602 88.0803C81.5966 87.6502 81.9666 87.0468 82.1066 86.3736C82.2467 85.7005 82.1481 84.9995 81.8277 84.3911C81.5074 83.7827 80.9853 83.3048 80.351 83.0396C79.7168 82.7743 79.01 82.7381 78.352 82.9373C77.694 83.1365 77.1258 83.5585 76.745 84.1311C76.3643 84.7036 76.1947 85.3908 76.2653 86.0748C76.336 86.7588 76.6425 87.3968 77.1323 87.8793V87.8793C77.2859 87.9698 77.4062 88.1076 77.4751 88.2721C77.544 88.4366 77.5578 88.619 77.5145 88.792C77.2679 89.5444 76.9843 90.3091 76.6637 91.0738C76.1944 92.1939 75.6676 93.289 75.0853 94.3546C74.9927 94.499 74.8575 94.6111 74.6984 94.6752C74.5393 94.7392 74.3642 94.7522 74.1974 94.7123C72.9737 94.5271 71.7246 94.7962 70.6856 95.4687C69.6466 96.1412 68.8895 97.1707 68.5572 98.3631C68.2248 99.5555 68.3401 100.828 68.8814 101.941C69.4226 103.055 70.3524 103.931 71.4953 104.406C72.6383 104.881 73.9154 104.921 75.0859 104.519C76.2563 104.117 77.2392 103.3 77.8491 102.223C78.4591 101.146 78.6539 99.8827 78.3969 98.6719C78.1399 97.461 77.4489 96.386 76.4541 95.6497L76.3677 95.6373ZM99.4274 108.502C98.7968 108.764 98.2581 109.207 97.8794 109.776C97.5007 110.344 97.2991 111.012 97.3 111.695C97.3009 112.378 97.5043 113.046 97.8845 113.613C98.2647 114.181 98.8046 114.622 99.4359 114.883C100.067 115.143 100.762 115.211 101.431 115.077C102.101 114.942 102.716 114.613 103.198 114.129C103.68 113.645 104.008 113.029 104.14 112.359C104.272 111.689 104.203 110.995 103.941 110.364C103.589 109.522 102.918 108.853 102.075 108.504C101.231 108.155 100.284 108.154 99.4397 108.502H99.4274Z" style="mix-blend-mode:multiply"></path>
</svg>
