<svg xmlns="http://www.w3.org/2000/svg" fill="none" viewBox="0 0 850 263" height="263" width="850">
<path fill="white" d="M728.448 178.282C732.98 178.282 737.511 178.282 742.042 178.282C742.042 166.4 742.042 154.588 742.042 142.706C742.042 141.441 742.184 140.316 742.538 139.261C742.892 138.207 743.316 137.222 744.095 136.098C748.626 129.418 753.158 122.739 757.618 115.99C764.061 106.428 770.503 96.8664 776.946 87.375C777.583 86.3907 778.292 85.3361 779 84.2815C773.265 84.2815 767.459 84.2815 761.724 84.2815C761.512 84.6331 761.229 84.9846 761.016 85.4065C752.45 98.132 743.883 110.857 735.316 123.583C726.749 110.857 718.182 98.132 709.616 85.4065C709.403 85.0549 709.12 84.7034 708.908 84.3519C703.173 84.3519 697.367 84.3519 691.632 84.3519C692.34 85.4065 693.048 86.4611 693.756 87.4453C697.863 93.562 701.969 99.6084 706.076 105.725C710.182 111.842 714.288 117.888 718.395 124.005C719.811 126.114 721.227 128.223 722.643 130.262C724.059 132.371 725.475 134.48 726.891 136.59C727.032 136.801 727.103 136.941 727.245 137.152C727.386 137.363 727.457 137.574 727.528 137.785C727.74 138.136 727.882 138.558 728.024 138.91C728.165 139.332 728.307 139.683 728.378 140.105C728.448 140.527 728.519 140.949 728.59 141.441C728.661 141.863 728.661 142.355 728.661 142.777C728.448 154.588 728.448 166.47 728.448 178.282Z"></path>
<path fill="white" d="M678.18 178.282H662.392L661.826 177.086C658.356 169.282 654.887 161.549 651.489 153.745L647.736 145.237C645.754 140.738 641.152 137.785 635.984 137.785H602.92V178.282H589.326V84.2815H642.214C644.621 84.2815 647.028 84.3519 649.506 84.5628C650.781 84.7034 651.984 84.9143 653.259 85.1252C654.533 85.4065 655.808 85.758 657.011 86.1798C658.286 86.672 659.56 87.1641 660.764 87.8672C661.542 88.289 662.321 88.7812 663.1 89.2733C664.162 89.9764 665.153 90.7498 666.074 91.5934C667.914 93.2808 669.543 95.2494 670.817 97.3586C672.162 99.6084 673.154 101.999 673.862 104.46C674.499 106.85 674.853 109.311 674.924 111.842C674.995 114.302 674.782 116.834 674.286 119.224C674.003 120.419 673.72 121.614 673.295 122.739C673.012 123.513 672.729 124.356 672.375 125.13C671.879 126.325 671.242 127.45 670.534 128.504C669.897 129.559 669.118 130.543 668.268 131.457C667.844 131.879 667.419 132.371 666.923 132.793C666.498 133.215 666.003 133.567 665.578 133.918C664.658 134.621 663.737 135.184 662.817 135.746C661.896 136.238 660.976 136.66 660.056 137.082L669.472 158.314L678.18 178.282ZM602.92 123.864H642.356C644.409 123.864 646.462 123.864 648.515 123.724C656.374 123.724 659.56 118.943 660.126 112.756C660.764 105.444 658.215 99.0459 649.365 98.4132C647.453 98.2023 645.542 98.2023 643.559 98.2023H602.92V123.864Z"></path>
<path fill="white" d="M561.078 178.282C565.892 178.282 570.636 178.282 575.45 178.282C561.644 146.995 547.767 115.638 533.961 84.2815C531.058 84.2815 528.226 84.2815 525.324 84.2815C523.837 84.2815 522.279 84.2815 520.792 84.3519C519.376 84.4222 517.89 84.5628 516.544 84.9143C515.128 85.1955 513.712 85.6174 512.367 86.2501C510.951 86.8829 509.606 87.6563 508.402 88.6406C507.199 89.5545 506.066 90.6795 505.075 91.8044C504.154 92.9293 503.305 94.1245 502.526 95.39C501.818 96.5852 501.181 97.8507 500.544 99.0459C499.977 100.241 499.482 101.436 498.915 102.632C487.729 127.872 476.613 153.112 465.427 178.352C470.666 178.352 475.905 178.352 481.215 178.352C481.428 177.93 481.569 177.508 481.782 177.086C486.879 165.626 491.906 154.166 497.004 142.706C502.101 131.176 507.199 119.575 512.296 108.045C512.438 107.834 512.509 107.553 512.65 107.342C512.934 106.639 513.288 105.936 513.571 105.303C513.712 104.952 513.854 104.67 514.066 104.319C514.208 104.038 514.35 103.686 514.562 103.405C514.774 103.053 514.916 102.702 515.128 102.421C515.27 102.139 515.482 101.858 515.624 101.647C515.907 101.225 516.19 100.874 516.544 100.452C516.828 100.101 517.182 99.8193 517.536 99.5381L517.677 99.3975C517.677 99.3975 517.819 99.3272 517.96 99.1866C518.173 99.0459 518.314 98.9756 518.314 98.9756H518.456C518.668 98.9053 518.81 98.835 519.022 98.7647C519.235 98.6944 519.447 98.6241 519.589 98.6241C519.66 98.6241 519.66 98.6241 519.73 98.6241C519.801 98.6241 519.801 98.6241 519.872 98.6241C520.014 98.6241 520.226 98.5538 520.651 98.4835C520.651 98.4835 520.651 98.4835 520.722 98.4835C520.722 98.4835 520.722 98.4835 520.792 98.4835C521.076 98.4132 521.5 98.4132 521.925 98.4132C522.421 98.4132 522.987 98.3429 523.483 98.3429C523.766 98.3429 524.12 98.3429 524.403 98.3429C530.634 112.475 536.864 126.606 543.094 140.738C548.475 152.901 553.856 165.064 559.237 177.227C559.449 177.649 559.591 178.071 559.803 178.492C560.157 178.282 560.582 178.282 561.078 178.282Z"></path>
<path fill="white" d="M420.186 178.282H433.779V98.2023H467.905V84.2815H386.06V98.2023H420.186V178.282Z"></path>
<path fill="white" d="M334.377 84.2815C330.907 84.2815 327.509 84.4925 324.111 84.9846C320.995 85.4768 317.951 86.1798 315.048 87.1641C312.287 88.1484 309.667 89.3436 307.26 90.8904C304.924 92.3668 302.729 94.1245 300.817 96.0931C298.906 98.132 297.206 100.382 295.861 102.772C294.374 105.303 293.242 108.045 292.321 110.857C291.33 113.951 290.622 117.044 290.197 120.208C289.702 123.724 289.489 127.309 289.489 130.895C289.489 130.965 289.489 131.176 289.489 131.387C289.489 134.762 289.702 138.418 290.197 142.074C290.622 145.308 291.33 148.472 292.251 151.565C293.171 154.377 294.304 157.119 295.72 159.721C297.065 162.111 298.764 164.431 300.676 166.4C302.587 168.368 304.711 170.126 307.048 171.602C309.455 173.149 312.074 174.344 314.836 175.329C317.738 176.383 320.854 177.086 323.898 177.508C325.597 177.789 327.296 177.93 329.066 178.071C329.916 178.141 330.837 178.141 331.615 178.211C332.394 178.211 333.102 178.211 333.739 178.211C337.633 178.211 340.465 178.211 343.439 178.211C346.413 178.211 349.528 178.211 352.643 178.211C358.873 178.211 364.962 178.211 371.122 178.211C371.122 177.508 371.122 176.875 371.122 175.891C371.122 173.501 371.122 169.071 371.122 166.681C371.122 165.626 371.122 164.994 371.122 164.361C364.962 164.361 358.732 164.361 352.643 164.361C346.554 164.361 340.678 164.361 333.598 164.361C333.102 164.361 332.607 164.361 332.04 164.361C331.403 164.361 330.624 164.291 329.916 164.291C328.571 164.22 327.367 164.08 326.093 163.869C323.969 163.517 321.845 163.025 319.792 162.322C318.942 162.041 318.092 161.689 317.243 161.267C316.464 160.845 315.756 160.494 315.048 160.072C314.411 159.65 313.774 159.228 313.137 158.736C312.499 158.244 311.933 157.752 311.437 157.19C310.942 156.627 310.375 155.994 309.88 155.362C309.384 154.659 308.889 153.885 308.464 153.252C307.543 151.635 306.764 149.807 306.127 147.768C305.773 146.714 305.49 145.589 305.207 144.394C304.924 143.128 304.711 141.863 304.499 140.527C304.287 139.121 304.216 137.644 304.074 136.238C304.003 134.691 303.933 133.004 303.933 131.598C303.933 131.387 303.933 131.176 303.933 130.965C303.933 129.559 304.003 127.801 304.074 126.395C304.145 125.13 304.287 123.794 304.499 122.107C304.853 119.716 305.348 117.255 306.127 114.935C306.764 113.037 307.473 111.209 308.464 109.451C308.889 108.748 309.384 107.975 309.88 107.342C310.375 106.709 310.871 106.077 311.437 105.514C311.933 104.952 312.499 104.46 313.066 103.967C313.49 103.616 313.986 103.264 314.482 102.913C314.765 102.772 314.977 102.561 315.26 102.421C315.544 102.28 315.756 102.139 316.039 101.929C316.323 101.788 316.606 101.647 316.889 101.507C317.172 101.366 317.455 101.225 317.809 101.085C318.447 100.804 319.084 100.522 319.792 100.311C320.712 99.9599 321.703 99.6787 322.694 99.4678C323.827 99.1866 324.96 98.9756 326.093 98.835C327.367 98.6241 328.642 98.4835 329.916 98.4132C330.624 98.3429 331.403 98.3429 332.04 98.2726C332.677 98.2726 333.173 98.2726 333.668 98.2726C340.678 98.2726 346.625 98.2726 352.643 98.2726C358.732 98.2726 365.033 98.2726 371.122 98.2726C371.122 93.6323 371.122 88.9921 371.122 84.4222C359.015 84.2815 346.696 84.2815 334.377 84.2815Z"></path>
<path fill="white" d="M195.396 178.282H274.763V164.431H209.981V137.785H263.364V124.778H209.981V98.2023H274.763V84.2815H195.396V178.282Z"></path>
<path fill="white" d="M113.905 178.281C116.312 178.281 118.719 178.281 121.126 178.281C122.967 178.281 124.879 178.281 126.72 178.07C127.64 178 128.49 177.859 129.41 177.719C130.26 177.578 131.18 177.367 132.03 177.086C133.8 176.524 135.57 175.68 137.056 174.696C137.906 174.133 138.614 173.571 139.393 172.868C140.101 172.235 140.809 171.532 141.446 170.758C142.012 170.055 142.579 169.352 143.074 168.579C143.57 167.806 144.066 167.032 144.49 166.259C144.915 165.485 145.34 164.782 145.694 164.009C146.048 163.236 146.402 162.462 146.756 161.689C147.889 159.228 148.951 156.838 150.013 154.377C151.075 151.916 152.137 149.455 153.27 147.065C155.464 142.214 157.588 137.292 159.712 132.371C161.412 128.574 163.04 124.778 164.739 120.981C166.438 117.185 168.067 113.388 169.766 109.592C171.465 105.795 173.094 101.999 174.793 98.2019C176.492 94.4054 178.12 90.6088 179.82 86.8123C180.244 85.8983 180.669 84.914 181.094 84C175.855 84 170.545 84 165.306 84C165.093 84.4218 164.952 84.8437 164.739 85.2655C159.712 96.7255 154.615 108.185 149.588 119.575C144.349 131.457 139.11 143.339 133.87 155.221C133.516 155.924 133.233 156.627 132.879 157.4C132.596 157.963 132.313 158.595 131.959 159.158C131.676 159.65 131.392 160.142 131.109 160.634C130.897 160.986 130.614 161.337 130.33 161.689C129.976 162.181 129.552 162.603 129.056 162.954C128.773 163.095 128.631 163.236 128.631 163.236C128.56 163.306 128.419 163.306 128.348 163.376C128.206 163.447 128.065 163.517 127.923 163.587C127.782 163.657 127.64 163.657 127.64 163.657C127.428 163.728 127.215 163.798 126.932 163.868C126.578 163.939 126.295 164.009 125.941 164.009C125.516 164.079 125.162 164.079 124.737 164.079C124.029 164.15 123.18 164.15 122.33 164.15C110.365 137.714 98.5412 110.998 86.7884 84.2812C81.4784 84.2812 76.2392 84.2812 71 84.2812C71.4248 85.1952 71.8496 86.1795 72.2036 87.0935C85.4432 117.114 98.6828 147.065 111.922 177.086C112.135 177.508 112.276 177.93 112.489 178.352C112.984 178.281 113.409 178.281 113.905 178.281Z"></path>
</svg>
