<svg xmlns="http://www.w3.org/2000/svg" fill="none" viewBox="0 0 850 264" height="264" width="850">
<g clip-path="url(#clip0_8654_23)">
<path fill="white" d="M232.316 202.732C232.316 203.942 232.618 204.245 233.674 204.245H253.887C255.094 204.245 255.395 203.942 255.395 202.732V157.047H277.569L300.498 202.883C300.95 203.942 301.403 204.245 302.308 204.245H324.482C325.538 204.245 326.141 203.489 325.538 202.581L300.347 154.627C315.582 150.694 326.895 138.592 326.895 120.59C326.895 98.2019 311.509 83.5283 289.637 83.5283H246.194C236.993 83.5283 232.316 88.3691 232.316 97.4456V202.732ZM255.395 139.046V101.984H286.771C298.235 101.984 304.872 110.001 304.872 120.59C304.872 131.331 298.235 139.046 286.168 139.046H255.395ZM361.109 189.42C351.907 189.42 347.985 185.033 347.985 178.68C347.985 170.965 353.114 165.821 363.824 165.821C376.646 165.821 384.942 172.629 384.942 181.1V189.42H361.109ZM392.484 204.245C399.876 204.245 404.703 199.858 404.703 192.445V146.609C404.703 127.549 391.278 116.809 367.746 116.809C335.164 116.809 329.583 138.895 329.583 144.34C329.583 145.399 329.884 145.853 330.94 145.853H347.835C348.89 145.853 349.494 145.399 349.645 144.34C351.002 136.777 356.584 132.239 366.69 132.239C379.512 132.239 384.791 138.441 384.791 147.82V159.922C384.791 159.922 379.512 151.904 360.355 151.904C340.594 151.904 328.074 162.645 328.074 178.982C328.074 196.53 340.896 204.245 358.695 204.245H392.484ZM434.089 136.323H451.738C465.615 136.323 473.61 146.156 473.61 161.737C473.61 177.016 466.671 187.302 454.001 187.302C441.631 187.302 434.089 178.982 434.089 162.947V136.323ZM413.876 232.987C413.876 234.197 414.178 234.5 415.234 234.5H432.882C433.938 234.5 434.391 234.197 434.391 232.987V195.32C434.391 195.32 440.425 205.304 457.319 205.304C478.437 205.304 494.125 187.302 494.125 161.132C494.125 134.961 476.778 118.17 452.492 118.17H426.094C418.703 118.17 413.876 122.557 413.876 129.969V232.987ZM500.734 202.732C500.734 203.942 501.036 204.245 502.092 204.245H520.494C521.55 204.245 522.003 203.942 522.003 202.732V119.683C522.003 118.624 521.55 118.17 520.494 118.17H502.092C501.036 118.17 500.734 118.624 500.734 119.683V202.732ZM511.293 85.0411C504.656 85.0411 499.075 89.7306 499.075 96.6892C499.075 103.799 504.656 108.035 511.293 108.035C518.232 108.035 523.662 103.799 523.662 96.6892C523.662 89.7306 518.232 85.0411 511.293 85.0411ZM570.999 186.092C557.122 186.092 548.976 176.259 548.976 160.678C548.976 145.399 555.915 135.113 568.737 135.113C580.955 135.113 588.799 143.433 588.799 159.619V186.092H570.999ZM596.643 204.245C604.185 204.245 608.861 199.858 608.861 192.445V85.0411C608.861 83.8309 608.559 83.5283 607.503 83.5283H589.855C588.799 83.5283 588.346 83.8309 588.346 85.0411V127.095C588.346 127.095 582.312 117.111 565.267 117.111C544.3 117.111 528.763 135.113 528.763 161.283C528.763 187.454 545.959 204.245 570.245 204.245H596.643ZM649.108 189.42C639.907 189.42 635.985 185.033 635.985 178.68C635.985 170.965 641.113 165.821 651.823 165.821C664.645 165.821 672.941 172.629 672.941 181.1V189.42H649.108ZM680.484 204.245C687.875 204.245 692.702 199.858 692.702 192.445V146.609C692.702 127.549 679.277 116.809 655.745 116.809C623.163 116.809 617.582 138.895 617.582 144.34C617.582 145.399 617.884 145.853 618.939 145.853H635.834C636.89 145.853 637.493 145.399 637.644 144.34C639.002 136.777 644.583 132.239 654.689 132.239C667.511 132.239 672.791 138.441 672.791 147.82V159.922C672.791 159.922 667.511 151.904 648.354 151.904C628.594 151.904 616.073 162.645 616.073 178.982C616.073 196.53 628.895 204.245 646.695 204.245H680.484ZM706.552 172.78C706.552 192.748 716.809 204.245 736.871 204.245H749.24C750.296 204.245 750.598 203.942 750.598 202.732V187.302C750.598 186.092 750.296 185.789 749.24 185.789H738.832C732.647 185.789 727.519 181.856 727.519 174.141V136.474H749.24C750.296 136.474 750.598 136.172 750.598 134.961V119.683C750.598 118.473 750.296 118.17 749.24 118.17H727.519V95.3277C727.519 94.2687 727.217 93.9663 726.01 93.9663H708.06C707.004 93.9663 706.552 94.2687 706.552 95.3277V118.17H694.937C693.881 118.17 693.579 118.473 693.579 119.683V134.961C693.579 136.172 693.881 136.474 694.937 136.474H706.552V172.78ZM788.281 189.42C779.079 189.42 775.158 185.033 775.158 178.68C775.158 170.965 780.286 165.821 790.996 165.821C803.818 165.821 812.114 172.629 812.114 181.1V189.42H788.281ZM819.656 204.245C827.048 204.245 831.875 199.858 831.875 192.445V146.609C831.875 127.549 818.45 116.809 794.918 116.809C762.336 116.809 756.755 138.895 756.755 144.34C756.755 145.399 757.056 145.853 758.112 145.853H775.007C776.063 145.853 776.666 145.399 776.817 144.34C778.174 136.777 783.756 132.239 793.862 132.239C806.684 132.239 811.963 138.441 811.963 147.82V159.922C811.963 159.922 806.684 151.904 787.527 151.904C767.766 151.904 755.246 162.645 755.246 178.982C755.246 196.53 768.068 204.245 785.867 204.245H819.656Z"></path>
<path fill="url(#paint0_linear_8654_23)" d="M69.7509 38.8866C103.222 19.5068 146.42 31.1142 165.745 64.6817L165.746 64.6833C185.071 98.2508 173.496 141.571 140.024 160.951L140.024 160.952L93.1744 79.5733L17.875 123.174V68.9228L69.7509 38.8866ZM99.4506 184.443L17.875 231.675V177.424L76.0265 143.755L99.4506 184.443Z" clip-rule="evenodd" fill-rule="evenodd"></path>
<path fill="white" d="M126.643 231.675L76.0264 143.756L93.1745 79.5757L180.74 231.675H126.643Z" clip-rule="evenodd" fill-rule="evenodd"></path>
</g>
<defs>
<linearGradient gradientUnits="userSpaceOnUse" y2="120.75" x2="183.91" y1="215.415" x1="19.4784" id="paint0_linear_8654_23">
<stop stop-color="white"></stop>
<stop stop-color="white" offset="1"></stop>
</linearGradient>
<clipPath id="clip0_8654_23">
<rect transform="translate(17.875 29.5)" fill="white" height="205" width="814"></rect>
</clipPath>
</defs>
</svg>
