<svg xmlns="http://www.w3.org/2000/svg" fill="none" viewBox="0 0 850 263" height="263" width="850">
<g clip-path="url(#clip0_4241_204)">
<path fill="white" d="M150.806 122.751H91.8135V74.638H150.806V122.751Z"></path>
<path fill="white" d="M109.129 74.2567V106.855C109.441 108.102 110.303 110.819 112.745 113.225C116.028 116.459 119.948 116.944 121.118 117.045C122.261 116.98 126.431 116.605 129.872 113.225C132.31 110.829 133.173 108.113 133.487 106.855V74.2567H109.129Z"></path>
<path fill="white" d="M120.582 76.2612H89.5791L133.856 32.7279L125.872 60.9948L154.494 60.5832L113.327 102.691L120.582 76.2612Z"></path>
<path fill="white" d="M42.8116 80.1597C36.3021 80.1597 31.0059 74.867 31.0059 68.362C31.0059 61.8569 36.3021 56.5643 42.8116 56.5643C49.321 56.5643 54.6172 61.8569 54.6172 68.362C54.6172 74.867 49.321 80.1597 42.8116 80.1597Z"></path>
<path fill="white" d="M35.7617 144.908V73.9945L38.7223 75.5968C39.8524 76.2088 41.1342 76.5322 42.4292 76.5322C43.6042 76.5322 44.7677 76.2661 45.8164 75.7607C46.1673 75.4601 46.6217 75.2826 47.1235 75.2826C48.8668 75.2826 49.1467 76.61 49.7604 79.5188C50.1638 81.4297 50.637 83.9466 51.0934 86.6058C51.8165 90.8204 53.1536 99.2479 53.9814 108.338C55.3053 122.874 54.2778 149.833 54.2337 150.974L54.1129 154.077L35.7617 144.908Z"></path>
<path fill="white" d="M47.105 77.3522C50.1582 75.6934 52.2304 72.4599 52.2304 68.7423C52.2304 63.3334 47.8429 58.9485 42.4303 58.9485C42.1664 58.9485 41.9062 58.9621 41.6479 58.9826C40.2518 59.0928 38.9376 59.4924 37.7677 60.126C34.7077 61.7832 32.6299 65.0203 32.6299 68.7423C32.6299 72.4647 34.7077 75.7018 37.7677 77.359C39.1542 78.1097 40.7423 78.5361 42.4303 78.5361C44.1232 78.5361 45.7153 78.1073 47.105 77.3522"></path>
<path fill="white" d="M200.188 80.1597C193.678 80.1597 188.382 74.867 188.382 68.362C188.382 61.8569 193.678 56.5643 200.188 56.5643C206.697 56.5643 211.993 61.8569 211.993 68.362C211.993 74.867 206.697 80.1597 200.188 80.1597Z"></path>
<path fill="white" d="M188.381 106.551L194.626 74.0656L197.008 75.2912C198.118 75.8627 199.317 76.1525 200.569 76.1525C201.864 76.1525 203.145 75.829 204.275 75.2171L207.236 73.6135V145.289L188.79 154.505L188.381 106.551Z"></path>
<path fill="white" d="M210.369 68.362C210.369 64.6395 208.291 61.4024 205.231 59.7456C204.123 59.1453 202.886 58.7525 201.572 58.619C201.242 58.5854 200.908 58.5681 200.569 58.5681C195.156 58.5681 190.769 62.9531 190.769 68.362C190.769 72.1577 192.931 75.4465 196.09 77.0725C197.433 77.7634 198.955 78.1558 200.569 78.1558C202.257 78.1558 203.845 77.7293 205.231 76.9783C208.291 75.3215 210.369 72.0844 210.369 68.362Z"></path>
<path fill="white" d="M97.7122 143.479C97.7122 151.567 93.3668 158.123 88.0068 158.123C82.6467 158.123 78.3018 151.567 78.3018 143.479C78.3018 135.392 82.6467 128.836 88.0068 128.836C93.3668 128.836 97.7122 135.392 97.7122 143.479Z"></path>
<path fill="white" d="M163.937 143.479C163.937 151.567 159.591 158.123 154.231 158.123C148.871 158.123 144.526 151.567 144.526 143.479C144.526 135.392 148.871 128.836 154.231 128.836C159.591 128.836 163.937 135.392 163.937 143.479Z"></path>
<path fill="white" d="M121.31 234.416C80.525 234.416 47.3438 201.258 47.3438 160.5V149.977L47.4408 149.677C50.6801 139.638 53.3154 118.816 53.3154 103.26C53.3154 86.4253 67.7082 72.7295 85.3993 72.7295H157.336C175.027 72.7295 189.42 86.485 189.42 103.392C189.42 119.023 192.004 139.835 195.181 149.785L195.276 150.082V160.5C195.276 201.258 162.095 234.416 121.31 234.416ZM175.354 160.252C175.354 162.456 173.549 164.26 171.343 164.26H71.2742C69.0684 164.26 67.2637 162.456 67.2637 160.252V126.759C67.2637 124.554 69.0684 122.751 71.2742 122.751H171.343C173.549 122.751 175.354 124.554 175.354 126.759V160.252ZM99.4248 194.055H144.526V182.084H99.4248V194.055Z" clip-rule="evenodd" fill-rule="evenodd"></path>
<path fill="white" d="M86.9807 186.561L49.2363 157.646C49.2363 157.646 49.3466 169.142 50.9304 175.99C52.1684 181.344 54.5314 191.108 62.1597 201.892C70.6291 213.864 81.153 220.823 87.4319 224.34C87.2815 211.747 86.9807 186.561 86.9807 186.561Z"></path>
<path fill="white" d="M155.444 186.561L193.189 157.647C193.189 157.647 193.078 169.142 191.495 175.99C190.257 181.345 187.894 191.109 180.265 201.892C171.796 213.864 161.272 220.823 154.993 224.341C155.144 211.748 155.444 186.561 155.444 186.561Z"></path>
<path fill="white" d="M49.0137 155.066C49.1805 133.46 51.185 115.695 51.6049 108.9C52.0252 102.105 57.3298 92.4132 57.3298 92.4132C57.9386 92.4116 57.4566 111.232 57.4622 111.411C57.4999 112.604 57.0856 140.06 56.109 159.264L49.0137 155.066Z"></path>
<path fill="white" d="M193.187 154.685C193.02 133.079 191.016 115.314 190.596 108.519C190.175 101.723 184.871 92.0318 184.871 92.0318C184.262 92.0302 184.744 110.851 184.738 111.03C184.701 112.222 185.115 139.679 186.091 158.883L193.187 154.685Z"></path>
<path fill="white" d="M273.824 184.016C272.501 185.339 270.889 186 268.988 186C267.087 186 265.475 185.339 264.152 184.016C262.829 182.693 262.168 181.081 262.168 179.18V102.548C262.168 100.647 262.871 98.9933 264.276 97.588C265.681 96.1827 267.335 95.48 269.236 95.48H309.908C311.479 95.48 312.801 96.0173 313.876 97.092C314.951 98.1667 315.488 99.4893 315.488 101.06C315.488 102.631 314.951 103.953 313.876 105.028C312.801 106.103 311.479 106.64 309.908 106.64H276.924C276.18 106.64 275.808 106.971 275.808 107.632V132.556C275.808 133.3 276.18 133.672 276.924 133.672H307.676C309.164 133.672 310.404 134.209 311.396 135.284C312.471 136.276 313.008 137.516 313.008 139.004C313.008 140.492 312.471 141.773 311.396 142.848C310.404 143.84 309.164 144.336 307.676 144.336H276.924C276.18 144.336 275.808 144.708 275.808 145.452V179.18C275.808 181.081 275.147 182.693 273.824 184.016ZM348.609 184.016C347.286 185.339 345.715 186 343.897 186C342.078 186 340.466 185.339 339.061 184.016C337.738 182.693 337.077 181.081 337.077 179.18V99.82C337.077 97.9187 337.738 96.3067 339.061 94.984C340.466 93.6613 342.078 93 343.897 93C345.715 93 347.286 93.6613 348.609 94.984C350.014 96.3067 350.717 97.9187 350.717 99.82V179.18C350.717 181.081 350.014 182.693 348.609 184.016ZM403.32 153.512C396.541 153.512 391.416 154.669 387.944 156.984C384.554 159.216 382.86 162.275 382.86 166.16C382.86 169.219 383.769 171.74 385.588 173.724C387.406 175.708 389.597 176.7 392.16 176.7C397.616 176.7 401.956 175.005 405.18 171.616C408.486 168.144 410.14 163.432 410.14 157.48V154.504C410.14 153.843 409.768 153.512 409.024 153.512H403.32ZM389.06 187.24C383.438 187.24 378.809 185.421 375.172 181.784C371.617 178.147 369.84 173.352 369.84 167.4C369.84 160.125 372.609 154.504 378.148 150.536C383.686 146.485 392.077 144.46 403.32 144.46H409.024C409.768 144.46 410.14 144.088 410.14 143.344V141.98C410.14 137.599 409.106 134.54 407.04 132.804C404.973 131.068 401.253 130.2 395.88 130.2C391.085 130.2 385.381 131.192 378.768 133.176C377.528 133.589 376.329 133.424 375.172 132.68C374.097 131.853 373.56 130.779 373.56 129.456C373.56 127.803 374.056 126.315 375.048 124.992C376.04 123.669 377.321 122.843 378.892 122.512C384.844 121.024 390.506 120.28 395.88 120.28C406.296 120.28 413.446 122.14 417.332 125.86C421.217 129.58 423.16 136.4 423.16 146.32V179.924C423.16 181.577 422.54 183.024 421.3 184.264C420.142 185.421 418.737 186 417.084 186C415.43 186 413.984 185.421 412.744 184.264C411.586 183.024 410.966 181.577 410.884 179.924L410.76 176.824C410.76 176.741 410.718 176.7 410.636 176.7C410.47 176.7 410.388 176.741 410.388 176.824C405.593 183.768 398.484 187.24 389.06 187.24ZM460.258 158.72C451.826 156.653 445.874 154.049 442.402 150.908C439.013 147.684 437.318 143.675 437.318 138.88C437.318 133.093 439.385 128.547 443.518 125.24C447.734 121.933 453.934 120.28 462.118 120.28C467.409 120.28 472.741 120.859 478.114 122.016C479.602 122.347 480.801 123.173 481.71 124.496C482.702 125.736 483.198 127.141 483.198 128.712C483.198 130.035 482.661 131.068 481.586 131.812C480.511 132.556 479.354 132.721 478.114 132.308C472.906 130.903 467.987 130.2 463.358 130.2C454.678 130.2 450.338 132.68 450.338 137.64C450.338 140.12 451.165 142.145 452.818 143.716C454.471 145.287 457.365 146.568 461.498 147.56C471.005 149.792 477.411 152.479 480.718 155.62C484.025 158.679 485.678 163.225 485.678 169.26C485.678 174.881 483.487 179.304 479.106 182.528C474.807 185.669 468.525 187.24 460.258 187.24C454.885 187.24 449.511 186.537 444.138 185.132C442.65 184.719 441.451 183.892 440.542 182.652C439.633 181.329 439.178 179.883 439.178 178.312C439.178 177.072 439.674 176.08 440.666 175.336C441.741 174.592 442.857 174.427 444.014 174.84C449.139 176.493 454.141 177.32 459.018 177.32C468.111 177.32 472.658 174.633 472.658 169.26C472.658 166.697 471.749 164.631 469.93 163.06C468.111 161.407 464.887 159.96 460.258 158.72ZM513.318 184.14C512.078 185.38 510.549 186 508.73 186C506.912 186 505.382 185.38 504.142 184.14C502.902 182.9 502.282 181.371 502.282 179.552V99.448C502.282 97.6293 502.902 96.1 504.142 94.86C505.382 93.62 506.912 93 508.73 93C510.549 93 512.078 93.62 513.318 94.86C514.641 96.1 515.302 97.6293 515.302 99.448V129.456C515.302 129.539 515.344 129.58 515.426 129.58C515.509 129.58 515.592 129.539 515.674 129.456C521.461 123.339 527.95 120.28 535.142 120.28C542.665 120.28 548.162 122.388 551.634 126.604C555.106 130.737 556.842 137.723 556.842 147.56V179.676C556.842 181.412 556.222 182.9 554.982 184.14C553.742 185.38 552.254 186 550.518 186C548.782 186 547.294 185.38 546.054 184.14C544.814 182.9 544.194 181.412 544.194 179.676V150.04C544.194 142.352 543.285 137.227 541.466 134.664C539.648 132.101 536.3 130.82 531.422 130.82C527.62 130.82 523.982 132.639 520.51 136.276C517.038 139.831 515.302 143.592 515.302 147.56V179.552C515.302 181.371 514.641 182.9 513.318 184.14ZM587.716 144.46V163.06C587.716 166.78 589.287 170.087 592.428 172.98C595.652 175.873 599.455 177.32 603.836 177.32C608.879 177.32 612.806 175.377 615.616 171.492C618.51 167.607 619.956 161.696 619.956 153.76C619.956 138.053 614.583 130.2 603.836 130.2C599.455 130.2 595.652 131.647 592.428 134.54C589.287 137.433 587.716 140.74 587.716 144.46ZM585.112 184.264C583.872 185.421 582.426 186 580.772 186C579.119 186 577.672 185.421 576.432 184.264C575.275 183.024 574.696 181.577 574.696 179.924V99.448C574.696 97.6293 575.316 96.1 576.556 94.86C577.879 93.62 579.45 93 581.268 93C583.087 93 584.616 93.62 585.856 94.86C587.096 96.1 587.716 97.6293 587.716 99.448V128.216C587.716 128.299 587.758 128.34 587.84 128.34C587.923 128.34 588.006 128.299 588.088 128.216C593.296 122.925 599.579 120.28 606.936 120.28C614.79 120.28 621.072 123.215 625.784 129.084C630.579 134.953 632.976 143.179 632.976 153.76C632.976 164.011 630.496 172.153 625.536 178.188C620.659 184.223 614.459 187.24 606.936 187.24C602.968 187.24 599.496 186.579 596.52 185.256C593.544 183.851 590.527 181.453 587.468 178.064C587.386 177.981 587.303 177.94 587.22 177.94C587.138 177.94 587.096 177.981 587.096 178.064V179.924C587.014 181.577 586.352 183.024 585.112 184.264ZM691.459 153.76C691.459 138.053 685.755 130.2 674.347 130.2C662.939 130.2 657.235 138.053 657.235 153.76C657.235 169.467 662.939 177.32 674.347 177.32C685.755 177.32 691.459 169.467 691.459 153.76ZM696.667 178.56C691.294 184.347 683.854 187.24 674.347 187.24C664.84 187.24 657.4 184.347 652.027 178.56C646.654 172.691 643.967 164.424 643.967 153.76C643.967 143.096 646.654 134.871 652.027 129.084C657.4 123.215 664.84 120.28 674.347 120.28C683.854 120.28 691.294 123.215 696.667 129.084C702.04 134.871 704.727 143.096 704.727 153.76C704.727 164.424 702.04 172.691 696.667 178.56ZM718.948 133.92C717.543 133.92 716.344 133.424 715.352 132.432C714.443 131.44 713.988 130.283 713.988 128.96C713.988 127.637 714.443 126.48 715.352 125.488C716.344 124.496 717.543 124 718.948 124H725.892C726.636 124 727.008 123.628 727.008 122.884V106.888C727.008 105.069 727.628 103.54 728.868 102.3C730.108 101.06 731.637 100.44 733.456 100.44C735.275 100.44 736.804 101.06 738.044 102.3C739.367 103.54 740.028 105.069 740.028 106.888V122.884C740.028 123.628 740.4 124 741.144 124H757.388C758.793 124 759.951 124.496 760.86 125.488C761.852 126.48 762.348 127.637 762.348 128.96C762.348 130.283 761.852 131.44 760.86 132.432C759.951 133.424 758.793 133.92 757.388 133.92H741.144C740.4 133.92 740.028 134.292 740.028 135.036V163.68C740.028 169.301 740.689 172.98 742.012 174.716C743.335 176.452 745.98 177.32 749.948 177.32C751.849 177.32 753.668 177.196 755.404 176.948C756.727 176.783 757.884 177.072 758.876 177.816C759.951 178.56 760.488 179.552 760.488 180.792C760.488 182.28 759.992 183.603 759 184.76C758.008 185.917 756.768 186.579 755.28 186.744C751.808 187.075 749.204 187.24 747.468 187.24C739.863 187.24 734.531 185.628 731.472 182.404C728.496 179.18 727.008 173.352 727.008 164.92V135.036C727.008 134.292 726.636 133.92 725.892 133.92H718.948ZM800.047 158.72C791.615 156.653 785.663 154.049 782.191 150.908C778.802 147.684 777.107 143.675 777.107 138.88C777.107 133.093 779.174 128.547 783.307 125.24C787.523 121.933 793.723 120.28 801.907 120.28C807.198 120.28 812.53 120.859 817.903 122.016C819.391 122.347 820.59 123.173 821.499 124.496C822.491 125.736 822.987 127.141 822.987 128.712C822.987 130.035 822.45 131.068 821.375 131.812C820.3 132.556 819.143 132.721 817.903 132.308C812.695 130.903 807.776 130.2 803.147 130.2C794.467 130.2 790.127 132.68 790.127 137.64C790.127 140.12 790.954 142.145 792.607 143.716C794.26 145.287 797.154 146.568 801.287 147.56C810.794 149.792 817.2 152.479 820.507 155.62C823.814 158.679 825.467 163.225 825.467 169.26C825.467 174.881 823.276 179.304 818.895 182.528C814.596 185.669 808.314 187.24 800.047 187.24C794.674 187.24 789.3 186.537 783.927 185.132C782.439 184.719 781.24 183.892 780.331 182.652C779.422 181.329 778.967 179.883 778.967 178.312C778.967 177.072 779.463 176.08 780.455 175.336C781.53 174.592 782.646 174.427 783.803 174.84C788.928 176.493 793.93 177.32 798.807 177.32C807.9 177.32 812.447 174.633 812.447 169.26C812.447 166.697 811.538 164.631 809.719 163.06C807.9 161.407 804.676 159.96 800.047 158.72Z"></path>
</g>
<defs>
<clipPath id="clip0_4241_204">
<rect fill="white" height="263" width="849.2"></rect>
</clipPath>
</defs>
</svg>
