<svg xmlns="http://www.w3.org/2000/svg" fill="none" viewBox="0 0 850 263" height="263" width="850">
<path fill="white" d="M185.842 104.693V83.0688H199.367C209.086 83.0688 216.537 80.4772 221.882 75.3749C227.227 70.2726 229.981 63.1456 229.981 53.9939C229.981 45.3281 227.308 38.6061 221.882 33.7468C216.456 28.8875 208.924 26.6198 199.367 26.6198H166V104.693H185.842ZM198.395 66.7901H185.842V42.8175H198.476C202.526 42.8175 205.603 43.8703 207.871 45.8951C210.058 48.0008 211.192 50.8354 211.192 54.7228C211.192 58.6913 210.058 61.6878 207.871 63.7125C205.603 65.7373 202.526 66.7901 198.395 66.7901ZM275.983 106.151C283.757 106.151 290.641 104.369 296.959 100.805C303.195 97.3228 308.135 92.3015 311.779 86.2274C315.424 80.1532 317.125 73.1882 317.125 65.5753C317.125 58.0433 315.343 51.1593 311.779 45.0852C308.135 39.011 303.276 34.2327 296.959 30.6692C290.641 27.1867 283.757 25.4049 275.983 25.4049C268.208 25.4049 261.162 27.1867 255.006 30.6692C248.851 34.1517 243.749 38.849 240.186 45.0042C236.541 51.0783 234.84 57.9624 234.84 65.4943C234.84 73.1882 236.622 80.0722 240.186 86.3084C243.83 92.5445 248.689 97.4038 255.006 100.886C261.324 104.369 268.208 106.151 275.983 106.151ZM276.144 88.738C272.419 88.738 268.936 87.6852 265.697 85.6605C262.457 83.5548 260.028 80.8821 258.003 77.3996C255.978 73.9171 255.087 69.9487 255.087 65.5753C255.087 61.3639 255.978 57.4764 257.841 53.9129C259.704 50.3494 262.295 47.5958 265.535 45.6521C268.775 43.7084 272.257 42.6555 275.983 42.6555C279.708 42.6555 283.19 43.7084 286.349 45.6521C289.508 47.5958 291.937 50.4304 293.8 53.9129C295.663 57.3954 296.473 61.3639 296.473 65.5753C296.473 69.9487 295.582 73.8361 293.8 77.3996C292.018 80.9631 289.589 83.7167 286.349 85.7414C283.19 87.7662 279.87 88.738 276.144 88.738ZM356.242 105.908C361.911 105.908 367.095 105.017 371.792 103.154C376.408 101.291 380.134 98.5376 382.725 94.8932C385.317 91.2487 386.775 86.7943 386.775 81.53C386.775 76.2658 385.56 72.1354 383.049 68.8958C380.539 65.6563 377.704 63.3076 374.222 61.7688C370.82 60.23 366.447 58.6913 361.183 57.1525C357.7 56.0186 354.946 55.0468 353.084 54.4798C351.221 53.8319 349.763 52.8601 348.548 51.7262C347.333 50.5924 346.686 49.1346 346.686 47.5148C346.686 45.7331 347.414 44.4373 348.791 43.4654C350.168 42.5745 352.112 42.0886 354.622 42.0886C357.7 42.0886 361.587 42.8985 366.204 44.4373C370.82 45.976 375.113 47.9198 379.162 50.4304L386.613 34.1517C382.563 31.4791 377.785 29.2924 372.521 27.7536C367.176 26.1338 361.911 25 356.323 25C350.249 25 344.985 26.0529 340.287 27.9966C335.671 29.9403 332.108 32.7749 329.597 36.3384C327.086 39.9829 325.871 44.1943 325.871 49.0536C325.871 54.2369 327.086 58.2863 329.516 61.3639C331.865 64.4414 334.861 66.7091 338.182 68.3289C341.502 69.8677 345.876 71.3255 351.14 72.8643C354.622 73.7551 357.376 74.646 359.239 75.3749C361.102 76.1038 362.721 76.9947 364.017 78.1285C365.313 79.2624 365.88 80.8011 365.88 82.5829C365.88 84.7696 365.07 86.3894 363.288 87.4422C361.668 88.576 359.239 89.062 356.242 89.062C352.193 89.062 347.576 87.9281 342.312 85.7414C337.048 83.5548 332.513 80.6392 328.625 77.1567L320.931 93.1114C325.467 97.0798 330.893 100.157 337.21 102.425C343.527 104.774 350.006 105.908 356.242 105.908ZM416.741 104.693V26.5388H396.898V104.612H416.741V104.693ZM467.359 104.693V43.4654H490.116V26.5388H424.921V43.3844H447.435V104.612H467.359V104.693ZM517.895 104.693V26.5388H498.053V104.612H517.895V104.693ZM575.235 104.693L604.958 26.6198H584.549L565.517 83.0688L546.484 26.5388H525.184L554.583 104.612H575.235V104.693ZM673.07 104.693V88.4141H631.927V73.7551L668.129 73.6741V57.4764H631.927V42.8175H672.098V26.5388H612.085V104.612H673.07V104.693ZM185.761 236.623V210.059H219.695V194.752H185.761V178.392H222.449L222.53 163.086H166V236.623H185.761ZM267.56 238C275.254 238 282.219 236.38 288.455 232.898C294.691 229.496 299.55 224.961 303.114 219.13C306.758 213.298 308.459 206.819 308.459 199.611C308.459 192.484 306.677 186.086 303.114 180.255C299.469 174.424 294.61 170.051 288.455 166.73C282.219 163.41 275.335 161.79 267.56 161.79C259.785 161.79 252.901 163.571 246.665 166.892C240.429 170.213 235.569 174.667 232.006 180.417C228.361 186.248 226.66 192.646 226.66 199.773C226.66 206.981 228.442 213.541 232.006 219.292C235.65 225.123 240.51 229.739 246.665 233.06C252.901 236.38 259.785 238 267.56 238ZM267.803 221.64C264.077 221.64 260.595 220.749 257.436 218.725C254.359 216.781 251.767 214.189 249.742 210.869C247.798 207.548 246.827 203.823 246.827 199.773C246.827 195.724 247.717 192.079 249.58 188.84C251.443 185.519 254.035 182.928 257.274 180.984C260.514 179.04 263.996 178.23 267.722 178.23C271.447 178.23 274.849 179.121 278.088 180.984C281.328 182.847 283.676 185.438 285.458 188.84C287.24 192.16 288.131 195.805 288.131 199.773C288.131 203.823 287.24 207.548 285.458 210.869C283.676 214.189 281.247 216.781 278.088 218.725C275.011 220.749 271.528 221.64 267.803 221.64ZM353.003 238C360.697 238 367.662 236.38 373.898 232.898C380.134 229.496 384.993 224.961 388.557 219.13C392.039 213.298 393.902 206.819 393.902 199.611C393.902 192.484 392.12 186.086 388.557 180.255C384.912 174.424 380.053 170.051 373.898 166.73C367.662 163.41 360.778 161.79 353.003 161.79C345.228 161.79 338.344 163.41 332.108 166.73C325.871 170.051 321.012 174.505 317.449 180.255C313.804 186.086 312.103 192.484 312.103 199.611C312.103 206.819 313.885 213.379 317.449 219.13C321.093 224.961 325.952 229.577 332.108 232.898C338.344 236.38 345.39 238 353.003 238ZM353.246 221.64C349.52 221.64 346.038 220.749 342.879 218.725C339.802 216.781 337.21 214.189 335.185 210.869C333.322 207.548 332.27 203.823 332.27 199.773C332.27 195.724 333.16 192.079 335.023 188.84C336.886 185.6 339.478 182.928 342.717 180.984C345.957 179.04 349.439 178.23 353.165 178.23C356.89 178.23 360.292 179.121 363.531 180.984C366.771 182.847 369.119 185.438 370.901 188.84C372.683 192.16 373.574 195.805 373.574 199.773C373.574 203.823 372.683 207.548 370.901 210.869C369.119 214.189 366.69 216.781 363.531 218.725C360.454 220.587 356.971 221.64 353.246 221.64ZM435.53 236.623C443.629 236.623 450.756 235.084 456.911 232.007C463.147 228.929 468.006 224.556 471.408 218.968C474.81 213.379 476.591 206.981 476.591 199.692C476.591 192.484 474.971 186.167 471.489 180.579C468.087 174.991 463.39 170.617 457.316 167.621C451.242 164.543 444.277 163.005 436.34 163.005H403.783V236.542H435.53V236.623ZM436.907 221.154H423.544V178.716H435.935C439.903 178.716 443.386 179.607 446.463 181.389C449.541 183.171 451.971 185.6 453.671 188.921C455.453 192.16 456.344 195.886 456.344 200.097C456.344 204.228 455.534 207.872 453.833 211.031C452.214 214.27 449.865 216.7 446.868 218.482C444.115 220.183 440.713 221.154 436.907 221.154ZM545.351 238C550.939 238 556.527 236.785 562.115 234.275C567.703 231.764 572.644 228.443 576.693 224.232L565.112 212.165C562.439 214.837 559.443 216.943 556.041 218.482C552.64 220.021 549.4 220.749 546.322 220.749C542.516 220.749 539.114 219.859 535.875 217.996C532.635 216.133 530.287 213.541 528.505 210.302C526.723 207.062 525.832 203.499 525.832 199.449C525.832 195.4 526.723 191.756 528.505 188.597C530.287 185.357 532.716 182.766 535.875 180.903C538.952 179.04 542.516 178.149 546.322 178.149C549.643 178.149 552.963 179.04 556.365 180.822C559.767 182.604 562.682 184.952 565.193 187.949L576.693 174.505C572.887 170.537 568.189 167.459 562.763 165.191C557.337 162.924 551.83 161.79 546.079 161.79C538.386 161.79 531.582 163.41 525.427 166.73C519.191 170.051 514.494 174.505 510.93 180.255C507.448 185.924 505.666 192.484 505.666 199.611C505.666 206.819 507.448 213.379 510.849 219.13C514.251 224.961 519.029 229.496 525.103 232.898C531.016 236.38 537.738 238 545.351 238ZM619.86 238C627.554 238 634.519 236.38 640.755 232.898C646.991 229.577 651.851 224.961 655.414 219.13C659.059 213.298 660.759 206.819 660.759 199.611C660.759 192.484 658.978 186.086 655.414 180.255C651.77 174.424 646.91 170.051 640.755 166.73C634.519 163.41 627.635 161.79 619.86 161.79C612.085 161.79 605.201 163.41 598.965 166.73C592.729 170.051 587.87 174.505 584.306 180.255C580.662 186.086 578.961 192.484 578.961 199.611C578.961 206.819 580.743 213.379 584.306 219.13C587.951 224.961 592.81 229.577 598.965 232.898C605.201 236.38 612.166 238 619.86 238ZM620.103 221.64C616.378 221.64 612.895 220.749 609.737 218.725C606.659 216.781 604.067 214.189 602.043 210.869C600.099 207.548 599.127 203.823 599.127 199.773C599.127 195.724 600.018 192.079 601.881 188.84C603.743 185.519 606.335 182.928 609.575 180.984C612.814 179.04 616.297 178.23 620.022 178.23C623.748 178.23 627.149 179.121 630.389 180.984C633.628 182.847 635.977 185.438 637.759 188.84C639.54 192.16 640.431 195.805 640.431 199.773C640.431 203.823 639.54 207.548 637.759 210.869C635.977 214.189 633.547 216.781 630.389 218.725C627.311 220.749 623.829 221.64 620.103 221.64ZM673.879 237.514C676.552 237.514 678.82 236.704 680.602 234.922C682.383 233.141 683.193 230.954 683.193 228.443C683.193 225.852 682.383 223.584 680.602 221.964C678.82 220.344 676.633 219.454 673.879 219.454C671.207 219.454 668.939 220.263 667.238 221.964C665.538 223.665 664.647 225.771 664.647 228.443C664.647 231.116 665.457 233.303 667.238 234.922C669.02 236.542 671.288 237.514 673.879 237.514Z"></path>
</svg>
