<svg xmlns="http://www.w3.org/2000/svg" fill="none" viewBox="0 0 850 263" height="263" width="850">
<path fill="white" d="M274.782 205.898C274.782 213.335 246.561 219.362 211.754 219.362C176.943 219.362 148.722 213.335 148.722 205.898C148.722 198.465 176.943 192.437 211.754 192.437C246.561 192.437 274.782 198.465 274.782 205.898Z"></path>
<path fill="white" d="M144.001 147.441C144.001 169.173 164.021 178.919 183.599 178.976C229.405 178.976 280.086 150.804 279.823 103.653C279.639 69.6679 248.417 40.723 211.482 41.004C176.333 40.9996 142 63.9606 142 95.2454C142 103.644 146.818 111.775 159.41 112.688C148.91 123.097 144.001 135.557 144.001 147.441ZM211.6 116.718C218.945 116.718 224.895 109.562 224.895 100.738C224.895 91.9045 218.945 84.7484 211.6 84.7484C204.26 84.7484 198.306 91.9045 198.306 100.733C198.306 109.562 204.26 116.718 211.6 116.718V116.718ZM249.72 116.718C257.065 116.718 263.014 109.562 263.014 100.738C263.014 91.9045 257.065 84.7484 249.72 84.7484C242.379 84.7484 236.425 91.9045 236.425 100.733C236.425 109.562 242.379 116.718 249.72 116.718Z" clip-rule="evenodd" fill-rule="evenodd"></path>
<path fill="white" d="M340.999 186.567C343.233 186.567 345.058 184.723 345.058 182.475V146.835H366.382C390.957 146.835 409.033 128.612 409.033 103.837C409.033 79.0589 390.957 60.835 366.386 60.835H329.829C327.591 60.835 325.766 62.6789 325.766 64.9311V182.475C325.766 184.728 327.595 186.567 329.829 186.567H340.999V186.567ZM345.058 127.382V80.2881H366.382C379.79 80.2881 389.131 89.9115 389.131 103.837C389.131 117.754 379.786 127.382 366.386 127.382H345.062H345.058ZM435.355 186.567C437.592 186.567 439.422 184.723 439.422 182.475V133.327C439.422 111.626 453.84 103.433 469.885 103.433H473.944C476.181 103.433 478.006 101.59 478.006 99.3374V88.2828C478.008 87.2021 477.582 86.1649 476.821 85.3975C476.061 84.6301 475.028 84.1948 473.948 84.1867H469.885C445.508 84.1867 437.088 101.115 437.088 101.115V88.2828C437.088 85.0515 435.262 84.1867 433.029 84.1867H425.202C422.968 84.1867 421.143 86.0306 421.143 88.2828V182.471C421.143 184.723 422.968 186.563 425.202 186.563H435.359L435.355 186.567ZM504.187 186.567C506.425 186.567 508.25 184.723 508.25 182.475V88.2828C508.251 87.2014 507.825 86.1635 507.063 85.3959C506.302 84.6284 505.268 84.1936 504.187 84.1867H493.626C491.393 84.1867 489.568 86.0306 489.568 88.2828V182.471C489.568 184.723 491.393 186.563 493.626 186.563H504.187V186.567ZM571.423 186.567C573.252 186.567 574.468 185.544 575.284 183.494L610.415 90.5393C610.823 89.5164 611.227 88.2872 611.227 87.0579C611.227 85.6267 609.604 84.1911 607.169 84.1911H594.576C592.747 84.1911 591.531 85.012 590.715 87.2642C582.497 111.055 565.71 157.104 565.71 157.104C565.71 157.104 548.993 111.108 540.758 87.2642C539.946 85.012 538.726 84.1911 536.897 84.1911H524.304C521.869 84.1911 520.246 85.6267 520.246 87.2642C520.246 88.2872 520.649 89.5164 521.058 90.5393L556.395 183.498C557.207 185.544 558.427 186.572 560.256 186.572H571.423V186.567ZM655.717 219.362C657.543 219.362 658.762 218.541 659.574 216.289L707.188 90.5393C707.592 89.5164 708 88.2872 708 87.2642C708 85.6267 706.377 84.1911 703.937 84.1911H691.551C689.721 84.1911 688.501 85.012 687.69 87.2642C679.653 110.528 671.665 133.808 663.725 157.104C663.725 157.104 646.24 109.387 637.934 87.2642C637.123 85.012 635.903 84.1911 634.073 84.1911H621.687C619.248 84.1911 617.624 85.6267 617.624 87.2642C617.624 88.2872 618.032 89.5164 618.436 90.5393L652.352 177.356C652.76 178.379 652.962 178.994 652.962 179.402C652.962 180.017 652.76 180.425 652.352 181.654L641.295 213.422C640.892 214.445 640.685 215.266 640.685 216.083C640.685 217.72 642.107 219.362 644.748 219.362H655.717V219.362Z"></path>
</svg>
