<svg xmlns="http://www.w3.org/2000/svg" fill="none" viewBox="0 0 850 263" height="263" width="850">
<path fill="white" d="M214.349 188V173.75L266.099 98.6V97.55L217.349 98.3V83.15H286.649V97.25L235.649 172.55V173.6L288.149 172.85V188H214.349ZM295.18 188L323.83 83.15H347.23L375.88 188H357.88L349.78 155.75L359.23 162.35H311.98L321.13 155.75L313.18 188H295.18ZM321.13 155.15L315.28 147.2H355.78L349.93 155.15L334.18 91.55L343.78 99.2H327.28L336.88 91.55L321.13 155.15ZM393.15 188V83.15H449.85V98.3L402.45 97.85L410.4 90.05L409.8 130.4L402.15 127.7H445.05V142.4H402.15L409.95 139.25L410.55 188H393.15ZM473.641 188L474.391 138.8L473.791 83.3C474.691 83.2 476.491 83.05 479.191 82.85C481.891 82.55 485.041 82.3 488.641 82.1C492.241 81.9 495.891 81.7 499.591 81.5C503.391 81.3 506.841 81.2 509.941 81.2C517.341 81.2 523.741 82.3 529.141 84.5C534.641 86.7 538.841 90.25 541.741 95.15C544.641 100.05 546.091 106.65 546.091 114.95C546.091 123.45 544.241 130.3 540.541 135.5C536.841 140.6 531.441 144.1 524.341 146V146.75L547.591 188H527.641L507.841 148.4L491.341 147.8V188H473.641ZM510.991 134.15C517.791 134.15 522.291 132.6 524.491 129.5C526.691 126.3 527.791 121.4 527.791 114.8C527.791 109.2 527.341 105.05 526.441 102.35C525.541 99.65 524.341 97.85 522.841 96.95C521.841 96.25 520.291 95.75 518.191 95.45C516.191 95.15 513.891 95 511.291 95C507.191 95 503.391 95.15 499.891 95.45C496.491 95.75 493.641 96.05 491.341 96.35L491.191 132.8C494.391 133.2 497.741 133.55 501.241 133.85C504.741 134.05 507.991 134.15 510.991 134.15ZM575.957 188V83.15H632.657V98.3L585.707 97.85L593.657 90.05L592.607 134.15L584.957 127.4H628.907V142.1H584.957L592.607 135.05L593.657 180.95L585.707 173.15L632.657 172.85V188H575.957ZM658.645 188V83.15H681.595L719.545 166.85H720.145L718.045 83.15H734.695V188H711.745L673.945 104.3H673.195L675.295 188H658.645ZM790.838 190.1C786.438 190.1 782.188 189.6 778.088 188.6C774.088 187.7 770.488 186.6 767.288 185.3C764.088 184 761.588 182.9 759.788 182C757.988 181 757.088 180.5 757.088 180.5C757.088 180.5 757.338 179.8 757.838 178.4C758.338 177 758.888 175.4 759.488 173.6C760.188 171.7 760.788 170.1 761.288 168.8C761.888 167.4 762.188 166.7 762.188 166.7C762.188 166.7 763.088 167.1 764.888 167.9C766.688 168.7 769.088 169.6 772.088 170.6C775.188 171.6 778.588 172.5 782.288 173.3C786.088 174.1 789.938 174.5 793.838 174.5C796.138 174.5 797.938 174.3 799.238 173.9C800.538 173.5 801.488 173.1 802.088 172.7C803.688 171.6 804.888 170.05 805.688 168.05C806.588 166.05 807.038 163.35 807.038 159.95C807.038 156.75 806.138 154.1 804.338 152C802.638 149.8 800.338 147.9 797.438 146.3C794.538 144.6 791.388 143.05 787.988 141.65C784.388 140.05 780.888 138.4 777.488 136.7C774.088 135 771.038 133.05 768.338 130.85C765.738 128.55 763.638 125.7 762.038 122.3C760.538 118.9 759.788 114.7 759.788 109.7C759.788 104.3 761.038 99.5 763.538 95.3C766.138 91 769.938 87.6 774.938 85.1C779.938 82.5 786.138 81.2 793.538 81.2C797.038 81.2 800.388 81.4 803.588 81.8C806.888 82.2 809.838 82.65 812.438 83.15C815.138 83.65 817.238 84.15 818.738 84.65C820.338 85.05 821.138 85.25 821.138 85.25L818.288 99.65C818.288 99.65 817.438 99.5 815.738 99.2C814.138 98.9 811.938 98.55 809.138 98.15C806.438 97.65 803.488 97.25 800.288 96.95C797.088 96.65 793.938 96.5 790.838 96.5C788.638 96.5 786.888 96.65 785.588 96.95C784.288 97.25 783.138 97.75 782.138 98.45C781.138 99.05 780.138 100.2 779.138 101.9C778.238 103.5 777.788 105.85 777.788 108.95C777.788 112.05 778.688 114.7 780.488 116.9C782.288 119 784.638 120.8 787.538 122.3C790.538 123.8 793.738 125.25 797.138 126.65C800.238 128.05 803.438 129.6 806.738 131.3C810.038 132.9 813.038 134.85 815.738 137.15C818.538 139.35 820.788 142.2 822.488 145.7C824.188 149.2 825.038 153.5 825.038 158.6C825.038 164.9 823.588 170.4 820.688 175.1C817.888 179.8 813.888 183.5 808.688 186.2C803.588 188.8 797.638 190.1 790.838 190.1Z"></path>
<path fill="white" d="M113.099 143.724C109.487 149.977 101.49 152.121 95.2367 148.509C88.983 144.899 86.8398 136.9 90.4493 130.646C94.0616 124.393 102.058 122.249 108.312 125.862C114.568 129.471 116.711 137.468 113.099 143.724V143.724Z"></path>
<path fill="white" d="M97.8507 139.895C94.2411 146.151 86.2422 148.292 79.988 144.682C73.7343 141.07 71.5911 133.073 75.2028 126.82C78.8129 120.564 86.8097 118.422 93.0655 122.032C99.3192 125.644 101.462 133.641 97.8507 139.895Z"></path>
<path fill="white" d="M87.6963 139.877C84.0868 146.133 76.0878 148.274 69.8342 144.664C63.5805 141.053 61.4373 133.056 65.049 126.802C68.6585 120.546 76.6553 118.405 82.9117 122.015C89.1653 125.626 91.3085 133.623 87.6963 139.877Z"></path>
<path fill="white" d="M76.0346 140.236C72.4229 146.49 64.4261 148.634 58.1724 145.022C51.9166 141.412 49.775 133.415 53.3851 127.159C56.9968 120.905 64.9936 118.762 71.2472 122.374C77.5036 125.984 79.6447 133.983 76.0346 140.236V140.236Z"></path>
<path fill="white" d="M61.9771 132.121C59.9218 135.678 55.3715 136.9 51.8119 134.845C48.2522 132.79 47.0331 128.239 49.0884 124.679C51.1436 121.12 55.6939 119.9 59.2535 121.956C62.8111 124.011 64.0302 128.562 61.9771 132.121Z"></path>
<path fill="white" d="M63.9403 143.602C61.8851 147.161 57.3348 148.381 53.7751 146.326C50.216 144.271 48.9964 139.72 51.0516 136.161C53.1069 132.603 57.6577 131.383 61.2168 133.437C64.7765 135.492 65.9961 140.043 63.9403 143.602V143.602Z"></path>
<path fill="white" d="M139.702 137.578C136.423 143.257 129.16 145.204 123.48 141.925C117.8 138.644 115.854 131.382 119.133 125.703C122.411 120.023 129.675 118.077 135.355 121.356C141.035 124.634 142.981 131.898 139.702 137.578Z"></path>
<path fill="white" d="M151.847 144.591C148.568 150.271 141.305 152.217 135.625 148.939C129.945 145.658 127.999 138.397 131.278 132.717C134.557 127.035 141.82 125.091 147.5 128.369C153.179 131.648 155.126 138.912 151.847 144.591Z"></path>
<path fill="white" d="M163.649 154.918C160.37 160.598 153.108 162.544 147.427 159.263C141.747 155.985 139.8 148.723 143.081 143.041C146.36 137.362 153.623 135.415 159.303 138.696C164.983 141.975 166.929 149.239 163.649 154.918Z"></path>
<path fill="white" d="M153.471 163.701C153.525 163.739 153.584 163.779 153.638 163.816C153.582 163.777 153.527 163.739 153.471 163.701ZM121.094 122.389C96.5266 116.833 70.3239 117.457 46.5154 121.968C43.6203 122.516 41.454 123.901 39.9619 125.757C41.2904 124.174 43.1338 122.934 45.5328 122.261C45.7109 122.255 45.8868 122.246 46.0627 122.242C46.0649 122.242 46.0692 122.242 46.0713 122.242C68.7315 121.557 87.7151 129.166 100.235 136.382C100.26 136.396 100.285 136.411 100.31 136.424C100.313 136.426 100.313 136.426 100.313 136.426C107.924 140.821 113.132 145.063 115.311 147.19C115.324 147.201 115.334 147.209 115.345 147.219C115.349 147.224 115.353 147.23 115.355 147.234C115.378 147.255 115.399 147.274 115.42 147.295C115.424 147.299 115.428 147.303 115.435 147.31C115.441 147.316 115.447 147.322 115.453 147.331C126.469 149.901 137.087 153.873 146.773 159.465C148.731 160.596 150.65 161.795 152.532 163.06C142.876 143.536 126.136 126.313 121.094 122.389"></path>
<path fill="white" d="M45.5159 122.281C43.1169 122.953 41.2735 124.195 39.9428 125.777C39.8699 125.867 39.7943 125.959 39.723 126.052C41.0659 124.338 42.9785 122.993 45.5159 122.281V122.281ZM46.0458 122.262C45.8699 122.268 45.6918 122.274 45.5159 122.281C45.6918 122.274 45.8699 122.268 46.0458 122.262ZM115.434 147.35C90.2265 138.452 52.7312 147.105 47.414 146.845L47.3802 146.849C46.0667 146.592 44.8686 146.131 43.7937 145.51C40.8584 143.816 38.8412 140.928 37.894 137.738C38.8391 140.931 40.8584 143.818 43.7916 145.512C45.5138 146.506 47.5502 147.088 49.8694 147.082C62.5612 147.031 74.7505 150.451 85.3662 156.579C96.1198 162.788 105.257 171.776 111.672 182.763C112.935 184.927 114.521 186.469 116.27 187.481C126.023 193.11 140.892 182.161 133.854 170.11C131.663 166.358 129.189 162.82 126.54 159.434C123.538 155.76 119.863 151.747 115.434 147.35V147.35ZM115.416 147.329C115.422 147.336 115.43 147.341 115.434 147.35C115.43 147.341 115.422 147.336 115.416 147.329ZM115.338 147.253C115.361 147.274 115.38 147.295 115.401 147.315C115.38 147.295 115.361 147.274 115.338 147.253ZM115.294 147.209C115.305 147.22 115.315 147.23 115.325 147.241C115.315 147.23 115.305 147.22 115.294 147.209ZM100.218 136.401C87.6955 129.188 68.7125 121.576 46.0544 122.262C68.7103 121.578 87.6955 129.188 100.218 136.401ZM100.291 136.445C100.294 136.445 100.294 136.445 100.294 136.445C100.294 136.445 100.294 136.445 100.291 136.445Z"></path>
<path fill="white" d="M100.271 136.432C100.248 136.417 100.223 136.403 100.198 136.388C87.6776 129.174 68.6902 121.565 46.0343 122.248C46.03 122.25 46.0279 122.25 46.0258 122.248C45.8498 122.255 45.6718 122.261 45.4958 122.267C42.9606 122.98 41.0459 124.324 39.7029 126.038C37.195 129.239 36.6903 133.721 37.8761 137.727C38.8212 140.915 40.8383 143.802 43.7737 145.497C44.8485 146.117 46.0467 146.579 47.3602 146.836L47.3961 146.832C52.7133 147.092 90.2064 138.439 115.416 147.337C115.41 147.328 115.402 147.322 115.395 147.315C115.391 147.312 115.387 147.305 115.383 147.301C115.36 147.282 115.341 147.261 115.318 147.24C115.316 147.236 115.31 147.232 115.308 147.227C115.295 147.217 115.284 147.207 115.274 147.196C113.095 145.07 107.887 140.827 100.276 136.434C100.276 136.434 100.273 136.432 100.271 136.432Z"></path>
<path fill="white" d="M121.487 91.5304C98.4881 78.2518 71.1977 71.8201 44.2591 73.1775C30.5573 73.871 28.3304 91.8656 37.6327 97.2354C39.4471 98.2829 41.7013 98.8482 44.3932 98.7125C67.0368 97.5685 89.3719 102.657 108.134 113.489C112.682 116.116 117.021 119.078 121.104 122.374C126.145 126.298 142.886 143.521 152.541 163.048C152.549 163.06 152.555 163.077 152.564 163.094C152.867 163.295 153.179 163.483 153.481 163.686C153.535 163.724 153.592 163.762 153.646 163.802C153.295 163.552 152.924 163.33 152.564 163.094C142.912 143.549 126.149 126.3 121.104 122.374C138.744 126.172 150.707 130.348 158.7 134.959C165.624 138.956 169.565 143.285 171.637 147.992L171.645 148.011L171.643 148.015L171.671 148.089C173.703 155.618 168.915 164.742 161.849 165.949C169.454 164.657 174.432 154.202 171.119 146.421C160.971 122.585 143.129 104.025 121.487 91.5304"></path>
<path fill="white" d="M158.755 134.979C150.762 130.369 138.799 126.195 121.159 122.395C126.203 126.321 142.966 143.569 152.618 163.115C152.978 163.353 153.35 163.573 153.701 163.823C154.062 164.074 154.42 164.3 154.778 164.507C157.284 165.953 159.704 166.345 161.904 165.97C168.97 164.763 173.757 155.639 171.725 148.109L171.698 148.036L171.7 148.032L171.692 148.013C169.62 143.308 165.679 138.979 158.755 134.979"></path>
</svg>
