<svg xmlns="http://www.w3.org/2000/svg" fill="none" viewBox="0 0 850 263" height="263" width="850">
<path fill="white" d="M341.134 168.091L316.121 99.7879H329.363L348.981 155.406L368.599 99.7879H381.841L356.828 168.091H341.134ZM407.344 168.091V99.7879H420.096V168.091H407.344ZM474.045 169.067C469.14 169.067 464.726 168.091 460.803 166.627C456.879 165.164 453.936 162.236 451.484 159.309C449.032 155.894 448.051 151.991 448.051 147.6H461.293C461.293 151.015 462.764 153.455 464.726 155.406C466.688 157.358 470.121 158.821 474.045 158.821C477.478 158.821 479.93 157.845 481.892 156.382C483.853 154.918 484.834 152.479 484.834 150.039C484.834 147.112 483.853 145.161 482.382 143.697C480.42 142.233 478.459 140.77 475.516 139.794C472.573 138.818 469.631 137.842 466.197 136.867C460.803 134.915 456.879 132.476 453.936 130.036C450.994 127.109 450.013 123.206 450.013 118.815C450.013 114.912 450.994 111.497 452.955 108.57C454.917 105.642 457.86 103.203 461.293 101.739C464.726 100.276 468.65 99.3 473.064 99.3C477.478 99.3 481.892 100.276 485.325 101.739C488.758 103.203 491.701 105.642 493.662 108.57C495.624 111.497 496.605 114.912 497.096 118.815H483.853C483.853 116.376 482.873 114.424 480.911 112.473C478.949 110.521 476.497 109.545 473.554 109.545C470.611 109.545 468.65 110.033 466.688 111.497C464.726 112.961 463.745 114.912 463.745 117.352C463.745 119.791 464.236 121.255 465.707 122.718C467.178 124.182 469.14 125.158 471.592 126.133C474.045 127.109 476.987 128.085 479.93 129.061C483.363 130.036 486.306 131.5 489.248 132.964C492.191 134.427 494.153 136.379 496.115 139.306C497.586 141.745 498.567 145.161 498.567 149.064C498.567 152.479 497.586 155.894 495.624 158.821C493.662 161.748 491.21 164.188 487.287 166.139C483.363 168.091 479.439 169.067 474.045 169.067ZM558.892 169.067C552.025 169.067 546.14 167.603 540.745 164.676C535.35 161.748 531.427 157.358 528.484 151.991C525.541 146.624 524.07 140.77 524.07 133.452C524.07 126.133 525.541 120.279 528.484 114.912C531.427 109.545 535.35 105.642 540.745 102.227C546.14 98.8121 552.025 97.8364 558.892 97.8364C565.758 97.8364 571.643 99.3 577.038 102.227C582.433 105.155 586.357 109.545 589.299 114.912C592.242 120.279 593.713 126.133 593.713 133.452C593.713 140.77 592.242 146.624 589.299 151.991C586.357 157.358 582.433 161.261 577.038 164.676C571.643 167.603 565.758 169.067 558.892 169.067ZM558.892 157.845C565.268 157.845 570.662 155.894 574.586 151.503C578.51 147.112 580.471 141.258 580.471 133.939C580.471 126.621 578.51 120.767 574.586 116.376C570.662 111.985 565.268 110.033 558.892 110.033C552.516 110.033 547.121 111.985 543.197 116.376C539.274 120.767 537.312 126.621 537.312 133.939C537.312 141.258 539.274 147.112 543.197 151.503C547.121 155.894 552.516 157.845 558.892 157.845ZM621.669 168.091V99.7879H634.42V158.333H664.828V168.091H621.669ZM693.274 168.091V99.7879H706.025V168.091H693.274ZM759.975 169.067C755.07 169.067 750.656 168.091 746.733 166.627C742.809 165.164 739.866 162.236 737.414 159.309C734.962 155.894 733.981 151.991 733.981 147.6H747.223C747.223 151.015 748.694 153.455 750.656 155.406C752.618 157.358 756.051 158.821 759.975 158.821C763.408 158.821 765.86 157.845 767.822 156.382C769.783 154.918 770.764 152.479 770.764 150.039C770.764 147.112 769.783 145.161 768.312 143.697C766.35 142.233 764.389 140.77 761.446 139.794C758.503 138.818 755.56 137.842 752.127 136.867C746.732 134.915 742.809 132.476 739.866 130.036C736.924 127.109 735.943 123.206 735.943 118.815C735.943 114.912 736.924 111.497 738.885 108.57C740.847 105.642 743.79 103.203 747.223 101.739C750.656 100.276 754.58 99.3 758.994 99.3C763.408 99.3 767.822 100.276 771.255 101.739C774.688 103.203 777.631 105.642 779.592 108.57C781.554 111.497 782.535 114.912 783.025 118.815H769.783C769.783 116.376 768.802 114.424 766.841 112.473C764.879 110.521 762.427 109.545 759.484 109.545C756.541 109.545 754.58 110.033 752.618 111.497C750.656 112.961 749.675 114.912 749.675 117.352C749.675 119.791 750.166 121.255 751.637 122.718C753.108 124.182 755.07 125.158 757.522 126.133C759.975 127.109 762.917 128.085 765.86 129.061C769.293 130.036 772.236 131.5 775.178 132.964C778.121 134.427 780.083 136.379 782.045 139.306C783.516 141.745 784.497 145.161 784.497 149.064C784.497 152.479 783.516 155.894 781.554 158.821C779.592 161.748 777.14 164.188 773.217 166.139C769.293 168.091 765.369 169.067 759.975 169.067ZM176.834 52.9515L138.58 148.088L161.14 201.267L221.465 55.3909C221.955 53.4394 220.484 51 218.522 51H179.777C178.306 51 177.325 51.9758 176.834 52.9515Z"></path>
<path fill="white" d="M40 51L91.0064 170.53C101.796 195.412 126.318 212 154.274 212L103.268 92.4697C92.4777 67.1 67.465 51 40 51Z"></path>
</svg>
