<svg xmlns="http://www.w3.org/2000/svg" fill="none" viewBox="0 0 850 263" height="263" width="850">
<path fill="white" d="M218.589 100.384L255.438 159.686V100.384H270.635V184.046H255.172L217.172 122.682V184.046H201.96V100.384H218.589ZM330.007 128.87C332.154 131.621 333.768 134.806 334.834 138.412C335.915 142.019 336.448 145.33 336.448 148.333C336.448 151.336 336.28 154.044 335.929 156.458H295.473C295.641 161.524 296.89 165.649 299.206 168.835C301.521 172.02 305.043 173.606 309.772 173.606C316.045 173.606 319.777 170.855 320.984 165.355H336.322C335.297 171.627 332.407 176.567 327.692 180.187C322.794 183.962 316.831 185.856 309.786 185.856C301.535 185.856 294.631 182.853 289.046 176.833C283.293 170.561 280.416 162.52 280.416 152.725C280.416 142.664 283.293 134.595 289.046 128.491C294.547 122.654 301.465 119.721 309.786 119.721C318.444 119.721 325.194 122.766 330.007 128.87ZM309.898 131.831C305.605 131.831 302.251 133.234 299.851 136.027C297.452 138.819 296.034 142.412 295.599 146.79H322.275C322.275 139.998 320.128 135.451 315.834 133.122C314.192 132.266 312.214 131.831 309.898 131.831ZM404.155 184.046H385.604L370.14 163.937L355.701 184.046H337.023L361.37 152.852L337.023 121.265H355.701L371.038 141.373L385.604 121.265H404.155L379.921 152.852L404.155 184.046ZM451.486 182.502C445.817 184.734 441.355 185.856 438.085 185.856C434.816 185.856 431.967 185.463 429.512 184.691C427.07 183.92 424.895 182.755 423 181.211C419.043 177.689 417.079 172.834 417.079 166.646V131.578H408.322V121.391H417.079V104.889H432.29V121.391H449.297V131.578H432.29V166.126C432.29 171.276 434.732 173.858 439.629 173.858C442.127 173.858 445.34 173.171 449.297 171.796L451.486 182.502ZM509.174 100.384L532.103 150.143L555.032 100.384H576.039V184.046H560.701V120.493L536.987 174.897H527.066L502.607 118.683V184.046H487.396V100.384H509.174ZM611.429 147.435C616.41 147.435 622.164 148.249 628.689 149.891V143.703C628.689 139.324 627.805 136.069 626.051 133.964C624.297 131.859 621.406 130.807 617.421 130.807C613.422 130.807 610.363 131.607 608.202 133.192C606.055 134.778 604.974 137.037 604.974 139.956H588.346C588.346 132.827 590.857 127.663 595.881 124.492C600.905 121.307 607.935 119.721 616.944 119.721C629.826 119.721 638.161 124.239 641.936 133.262C643.227 136.349 643.872 140.012 643.872 144.222V184.06H630.597L629.433 175.683C625.391 182.474 619.217 185.87 610.882 185.87C602.813 185.87 596.541 183.892 592.064 179.934C587.939 176.16 585.876 171.361 585.876 165.565C585.876 159.77 588.149 155.293 592.71 152.164C597.298 149.007 603.529 147.435 611.429 147.435ZM628.689 159.559C623.623 158.184 618.894 157.496 614.516 157.496C606.265 157.496 602.154 160.247 602.154 165.748C602.154 168.063 603.094 170.07 604.988 171.739C606.883 173.409 609.899 174.251 614.067 174.251C618.235 174.251 621.673 172.848 624.381 170.056C627.089 167.263 628.521 163.769 628.689 159.559ZM694.614 182.502C688.945 184.734 684.482 185.856 681.213 185.856C677.943 185.856 675.094 185.463 672.639 184.691C670.197 183.92 668.022 182.755 666.128 181.211C662.171 177.689 660.206 172.834 660.206 166.646V131.578H651.45V121.391H660.206V104.889H675.417V121.391H692.425V131.578H675.417V166.126C675.417 171.276 677.859 173.858 682.756 173.858C685.254 173.858 688.467 173.171 692.425 171.796L694.614 182.502ZM735.083 182.502C729.414 184.734 724.952 185.856 721.682 185.856C718.413 185.856 715.564 185.463 713.109 184.691C710.667 183.92 708.492 182.755 706.597 181.211C702.64 177.689 700.676 172.834 700.676 166.646V131.578H691.919V121.391H700.676V104.889H715.887V121.391H732.894V131.578H715.887V166.126C715.887 171.276 718.329 173.858 723.226 173.858C725.724 173.858 728.937 173.171 732.894 171.796L735.083 182.502ZM788.224 128.87C790.371 131.621 791.985 134.806 793.052 138.412C794.118 142.019 794.666 145.33 794.666 148.333C794.666 151.336 794.497 154.044 794.146 156.458H753.691C753.859 161.524 755.108 165.649 757.423 168.835C759.739 172.02 763.261 173.606 767.99 173.606C774.262 173.606 777.995 170.855 779.202 165.355H794.539C793.515 171.627 790.624 176.567 785.909 180.187C781.012 183.962 775.048 185.856 768.004 185.856C759.753 185.856 752.849 182.853 747.264 176.833C741.51 170.561 738.634 162.52 738.634 152.725C738.634 142.664 741.51 134.595 747.264 128.491C752.764 122.654 759.682 119.721 768.004 119.721C776.662 119.721 783.411 122.766 788.224 128.87ZM768.116 131.831C763.822 131.831 760.468 133.234 758.069 136.027C755.669 138.819 754.252 142.412 753.817 146.79H780.493C780.493 139.998 778.346 135.451 774.052 133.122C772.41 132.266 770.431 131.831 768.116 131.831ZM821.285 133.768C825.06 124.745 830.729 120.226 838.292 120.226C839.752 120.226 841.604 120.521 843.835 121.124L843.583 136.335C841.183 135.816 838.812 135.564 836.496 135.564C826.365 135.564 821.285 142.566 821.285 156.57V184.032H806.074V121.265H821.285V133.768Z" clip-rule="evenodd" fill-rule="evenodd"></path>
<path fill="white" d="M651.506 121.405H733.245V131.873H651.506V121.405Z" clip-rule="evenodd" fill-rule="evenodd"></path>
<path fill="white" d="M30.6093 103.78C27.8028 101.001 23.986 99.4297 20.0008 99.4297C11.7216 99.4297 5 106.067 5 114.262V171.038C5 179.233 11.7216 185.87 20.0008 185.87H77.4077C81.3789 185.87 85.1958 184.312 88.0163 181.52C93.8679 175.724 93.8679 166.337 88.0163 160.541L30.6093 103.78Z"></path>
<path fill="white" d="M48.8797 167.993C48.8797 177.844 56.9484 185.828 66.9114 185.828H142.827C148.833 185.828 153.253 183.302 156.116 178.25C158.937 172.287 158.151 166.8 153.773 161.762L73.4506 82.2541C68.3708 77.6936 62.2106 76.6131 56.1906 79.9247C51.6441 82.7593 49.2165 86.7445 48.8797 91.8945V167.993Z"></path>
<path fill="white" d="M48.8797 121.854L90.6825 163.292C95.9166 168.484 95.8745 176.875 90.6124 182.025C88.1005 184.495 84.6906 185.87 81.1404 185.87H63.4594C55.4048 185.87 48.8797 179.429 48.8797 171.487V121.854Z"></path>
</svg>
