<svg xmlns="http://www.w3.org/2000/svg" fill="none" viewBox="0 0 850 263" height="263" width="850">
<path fill="white" d="M99.561 188L124.887 94.8698H140.699L166.025 188H154.501L147.399 160.128L153.027 163.344H112.827L118.187 160.128L111.085 188H99.561ZM118.455 158.654L114.703 153.428H150.883L147.131 158.654L131.989 99.8278L138.287 104.786H127.299L133.597 99.8278L118.455 158.654Z"></path>
<path fill="white" d="M180.746 188V94.8698H195.888L233.81 174.466H234.212L232.47 94.8698H243.726V188H228.584L190.662 108.404H190.26L192.002 188H180.746Z"></path>
<path fill="white" d="M284.586 188L284.988 153.294L258.59 94.8698H270.784L289.946 141.502H290.75L309.778 94.8698H321.972L295.574 153.294L295.976 188H284.586Z"></path>
<path fill="white" d="M358.94 189.876C355.009 189.876 351.213 189.429 347.55 188.536C343.977 187.732 340.761 186.749 337.902 185.588C335.043 184.426 332.81 183.444 331.202 182.64C329.594 181.746 328.79 181.3 328.79 181.3C328.79 181.3 329.013 180.674 329.46 179.424C329.907 178.173 330.398 176.744 330.934 175.136C331.559 173.438 332.095 172.009 332.542 170.848C333.078 169.597 333.346 168.972 333.346 168.972C333.346 168.972 334.15 169.329 335.758 170.044C337.366 170.758 339.51 171.562 342.19 172.456C344.959 173.349 347.997 174.153 351.302 174.868C354.697 175.582 358.136 175.94 361.62 175.94C363.675 175.94 365.283 175.761 366.444 175.404C367.605 175.046 368.454 174.689 368.99 174.332C370.419 173.349 371.491 171.964 372.206 170.178C373.01 168.391 373.412 165.979 373.412 162.942C373.412 160.083 372.608 157.716 371 155.84C369.481 153.874 367.427 152.177 364.836 150.748C362.245 149.229 359.431 147.844 356.394 146.594C353.178 145.164 350.051 143.69 347.014 142.172C343.977 140.653 341.252 138.911 338.84 136.946C336.517 134.891 334.641 132.345 333.212 129.308C331.872 126.27 331.202 122.518 331.202 118.052C331.202 113.228 332.319 108.94 334.552 105.188C336.875 101.346 340.269 98.3091 344.736 96.0758C349.203 93.7531 354.741 92.5918 361.352 92.5918C364.479 92.5918 367.471 92.7705 370.33 93.1278C373.278 93.4851 375.913 93.8871 378.236 94.3338C380.648 94.7805 382.524 95.2271 383.864 95.6738C385.293 96.0311 386.008 96.2098 386.008 96.2098L383.462 109.074C383.462 109.074 382.703 108.94 381.184 108.672C379.755 108.404 377.789 108.091 375.288 107.734C372.876 107.287 370.241 106.93 367.382 106.662C364.523 106.394 361.709 106.26 358.94 106.26C356.975 106.26 355.411 106.394 354.25 106.662C353.089 106.93 352.061 107.376 351.168 108.002C350.275 108.538 349.381 109.565 348.488 111.084C347.684 112.513 347.282 114.612 347.282 117.382C347.282 120.151 348.086 122.518 349.694 124.484C351.302 126.36 353.401 127.968 355.992 129.308C358.672 130.648 361.531 131.943 364.568 133.194C367.337 134.444 370.196 135.829 373.144 137.348C376.092 138.777 378.772 140.519 381.184 142.574C383.685 144.539 385.695 147.085 387.214 150.212C388.733 153.338 389.492 157.18 389.492 161.736C389.492 167.364 388.197 172.277 385.606 176.476C383.105 180.674 379.531 183.98 374.886 186.392C370.33 188.714 365.015 189.876 358.94 189.876Z"></path>
<path fill="white" d="M408.934 188.134L409.47 144.986L408.934 94.3338H424.746L424.21 135.874L424.746 188L408.934 188.134Z"></path>
<path fill="white" d="M482.85 189.742C477.937 189.742 473.202 189.116 468.646 187.866C464.18 186.526 460.204 184.114 456.72 180.63C453.326 177.146 450.646 172.188 448.68 165.756C446.715 159.324 445.732 151.016 445.732 140.832C445.732 130.826 446.67 122.697 448.546 116.444C450.422 110.101 453.058 105.188 456.452 101.704C459.936 98.2198 464.09 95.8525 468.914 94.6018C473.738 93.2618 479.054 92.5918 484.86 92.5918C487.808 92.5918 490.89 92.7705 494.106 93.1278C497.412 93.3958 500.538 93.7531 503.486 94.1998C506.434 94.6465 508.757 95.0485 510.454 95.4058L508.712 108.404C506.122 108.136 502.682 107.778 498.394 107.332C494.196 106.796 489.416 106.528 484.056 106.528C479.768 106.528 476.374 106.751 473.872 107.198C471.46 107.644 469.629 108.493 468.378 109.744C466.86 111.173 465.43 114.344 464.09 119.258C462.84 124.082 462.214 131.273 462.214 140.832C462.214 148.068 462.616 153.874 463.42 158.252C464.224 162.54 465.118 165.8 466.1 168.034C467.083 170.178 467.932 171.652 468.646 172.456C469.629 173.349 471.237 174.198 473.47 175.002C475.793 175.806 479.188 176.208 483.654 176.208C486.245 176.208 488.568 176.074 490.622 175.806C492.677 175.538 494.374 175.18 495.714 174.734V142.708L502.682 150.078L481.778 148.872V137.482H510.856V184.114C510.856 184.114 509.65 184.605 507.238 185.588C504.826 186.481 501.476 187.374 497.188 188.268C492.99 189.25 488.21 189.742 482.85 189.742Z"></path>
<path fill="white" d="M534.689 188V94.3338H555.191L589.093 169.106H589.629L587.753 94.3338H602.627V188H582.125L548.357 113.228H547.687L549.563 188H534.689Z"></path>
<path fill="white" d="M614.994 188L640.588 94.3338H661.492L687.086 188H671.006L663.77 159.19L672.212 165.086H630.002L638.176 159.19L631.074 188H614.994ZM638.176 158.654L632.95 151.552H669.13L663.904 158.654L649.834 101.838L658.41 108.672H643.67L652.246 101.838L638.176 158.654Z"></path>
<path fill="white" d="M699.834 188V94.3338H715.512L714.842 181.702L707.874 174.198L749.548 173.796V188H699.834Z"></path>
</svg>
