<svg xmlns="http://www.w3.org/2000/svg" fill="none" viewBox="0 0 850 263" height="263" width="850">
<path fill="white" d="M155.476 93.3156H164.952L132.063 175.539H122.029L89 93.3156H98.616L123.004 157.283L126.906 167.874H127.324L131.087 157.283L155.476 93.3156Z"></path>
<path fill="white" d="M230.87 152.405C230.87 160.112 228.599 166.174 224.042 170.592C219.485 175.009 212.572 177.211 203.277 177.211C192.866 177.211 184.505 174.703 178.192 169.686L179.585 162.021C185.815 167.219 193.661 169.825 203.137 169.825C209.827 169.825 214.802 168.32 218.049 165.296C221.296 162.272 222.927 158.258 222.927 153.241C222.927 149.241 221.394 145.98 218.328 143.416C215.262 140.866 211.569 138.887 207.249 137.493C202.928 136.1 198.608 134.608 194.288 133.034C189.968 131.459 186.275 129.062 183.209 125.856C180.143 122.651 178.61 118.54 178.61 113.523C178.61 106.736 180.979 101.44 185.717 97.6357C190.456 93.8311 197.187 91.9219 205.925 91.9219C213.91 91.9219 221.115 93.4967 227.526 96.6602L226.69 104.046C219.903 100.98 212.935 99.4474 205.785 99.4474C199.932 99.4474 195.291 100.674 191.849 103.14C188.407 105.607 186.693 108.924 186.693 113.105C186.693 116.826 188.198 119.836 191.222 122.163C194.246 124.491 197.911 126.302 202.232 127.598C206.552 128.895 210.9 130.316 215.262 131.849C219.624 133.382 223.317 135.849 226.341 139.235C229.351 142.622 230.87 147.012 230.87 152.405Z"></path>
<path fill="white" d="M320.898 133.172C320.898 147.666 317.999 158.578 312.188 165.922C306.376 173.267 298.363 176.932 288.148 176.932C279.688 176.932 273.138 174.66 268.498 170.103L268.08 170.242L268.358 181.531V197H246.479V91.6425L261.669 90.667L265.85 98.0531C271.982 92.3811 279.605 89.5521 288.705 89.5521C299.478 89.5521 307.547 92.9246 312.884 99.6558C318.222 106.387 320.898 117.564 320.898 133.172ZM298.46 133.033C298.46 123.654 297.276 117.271 294.907 113.871C292.538 110.484 288.524 108.784 282.852 108.784C276.441 108.784 271.605 111.056 268.358 115.613V151.847C271.522 156.683 276.204 159.094 282.434 159.094C287.73 159.094 291.729 157.254 294.419 153.589C297.109 149.924 298.46 143.067 298.46 133.033Z"></path>
<path fill="white" d="M382.217 175.538L380.544 167.455L380.126 167.315C374.733 173.726 367.124 176.931 357.271 176.931C349.007 176.931 342.568 174.59 337.969 169.894C333.371 165.197 331.071 158.215 331.071 148.92C331.071 140.934 333.719 134.537 339.015 129.757C344.31 124.977 351.697 122.58 361.173 122.58C366.929 122.58 372.322 123.375 377.339 124.949V120.072C377.339 115.793 376.085 112.658 373.576 110.665C371.068 108.672 366.985 107.669 361.313 107.669C353.23 107.669 345.467 109.202 338.039 112.267L336.227 94.9866C344.965 91.2657 354.623 89.4122 365.215 89.4122C377.478 89.4122 386.147 92.1019 391.206 97.4952C396.264 102.888 398.801 111.487 398.801 123.277V175.538H382.217ZM377.339 149.895V139.304C374.371 138.091 370.371 137.492 365.354 137.492C355.975 137.492 351.279 141.213 351.279 148.641C351.279 156.069 355.278 159.79 363.264 159.79C366.985 159.79 370.26 158.814 373.089 156.863C375.918 154.912 377.339 152.585 377.339 149.895Z"></path>
<path fill="white" d="M523.669 107.251H504.855V150.453C504.855 156.683 508.2 159.791 514.889 159.791C517.579 159.791 519.809 159.47 521.579 158.815L522.833 174.563C519.112 176.138 514.29 176.932 508.339 176.932C500.075 176.932 493.818 174.675 489.595 170.173C485.373 165.672 483.254 159.331 483.254 151.15V107.251H473.778V91.0854H484.23L487.853 71.9928L504.855 70.4599V91.0854H523.669V107.251Z"></path>
<path fill="white" d="M560.182 175.539H538.023V91.6431L560.182 90.6675V175.539Z"></path>
<path fill="white" d="M635.144 93.3148L633.89 111.711C628.873 109.941 624.079 109.063 619.536 109.063C611.732 109.063 606.297 110.874 603.231 114.498C600.165 118.121 598.632 124.434 598.632 133.451C598.632 142.273 600.346 148.683 603.788 152.683C607.23 156.683 612.331 158.675 619.118 158.675C624.79 158.675 629.891 157.602 634.448 155.47L635.981 172.333C630.685 175.58 623.48 177.211 614.38 177.211C588.918 177.211 576.194 162.633 576.194 133.451C576.194 104.283 589.058 89.6914 614.798 89.6914C622.24 89.6914 629.013 90.9039 635.144 93.3148Z"></path>
<path fill="white" d="M672.214 175.538H650.335V66.9755L672.214 66V175.538Z"></path>
<path fill="white" d="M729.492 177.071C715.096 177.071 704.477 173.336 697.648 165.853C690.819 158.369 687.405 147.164 687.405 132.197C687.405 118.442 690.499 107.906 696.673 100.562C702.846 93.2173 712.17 89.5521 724.615 89.5521C735.666 89.5521 744.237 92.8271 750.327 99.3771C756.417 105.927 759.455 115.752 759.455 128.852C759.455 133.033 759.274 136.433 758.898 139.025H709.703C710.26 145.994 712.309 150.969 715.835 153.937C719.361 156.906 724.796 158.397 732.14 158.397C739.944 158.397 747.47 157.003 754.717 154.216L757.086 171.636C749.101 175.259 739.903 177.071 729.492 177.071ZM709.285 124.671H739.666C739.387 113.244 734.412 107.53 724.754 107.53C719.556 107.53 715.793 108.826 713.466 111.432C711.152 114.038 709.759 118.442 709.285 124.671Z"></path>
<path fill="white" d="M437.474 175.539H415.315V91.6431L437.474 90.6675V175.539Z"></path>
<path fill="white" d="M452.205 115.445C459.132 115.445 464.747 109.83 464.747 102.903C464.747 95.9757 459.132 90.3602 452.205 90.3602C445.278 90.3602 439.662 95.9757 439.662 102.903C439.662 109.83 445.278 115.445 452.205 115.445Z"></path>
</svg>
