<svg xmlns="http://www.w3.org/2000/svg" fill="none" viewBox="0 0 850 263" height="263" width="850">
<path fill="white" d="M181.895 163.643C182.045 154.811 182.045 148.187 182.045 136.758C182.045 125.328 182.045 118.639 181.895 109.872H197.43C197.229 118.574 197.28 125.198 197.28 136.693C197.28 147.992 197.28 154.746 197.43 163.643H181.895Z"></path>
<path fill="white" d="M277.072 109.873C276.921 116.497 276.87 125.264 276.87 136.693C276.87 148.513 276.87 156.5 276.971 163.644H261.133C257.865 158.838 240.62 143.642 231.067 135.005C228.754 132.862 226.341 130.719 224.431 128.381C224.632 132.667 224.682 136.953 224.833 141.369C224.883 152.474 224.933 160.267 225.134 163.579H210.755C210.755 156.305 210.906 148.188 210.906 136.693C210.906 125.264 210.906 117.146 210.755 109.808H228.855C230.916 113.249 249.972 130.719 258.418 138.252C260.43 140.005 262.39 141.304 263.899 143.187C263.698 139.226 263.547 135.459 263.547 132.537C263.547 122.601 263.396 113.639 263.145 109.808H277.072V109.873Z"></path>
<path fill="white" d="M324.03 165.397C300.65 165.397 287.075 156.695 287.075 136.433C287.075 115.067 301.254 108.184 323.225 108.184C344.191 108.184 357.213 112.6 357.213 128.705C357.213 129.225 357.213 129.809 357.163 130.264C355.504 130.134 352.537 130.069 349.722 130.069C346.655 130.069 343.789 130.134 342.079 130.264C342.079 130.004 342.13 129.679 342.13 129.419C342.13 124.419 336.85 122.795 323.225 122.795C308.795 122.795 302.812 126.562 302.812 136.758C302.812 145.979 308.393 150.98 324.13 150.98C335.845 150.98 341.023 148.707 342.482 143.836C334.789 143.836 324.381 143.901 317.493 144.096C317.544 142.992 317.544 140.719 317.544 139.68C317.544 137.732 317.544 136.043 317.493 134.68C326.493 134.874 335.694 134.809 342.431 134.809C346.554 134.809 351.833 134.874 357.314 134.68C358.219 153.967 354.448 165.397 324.03 165.397Z"></path>
<path fill="white" d="M401.911 166.112C376.068 166.112 365.459 154.227 365.459 136.628C365.459 118.315 377.174 107.47 401.911 107.47C426.647 107.47 438.362 118.38 438.362 136.628C438.362 154.162 427.753 166.112 401.911 166.112ZM422.776 136.693C422.776 127.861 417.396 122.991 401.911 122.991C386.425 122.991 381.045 127.861 381.045 136.693C381.045 145.395 386.375 150.526 401.911 150.526C417.497 150.526 422.776 145.395 422.776 136.693Z"></path>
<path fill="white" d="M514.635 109.873C514.484 116.497 514.433 125.264 514.433 136.693C514.433 148.513 514.433 156.5 514.534 163.644H498.696C495.428 158.838 478.183 143.642 468.63 135.005C466.317 132.862 463.904 130.719 461.993 128.381C462.195 132.667 462.295 136.953 462.396 141.369C462.446 152.474 462.496 160.267 462.647 163.579H448.368C448.368 156.305 448.519 148.188 448.519 136.693C448.519 125.264 448.519 117.146 448.368 109.808H466.468C468.53 113.249 487.585 130.719 496.032 138.252C498.043 140.005 500.004 141.304 501.512 143.187C501.311 139.226 501.16 135.459 501.16 132.537C501.16 122.601 501.009 113.639 500.758 109.808H514.635V109.873Z"></path>
<path fill="white" d="M596.738 109.872C587.889 120.328 572.052 139.42 566.772 148.317C566.823 155.656 566.923 161.63 566.974 163.708C564.812 163.578 561.544 163.578 558.879 163.578C556.264 163.578 552.946 163.578 550.784 163.708C550.935 161.63 551.086 155.526 551.086 148.057C546.108 139.031 530.12 120.263 521.12 109.872H542.639C544.902 113.249 550.231 120.263 553.75 125.523C556.566 129.614 558.175 132.017 559.532 134.29H559.935C560.991 132.277 562.248 130.004 565.113 126.042C568.733 120.977 574.867 113.379 576.828 109.937H596.738V109.872Z"></path>
<path fill="white" d="M645.657 163.643C645.154 162.085 643.847 158.578 641.987 154.162C636.205 154.097 630.373 154.097 625.948 154.097C621.876 154.097 615.943 154.097 610.362 154.162C608.451 158.253 606.993 161.695 606.239 163.643H587.988C595.932 149.421 611.317 119.353 614.887 109.872H637.965C641.735 119.353 657.12 149.096 665.366 163.643H645.657ZM622.529 128.445C620.619 132.342 618.457 136.823 616.345 141.369C619.864 141.433 623.334 141.433 625.998 141.433C628.864 141.433 632.635 141.433 636.456 141.369C634.395 136.758 632.233 132.212 630.272 128.315C628.563 124.938 627.356 122.146 626.401 119.938L622.529 128.445Z"></path>
<path fill="white" d="M734.047 163.644C734.248 155.981 734.449 148.513 734.499 139.616C734.499 135.979 734.701 132.018 734.902 128.186L734.499 128.056C733.092 131.628 731.533 135.394 729.673 138.512L715.042 163.579H707.45L691.009 135.33C689.199 132.147 687.59 128.446 686.182 125.004L685.78 125.134C685.931 128.835 686.182 132.602 686.233 136.693C686.283 146.759 686.434 155.137 686.786 163.579H671.903C672.255 155.851 672.356 147.993 672.356 136.628C672.356 124.874 672.255 116.821 672.054 109.808H694.378C697.445 115.587 701.97 124.354 707.701 135.07C709.21 137.797 710.818 140.849 712.377 144.032H712.729C714.237 140.785 715.645 137.732 717.053 135.07C722.382 124.809 727.36 115.522 730.377 109.808H750.086C749.935 116.821 749.734 124.874 749.734 136.628C749.734 148.058 749.784 155.851 750.186 163.579H734.047V163.644Z"></path>
<path fill="white" d="M814.292 163.643C813.789 162.085 812.482 158.578 810.622 154.162C804.84 154.097 799.007 154.097 794.583 154.097C790.51 154.097 784.578 154.097 778.997 154.162C777.086 158.253 775.628 161.695 774.874 163.643H756.623C764.567 149.421 779.952 119.353 783.522 109.872H806.599C810.37 119.353 825.755 149.096 834.001 163.643H814.292ZM791.114 128.445C789.203 132.342 787.041 136.823 784.93 141.369C788.449 141.433 791.918 141.433 794.583 141.433C797.449 141.433 801.22 141.433 805.041 141.369C802.979 136.758 800.817 132.212 798.857 128.315C797.147 124.938 795.94 122.146 794.985 119.938L791.114 128.445Z"></path>
<path fill="white" d="M108.488 76.4275C109.343 78.3108 108.689 79.8044 106.98 79.8044H86.366C84.6566 79.8044 84.0029 78.2459 84.8577 76.4275L86.1649 73.635C87.0196 71.7517 88.4777 68.6995 89.3324 66.8162L95.0641 54.4125C95.9188 52.5292 97.3769 52.5292 98.2316 54.4125L103.963 66.8162C104.818 68.6995 106.276 71.7517 107.131 73.635L108.488 76.4275Z"></path>
<path fill="white" d="M135.992 178.061C136.897 179.944 136.244 181.438 134.534 181.438H24.7775C23.0681 181.438 22.4145 179.944 23.3195 178.061L39.4084 144.487C40.3134 142.603 41.7715 139.616 42.6262 137.733L58.7152 104.158C59.6202 102.275 61.7319 100.781 63.391 100.781H95.8706C97.5801 100.781 99.6917 102.275 100.546 104.158L116.635 137.733C117.54 139.616 118.999 142.603 119.853 144.487L135.992 178.061Z"></path>
<path fill="white" d="M143.886 106.756C144.741 108.639 144.087 110.133 142.377 110.133H121.763C120.054 110.133 119.4 108.574 120.255 106.756L121.562 103.963C122.417 102.08 123.875 99.0276 124.73 97.1443L130.462 84.7406C131.316 82.8573 132.774 82.8573 133.629 84.7406L139.361 97.1443C140.215 99.0276 141.674 102.08 142.528 103.963L143.886 106.756Z"></path>
<path fill="white" d="M39.0049 106.756C39.8597 108.639 39.206 110.133 37.4966 110.133H16.8826C15.1732 110.133 14.5195 108.574 15.3743 106.756L16.6815 103.963C17.5362 102.08 18.9943 99.0276 19.849 97.1443L25.5807 84.7406C26.4354 82.8573 27.8935 82.8573 28.7482 84.7406L34.4799 97.1443C35.3346 99.0276 36.7927 102.08 37.6474 103.963L39.0049 106.756Z"></path>
<path fill="white" d="M74.3506 76.4275C75.2054 78.3108 74.5517 79.8044 72.8423 79.8044H52.2283C50.5189 79.8044 49.8652 78.2459 50.72 76.4275L52.0272 73.635C52.8819 71.7517 54.34 68.6995 55.1947 66.8162L60.9264 54.4125C61.7811 52.5292 63.2392 52.5292 64.0939 54.4125L69.8256 66.8162C70.6803 68.6995 72.1384 71.7517 72.9931 73.635L74.3506 76.4275Z"></path>
</svg>
