<svg xmlns="http://www.w3.org/2000/svg" fill="none" viewBox="0 0 850 263" height="263" width="850">
<path fill="white" d="M208.374 69C208.264 70.4957 208.149 71.991 208.046 73.4874C207.728 78.1068 207.591 82.7279 207.765 87.3592C207.887 90.6098 208.071 93.8546 208.395 97.0906C208.764 100.782 209.299 104.452 209.952 108.104C210.002 108.384 210.093 108.656 210.185 109.01C212.136 108.886 214.011 108.521 215.889 108.215C217.738 107.914 219.578 107.547 221.411 107.155C223.284 106.754 225.149 106.314 227.005 105.84C228.86 105.367 230.708 104.859 232.544 104.313C234.379 103.767 236.205 103.183 238.017 102.565C239.79 101.96 241.551 101.317 243.3 100.645C245.083 99.9605 246.844 99.221 248.643 98.4937C249.005 98.8183 249.044 99.2482 249.168 99.6289C250.757 104.5 252.34 109.373 253.924 114.246C255.302 118.484 256.681 122.723 258.057 126.962C258.184 127.354 258.295 127.751 258.435 128.218C258.035 128.334 257.686 128.455 257.328 128.536C245.154 131.302 233.545 135.59 222.524 141.457C222.119 141.672 221.716 141.892 221.318 142.118C221.251 142.156 221.21 142.24 221.121 142.345C221.084 142.752 221.364 143.089 221.539 143.452C225.17 150.979 229.451 158.119 234.357 164.885C236.83 168.297 239.454 171.588 242.223 174.765C242.467 175.045 242.699 175.337 242.913 175.595C242.892 175.69 242.889 175.73 242.874 175.765C242.858 175.802 242.838 175.844 242.807 175.868C242.546 176.075 242.287 176.286 242.018 176.481C233.928 182.358 225.837 188.233 217.683 194.153C216.793 192.881 216.097 191.555 215.283 190.306C214.486 189.085 213.704 187.853 212.89 186.643C212.052 185.398 211.198 184.163 210.323 182.944C209.472 181.76 208.599 180.589 207.709 179.433C206.793 178.244 205.858 177.069 204.907 175.909C203.981 174.781 203.038 173.667 202.077 172.569C201.089 171.439 200.083 170.324 199.06 169.227C198.064 168.159 197.05 167.109 196.02 166.075C194.964 165.015 193.88 163.982 192.823 162.952C190.912 164.201 183.461 172.193 179.138 177.598C174.966 182.814 171.201 188.312 167.836 194.004C167.723 194.045 167.688 194.068 167.653 194.067C167.614 194.065 167.568 194.052 167.535 194.029C159.47 188.179 151.405 182.327 143.341 176.474C143.04 176.255 142.748 176.022 142.398 175.754C142.576 175.309 142.931 175.019 143.219 174.689C149.266 167.756 154.628 160.33 159.178 152.333C160.784 149.51 162.237 146.599 163.752 143.724C163.965 143.321 164.136 142.896 164.324 142.486C164.062 142.025 163.591 141.908 163.199 141.698C155.467 137.555 147.417 134.166 139.05 131.528C135.394 130.375 131.699 129.369 127.96 128.521C127.644 128.449 127.337 128.329 127 128.224C127.03 128.007 127.029 127.84 127.077 127.69C130.228 117.988 133.384 108.288 136.544 98.5727C137.06 98.473 137.403 98.7557 137.766 98.9098C142.985 101.127 148.307 103.054 153.752 104.637C159.077 106.185 164.467 107.447 169.946 108.32C171.304 108.536 172.661 108.759 174.021 108.961C174.379 109.014 174.748 109 175.19 109.021C175.409 107.802 175.629 106.663 175.817 105.519C176.479 101.486 176.967 97.4311 177.262 93.3566C177.698 87.3218 177.785 81.2798 177.424 75.2362C177.327 73.6136 177.197 71.9931 177.096 70.3709C177.067 69.9154 177.09 69.4572 177.089 69H208.374Z" clip-rule="evenodd" fill-rule="evenodd"></path>
<path fill="white" d="M396.083 69C396.09 69.5 396.102 69.9997 396.102 70.4998C396.104 79.546 396.104 88.592 396.1 97.6382C396.1 98.1267 396.169 98.6274 395.982 99.1669C394.212 99.2952 392.469 99.2108 390.728 99.2258C388.935 99.2411 387.142 99.2292 385.348 99.2292H348.315C346.521 99.2292 344.728 99.2281 342.935 99.2295C341.192 99.2312 339.449 99.222 337.804 99.236C337.682 99.3843 337.652 99.4139 337.631 99.4493C337.61 99.4833 337.589 99.5224 337.586 99.5605C337.571 99.768 337.552 99.9758 337.552 100.184C337.557 106.395 337.564 112.606 337.574 118.817C337.574 118.895 337.623 118.972 337.675 119.126C337.871 119.161 338.104 119.226 338.34 119.239C338.714 119.26 339.09 119.246 339.465 119.246C354.437 119.246 369.409 119.246 384.381 119.247C384.874 119.247 385.368 119.263 385.852 119.271C386.12 119.821 386.02 120.328 386.021 120.815C386.028 128.736 386.025 136.657 386.025 144.577C386.025 145.119 386.031 145.661 386.019 146.203C386.015 146.402 385.971 146.6 385.94 146.841C385.698 146.883 385.501 146.941 385.301 146.949C384.884 146.966 384.467 146.957 384.05 146.957C369.12 146.958 354.19 146.957 339.259 146.961C338.73 146.961 338.186 146.879 337.621 147.104C337.473 148.579 337.571 150.032 337.554 151.481C337.536 152.981 337.55 154.482 337.55 155.983V182.371C337.55 183.872 337.554 185.373 337.549 186.874C337.543 188.326 337.577 189.78 337.52 191.302C337.235 191.351 337.003 191.409 336.768 191.425C336.478 191.445 336.185 191.433 335.893 191.433C325.05 191.433 314.207 191.434 303.363 191.429C302.875 191.429 302.369 191.514 301.86 191.288C301.828 191.122 301.777 190.965 301.771 190.806C301.757 190.39 301.762 189.972 301.762 189.555C301.761 149.91 301.762 110.265 301.76 70.6202C301.76 70.08 301.739 69.5402 301.728 69H396.083Z" clip-rule="evenodd" fill-rule="evenodd"></path>
<path fill="white" d="M687.353 152.246C687.03 152.364 686.802 152.439 686.581 152.53C685.734 152.878 684.895 153.249 684.042 153.58C680.927 154.789 677.697 155.596 674.442 156.32C672.285 156.799 670.158 157.387 668.134 158.296C667.026 158.793 665.983 159.394 665.068 160.204C664.007 161.144 663.287 162.296 662.946 163.668C662.693 164.684 662.59 165.722 662.676 166.77C662.922 169.759 664.369 171.956 667.07 173.275C667.774 173.62 668.534 173.895 669.298 174.069C673 174.914 676.595 174.526 680.03 172.924C683.301 171.399 685.468 168.856 686.618 165.45C687.1 164.023 687.405 162.55 687.421 161.039C687.451 158.289 687.442 155.537 687.445 152.786C687.446 152.664 687.405 152.543 687.353 152.246ZM721.946 191.338C721.575 191.369 721.203 191.429 720.832 191.429C710.99 191.434 701.147 191.433 691.305 191.433H690.268C690.056 191.081 689.844 190.778 689.681 190.451C688.669 188.42 688.086 186.252 687.663 184.035C687.532 183.349 687.411 182.661 687.285 181.974C686.838 181.897 686.727 182.212 686.563 182.424C685.438 183.88 684.195 185.224 682.8 186.426C679.187 189.54 674.995 191.484 670.384 192.594C666.418 193.548 662.392 193.764 658.336 193.6C654.476 193.443 650.724 192.729 647.118 191.326C643.491 189.915 640.288 187.859 637.657 184.965C635.081 182.132 633.351 178.83 632.428 175.13C631.208 170.237 631.161 165.311 632.29 160.392C633.592 154.716 636.747 150.318 641.593 147.12C644.363 145.291 647.39 144.018 650.554 143.057C653.669 142.11 656.846 141.443 660.073 141.021C662.718 140.676 665.37 140.388 668.012 140.026C671.891 139.495 675.773 138.958 679.533 137.81C680.487 137.519 681.43 137.173 682.34 136.767C683.019 136.464 683.667 136.066 684.278 135.637C685.734 134.614 686.485 133.17 686.609 131.407C686.703 130.064 686.545 128.739 686.132 127.458C685.539 125.617 684.375 124.258 682.597 123.465C682.067 123.228 681.518 123.002 680.954 122.88C678.432 122.334 675.908 122.306 673.408 123.021C670.791 123.769 668.837 125.357 667.524 127.737C666.855 128.952 666.432 130.255 666.142 131.606C666.056 132.006 665.961 132.404 665.891 132.71C665.761 132.81 665.731 132.841 665.694 132.858C665.657 132.874 665.613 132.883 665.572 132.884C665.198 132.897 664.823 132.917 664.448 132.917C654.94 132.917 645.431 132.915 635.923 132.909C635.801 132.909 635.678 132.874 635.557 132.849C635.517 132.841 635.482 132.813 635.406 132.775C635.194 132.233 635.329 131.647 635.383 131.083C635.881 125.886 637.481 121.071 640.438 116.74C643.045 112.921 646.411 109.917 650.383 107.578C654.003 105.447 657.895 104.003 661.97 103.027C666.986 101.824 672.083 101.398 677.228 101.435C678.979 101.448 680.732 101.461 682.481 101.542C687.235 101.761 691.954 102.254 696.564 103.519C700.917 104.714 704.915 106.611 708.432 109.469C713.445 113.544 716.537 118.789 717.947 125.064C718.6 127.968 718.817 130.912 718.817 133.879C718.819 148.219 718.814 162.56 718.824 176.901C718.825 178.651 718.867 180.403 718.965 182.15C719.025 183.228 719.198 184.302 719.368 185.371C719.666 187.242 720.45 188.863 721.946 190.087V191.338Z" clip-rule="evenodd" fill-rule="evenodd"></path>
<path fill="white" d="M456.9 147.217C456.842 146.215 456.785 144.423 456.624 142.641C456.365 139.773 455.842 136.951 454.901 134.219C454.095 131.877 453.001 129.694 451.406 127.777C447.882 123.543 442.451 122.467 437.822 123.961C435.177 124.815 433.177 126.513 431.608 128.76C430.38 130.518 429.527 132.457 428.883 134.492C427.756 138.053 427.292 141.725 427.148 145.439C427.014 148.898 427.113 152.352 427.62 155.786C428.041 158.638 428.7 161.427 429.873 164.074C430.62 165.76 431.561 167.325 432.809 168.694C434.393 170.433 436.307 171.63 438.591 172.221C439.851 172.548 441.136 172.636 442.433 172.587C444.871 172.494 447.091 171.767 449.075 170.336C450.549 169.272 451.722 167.932 452.693 166.407C453.935 164.458 454.783 162.338 455.4 160.12C456.503 156.157 456.854 152.101 456.9 147.217ZM439.381 194.34C438.146 194.174 436.914 193.983 435.676 193.846C426.537 192.838 418.144 189.898 410.856 184.174C403.499 178.395 398.684 170.901 396.107 161.944C394.537 156.485 394.037 150.904 394.298 145.242C394.541 139.954 395.535 134.817 397.485 129.894C402.321 117.682 411.004 109.384 423.263 104.784C427.141 103.329 431.163 102.454 435.28 101.985C439.23 101.534 443.181 101.453 447.141 101.787C455.067 102.455 462.541 104.581 469.316 108.836C478.261 114.454 484.211 122.401 487.431 132.422C489.487 138.818 490.075 145.392 489.609 152.06C489.172 158.315 487.665 164.315 484.835 169.937C479.918 179.708 472.287 186.527 462.157 190.58C458.349 192.102 454.4 193.107 450.33 193.62C448.842 193.808 447.349 193.96 445.859 194.14C445.532 194.18 445.211 194.272 444.888 194.34H439.381Z" clip-rule="evenodd" fill-rule="evenodd"></path>
<path fill="white" d="M624.97 190.981C624.327 191.387 623.601 191.42 622.918 191.576C619.785 192.289 616.611 192.765 613.408 193.002C611.913 193.112 610.408 193.108 608.907 193.126C605.568 193.166 602.236 193.018 598.925 192.566C596.154 192.188 593.433 191.6 590.798 190.634C584.234 188.226 580.102 183.626 578.291 176.9C577.506 173.985 577.185 171.008 577.072 168.002C577.04 167.128 577.047 166.252 577.047 165.376C577.045 152.036 577.046 138.695 577.044 125.355C577.044 124.862 577.021 124.369 577.01 123.902C576.572 123.592 576.143 123.697 575.741 123.696C572.905 123.686 570.069 123.694 567.233 123.687C566.782 123.686 566.319 123.758 565.841 123.545C565.815 123.299 565.767 123.057 565.766 122.816C565.763 116.651 565.764 110.485 565.765 104.37C566.277 104.052 566.748 104.158 567.197 104.157C569.991 104.146 572.786 104.154 575.58 104.149C576.028 104.148 576.488 104.209 576.987 103.999C577.107 102.456 577.029 100.92 577.043 99.3887C577.057 97.846 577.046 96.3037 577.046 94.7611V85.3811C577.046 83.8385 577.042 82.2962 577.047 80.7536C577.052 79.2177 577.021 77.6812 577.071 76.0746C577.361 76.0277 577.594 75.9719 577.829 75.9563C578.12 75.9365 578.412 75.9495 578.704 75.9495C588.171 75.9495 597.638 75.9491 607.105 75.9505C607.6 75.9505 608.095 75.9644 608.545 75.9712C608.873 76.475 608.752 76.9468 608.752 77.3921C608.761 84.1038 608.759 90.8159 608.759 97.5276C608.759 99.2788 608.755 101.03 608.761 102.78C608.763 103.187 608.799 103.594 608.821 104.027C609.372 104.203 609.872 104.148 610.361 104.149C614.865 104.153 619.37 104.149 623.874 104.156C624.324 104.157 624.792 104.066 625.273 104.314C625.296 104.534 625.339 104.775 625.345 105.017C625.463 110.291 625.401 122.348 625.252 123.522C624.837 123.796 624.365 123.684 623.917 123.685C619.371 123.694 614.826 123.689 610.28 123.693C609.829 123.693 609.378 123.718 608.967 123.731C608.66 124.179 608.765 124.607 608.764 125.011C608.754 127.971 608.759 130.931 608.759 133.891C608.759 142.145 608.757 150.399 608.76 158.654C608.761 159.779 608.784 160.898 609.036 162.009C609.591 164.46 611.038 166.069 613.431 166.841C614.874 167.307 616.364 167.502 617.864 167.525C619.571 167.552 621.28 167.462 622.988 167.413C623.609 167.395 624.228 167.351 624.896 167.317C624.948 167.635 625.02 167.873 625.02 168.111C625.026 175.532 625.025 182.952 625.023 190.373C625.023 190.578 624.988 190.783 624.97 190.981Z" clip-rule="evenodd" fill-rule="evenodd"></path>
<path fill="white" d="M497.864 104.318C498.012 104.26 498.125 104.177 498.238 104.177C508.163 104.167 518.087 104.163 528.011 104.164C528.169 104.164 528.327 104.22 528.507 104.255C528.708 104.723 528.629 105.186 528.63 105.632C528.637 109.092 528.632 112.552 528.637 116.012C528.637 116.415 528.573 116.832 528.784 117.298C528.962 117.224 529.144 117.205 529.226 117.104C529.487 116.781 529.714 116.431 529.949 116.087C532.033 113.041 534.425 110.278 537.351 108.003C540.982 105.18 545.086 103.471 549.62 102.744C551.976 102.366 554.343 102.184 556.722 102.306C557.837 102.363 558.946 102.601 560.052 102.787C560.331 102.834 560.592 102.995 560.827 103.09C560.869 103.166 560.89 103.201 560.907 103.238C560.925 103.276 560.95 103.316 560.95 103.354C560.962 112.232 560.972 121.111 560.98 129.988C560.98 130.152 560.951 130.316 560.93 130.554C560.698 130.598 560.463 130.698 560.242 130.674C559.083 130.547 557.928 130.381 556.77 130.242C554.023 129.914 551.275 129.926 548.538 130.31C543.456 131.023 539.02 133.002 535.652 137.013C533.83 139.184 532.592 141.669 531.733 144.354C530.852 147.11 530.411 149.945 530.247 152.825C530.191 153.823 530.189 154.825 530.189 155.825C530.185 167.121 530.186 178.417 530.186 189.714V191.263C529.883 191.329 529.655 191.402 529.423 191.423C529.133 191.449 528.84 191.433 528.548 191.433C518.832 191.433 509.116 191.435 499.4 191.428C498.908 191.428 498.4 191.526 497.912 191.295C497.872 191.179 497.797 191.064 497.797 190.948C497.787 162.229 497.782 133.509 497.781 104.79C497.781 104.632 497.835 104.474 497.864 104.318Z" clip-rule="evenodd" fill-rule="evenodd"></path>
</svg>
