<svg xmlns="http://www.w3.org/2000/svg" fill="none" viewBox="0 0 850 263" height="263" width="850">
<path fill="white" d="M339.699 73.7086H304.738V189.303H339.434C376.431 189.303 399.709 167.264 399.709 131.506C399.709 95.7476 376.873 73.7086 339.699 73.7086ZM339.345 173.637H323.59V89.2864H339.345C365.279 89.2864 379.883 104.953 379.883 131.506C379.883 158.059 365.367 173.637 339.345 173.637ZM442.283 103.891C420.686 103.891 407.587 115.839 406.967 131.948H425.2C425.643 122.566 431.75 117.344 441.928 117.344C452.55 117.344 458.922 123.274 458.922 134.338V136.905L437.68 139.118C419.093 141.153 404.046 147.526 404.046 164.697C404.046 180.009 416.261 190.896 433.697 190.896C446.265 190.896 455.648 184.346 459.099 172.84H459.542V189.214H477.155V137.967C477.155 115.308 463.613 103.891 442.283 103.891ZM458.922 152.66C458.922 168.591 451.488 177.531 438.3 177.531C430.245 177.531 423.253 172.928 423.253 165.14C423.253 157.351 429.626 153.102 440.601 151.863L458.922 149.65V152.66ZM529.022 103.891C516.808 103.891 508.046 110.263 504.505 121.947H504.151V105.572H486.449V189.391H504.682V139.118C504.682 125.399 510.258 117.698 521.411 117.698C532.563 117.698 538.139 124.69 538.139 140.357V189.391H556.372V134.869C556.461 116.37 547.433 103.891 529.022 103.891ZM604.876 177.443C590.98 177.443 583.279 165.051 583.279 147.438C583.279 129.824 590.537 117.433 603.991 117.433C613.904 117.433 620.719 123.54 622.843 134.427H641.165C638.067 114.689 623.197 103.891 603.637 103.891C579.119 103.891 563.984 124.867 563.984 147.438C563.984 170.627 579.739 190.985 604.345 190.985C623.905 190.985 638.864 179.921 642.05 160.095H623.463C621.604 170.893 614.612 177.443 604.876 177.443ZM686.748 103.891C661.788 103.891 647.538 124.425 647.538 147.438C647.538 170.45 662.142 191.073 686.925 191.073C707.459 191.073 720.47 180.009 723.922 163.458H705.689C703.653 170.185 698.962 177.531 688.075 177.531C675.33 177.531 666.479 168.591 665.682 153.456H725.515C728.17 124.159 711.707 103.891 686.748 103.891ZM665.859 139.649C667.098 126.107 674.268 117.344 686.57 117.344C698.873 117.344 705.954 126.018 707.193 139.649H665.859ZM152.854 52.0236L124 80.9665C151.881 108.936 151.881 154.164 124 182.134L152.854 211.076C173.92 190.011 185.869 161.245 185.869 131.506C185.869 101.766 173.92 73.089 152.854 52.0236Z"></path>
<path fill="white" d="M189.143 16L160.201 44.7658L240.125 124.69C241.896 126.461 242.869 128.939 242.869 131.417C242.869 133.896 241.896 136.374 240.125 138.144L160.201 218.069L189.143 247.1L233.045 203.199C241.984 194.259 246.941 182.222 246.941 169.565V93.3579C246.941 80.7894 241.984 68.6635 233.045 59.724L189.143 16Z"></path>
</svg>
