<svg xmlns="http://www.w3.org/2000/svg" fill="none" viewBox="0 0 850 263" height="263" width="850">
<path fill="white" d="M500.934 169.243C495.916 176.448 487.562 181.162 478.121 181.162C462.763 181.162 450.318 168.714 450.318 153.351C450.318 137.989 462.763 125.541 478.121 125.541C487.734 125.541 496.207 130.414 501.199 137.83L521.747 125.699C512.585 111.278 496.472 101.703 478.121 101.703C449.603 101.703 426.486 124.825 426.486 153.351C426.486 181.877 449.603 205 478.121 205C496.393 205 512.453 195.505 521.628 181.175L500.934 169.243Z"></path>
<path fill="white" d="M557.561 58H533.729V201.027H557.561V153.351C557.561 137.989 570.006 125.541 585.365 125.541C600.723 125.541 613.168 137.989 613.168 153.351V201.027H637V148.716C637 122.746 615.962 101.703 589.998 101.703C577.421 101.703 565.995 106.642 557.561 114.694V58Z"></path>
<path fill="white" d="M390.738 58H366.907V169.243C366.907 188.989 382.914 205 402.654 205C411.657 205 419.879 201.676 426.155 196.18L414.636 176.646C412.452 179.401 409.089 181.162 405.302 181.162H402.654C401.833 181.162 401.026 181.083 400.258 180.924C394.829 179.811 390.738 175.004 390.738 169.243V129.514H414.57V105.676H390.738V58Z"></path>
<path fill="white" d="M339.103 58C331.794 58 325.863 63.933 325.863 71.2432C325.863 78.5535 331.794 84.4865 339.103 84.4865C346.411 84.4865 352.343 78.5535 352.343 71.2432C352.343 63.933 346.411 58 339.103 58Z"></path>
<path fill="white" d="M351.019 201.027V105.676H327.187V201.027H351.019Z"></path>
<path fill="white" d="M212 201.027H235.832V173.216H257.678C289.48 173.216 315.271 147.418 315.271 115.608C315.271 83.7978 289.48 58 257.678 58H212V201.027ZM235.832 81.8378H257.678C276.319 81.8378 291.439 96.9616 291.439 115.608C291.439 134.255 276.319 149.378 257.678 149.378H235.832V81.8378Z" clip-rule="evenodd" fill-rule="evenodd"></path>
</svg>
