<svg xmlns="http://www.w3.org/2000/svg" fill="none" viewBox="0 0 850 263" height="263" width="850">
<g clip-path="url(#clip0)">
<path fill="white" d="M121.5 107L171.4 143.3L152.4 202H90.6L71.6 143.3L121.5 107Z" clip-rule="evenodd" fill-rule="evenodd"></path>
<path fill="white" d="M38 165C58.4345 165 75 148.435 75 128C75 107.565 58.4345 91 38 91C17.5655 91 1 107.565 1 128C1 148.435 17.5655 165 38 165Z"></path>
<path fill="white" d="M219 61L266.6 88.5V143.5L219 171L171.4 143.5V88.5L219 61Z" clip-rule="evenodd" fill-rule="evenodd"></path>
<path fill="white" d="M374.1 136.3C375.9 136.7 377.6 137.5 379.2 138.7C381.5 140.5 383.3 143.2 384.6 146.8L395 174H379L368.4 145.7C367.3 142.9 365.8 141 363.7 140.1C361.7 139.1 359.2 138.7 356.2 138.7H341V174H326V89H361.9C371.4 89 378.6 91.1 383.6 95.3C388.5 99.5 391 105.6 391 113.4C391 120.9 388.4 126.8 383.3 131.2C380.8 133.5 377.7 135.2 374.1 136.3ZM341 127H360.1C366 127 370.2 125.9 372.9 123.7C375.6 121.5 376.9 118.3 376.9 113.9C376.9 109.5 375.6 106.2 372.9 104.1C370.2 102 365.9 101 360.1 101H341V127ZM450.5 123.6V114.6H465V174.2H450.5V164.7C449.1 167.5 447 169.7 444.3 171.4C440.6 173.8 436.2 175 431.2 175C426 175 421.4 173.8 417.4 171.3C413.4 168.8 410.3 165.3 408.2 160.7C406 156.1 405 150.7 405 144.5C405 138.2 406.1 132.7 408.3 128C410.5 123.3 413.6 119.7 417.5 117C421.5 114.4 426 113 431.2 113C436.2 113 440.6 114.2 444.3 116.7C447 118.5 449.1 120.8 450.5 123.6ZM434.7 163C439.6 163 443.3 161.3 446 157.9C448.7 154.5 450 149.7 450 143.5C450 137.1 448.7 132.3 446 128.9C443.3 125.5 439.6 123.9 434.7 123.9C429.7 123.9 425.9 125.6 423.1 129.1C420.3 132.6 419 137.4 419 143.7C419 149.8 420.4 154.6 423.1 157.9C425.9 161.3 429.7 163 434.7 163ZM495 124.9C496.3 121.6 498.2 119 500.8 117C504.4 114.3 508.5 113 513 113C514.2 113 515.3 113.1 516.3 113.2C517.3 113.4 518.2 113.6 519 113.9L518.8 127.4C516.4 126.4 513.8 125.9 511 125.9C507.5 125.9 504.6 126.6 502.4 128C500.2 129.4 498.5 131.3 497.3 133.7C496.2 136.1 495.6 138.8 495.6 141.8V174H480.9V131.3C480.9 128.5 480.8 125.7 480.7 122.9C480.6 120.1 480.3 117.2 479.9 114.5H493.8L495 124.9ZM538 137H566C565.6 133.1 564.5 129.9 562.8 127.6C560.5 124.5 557.1 123 552.6 123C547.8 123 544.1 124.7 541.5 128.2C539.7 130.5 538.6 133.4 538 137ZM537.5 145.1C537.8 151.1 539.2 155.6 541.9 158.6C544.8 161.9 549.3 163.6 555.3 163.6C558.6 163.6 561.8 163.1 564.9 162C568 160.9 571 159.4 573.7 157.3L578 167.5C575.1 169.9 571.6 171.7 567.4 173C563.2 174.3 559 174.9 554.7 174.9C548.2 174.9 542.5 173.7 537.8 171.2C533.1 168.8 529.4 165.2 526.9 160.6C524.4 156 523.1 150.4 523.1 144.1C523.1 138 524.3 132.5 526.8 127.9C529.3 123.2 532.7 119.6 537.1 116.9C541.5 114.3 546.5 112.9 552.3 112.9C557.9 112.9 562.6 114.1 566.6 116.5C570.6 118.9 573.7 122.3 575.9 126.8C578.1 131.3 579.2 136.6 579.2 142.7V144.9H537.5V145.1ZM605.9 123.5C607.3 120.7 609.4 118.4 612.1 116.6C615.8 114.1 620.2 112.8 625.3 112.8C630.6 112.8 635.2 114.1 639.2 116.6C643.2 119.1 646.3 122.7 648.6 127.4C650.9 132.1 652 137.5 652 143.7C652 149.9 650.9 155.4 648.6 160.2C646.3 164.9 643.2 168.6 639.1 171.2C635.1 173.8 630.5 175 625.2 175C620.1 175 615.7 173.8 612 171.4C609.3 169.6 607.2 167.4 605.8 164.5V174.1H591V87H605.9V123.5ZM621.6 163C626.5 163 630.3 161.3 633 157.8C635.7 154.3 637 149.5 637 143.2C637 137.1 635.7 132.3 633 129C630.3 125.7 626.5 124 621.6 124C616.5 124 612.7 125.7 610 129.1C607.3 132.5 606 137.3 606 143.5C606 149.8 607.3 154.6 610 158C612.6 161.3 616.5 163 621.6 163ZM707.5 123.6V114.6H722V174.2H707.5V164.7C706.1 167.5 704 169.7 701.3 171.4C697.6 173.8 693.2 175 688.2 175C683 175 678.4 173.8 674.4 171.3C670.4 168.8 667.3 165.3 665.2 160.7C663.1 156.1 662 150.7 662 144.5C662 138.2 663.1 132.7 665.3 128C667.5 123.3 670.6 119.7 674.5 117C678.5 114.4 683 113 688.2 113C693.2 113 697.6 114.2 701.3 116.7C704 118.5 706.1 120.8 707.5 123.6ZM692.7 163C697.6 163 701.3 161.3 704 157.9C706.7 154.5 708 149.7 708 143.5C708 137.1 706.7 132.3 704 128.9C701.3 125.5 697.6 123.9 692.7 123.9C687.7 123.9 683.9 125.6 681.1 129.1C678.3 132.6 677 137.4 677 143.7C677 149.8 678.4 154.6 681.1 157.9C683.9 161.3 687.7 163 692.7 163ZM760 175C749 175 740.3 172.5 734 167.6L738.2 157.2C741.4 159.6 744.8 161.3 748.6 162.5C752.3 163.7 756.2 164.3 760.3 164.3C764 164.3 766.7 163.7 768.7 162.5C770.6 161.3 771.6 159.7 771.6 157.5C771.6 155.7 770.9 154.3 769.6 153.2C768.2 152.1 765.9 151.2 762.7 150.4L752.7 148.2C747.2 147 743.1 145 740.3 142.2C737.6 139.4 736.2 135.8 736.2 131.5C736.2 127.9 737.2 124.7 739.3 121.9C741.4 119.1 744.3 116.9 748 115.3C751.7 113.7 756.1 112.9 761 112.9C765.3 112.9 769.4 113.5 773.4 114.8C777.4 116.1 780.8 118 783.8 120.4L779.5 130.6C776.5 128.3 773.4 126.6 770.2 125.5C767.1 124.4 763.9 123.8 760.8 123.8C757.4 123.8 754.7 124.4 752.8 125.7C750.9 127 749.9 128.7 749.9 130.9C749.9 132.6 750.5 134 751.6 135C752.8 136 754.8 136.9 757.6 137.5L767.8 140C773.8 141.3 778.1 143.3 780.9 146.1C783.6 148.9 785 152.6 785 157.1C785 162.5 782.8 166.8 778.3 170C773.9 173.4 767.8 175 760 175ZM809 137H837C836.6 133.1 835.5 129.9 833.8 127.6C831.5 124.5 828.1 123 823.6 123C818.8 123 815.1 124.7 812.5 128.2C810.7 130.5 809.6 133.4 809 137ZM808.5 145.1C808.8 151.1 810.2 155.6 812.9 158.6C815.8 161.9 820.3 163.6 826.3 163.6C829.6 163.6 832.8 163.1 835.9 162C839 160.9 842 159.4 844.7 157.3L849 167.5C846.1 169.9 842.6 171.7 838.4 173C834.2 174.3 830 174.9 825.7 174.9C819.2 174.9 813.5 173.7 808.8 171.2C804.1 168.8 800.4 165.2 797.9 160.6C795.4 156 794.1 150.4 794.1 144.1C794.1 138 795.3 132.5 797.8 127.9C800.3 123.2 803.7 119.6 808.1 116.9C812.5 114.3 817.5 112.9 823.3 112.9C828.9 112.9 833.6 114.1 837.6 116.5C841.6 118.9 844.7 122.3 846.9 126.8C849.1 131.3 850.2 136.6 850.2 142.7V144.9H808.5V145.1Z" clip-rule="evenodd" fill-rule="evenodd"></path>
</g>
<defs>
<clipPath id="clip0">
<rect transform="translate(0.799805)" fill="white" height="263" width="849.2"></rect>
</clipPath>
</defs>
</svg>
