<svg xmlns="http://www.w3.org/2000/svg" fill="none" viewBox="0 0 850 263" height="263" width="850">
<g clip-path="url(#clip0_6776_212)">
<path fill="white" d="M333.047 149.835L334.461 151.132C333.471 153.035 332.603 154.96 331.856 156.924C327.473 159.233 323.272 160.873 319.213 161.825C315.173 162.797 310.508 163.283 305.217 163.283C295.34 163.283 286.999 161.542 280.173 158.058C273.346 154.574 268.095 149.694 264.419 143.375C260.744 137.056 258.906 129.826 258.906 121.643C258.906 109.897 263.066 100.257 271.367 92.7628C279.688 85.2491 291.16 81.5024 305.782 81.5024C310.65 81.5024 315.456 81.9276 320.243 82.7986C325.009 83.6697 329.735 85.0061 334.461 86.768L334.845 87.6188C334.158 89.6644 333.674 91.6288 333.411 93.5326C332.906 96.8135 332.522 100.904 332.26 105.765H327.494C327.271 99.7908 327.049 96.5298 326.827 95.9425C326.605 95.3552 325.555 94.3427 323.717 92.925C321.879 91.5073 319.375 90.353 316.224 89.4616C313.094 88.5906 309.62 88.1451 305.803 88.1451C296.775 88.1451 289.585 90.9399 284.253 96.5298C278.941 102.12 276.275 109.917 276.275 119.902C276.275 130.696 279.466 139.466 285.889 146.149C291.806 152.346 299.925 155.445 310.246 155.445C314.245 155.445 318.001 155.04 321.475 154.21C324.969 153.379 328.826 151.921 333.047 149.835Z"></path>
<path fill="white" d="M339.207 162.149V157.491C343.004 157.309 345.205 157.065 345.771 156.802C346.215 156.579 346.579 156.215 346.841 155.729C347.245 154.817 347.487 152.812 347.568 149.714C347.73 144.185 347.791 139.142 347.791 134.605C347.791 125.856 347.69 120.671 347.468 119.051C347.346 118.099 347.003 117.431 346.438 117.025C345.872 116.64 343.469 116.357 339.207 116.215V111.841C346.801 111.111 352.234 110.221 355.506 109.147L361.322 106.96C361.848 106.96 362.11 107.325 362.11 108.033L362.069 108.843C361.948 111.213 361.888 114.636 361.888 119.091C363.807 117.249 365.927 114.899 368.27 112.064C370.007 109.958 371.522 108.58 372.794 107.932C374.067 107.284 375.784 106.96 377.944 106.96C379.156 106.96 380.368 107.162 381.62 107.588C381.277 111.375 381.055 116.519 380.934 123.021L378.389 123.932C377.52 122.454 376.571 121.42 375.541 120.833C374.491 120.246 373.158 119.942 371.502 119.942C369.24 119.942 367.281 120.529 365.665 121.704C364.049 122.899 363.019 124.236 362.555 125.755C362.252 126.889 362.11 130.757 362.11 137.36C362.11 146.96 362.232 152.549 362.494 154.129C362.656 155.203 363.019 155.912 363.585 156.296C364.454 156.863 367.281 157.269 372.108 157.491V162.149L365.786 161.967C361.747 161.866 358.253 161.805 355.324 161.805C352.537 161.805 349.285 161.866 345.59 161.967L339.207 162.149Z"></path>
<path fill="white" d="M433.606 151.192L435.242 152.832L432.697 158.26C429.991 159.961 427.062 161.217 423.952 162.068C420.841 162.918 417.549 163.323 414.035 163.323C405.815 163.323 399.332 160.933 394.606 156.154C389.88 151.374 387.497 144.63 387.497 135.962C387.497 130.493 388.204 125.936 389.597 122.352C390.728 119.436 392.586 117.005 395.171 115.081C397.757 113.158 400.726 111.314 404.098 109.573C407.471 107.831 411.187 106.96 415.206 106.96C421.407 106.96 426.496 108.702 430.536 112.165C434.575 115.628 436.594 121.218 436.594 128.894C436.594 129.846 436.514 131.284 436.372 133.228L427.102 134.929C424.254 135.111 420.114 135.213 414.681 135.213H402.442C403.008 141.734 404.947 146.635 408.259 149.937C411.57 153.238 415.792 154.878 420.922 154.878C423.083 154.878 425.204 154.575 427.324 153.947C429.425 153.319 431.525 152.407 433.606 151.192ZM402.099 129.197C405.492 129.501 408.885 129.643 412.278 129.643C415.247 129.643 418.377 129.501 421.67 129.197L421.71 126.524C421.71 121.846 420.862 118.443 419.165 116.297C417.469 114.17 415.187 113.097 412.279 113.097C410.239 113.097 408.482 113.583 407.007 114.595C405.553 115.608 404.442 117.025 403.736 118.828C403.029 120.651 402.463 124.114 402.099 129.197Z"></path>
<path fill="white" d="M496.356 157.491V162.148L491.994 161.966C489.692 161.865 487.389 161.804 485.087 161.804C481.532 161.804 478.159 161.905 474.988 162.148L474.423 161.52L474.988 153.743L463.194 162.594C461.073 163.08 459.215 163.323 457.599 163.323C453.621 163.323 450.53 162.148 448.349 159.759C446.168 157.369 445.078 153.906 445.078 149.329C445.078 143.698 446.552 139.728 449.521 137.42C453.358 134.382 461.861 131.688 474.988 129.298C474.908 124.823 474.14 121.582 472.666 119.577C470.606 116.803 467.415 115.405 463.093 115.405C462.063 115.405 461.033 115.526 459.962 115.79C458.892 116.033 457.801 116.418 456.711 116.944L454.166 123.02L450.268 122.047L450.389 119.496L450.329 117.005L450.269 114.736C456.045 111.131 460.185 108.883 462.71 107.992C464.568 107.303 467.133 106.959 470.405 106.959C474.848 106.959 478.463 107.627 481.271 108.984C484.058 110.321 486.098 112.164 487.37 114.473C488.642 116.781 489.289 120.144 489.289 124.579C489.289 126.442 489.208 129.763 489.067 134.523C488.925 139.465 488.845 143.414 488.845 146.411C488.845 151.151 488.966 154.026 489.228 155.039C489.39 155.647 489.754 156.133 490.339 156.477C490.925 156.801 492.923 157.146 496.356 157.491ZM474.988 134.18C468.364 135.618 464.062 137.197 462.083 138.878C460.084 140.559 459.094 142.827 459.094 145.683C459.094 147.992 459.74 149.815 461.013 151.131C462.285 152.468 463.9 153.116 465.86 153.116C468.829 153.116 471.858 151.435 474.988 148.053V134.18Z"></path>
<path fill="white" d="M509.141 143.759C509.323 148.641 509.565 151.374 509.868 151.942C510.696 153.481 512.251 154.838 514.533 156.012C516.796 157.187 519.441 157.774 522.451 157.774C526.147 157.774 528.893 157.005 530.711 155.486C532.549 153.967 533.458 151.941 533.458 149.43C533.458 147.243 532.792 145.541 531.479 144.286C530.146 143.03 527.318 141.936 522.996 140.985C516.432 139.547 512.171 138.291 510.192 137.218C508.212 136.144 506.637 134.544 505.466 132.418C504.294 130.312 503.708 127.78 503.708 124.823C503.708 121.339 504.577 118.261 506.314 115.587C508.03 112.894 510.535 110.788 513.786 109.269C517.038 107.729 521.34 106.96 526.692 106.96C532.266 106.96 537.437 107.871 542.223 109.694C541.718 112.752 541.375 117.552 541.193 124.033H536.73C536.508 119.942 536.185 117.552 535.781 116.823C535.215 115.729 534.124 114.818 532.549 114.049C530.368 113.036 528.025 112.53 525.541 112.53C522.37 112.53 519.906 113.238 518.149 114.636C516.413 116.054 515.524 117.836 515.524 119.983C515.524 121.967 516.311 123.568 517.907 124.722C519.482 125.937 523.259 127.071 529.217 128.165C533.317 128.934 536.165 129.623 537.76 130.271C540.386 131.405 542.405 133.066 543.779 135.233C545.152 137.42 545.839 140.175 545.839 143.517C545.839 149.917 543.375 154.818 538.447 158.22C533.499 161.623 527.642 163.324 520.815 163.324C518.553 163.324 516.049 163.061 513.302 162.555C510.555 162.028 507.566 161.258 504.335 160.246L503.486 159.294C503.931 156.013 504.214 150.828 504.335 143.76L509.141 143.759Z"></path>
<path fill="white" d="M605.66 157.491V162.148L601.298 161.966C598.995 161.865 596.693 161.804 594.391 161.804C590.836 161.804 587.463 161.905 584.292 162.148L583.727 161.52L584.292 153.743L572.497 162.594C570.377 163.08 568.519 163.323 566.903 163.323C562.924 163.323 559.834 162.148 557.653 159.759C555.472 157.369 554.381 153.906 554.381 149.329C554.381 143.698 555.856 139.728 558.825 137.42C562.662 134.382 571.165 131.688 584.292 129.298C584.212 124.823 583.444 121.582 581.97 119.577C579.91 116.803 576.719 115.405 572.396 115.405C571.367 115.405 570.337 115.526 569.266 115.79C568.196 116.033 567.105 116.418 566.015 116.944L563.47 123.02L559.572 122.047L559.693 119.496L559.633 117.005L559.572 114.736C565.349 111.131 569.489 108.883 572.013 107.992C573.871 107.303 576.436 106.959 579.708 106.959C584.152 106.959 587.767 107.627 590.574 108.984C593.361 110.321 595.402 112.164 596.674 114.473C597.946 116.781 598.593 120.144 598.593 124.579C598.593 126.442 598.512 129.763 598.37 134.523C598.229 139.465 598.148 143.414 598.148 146.411C598.148 151.151 598.27 154.026 598.532 155.039C598.694 155.647 599.058 156.133 599.643 156.477C600.229 156.801 602.227 157.146 605.66 157.491ZM584.292 134.18C577.668 135.618 573.366 137.197 571.387 138.878C569.387 140.559 568.398 142.827 568.398 145.683C568.398 147.992 569.044 149.815 570.316 151.131C571.589 152.468 573.204 153.116 575.164 153.116C578.133 153.116 581.162 151.435 584.292 148.053V134.18Z"></path>
<path fill="white" d="M611.456 86.0996V82.7984C616.808 82.0895 621.03 81.3604 624.119 80.591C627.21 79.8415 630.542 78.768 634.117 77.3706L635.591 78.6062C635.026 92.135 634.743 110.99 634.743 135.233C634.743 140.114 634.823 145.056 634.965 150.058C635.045 153.238 635.227 155.08 635.51 155.587C635.792 156.093 636.237 156.498 636.863 156.802C637.469 157.106 639.711 157.349 643.568 157.491V162.149L637.65 161.967C633.954 161.865 630.844 161.804 628.319 161.804L611.456 162.149V157.491L615.636 157.268C617.514 157.187 618.726 156.843 619.271 156.215C619.817 155.587 620.16 153.217 620.261 149.086C620.463 143.374 620.544 135.253 620.544 124.722L620.504 100.459C620.463 93.0869 620.241 88.9147 619.877 87.9628C619.716 87.5173 619.433 87.173 619.029 86.9503C618.342 86.5252 615.819 86.2415 611.456 86.0996Z"></path>
<path fill="white" d="M650.012 86.0996V82.7984C655.364 82.0895 659.585 81.3604 662.675 80.591C665.765 79.8415 669.097 78.768 672.672 77.3706L674.147 78.6062C673.581 92.135 673.298 110.99 673.298 135.233C673.298 140.114 673.379 145.056 673.52 150.058C673.601 153.238 673.783 155.08 674.065 155.587C674.348 156.093 674.793 156.498 675.419 156.802C676.024 157.106 678.266 157.349 682.124 157.491V162.149L676.206 161.967C672.51 161.865 669.4 161.804 666.875 161.804L650.011 162.149V157.491L654.192 157.268C656.07 157.187 657.282 156.843 657.827 156.215C658.372 155.587 658.715 153.217 658.817 149.086C659.019 143.374 659.1 135.253 659.1 124.722L659.059 100.459C659.019 93.0869 658.797 88.9147 658.433 87.9628C658.271 87.5173 657.989 87.173 657.585 86.9503C656.898 86.5252 654.375 86.2415 650.012 86.0996Z"></path>
<path fill="white" d="M688.911 162.149V157.491C693.172 157.349 695.636 157.066 696.302 156.701C696.949 156.316 697.373 155.263 697.575 153.521C697.878 151.131 698.019 145.866 698.019 137.724C698.019 134.2 697.959 130.959 697.857 127.962L697.676 121.319C697.676 119.132 697.454 117.775 696.969 117.249C696.504 116.742 695.232 116.459 693.152 116.378L688.91 116.215V111.841C697.999 111.152 705.492 109.532 711.369 106.96L712.783 108.094C712.217 115.344 711.934 125.876 711.934 139.708C711.934 147.688 712.055 152.528 712.318 154.189C712.52 155.364 712.863 156.134 713.368 156.478C713.873 156.802 716.337 157.146 720.76 157.49V162.148C713.954 161.905 708.703 161.804 704.987 161.804C702.987 161.804 697.636 161.906 688.911 162.149ZM704.644 79.8613C707.047 79.8613 709.107 80.712 710.824 82.4334C712.54 84.1547 713.409 86.241 713.409 88.7118C713.409 91.1221 712.54 93.1877 710.824 94.909C709.107 96.6304 707.027 97.5014 704.583 97.5014C702.179 97.5014 700.099 96.6304 698.383 94.909C696.666 93.1877 695.818 91.1217 695.818 88.7118C695.818 86.241 696.666 84.1551 698.383 82.4334C700.099 80.7116 702.18 79.8613 704.644 79.8613Z"></path>
<path fill="white" d="M734.151 143.759C734.332 148.641 734.575 151.374 734.878 151.942C735.706 153.481 737.261 154.838 739.543 156.012C741.805 157.187 744.451 157.774 747.46 157.774C751.157 157.774 753.903 157.005 755.721 155.486C757.559 153.967 758.468 151.941 758.468 149.43C758.468 147.243 757.801 145.541 756.489 144.286C755.155 143.03 752.328 141.936 748.006 140.985C741.442 139.547 737.181 138.291 735.201 137.218C733.222 136.144 731.647 134.544 730.475 132.418C729.304 130.312 728.718 127.78 728.718 124.823C728.718 121.339 729.587 118.261 731.324 115.587C733.04 112.894 735.545 110.788 738.796 109.269C742.048 107.729 746.35 106.96 751.702 106.96C757.276 106.96 762.446 107.871 767.233 109.694C766.728 112.752 766.385 117.552 766.203 124.033H761.74C761.517 119.942 761.194 117.552 760.79 116.823C760.225 115.729 759.134 114.818 757.559 114.049C755.378 113.036 753.035 112.53 750.551 112.53C747.38 112.53 744.916 113.238 743.159 114.636C741.422 116.054 740.533 117.836 740.533 119.983C740.533 121.967 741.321 123.568 742.917 124.722C744.492 125.937 748.269 127.071 754.227 128.165C758.327 128.934 761.175 129.623 762.77 130.271C765.396 131.405 767.415 133.066 768.788 135.233C770.162 137.42 770.848 140.175 770.848 143.517C770.848 149.917 768.384 154.818 763.456 158.22C758.508 161.623 752.651 163.324 745.825 163.324C743.563 163.324 741.059 163.061 738.312 162.555C735.565 162.028 732.576 161.258 729.344 160.246L728.496 159.294C728.94 156.013 729.223 150.828 729.344 143.76L734.151 143.759Z"></path>
</g>
<g clip-path="url(#clip1_6776_212)">
<path fill="white" d="M205.664 74.833H83.6016V84.6694H205.664V74.833Z"></path>
<path fill="white" d="M137.408 60.0474H95.5928V69.8837H137.408V60.0474Z"></path>
<path fill="white" d="M179.837 45.2622H106.046V55.0986H179.837V45.2622Z"></path>
<path fill="white" d="M162.312 89.6182H82.6792V99.4545H162.312V89.6182Z"></path>
<path fill="white" d="M205.664 104.404H74.916V114.24H205.664V104.404Z"></path>
<path fill="white" d="M130.029 119.189H74.916V129.025H130.029V119.189Z"></path>
<path fill="white" d="M154.549 133.975H74.916V143.811H154.549V133.975Z"></path>
<path fill="white" d="M189.061 148.76H80.8345V158.596H189.061V148.76Z"></path>
<path fill="white" d="M134.64 163.545H84.5239V173.381H134.64V163.545Z"></path>
<path fill="white" d="M191.828 178.331H93.9019V188.167H191.828V178.331Z"></path>
<path fill="white" d="M137.408 193.116H105.585V202.952H137.408V193.116Z"></path>
<path fill="white" d="M163.234 207.901H115.731V217.738H163.234V207.901Z"></path>
</g>
<defs>
<clipPath id="clip0_6776_212">
<rect transform="translate(256.463 72.7715)" fill="white" height="90.7735" width="517.821"></rect>
</clipPath>
<clipPath id="clip1_6776_212">
<rect transform="translate(74.916 45.2622)" fill="white" height="172.475" width="130.748"></rect>
</clipPath>
</defs>
</svg>
