<svg xmlns="http://www.w3.org/2000/svg" fill="none" viewBox="0 0 850 263" height="263" width="850">
<path fill="#FBFBFB" d="M83 177.737V56.001H98.3397V177.736L83 177.737ZM131.577 89.712V101.289H131.918C138.735 92.2096 148.053 87.6697 159.871 87.6694C169.187 87.6694 176.459 90.1096 181.689 94.99C186.914 99.8711 189.527 106.852 189.529 115.932V177.737H175.722V117.124C175.722 111.449 173.961 107.051 170.439 103.928C166.916 100.808 162.03 99.2476 155.78 99.2465C148.733 99.2465 142.938 101.516 138.394 106.056C133.849 110.598 131.576 116.444 131.577 123.594V177.737H117.771V89.712H131.577V89.712ZM241.174 180.29C229.129 180.29 219.783 177.594 213.136 172.203C206.489 166.814 202.824 159.124 202.142 149.133H216.289C217.879 162.187 226.288 168.713 241.515 168.713C248.446 168.713 253.588 167.379 256.94 164.712C260.291 162.045 261.967 158.555 261.969 154.24C261.969 149.588 260.321 146.24 257.026 144.195C253.729 142.152 247.706 140.223 238.959 138.407C235.321 137.613 232.451 136.961 230.351 136.448C228.247 135.937 225.718 135.2 222.766 134.236C219.81 133.272 217.509 132.194 215.863 131C214.075 129.688 212.393 128.236 210.834 126.658C209.131 124.955 207.909 122.856 207.17 120.359C206.429 117.864 206.06 115.083 206.062 112.016C206.062 104.524 208.818 98.6221 214.329 94.3093C219.839 89.997 227.652 87.8403 237.765 87.8391C258.672 87.8391 270.206 97.0331 272.367 115.421H258.219C257.537 109.632 255.55 105.404 252.254 102.737C248.957 100.071 244.014 98.7369 237.424 98.7357C231.401 98.7357 226.941 99.8992 224.045 102.226C221.147 104.554 219.699 107.59 219.698 111.335C219.698 115.65 221.403 118.686 224.812 120.443C228.22 122.205 234.413 123.992 243.39 125.807C248.846 126.943 253.135 127.993 256.259 128.956C259.383 129.922 262.65 131.398 266.061 133.384C269.469 135.371 271.968 138.01 273.559 141.301C275.149 144.594 275.945 148.68 275.945 153.56C275.945 162.187 272.765 168.798 266.401 173.395C260.035 177.992 251.626 180.29 241.174 180.29V180.29ZM327.932 180.12C314.864 180.12 304.495 175.722 296.825 166.925C289.156 158.13 285.32 147.091 285.32 133.809C285.32 120.758 289.213 109.776 296.996 100.864C304.778 91.9543 314.805 87.4991 327.08 87.4983C340.034 87.4983 350.033 92.0101 357.079 101.034C364.123 110.058 367.646 122.061 367.646 137.044H299.466C300.034 146.353 302.789 153.93 307.734 159.775C312.677 165.622 319.41 168.544 327.932 168.543C341.112 168.543 349.237 162.527 352.306 150.494H365.77C363.726 159.917 359.408 167.21 352.817 172.373C346.226 177.539 337.931 180.122 327.932 180.12V180.12ZM345.488 105.887C341.057 100.894 334.921 98.3965 327.08 98.3949C319.238 98.3949 313.018 101.006 308.417 106.227C303.814 111.449 300.944 118.26 299.808 126.658H352.817C352.362 117.805 349.918 110.881 345.488 105.887ZM380.087 177.737V89.712H393.893V102.312H394.233C397.023 97.9323 400.823 94.2836 405.313 91.6704C409.802 89.0181 414.928 87.6351 420.143 87.6694C431.618 87.6694 439.289 92.8906 443.151 103.333H443.494C446.157 98.5164 450.111 94.5365 454.913 91.8403C459.796 89.0601 464.967 87.6697 470.426 87.6694C478.492 87.6694 484.968 90.138 489.856 95.0754C494.739 100.013 497.183 106.965 497.185 115.932V177.737H483.378V116.613C483.378 111.28 481.816 107.051 478.691 103.928C475.564 100.808 471.729 99.2476 467.188 99.2463C461.39 99.2463 456.332 101.516 452.015 106.056C447.695 110.598 445.536 116.217 445.538 122.912V177.737H431.733V116.613C431.733 111.28 430.341 107.051 427.557 103.928C424.77 100.808 421.106 99.2476 416.561 99.2463C410.878 99.2463 405.681 101.545 400.968 106.142C396.25 110.739 393.891 116.329 393.893 122.912V177.737H380.087ZM514.058 206V89.712H527.864V102.141H528.204C535.363 92.4946 544.794 87.6708 556.498 87.6694C567.861 87.6694 577.007 91.7837 583.941 100.013C590.872 108.244 594.337 119.566 594.339 133.979C594.339 148.17 590.93 159.436 584.113 167.776C577.294 176.119 567.917 180.29 555.987 180.29C544.17 180.29 534.908 175.977 528.204 167.351H527.864V206H514.058ZM554.964 168.713C563.144 168.713 569.395 165.535 573.715 159.178C578.03 152.822 580.189 144.479 580.189 134.15C580.189 123.822 578.032 115.451 573.715 109.036C569.393 102.625 563.201 99.4187 555.135 99.4163C545.931 99.4163 538.942 102.68 534.17 109.207C529.397 115.736 527.011 124.05 527.01 134.15C527.01 144.48 529.284 152.823 533.83 159.178C538.372 165.536 545.416 168.714 554.964 168.713ZM620.925 89.712V104.355H621.265C624.032 99.7752 627.825 95.8993 632.346 93.0316C636.887 90.1372 641.944 88.6904 647.515 88.6907C649.437 88.6675 651.346 89.0143 653.138 89.712V102.992H652.629C650.922 102.426 648.876 102.142 646.492 102.141C639.446 102.141 633.424 104.61 628.425 109.547C623.424 114.485 620.925 120.927 620.925 128.872V177.737H607.119V89.712H620.925V89.712ZM731.375 178.588C722.622 178.588 717.566 174.218 716.205 165.478H716.033C708.763 174.786 698.99 179.44 686.719 179.44C677.966 179.44 670.807 177.339 665.241 173.139C659.673 168.942 656.889 162.87 656.891 154.922C656.891 150.835 657.543 147.288 658.849 144.281C660.152 141.275 661.829 138.834 663.877 136.959C665.923 135.086 668.734 133.44 672.314 132.022C675.662 130.677 679.11 129.595 682.626 128.787C685.92 128.05 690.125 127.284 695.241 126.488C698.535 126.036 700.892 125.667 702.313 125.382C703.732 125.099 705.579 124.645 707.853 124.019C710.125 123.397 711.715 122.688 712.625 121.891C713.533 121.098 714.386 120.02 715.182 118.656C715.977 117.294 716.375 115.705 716.376 113.889C716.376 108.896 714.643 105.065 711.178 102.396C707.709 99.7309 702.85 98.3972 696.604 98.3948C682.396 98.3948 675.066 104.865 674.616 117.804H661.321C661.546 108.839 664.644 101.632 670.612 96.1822C676.574 90.7333 685.182 88.0089 696.432 88.0089C718.136 88.0089 728.988 97.3164 728.988 115.932V157.816C728.988 161.676 729.642 164.4 730.948 165.988C732.253 167.58 734.724 167.977 738.363 167.181H738.876V177.226C736.6 178.133 734.1 178.587 731.375 178.588V178.588ZM689.787 168.883C698.308 168.883 704.899 166.414 709.556 161.476C714.217 156.539 716.548 151.119 716.548 145.216V130.234C712.341 132.846 705.636 135.002 696.432 136.703C693.025 137.385 690.355 137.924 688.422 138.321C686.488 138.72 684.272 139.401 681.773 140.364C679.274 141.331 677.4 142.381 676.149 143.515C674.899 144.65 673.82 146.154 672.91 148.026C672 149.899 671.545 152.084 671.549 154.581C671.549 164.115 677.628 168.883 689.787 168.883V168.883ZM762.152 84.905C758.922 88.1096 755.005 89.7115 750.403 89.7109C745.802 89.7109 741.885 88.109 738.654 84.905C735.424 81.7013 733.808 77.6849 733.808 72.8559C733.808 68.0733 735.424 64.0682 738.654 60.841C741.885 57.6139 745.8 56.0003 750.403 56C755.006 56 758.922 57.6135 762.152 60.841C765.383 64.0689 766.998 68.074 767 72.8559C767 77.6852 765.385 81.7017 762.152 84.905ZM740.537 83.1986C743.117 85.9155 746.405 87.2739 750.403 87.2739C754.401 87.2739 757.69 85.9155 760.27 83.1986C762.85 80.4828 764.14 77.0351 764.14 72.8559C764.14 68.7234 762.839 65.2871 760.236 62.5473C757.632 59.808 754.354 58.4383 750.403 58.4379C746.452 58.4379 743.175 59.8077 740.572 62.5473C737.968 65.2874 736.667 68.7237 736.668 72.8559C736.668 77.0351 737.958 80.4828 740.537 83.1986V83.1986ZM743.919 81.5623V63.7318H752.146C753.773 63.7318 755.121 64.2076 756.191 65.1592C756.707 65.6021 757.118 66.1533 757.396 66.7734C757.672 67.3939 757.808 68.0676 757.795 68.7467C757.795 71.0223 756.678 72.4385 754.448 72.995V73.0648C756.122 73.5293 757.051 74.7366 757.237 76.6864C757.282 77.1042 757.331 77.5687 757.376 78.0797C757.423 78.5908 757.457 79.0087 757.481 79.3332C757.504 79.6587 757.527 79.9843 757.551 80.3088C757.559 80.5583 757.606 80.8048 757.69 81.0396C757.716 81.1119 757.758 81.1773 757.811 81.2317C757.866 81.286 757.931 81.3275 758.004 81.3536V81.5625H754.587C754.168 81.3768 753.912 80.0071 753.82 77.4531C753.728 75.4096 752.588 74.3881 750.403 74.3885H747.475V81.5625L743.919 81.5623V81.5623ZM747.475 66.6565V71.6715H751.379C753.331 71.6715 754.309 70.8358 754.309 69.1645C754.309 67.4922 753.333 66.6562 751.379 66.6565H747.475V66.6565Z"></path>
</svg>
