<svg xmlns="http://www.w3.org/2000/svg" fill="none" viewBox="0 0 850 263" height="263" width="850">
<path fill="white" d="M678.947 165.621V96.0293C680.738 95.2582 681.953 93.5232 681.953 91.4669C681.953 88.7681 679.715 86.519 676.965 86.519C675.813 86.519 674.79 86.9046 673.959 87.4829L611.794 52.2049C611.794 52.1407 611.794 52.0122 611.794 51.9479C611.794 49.249 609.555 47 606.805 47C604.055 47 601.817 49.1848 601.817 51.9479C601.817 52.2049 601.817 52.462 601.88 52.719L540.803 87.4186C540.035 86.8403 539.076 86.519 537.989 86.519C535.238 86.519 533 88.7681 533 91.4669C533 93.3304 534.087 95.0011 535.622 95.8365V165.814C534.023 166.649 533 168.256 533 170.184C533 172.883 535.238 175.132 537.989 175.132C538.884 175.132 539.715 174.939 540.419 174.489L602.648 209.831C602.52 210.217 602.52 210.602 602.52 211.052C602.52 213.751 604.758 216 607.509 216C610.259 216 612.497 213.751 612.497 211.052C612.497 210.538 612.433 210.088 612.305 209.638L674.406 174.36C675.174 174.81 676.069 175.067 677.029 175.067C679.779 175.067 682.017 172.883 682.017 170.119C681.953 168.127 680.738 166.392 678.947 165.621ZM676.965 173.846C676.517 173.846 676.133 173.782 675.749 173.654C674.662 173.268 673.767 172.368 673.447 171.276C673.319 170.955 673.255 170.569 673.255 170.184C673.255 168.577 674.279 167.228 675.749 166.714C676.133 166.585 676.517 166.521 676.965 166.521C677.668 166.521 678.372 166.714 678.947 167.099C679.971 167.742 680.674 168.898 680.674 170.184C680.674 172.176 679.011 173.846 676.965 173.846ZM676.965 87.8042C679.011 87.8042 680.674 89.4106 680.674 91.4669C680.674 92.7521 679.971 93.9087 678.947 94.5513C678.372 94.9369 677.668 95.1297 676.965 95.1297C676.517 95.1297 676.133 95.0654 675.749 94.9369C674.279 94.4228 673.255 93.0734 673.255 91.4669C673.255 91.2741 673.255 91.0171 673.319 90.8243C673.511 89.6677 674.215 88.7681 675.238 88.254C675.749 87.997 676.325 87.8042 676.965 87.8042ZM606.805 48.3494C608.724 48.3494 610.259 49.7631 610.515 51.4981C610.515 51.6266 610.515 51.8194 610.515 51.9479C610.515 52.976 610.067 53.8757 609.363 54.5183C608.724 55.1608 607.764 55.5464 606.741 55.5464C605.91 55.5464 605.142 55.2894 604.503 54.8395C603.607 54.197 603.032 53.1688 603.032 52.0122V51.9479C603.096 49.9559 604.758 48.3494 606.805 48.3494ZM603.415 55.5464C604.311 56.3817 605.526 56.8958 606.805 56.8958C608.276 56.8958 609.619 56.2532 610.578 55.2251L672.104 90.1817C671.976 90.5673 671.912 91.0171 671.912 91.4669C671.912 92.1738 672.04 92.8806 672.36 93.4589L611.538 128.287H611.474C610.578 127.066 609.107 126.295 607.445 126.295C605.782 126.295 604.375 127.066 603.415 128.287L542.593 93.4589C542.849 92.8806 543.041 92.1738 543.041 91.4669C543.041 90.9529 542.977 90.4388 542.849 89.989L603.415 55.5464ZM611.218 211.052C611.218 213.044 609.555 214.715 607.509 214.715C605.462 214.715 603.799 213.044 603.799 211.052C603.799 210.859 603.799 210.667 603.863 210.538C604.055 209.381 604.758 208.417 605.718 207.903C606.229 207.582 606.869 207.454 607.509 207.454C608.084 207.454 608.66 207.582 609.107 207.839C610.131 208.353 610.898 209.253 611.154 210.41C611.154 210.538 611.218 210.795 611.218 211.052ZM607.509 134.906C605.462 134.906 603.799 133.299 603.799 131.243C603.799 129.187 605.462 127.58 607.509 127.58C609.555 127.58 611.218 129.187 611.218 131.243C611.218 133.299 609.555 134.906 607.509 134.906ZM537.989 87.8042C538.5 87.8042 539.076 87.9327 539.523 88.1255C540.547 88.5753 541.378 89.5392 541.634 90.6316C541.698 90.8886 541.762 91.1456 541.762 91.4669C541.762 93.2019 540.547 94.6798 538.884 95.0011C538.628 95.0654 538.308 95.1297 538.053 95.1297C537.157 95.1297 536.326 94.8084 535.686 94.2943C534.791 93.6517 534.279 92.6236 534.279 91.4669C534.279 89.4749 535.942 87.8042 537.989 87.8042ZM537.989 173.846C535.942 173.846 534.279 172.24 534.279 170.184C534.279 169.027 534.791 167.999 535.622 167.356C536.262 166.842 537.093 166.521 537.989 166.521C538.308 166.521 538.564 166.521 538.82 166.649C540.483 167.035 541.698 168.449 541.698 170.184C541.698 170.633 541.634 171.019 541.442 171.405C541.058 172.497 540.099 173.332 538.948 173.654C538.692 173.782 538.372 173.846 537.989 173.846ZM542.593 172.047C542.849 171.469 542.977 170.826 542.977 170.184C542.977 167.742 541.186 165.75 538.82 165.3V96.3506C539.907 96.1578 540.931 95.5795 541.634 94.8084L602.584 129.701L602.648 129.765C602.52 130.215 602.392 130.729 602.392 131.243C602.392 133.685 604.247 135.741 606.613 136.127V206.168C605.782 206.297 605.014 206.618 604.311 207.132L542.593 172.047ZM610.387 207.004C609.747 206.554 609.044 206.297 608.276 206.168V136.127C610.642 135.741 612.497 133.685 612.497 131.243C612.497 130.729 612.433 130.215 612.241 129.765L673.191 94.8726L673.319 94.8084C673.959 95.5152 674.79 96.0293 675.813 96.2863V165.429C673.639 165.943 672.04 167.87 672.04 170.184C672.04 170.762 672.168 171.34 672.36 171.919L610.387 207.004Z"></path>
<path fill="white" d="M729.984 150.649H722.885V103.74H729.984V150.649ZM756.206 103.74C759.276 103.74 761.898 104.062 764.2 104.768C766.439 105.475 768.358 106.439 769.829 107.724C771.3 109.01 772.387 110.552 773.154 112.351C773.858 114.15 774.242 116.142 774.242 118.391C774.242 120.576 773.858 122.632 773.09 124.432C772.323 126.295 771.172 127.837 769.637 129.187C768.102 130.536 766.247 131.564 764.009 132.271C761.77 132.978 759.148 133.363 756.27 133.363H748.915V150.649H741.816V103.74H756.206ZM756.206 127.902C757.997 127.902 759.596 127.644 760.939 127.195C762.282 126.745 763.433 126.102 764.392 125.267C765.288 124.432 765.991 123.403 766.439 122.247C766.887 121.09 767.142 119.805 767.142 118.391C767.142 115.564 766.247 113.315 764.456 111.644C762.666 110.038 759.915 109.202 756.206 109.202H748.851V127.902H756.206ZM789.079 109.395V125.138H808.202V130.793H789.079V150.713H781.98V103.805H811.528V109.459H789.079V109.395ZM843.314 111.387C843.122 111.773 842.866 112.03 842.61 112.222C842.355 112.415 842.035 112.479 841.651 112.479C841.267 112.479 840.82 112.287 840.308 111.965C839.796 111.58 839.157 111.194 838.389 110.744C837.622 110.295 836.726 109.909 835.639 109.524C834.552 109.138 833.273 109.01 831.802 109.01C830.395 109.01 829.18 109.202 828.156 109.524C827.133 109.909 826.238 110.359 825.534 111.002C824.831 111.644 824.319 112.351 823.935 113.186C823.552 114.022 823.36 114.921 823.36 115.885C823.36 117.17 823.679 118.198 824.319 119.034C824.959 119.869 825.854 120.576 826.877 121.154C827.964 121.733 829.116 122.247 830.523 122.697C831.866 123.146 833.273 123.596 834.68 124.046C836.087 124.496 837.494 125.074 838.837 125.652C840.18 126.231 841.395 127.002 842.482 127.966C843.57 128.865 844.401 130.022 845.041 131.371C845.68 132.721 846 134.327 846 136.319C846 138.376 845.616 140.303 844.913 142.167C844.209 143.966 843.122 145.573 841.779 146.922C840.436 148.271 838.709 149.364 836.726 150.135C834.744 150.906 832.441 151.292 829.883 151.292C828.348 151.292 826.877 151.163 825.406 150.842C823.935 150.521 822.592 150.135 821.313 149.621C820.034 149.107 818.819 148.464 817.732 147.693C816.644 146.986 815.621 146.087 814.726 145.187L816.772 141.846C816.964 141.589 817.22 141.396 817.476 141.203C817.732 141.01 818.051 140.946 818.435 140.946C818.883 140.946 819.458 141.203 820.034 141.653C820.673 142.103 821.377 142.681 822.272 143.259C823.168 143.838 824.255 144.352 825.47 144.866C826.749 145.316 828.22 145.573 830.011 145.573C831.482 145.573 832.761 145.38 833.912 144.994C835.064 144.609 836.023 144.095 836.79 143.388C837.558 142.681 838.197 141.846 838.581 140.817C839.029 139.789 839.221 138.697 839.221 137.476C839.221 136.127 838.901 134.97 838.261 134.135C837.622 133.235 836.79 132.528 835.703 131.95C834.616 131.371 833.401 130.857 832.058 130.472C830.715 130.086 829.308 129.637 827.901 129.187C826.493 128.737 825.086 128.223 823.743 127.644C822.4 127.066 821.185 126.295 820.098 125.331C819.011 124.367 818.179 123.211 817.54 121.797C816.9 120.383 816.58 118.584 816.58 116.528C816.58 114.857 816.9 113.251 817.604 111.644C818.243 110.102 819.266 108.688 820.482 107.467C821.761 106.246 823.296 105.283 825.214 104.576C827.069 103.869 829.18 103.483 831.61 103.483C834.296 103.483 836.726 103.933 839.029 104.768C841.267 105.604 843.25 106.825 844.913 108.367L843.314 111.387Z"></path>
<path fill="white" d="M243.16 86.947C243.16 77.2603 235.874 72.0487 227.232 72.0487H206.391V119.463H217.066V103.318H226.103C237.173 103.318 243.16 95.8408 243.16 86.947ZM232.033 87.6268C232.033 91.7055 229.378 94.4246 225.82 94.4246H216.953V80.9424H225.82C229.435 80.9424 232.033 83.2649 232.033 87.6268ZM271.004 92.3852V81.962H267.785C264.057 81.962 260.499 83.6048 258.692 86.7205V81.962H248.638V119.406H258.974V99.5229C258.974 94.3113 262.024 92.3286 267.164 92.3286C268.576 92.3286 271.004 92.3852 271.004 92.3852ZM292.128 119.916C302.915 119.916 310.653 113.402 310.653 100.769C310.653 88.0234 302.972 81.5088 292.128 81.5088C281.397 81.5088 273.715 88.0234 273.715 100.769C273.715 113.402 281.397 119.916 292.128 119.916ZM292.128 89.9494C296.646 89.9494 300.035 93.0084 300.035 100.712C300.035 108.36 296.646 111.419 292.128 111.419C287.722 111.419 284.277 108.36 284.277 100.712C284.334 93.0084 287.722 89.9494 292.128 89.9494ZM336.295 119.293V110.626C336.295 110.626 333.923 110.852 331.777 110.852C329.574 110.852 328.896 110.229 328.896 107.963V90.4026H336.803V81.962H328.896V72.0487H318.447V82.0187H313.025V90.4026H318.447V108.473C318.447 115.441 319.464 119.689 328.162 119.689C332.85 119.689 336.295 119.293 336.295 119.293ZM357.927 119.916C368.715 119.916 376.452 113.402 376.452 100.769C376.452 88.0234 368.771 81.5088 357.927 81.5088C347.196 81.5088 339.514 88.0234 339.514 100.769C339.458 113.402 347.139 119.916 357.927 119.916ZM357.927 89.9494C362.445 89.9494 365.834 93.0084 365.834 100.712C365.834 108.36 362.445 111.419 357.927 111.419C353.522 111.419 350.076 108.36 350.076 100.712C350.076 93.0084 353.522 89.9494 357.927 89.9494ZM405.144 105.301C404.466 109.776 401.417 111.476 398.141 111.476C393.905 111.476 390.516 108.417 390.516 100.769C390.516 93.065 393.848 90.006 398.254 90.006C401.755 90.006 404.467 91.7621 405.031 96.3506H415.48C414.576 86.4372 407.573 81.5088 398.197 81.5088C387.466 81.5088 379.785 88.1933 379.785 100.882C379.785 113.628 387.692 119.916 398.423 119.916C408.025 119.916 414.52 114.988 415.593 105.301H405.144ZM437.055 119.916C447.843 119.916 455.581 113.402 455.581 100.769C455.581 88.0234 447.9 81.5088 437.055 81.5088C426.324 81.5088 418.643 88.0234 418.643 100.769C418.586 113.402 426.324 119.916 437.055 119.916ZM437.055 89.9494C441.574 89.9494 444.963 93.0084 444.963 100.712C444.963 108.36 441.574 111.419 437.055 111.419C432.65 111.419 429.205 108.36 429.205 100.712C429.205 93.0084 432.65 89.9494 437.055 89.9494ZM471 69.3296H460.608V119.463H471V69.3296ZM239.884 193.898V184.551H217.066V146.484H206.391V193.898H239.884ZM268.011 179.566C268.011 182.739 265.865 186.817 259.708 186.817C255.698 186.817 254.625 184.325 254.625 182.625C254.625 180.246 256.432 178.773 258.974 178.263C261.516 177.697 268.011 176.904 268.011 176.904V179.566ZM245.193 168.747H255.246C255.246 167.274 255.642 164.158 261.798 164.158C266.768 164.158 268.011 165.914 268.011 168.52V169.823L255.698 171.579C252.253 172.032 243.95 174.128 243.95 182.682C243.95 190.216 249.711 194.465 257.393 194.465C263.831 194.465 266.655 192.312 268.237 190.613V194.011H279.307C279.307 194.011 278.516 191.179 278.516 188.46V168.293C278.516 162.855 275.523 156.114 261.854 156.114C247.622 156.001 245.362 163.252 245.193 168.747ZM295.63 193.898V190.216C297.493 192.595 300.826 194.351 304.949 194.351C315.059 194.351 322.006 187.837 322.006 175.204C322.006 162.459 314.889 155.944 305.514 155.944C301.39 155.944 297.493 157.7 295.573 160.079V143.765H285.181V193.898H295.63ZM303.537 164.441C308.055 164.441 311.444 167.5 311.444 175.204C311.444 182.852 308.055 185.911 303.537 185.911C298.454 185.911 295.686 183.532 295.686 175.204C295.742 166.82 298.51 164.441 303.537 164.441ZM348.043 167.557H358.266C358.266 164.668 356.797 156.001 342.169 156.001C333.245 156.001 326.185 160.023 326.185 167.727C326.185 176.451 333.189 178.263 341.265 179.396L343.299 179.68C346.179 180.076 348.89 180.699 348.89 183.022C348.89 185.741 346.01 186.817 342.677 186.817C339.119 186.817 335.9 185.741 335.9 182.172H325.451C325.451 184.155 326.355 194.521 342.056 194.521C356.007 194.521 359.395 187.667 359.395 181.945C359.395 166.82 336.578 172.882 336.578 167.104C336.578 164.555 339.402 163.705 342.056 163.705C345.614 163.592 348.043 165.008 348.043 167.557Z" clip-rule="evenodd" fill-rule="evenodd"></path>
<path fill="white" d="M75.9223 167.953C77.5037 168.86 78.8027 171.126 78.8027 172.995V204.888C78.8027 206.757 77.5037 207.494 75.9223 206.587L48.4165 190.669C46.835 189.763 45.536 187.497 45.536 185.628V153.735C45.536 151.865 46.835 151.129 48.4165 152.035L75.9223 167.953ZM118.339 139.856C118.339 141.725 117.04 143.991 115.458 144.898L87.9525 160.816C86.3711 161.722 85.072 160.986 85.072 159.116V127.224C85.072 125.354 86.3711 123.088 87.9525 122.182L115.458 106.264C117.04 105.358 118.339 106.094 118.339 107.963V139.856ZM112.295 97.4835C113.933 98.4465 113.933 99.9194 112.352 100.882L84.7896 116.8C83.2082 117.707 80.5536 117.707 78.9157 116.8L11.9869 78.0533C10.349 77.0903 10.349 75.6175 11.9304 74.6545L39.4927 58.6798C41.0741 57.7734 43.7286 57.7734 45.3666 58.6798L112.295 97.4835ZM39.2667 182.002C39.2667 183.871 37.9677 184.608 36.3862 183.702L8.88048 167.783C7.29904 166.877 6 164.555 6 162.685V85.1343C6 83.2649 7.29904 82.4719 8.93696 83.4349L75.8658 122.182C77.5037 123.145 78.8027 125.411 78.8027 127.224V159.116C78.8027 160.986 77.5037 161.722 75.9223 160.816L42.1472 141.272C40.5658 140.366 39.2667 141.102 39.2667 142.972V182.002ZM124.552 104.395C124.552 102.525 125.851 100.259 127.432 99.3529L154.938 83.4349C156.519 82.5285 157.818 83.2649 157.818 85.191V162.742C157.818 164.611 156.519 166.934 154.881 167.84L87.9525 206.587C86.3146 207.55 85.0155 206.757 85.0155 204.944V172.995C85.0155 171.126 86.3146 168.86 87.896 167.953L121.615 148.467C123.196 147.56 124.495 145.238 124.495 143.425L124.552 104.395ZM91.0024 77.9967C89.421 77.0903 89.421 75.5608 91.0024 74.6545L118.565 58.7364C120.146 57.8301 122.744 57.8301 124.382 58.7364L151.944 74.6545C153.526 75.5608 153.526 77.0903 151.944 77.9967L124.382 93.9147C122.801 94.8211 120.203 94.8211 118.565 93.9147L91.0024 77.9967Z" clip-rule="evenodd" fill-rule="evenodd"></path>
</svg>
