<svg xmlns="http://www.w3.org/2000/svg" fill="none" viewBox="0 0 850 264" height="264" width="850">
<g clip-path="url(#clip0_8746_45)">
<path fill="white" d="M96.6105 159.65H54.854C48.6429 159.65 43.6291 157.799 39.8126 154.098C36.071 150.397 34.2002 146.177 34.2002 141.366V122.934C34.2002 117.974 36.071 113.755 39.7378 110.128C43.4794 106.501 48.4932 104.65 54.854 104.65H100.801L96.6854 116.716H58.6704C56.0513 116.716 53.8063 117.53 52.0103 119.011C50.2892 120.565 49.466 122.564 49.466 125.007V138.923C49.466 141.44 50.364 143.439 52.0852 144.919C53.8812 146.4 56.0513 147.14 58.7453 147.214H100.801L96.6105 159.65Z"></path>
<path fill="white" d="M144.279 151.581L139.49 159.724H122.278L155.579 104.65H172.416L205.717 159.65H188.131L183.342 151.507H144.279V151.581ZM177.205 141.44L163.736 119.011L150.341 141.44H177.205Z"></path>
<path fill="white" d="M242.684 138.109C237.37 138.109 232.955 136.48 229.663 133.075C226.37 129.67 224.649 125.673 224.649 121.083C224.649 116.494 226.295 112.645 229.663 109.387C232.881 106.204 237.221 104.65 242.684 104.65H289.753L285.563 116.494H244.255C243.058 116.494 242.01 116.938 241.187 117.752C240.364 118.566 239.99 119.529 239.915 120.787C239.99 121.824 240.364 122.786 241.187 123.674C242.085 124.488 243.207 124.933 244.48 124.933H275.086C280.698 124.933 285.114 126.561 288.481 129.966C291.923 133.445 293.645 137.443 293.645 142.032C293.645 146.844 291.923 150.989 288.481 154.394C284.964 157.873 280.549 159.65 275.086 159.65H225.322L229.513 147.732H274.562C275.984 147.732 277.181 147.214 278.154 146.326C279.127 145.363 279.651 144.253 279.651 142.92C279.651 141.588 279.127 140.478 278.229 139.589C277.331 138.627 276.209 138.183 274.862 138.183L242.684 138.109Z"></path>
<path fill="white" d="M346.402 159.65V116.568H319.163L323.278 104.65H390.179L386.063 116.568H361.593V159.65H346.402Z"></path>
<path fill="white" d="M478.182 126.339L474.365 137.517H433.432V147.362H481.699L477.583 159.576H418.391V104.65H481.699L477.583 116.864H433.507V126.339H478.182Z"></path>
<path fill="white" d="M570.226 147.214L565.96 159.65H509.836V104.65H525.027V147.214H570.226Z"></path>
<path fill="white" d="M611.833 104.65V159.65H596.642V104.65H611.833Z"></path>
<path fill="white" d="M641.317 122.934C641.317 117.974 643.187 113.681 646.854 110.053C650.596 106.426 655.61 104.576 661.896 104.576H695.795C702.156 104.576 707.169 106.426 710.836 110.053C714.503 113.607 716.374 117.826 716.374 122.786V141.44C716.374 146.177 714.503 150.397 710.761 154.098C707.02 157.799 702.006 159.65 695.72 159.65H661.821C655.61 159.65 650.596 157.799 646.779 154.098C643.038 150.397 641.167 146.177 641.167 141.366V122.934H641.317ZM691.903 147.214C694.747 147.14 696.992 146.399 698.564 144.919C700.285 143.512 701.183 141.44 701.183 138.923V124.858C701.108 122.267 700.285 120.269 698.564 118.862C696.842 117.308 694.672 116.568 691.903 116.568H665.787C663.018 116.568 660.848 117.308 659.127 118.862C657.48 120.343 656.657 122.341 656.508 124.858V138.997C656.508 141.44 657.406 143.438 659.127 144.845C660.923 146.399 663.168 147.14 665.787 147.14H691.903V147.214Z"></path>
<path fill="white" d="M816.2 159.65H800.86L761.198 123.748V159.65H745.933V104.65H761.198L800.86 140.626V104.65H816.2V159.65Z"></path>
</g>
<defs>
<clipPath id="clip0_8746_45">
<rect transform="translate(34.2002 104.65)" fill="white" height="55" width="782"></rect>
</clipPath>
</defs>
</svg>
