<svg xmlns="http://www.w3.org/2000/svg" fill="none" viewBox="0 0 850 263" height="263" width="850">
<path fill="white" d="M511.534 91.1807H484.85C482.167 91.1807 479.998 93.3491 479.998 96.0323V217.321C479.998 220.005 482.167 222.172 484.85 222.172H511.534C514.217 222.172 516.384 220.005 516.384 217.321V96.0323C516.384 93.3491 514.217 91.1807 511.534 91.1807Z"></path>
<path fill="white" d="M581.879 122.422V217.321C581.879 220.005 584.048 222.172 586.731 222.172H613.413C616.096 222.172 618.265 220.005 618.265 217.321V135.837C618.265 131.261 621.959 127.567 626.535 127.567H646.345C650.92 127.567 654.614 131.261 654.614 135.837V217.321C654.614 220.005 656.783 222.172 659.466 222.172H686.148C688.832 222.172 691 220.005 691 217.321V122.422C691 105.166 677.016 91.1807 659.759 91.1807H613.12C595.863 91.1807 581.879 105.166 581.879 122.422Z"></path>
<path fill="white" d="M498.191 40C487.146 40 478.179 48.968 478.179 60.0127C478.179 71.0572 487.146 80.0253 498.191 80.0253C509.235 80.0253 518.203 71.0572 518.203 60.0127C518.203 48.968 509.254 40 498.191 40Z"></path>
<path fill="white" d="M562.473 47.5156H535.789C533.106 47.5156 530.938 49.6841 530.938 52.3672V217.32C530.938 220.003 533.106 222.172 535.789 222.172H562.473C565.155 222.172 567.325 220.003 567.325 217.32V52.3672C567.325 49.6841 565.155 47.5156 562.473 47.5156Z"></path>
<path fill="white" d="M471.913 214.619L434.993 159.249C433.945 157.686 433.91 155.647 434.883 154.029L468.752 98.549C470.736 95.3147 468.402 91.1615 464.618 91.1615H435.93C434.24 91.1615 432.678 92.0435 431.795 93.4769L409.798 129.496C408.862 131.021 407.208 132.087 405.279 132.087C402.338 132.087 399.949 129.698 399.949 126.758V57.8438C399.949 55.1607 397.781 52.9922 395.097 52.9922H368.415C365.732 52.9922 363.562 55.1607 363.562 57.8438V217.32C363.562 220.003 365.732 222.172 368.415 222.172H395.097C397.781 222.172 399.949 220.003 399.949 217.32V184.37C399.949 181.43 402.338 179.041 405.279 179.041C407.116 179.041 408.715 179.96 409.688 181.375L435.454 220.022C436.353 221.364 437.861 222.19 439.495 222.19H467.888C471.765 222.19 474.08 217.872 471.93 214.656"></path>
<path fill="white" d="M238.765 100.24C239.739 99.2473 241.081 98.6409 242.569 98.6409C244.058 98.6409 245.381 99.229 246.337 100.203L269.969 123.836C271.88 125.747 274.986 125.747 276.897 123.836L295.697 105.036C297.608 103.125 297.608 100.019 295.697 98.1081L256.315 58.6707C248.744 51.0994 236.45 51.0994 228.879 58.6707L189.442 98.1081C187.531 100.019 187.531 103.125 189.442 105.036L208.242 123.836C210.153 125.747 213.258 125.747 215.17 123.836L238.765 100.24Z"></path>
<path fill="white" d="M321.48 123.854L312.935 115.309C311.023 113.398 307.918 113.398 306.006 115.309L246.337 174.979C245.381 175.935 244.04 176.541 242.57 176.541C241.1 176.541 239.777 175.953 238.803 174.998L179.152 115.309C177.24 113.398 174.135 113.398 172.224 115.309L163.678 123.854C156.107 131.426 156.107 143.72 163.678 151.291L228.861 216.475C236.432 224.046 248.726 224.046 256.297 216.475L321.48 151.291C329.051 143.72 329.051 131.426 321.48 123.854Z"></path>
</svg>
