<svg xmlns="http://www.w3.org/2000/svg" fill="none" viewBox="0 0 850 263" height="263" width="850">
<path fill="white" d="M239.766 189.531C232.255 189.531 225.547 188.237 219.641 185.648C213.771 183.06 209.122 179.469 205.695 174.875C202.305 170.245 200.482 164.885 200.227 158.797H217.398C217.617 162.115 218.729 164.995 220.734 167.437C222.776 169.844 225.438 171.703 228.719 173.016C232 174.328 235.646 174.984 239.656 174.984C244.068 174.984 247.969 174.219 251.359 172.687C254.786 171.156 257.466 169.023 259.398 166.289C261.331 163.518 262.297 160.328 262.297 156.719C262.297 152.964 261.331 149.664 259.398 146.82C257.503 143.94 254.714 141.68 251.031 140.039C247.385 138.398 242.974 137.578 237.797 137.578H228.336V123.797H237.797C241.953 123.797 245.599 123.049 248.734 121.555C251.906 120.06 254.385 117.982 256.172 115.32C257.958 112.622 258.852 109.469 258.852 105.859C258.852 102.396 258.068 99.388 256.5 96.8359C254.969 94.2474 252.781 92.224 249.938 90.7656C247.13 89.3073 243.813 88.5781 239.984 88.5781C236.339 88.5781 232.93 89.2526 229.758 90.6016C226.622 91.9141 224.07 93.8099 222.102 96.2891C220.133 98.7318 219.076 101.667 218.93 105.094H202.578C202.76 99.0417 204.547 93.7187 207.938 89.125C211.365 84.5312 215.885 80.9401 221.5 78.3516C227.115 75.763 233.349 74.4687 240.203 74.4687C247.385 74.4687 253.583 75.8724 258.797 78.6797C264.047 81.4505 268.094 85.151 270.938 89.7812C273.818 94.4115 275.24 99.4792 275.203 104.984C275.24 111.255 273.49 116.578 269.953 120.953C266.453 125.328 261.786 128.263 255.953 129.758V130.633C263.391 131.763 269.151 134.716 273.234 139.492C277.354 144.268 279.396 150.193 279.359 157.266C279.396 163.427 277.682 168.951 274.219 173.836C270.792 178.721 266.107 182.568 260.164 185.375C254.221 188.146 247.422 189.531 239.766 189.531ZM391.961 76V188H376.43L319.5 105.859H318.461V188H301.563V76H317.203L374.188 158.25H375.227V76H391.961ZM488.635 76H505.588V149.664C505.588 157.503 503.747 164.448 500.064 170.5C496.382 176.516 491.205 181.255 484.533 184.719C477.861 188.146 470.041 189.859 461.072 189.859C452.14 189.859 444.338 188.146 437.666 184.719C430.994 181.255 425.817 176.516 422.135 170.5C418.452 164.448 416.611 157.503 416.611 149.664V76H433.51V148.297C433.51 153.365 434.622 157.867 436.846 161.805C439.106 165.742 442.296 168.841 446.416 171.102C450.536 173.326 455.421 174.437 461.072 174.437C466.76 174.437 471.663 173.326 475.783 171.102C479.939 168.841 483.111 165.742 485.299 161.805C487.523 157.867 488.635 153.365 488.635 148.297V76ZM530.156 76H550.664L586.32 163.062H587.633L623.289 76H643.797V188H627.719V106.953H626.68L593.648 187.836H580.305L547.273 106.898H546.234V188H530.156V76Z"></path>
</svg>
