<svg xmlns="http://www.w3.org/2000/svg" fill="none" viewBox="0 0 851 263" height="263" width="851">
<path fill="white" d="M230.355 159.75C230.355 137.991 214.599 122.712 194.682 122.712C177.084 122.712 158.122 136.354 158.122 159.75C158.122 182.873 175.515 197.47 194.682 197.47C214.599 197.47 230.355 181.304 230.355 159.75ZM250.75 159.955C250.75 193.991 226.195 216.432 196.592 216.432C181.108 216.432 165.352 209.474 158.19 196.992V214.113H138V47H158.122V122.917C165.284 110.23 180.563 103.75 196.796 103.75C226.399 103.75 250.75 125.713 250.75 159.955ZM269.507 214.181H289.629V106.001H269.507V214.181ZM265.347 66.235C265.347 58.5956 271.826 52.7978 279.466 52.7978C287.378 52.7978 293.858 58.5956 293.858 66.235C293.858 73.8744 287.378 79.6722 279.466 79.6722C271.826 79.6722 265.347 73.8744 265.347 66.235ZM367.456 123.394H344.06V214.181H323.938V123.394H304.499V106.001H323.938V65.0755H344.06V106.069H367.456V123.394ZM522.836 159.75C522.836 137.991 507.08 122.712 487.163 122.712C469.565 122.712 450.603 136.354 450.603 159.75C450.603 182.873 467.996 197.47 487.163 197.47C507.08 197.47 522.836 181.304 522.836 159.75ZM543.163 159.955C543.163 193.991 518.607 216.432 489.005 216.432C473.521 216.432 457.765 209.474 450.603 196.992V214.113H430.481V47H450.603V122.917C457.765 110.162 473.044 103.682 489.278 103.682C518.88 103.75 543.163 125.713 543.163 159.955ZM557.555 66.235C557.555 73.8744 564.035 79.6722 571.674 79.6722C579.518 79.6722 585.998 73.8744 585.998 66.235C585.998 58.5956 579.518 52.7978 571.674 52.7978C564.035 52.7978 557.555 58.5956 557.555 66.235ZM561.716 214.181H581.837V106.001H561.716V214.181Z"></path>
<path fill="white" d="M557.555 66.235C557.555 73.8744 564.035 79.6722 571.674 79.6722C579.518 79.6722 585.998 73.8744 585.998 66.235C585.998 58.5956 579.518 52.7978 571.674 52.7978C564.035 52.7978 557.555 58.5956 557.555 66.235ZM561.716 214.181H581.837V106.001H561.716V214.181Z"></path>
<path fill="white" d="M600.39 159.75C600.39 193.991 626.105 216.5 656.868 216.5C687.698 216.5 713.618 194.059 713.618 159.75C713.618 125.441 687.698 103.75 656.868 103.75C626.105 103.75 600.39 125.509 600.39 159.75ZM620.785 159.75C620.785 137.514 637.223 122.712 656.936 122.712C676.853 122.712 693.496 137.514 693.496 159.75C693.496 182.191 676.853 197.47 656.936 197.47C637.223 197.47 620.785 182.191 620.785 159.75Z"></path>
</svg>
