<svg xmlns="http://www.w3.org/2000/svg" fill="none" viewBox="0 0 850 263" height="263" width="850">
<g clip-path="url(#clip0_9162_37)">
<path fill="white" d="M137.414 156.75C137.414 139.807 134.493 127.195 128.65 118.907C122.806 110.622 113.766 106.481 101.53 106.481C96.1415 106.481 90.8004 106.985 85.5063 107.998C80.2092 108.918 76.3752 109.931 74.0014 111.035V213.926C81.6693 215.399 90.8475 216.133 101.53 216.133C114.131 216.133 123.259 211.163 128.923 201.219C134.585 191.275 137.414 176.452 137.414 156.75ZM51.2646 38.5309L32.5 35.2131V29H74.0014V75.4025C74.0014 80.3762 73.7251 89.4908 73.1787 102.75C82.3098 95.5682 93.8148 91.976 107.694 91.976C125.224 91.976 138.648 97.3628 147.961 108.136C157.365 118.815 162.069 135.02 162.069 156.75C162.069 180.044 156.91 197.769 146.589 209.924C136.365 221.984 121.525 228.014 102.076 228.014C94.2261 228.014 85.5503 227.137 76.0549 225.39C66.6506 223.64 58.3862 221.337 51.2646 218.483V38.5309ZM230.27 53.0323C230.27 57.0818 228.81 60.5795 225.886 63.5283C222.966 66.474 219.449 67.9437 215.342 67.9437C211.323 67.9437 207.853 66.474 204.933 63.5283C202.013 60.5795 200.55 57.0818 200.55 53.0292C200.55 48.8882 202.01 45.3432 204.933 42.3975C207.853 39.4487 211.323 37.9758 215.342 37.9758C219.449 37.9758 222.966 39.4487 225.886 42.3975C228.807 45.3432 230.27 48.8882 230.27 53.0323ZM228.901 215.582L250.953 219.035V225.248H184.25V219.035L206.167 215.585V105.096L187.949 101.646V95.4326H228.901V215.582ZM433.877 105.925C440.807 101.928 448.098 98.5981 455.653 95.9814C463.324 93.3132 470.078 91.976 475.925 91.976C482.223 91.976 488.023 93.1745 493.317 95.5682C498.705 97.962 502.721 101.781 505.371 107.029C512.402 103.071 520.619 99.5736 530.024 96.5333C539.519 93.4962 547.372 91.976 553.583 91.976C575.497 91.976 586.453 104.73 586.453 130.232V215.585L603.025 219.035V225.248H544.543V219.035L563.716 215.585V132.717C563.716 116.885 556.412 108.963 541.802 108.963C539.428 108.963 536.643 109.149 533.449 109.518C530.344 109.884 527.194 110.3 523.998 110.76C520.892 111.221 517.881 111.77 514.958 112.416L507.836 113.797C509.388 118.771 510.163 124.249 510.163 130.232V215.585L529.477 219.035V225.248H468.392V219.035L487.43 215.585V132.717C487.43 125.076 485.464 119.232 481.539 115.182C477.705 111.035 471.905 108.966 464.143 108.966C456.108 108.966 446.11 110.3 434.15 112.971V215.582L453.461 219.032V225.245H395.113V219.032L411.413 215.582V105.096L395.113 101.646V95.4326H432.781L433.877 105.925ZM665.066 53.0323C665.066 57.0818 663.602 60.5795 660.682 63.5283C657.759 66.474 654.245 67.9437 650.135 67.9437C646.119 67.9437 642.649 66.474 639.726 63.5283C636.806 60.5795 635.342 57.0818 635.342 53.0292C635.342 48.8882 636.806 45.3432 639.726 42.3975C642.649 39.4487 646.119 37.9758 650.135 37.9758C654.245 37.9758 657.759 39.4487 660.682 42.3975C663.602 45.3432 665.066 48.8882 665.066 53.0323ZM663.697 215.582L685.746 219.035V225.248H619.046V219.035L640.96 215.585V105.096L622.742 101.646V95.4326H663.697V215.582ZM760.522 92.5279C774.586 92.5279 784.904 95.4295 791.476 101.233C798.142 107.029 801.477 115.917 801.477 127.883V215.585L817.5 219.035V225.248H782.162L779.563 212.27C769.15 222.766 755.865 228.014 739.703 228.014C717.698 228.014 706.696 215.124 706.696 189.345C706.696 180.687 708.341 173.553 711.625 167.936C715.004 162.228 720.348 157.901 727.652 154.955C734.956 151.915 745.547 150.256 759.429 149.982L778.74 149.43V129.128C778.74 120.197 777.095 113.611 773.81 109.379C770.614 105.143 765.637 103.027 758.879 103.027C749.748 103.027 741.393 105.191 733.816 109.518L729.159 125.675H721.488V97.3628C736.281 94.1395 749.293 92.5279 760.522 92.5279ZM778.74 159.096L760.798 159.651C748.561 160.109 740.253 162.505 735.869 166.833C731.577 171.16 729.432 178.385 729.432 188.515C729.432 204.72 735.961 212.822 749.017 212.822C755.228 212.822 760.569 212.128 765.043 210.75C769.73 209.227 774.307 207.381 778.74 205.224V159.096Z"></path>
<path fill="white" d="M359.559 215.219C350.416 225.144 338.512 231.376 325.003 231.881C307.809 232.521 292.26 223.718 281.163 209.479L281.153 209.476C274.892 207.098 270.876 201.503 270.32 197.365C270.163 196.173 270.672 194.788 271.595 193.442C267.334 183.904 264.687 173.14 264.116 161.808C262.138 122.795 285.304 88.6771 317.681 87.4723C323.356 87.26 329.022 88.0784 334.408 89.8881C334.725 89.6358 335.051 89.4088 335.387 89.2258C338.132 87.6962 343.043 86.7595 347.037 88.1031C353.339 90.2225 357.49 95.666 358.152 99.7881C358.366 101.119 357.751 102.721 356.655 104.27C369.196 117.197 377.498 136.376 378.572 157.538C379.52 176.263 374.678 193.858 365.808 207.227C366.244 207.441 366.674 207.621 367.076 207.795C368.317 208.315 369.296 208.728 369.485 209.662C369.836 211.39 368.405 214.582 366.492 215.471C365.095 216.121 362.605 216.427 360.592 215.676C360.239 215.544 359.894 215.392 359.559 215.219ZM355.587 159.238C358.184 161.203 360.263 164.158 361.641 166.974C364.458 172.714 365.72 180.139 363.271 185.983C361.481 190.247 357.226 194.782 352.538 194.854H352.149C349.671 200.225 346.098 205.193 340.98 208.151C329.814 214.601 312.757 218.108 301.846 211.519C286.922 202.509 285.389 181.728 284.127 164.625L283.876 161.294L283.775 159.995C282.679 146.039 281.345 128.99 291.927 119.175C301.41 110.376 319.417 107.36 331.387 112.678C344.173 118.361 348.629 133.787 352.438 146.979C352.777 148.152 353.113 149.31 353.446 150.439C354.293 153.309 355.022 156.251 355.587 159.238Z" clip-rule="evenodd" fill-rule="evenodd"></path>
<path fill="white" d="M296.617 155.775C294.963 155.413 292.991 156.576 291.911 157.854C290.435 159.601 290.099 162.184 290.482 164.335C290.771 165.95 291.6 167.807 293.17 168.504C294.912 169.274 297.453 168.943 299.004 167.779C300.809 166.429 301.72 163.833 301.409 161.736C301.042 159.244 299.227 156.349 296.617 155.775Z" clip-rule="evenodd" fill-rule="evenodd"></path>
<path fill="white" d="M305.052 179.306C306.138 177.763 307.74 176.158 309.834 175.647C312.924 174.893 317.204 175.064 319.332 177.003C322.438 179.829 321.015 184.632 320.124 188.363C319.405 191.363 318.595 195.154 315.313 196.68C312.462 198.008 307.991 197.689 305.523 195.958C302.653 193.943 302.917 190.051 302.904 186.969C302.891 184.352 303.444 181.583 305.052 179.306Z" clip-rule="evenodd" fill-rule="evenodd"></path>
<path fill="white" d="M332.436 152.987C334.065 152.52 335.262 150.555 335.613 148.918C336.097 146.673 335.189 144.235 333.846 142.522C332.834 141.236 331.239 139.99 329.525 140.125C327.628 140.27 325.543 141.772 324.718 143.532C323.757 145.582 324.168 148.306 325.421 150.01C326.909 152.028 329.867 153.722 332.436 152.987Z" clip-rule="evenodd" fill-rule="evenodd"></path>
<path fill="white" d="M319.826 143.8C319.591 145.676 318.928 147.853 317.317 149.3C314.947 151.432 311.094 153.318 308.312 152.621C304.252 151.603 303.256 146.692 302.302 142.974C301.533 139.987 300.474 136.259 302.657 133.354C304.55 130.828 308.642 128.983 311.628 129.336C315.101 129.746 316.683 133.31 318.14 136.023C319.371 138.322 320.181 141.025 319.826 143.8Z" clip-rule="evenodd" fill-rule="evenodd"></path>
<path fill="white" d="M321.695 157.651C320.018 157.894 318.574 159.676 318.005 161.253C317.224 163.41 317.798 165.952 318.903 167.829C319.732 169.242 321.149 170.693 322.863 170.793C324.763 170.904 327.03 169.699 328.082 168.069C329.306 166.167 329.262 163.41 328.248 161.553C327.042 159.348 324.339 157.273 321.695 157.651Z" clip-rule="evenodd" fill-rule="evenodd"></path>
<path fill="white" d="M335.08 171.731C334.932 169.845 335.14 167.58 336.424 165.833C338.314 163.256 341.705 160.617 344.572 160.73C348.752 160.891 350.717 165.496 352.403 168.936C353.763 171.702 355.55 175.137 354.002 178.429C352.658 181.293 349.025 183.939 346.029 184.204C342.547 184.516 340.277 181.356 338.305 179C336.631 177.001 335.294 174.522 335.08 171.731Z" clip-rule="evenodd" fill-rule="evenodd"></path>
</g>
<defs>
<clipPath id="clip0_9162_37">
<rect transform="translate(32.5 29)" fill="white" height="205" width="785"></rect>
</clipPath>
</defs>
</svg>
