<svg xmlns="http://www.w3.org/2000/svg" fill="none" viewBox="0 0 850 263" height="263" width="850">
<path fill="white" d="M425.112 17.0054C361.548 16.3958 310.61 67.9437 310 130.898C310 194.462 361.548 246.01 424.502 246.01C487.457 246.01 538.395 195.072 539.005 132.64C539.005 68.5532 488.066 17.6149 425.112 17.0054ZM479.446 68.5532C477.182 70.2946 474.309 69.6851 472.045 67.4212C470.303 65.6797 469.171 64.0253 467.43 62.2838C464.034 57.6689 458.809 57.1465 454.804 61.1519C451.931 64.0253 449.057 68.0307 447.403 72.0361C443.397 84.0523 440.524 96.6781 436.519 109.217L468.039 113.832L465.775 122.452L435.474 117.837L432.078 136.123L464.73 140.738L462.467 149.358L430.423 144.743C428.159 152.144 427.027 160.242 424.154 167.034C421.281 175.045 418.407 183.055 415.011 190.544C410.396 200.296 402.385 207.175 391.501 208.829C385.232 209.961 378.353 209.439 373.216 205.434C371.474 204.302 369.82 202.038 369.82 200.296C369.82 198.032 370.952 195.159 372.693 194.027C373.825 193.417 376.699 194.027 378.44 194.636C380.182 196.378 381.836 198.642 383.055 200.906C386.451 205.521 391.066 206.043 395.681 202.647C400.818 198.032 403.692 191.763 405.433 185.494C408.829 171.736 412.312 158.588 415.185 144.83V142.392L384.884 137.777L386.016 129.157L417.536 133.772L421.542 116.008L388.889 110.871L390.021 101.728L423.806 106.343C424.938 102.947 425.547 100.074 426.679 97.2005C429.553 86.9258 432.426 76.564 439.305 67.4212C446.184 58.2784 454.195 52.5315 466.211 53.1411C471.348 53.1411 476.485 54.8825 479.968 58.8879C480.578 59.4975 481.71 60.6294 481.71 61.7614C481.187 63.9382 481.187 66.8117 479.446 68.5532Z" clip-rule="evenodd" fill-rule="evenodd"></path>
</svg>
