<svg xmlns="http://www.w3.org/2000/svg" fill="none" viewBox="0 0 850 263" height="263" width="850">
<g clip-path="url(#clip0_1372_1316)">
<path fill="white" d="M98.24 187.7C81.0133 187.7 67.1867 182.147 56.76 171.04C46.4467 159.933 41.29 144.237 41.29 123.95C41.29 103.89 46.2767 88.25 56.25 77.03C66.3367 65.81 80.3333 60.2 98.24 60.2C105.947 60.2 112.973 60.7667 119.32 61.9C121.587 62.3533 123.457 63.5433 124.93 65.47C126.403 67.2833 127.14 69.38 127.14 71.76C127.14 73.8 126.29 75.4433 124.59 76.69C123.003 77.8233 121.247 78.1067 119.32 77.54C113.993 76.18 107.533 75.5 99.94 75.5C87.7 75.5 78.01 79.75 70.87 88.25C63.8433 96.6367 60.33 108.537 60.33 123.95C60.33 139.363 63.9567 151.32 71.21 159.82C78.4633 168.207 88.04 172.4 99.94 172.4C107.42 172.4 114.163 171.663 120.17 170.19C122.097 169.623 123.853 169.963 125.44 171.21C127.14 172.457 127.99 174.1 127.99 176.14C127.99 178.52 127.253 180.673 125.78 182.6C124.307 184.413 122.38 185.547 120 186C113.313 187.133 106.06 187.7 98.24 187.7ZM175.084 183.28C173.271 185.093 171.117 186 168.624 186C166.131 186 163.921 185.093 161.994 183.28C160.181 181.467 159.274 179.257 159.274 176.65V67.85C159.274 65.2433 160.181 63.0333 161.994 61.22C163.921 59.4067 166.131 58.5 168.624 58.5C171.117 58.5 173.271 59.4067 175.084 61.22C177.011 63.0333 177.974 65.2433 177.974 67.85V176.65C177.974 179.257 177.011 181.467 175.084 183.28ZM267.601 141.8C267.601 120.267 259.781 109.5 244.141 109.5C228.501 109.5 220.681 120.267 220.681 141.8C220.681 163.333 228.501 174.1 244.141 174.1C259.781 174.1 267.601 163.333 267.601 141.8ZM274.741 175.8C267.375 183.733 257.175 187.7 244.141 187.7C231.108 187.7 220.908 183.733 213.541 175.8C206.175 167.753 202.491 156.42 202.491 141.8C202.491 127.18 206.175 115.903 213.541 107.97C220.908 99.9233 231.108 95.9 244.141 95.9C257.175 95.9 267.375 99.9233 274.741 107.97C282.108 115.903 285.791 127.18 285.791 141.8C285.791 156.42 282.108 167.753 274.741 175.8ZM342.608 187.7C329.008 187.7 318.525 183.847 311.158 176.14C303.792 168.32 300.108 156.873 300.108 141.8C300.108 126.953 303.678 115.62 310.818 107.8C317.958 99.8667 327.988 95.9 340.908 95.9C346.915 95.9 352.638 96.2967 358.078 97.09C360.232 97.43 361.988 98.45 363.348 100.15C364.822 101.85 365.558 103.833 365.558 106.1C365.558 108.027 364.765 109.557 363.178 110.69C361.705 111.823 360.005 112.163 358.078 111.71C352.525 110.463 347.255 109.84 342.268 109.84C334.448 109.84 328.555 112.39 324.588 117.49C320.735 122.59 318.808 130.693 318.808 141.8C318.808 153.133 320.848 161.293 324.928 166.28C329.122 171.267 335.468 173.76 343.968 173.76C349.295 173.76 354.395 173.023 359.268 171.55C361.082 170.983 362.725 171.267 364.198 172.4C365.672 173.42 366.408 174.837 366.408 176.65C366.408 178.917 365.672 180.957 364.198 182.77C362.725 184.583 360.912 185.717 358.758 186.17C353.318 187.19 347.935 187.7 342.608 187.7ZM406.042 183.45C404.342 185.15 402.246 186 399.752 186C397.259 186 395.162 185.15 393.462 183.45C391.762 181.75 390.912 179.653 390.912 177.16V67.34C390.912 64.8467 391.762 62.75 393.462 61.05C395.162 59.35 397.259 58.5 399.752 58.5C402.246 58.5 404.342 59.35 406.042 61.05C407.856 62.75 408.762 64.8467 408.762 67.34V136.53C408.762 136.643 408.819 136.7 408.932 136.7L409.272 136.53L439.532 104.57C443.952 99.9233 449.392 97.6 455.852 97.6H457.722C459.536 97.6 460.782 98.45 461.462 100.15C462.256 101.85 462.029 103.323 460.782 104.57L427.632 139.08C427.066 139.647 427.066 140.327 427.632 141.12L460.952 178.86C462.199 180.22 462.426 181.75 461.632 183.45C460.952 185.15 459.649 186 457.722 186H455.852C449.506 186 444.179 183.563 439.872 178.69L409.272 143.67C409.159 143.557 409.046 143.5 408.932 143.5C408.819 143.5 408.762 143.557 408.762 143.67V177.16C408.762 179.653 407.856 181.75 406.042 183.45ZM549.085 128.71V170.02C549.085 170.927 549.539 171.493 550.445 171.72C554.865 172.4 559.512 172.74 564.385 172.74C575.039 172.74 582.859 170.757 587.845 166.79C592.832 162.823 595.325 156.76 595.325 148.6C595.325 141.233 592.322 135.85 586.315 132.45C580.309 128.937 570.165 127.18 555.885 127.18H550.615C549.595 127.18 549.085 127.69 549.085 128.71ZM549.085 77.88V111.03C549.085 112.05 549.595 112.56 550.615 112.56H555.885C568.352 112.56 577.305 110.973 582.745 107.8C588.299 104.627 591.075 99.81 591.075 93.35C591.075 87.1167 588.865 82.5267 584.445 79.58C580.025 76.6333 572.772 75.16 562.685 75.16C558.379 75.16 554.299 75.5 550.445 76.18C549.539 76.4067 549.085 76.9733 549.085 77.88ZM540.075 186.51C537.242 186.17 534.919 184.98 533.105 182.94C531.292 180.787 530.385 178.293 530.385 175.46V72.44C530.385 69.6067 531.292 67.17 533.105 65.13C534.919 62.9767 537.242 61.73 540.075 61.39C546.875 60.5967 554.412 60.2 562.685 60.2C593.285 60.2 608.585 70.4 608.585 90.8C608.585 97.6 606.262 103.607 601.615 108.82C596.969 113.92 590.849 117.207 583.255 118.68C583.142 118.68 583.085 118.737 583.085 118.85C583.085 118.963 583.142 119.02 583.255 119.02C592.775 120.493 600.199 124.007 605.525 129.56C610.965 135.113 613.685 142.027 613.685 150.3C613.685 175.233 597.252 187.7 564.385 187.7C555.432 187.7 547.329 187.303 540.075 186.51ZM638.229 67.85C638.229 65.2433 639.136 63.0333 640.949 61.22C642.876 59.4067 645.086 58.5 647.579 58.5C650.072 58.5 652.226 59.4067 654.039 61.22C655.966 63.0333 656.929 65.2433 656.929 67.85C656.929 70.4567 655.966 72.6667 654.039 74.48C652.226 76.2933 650.072 77.2 647.579 77.2C645.086 77.2 642.876 76.2933 640.949 74.48C639.136 72.6667 638.229 70.4567 638.229 67.85ZM654.039 183.28C652.226 185.093 650.072 186 647.579 186C645.086 186 642.876 185.093 640.949 183.28C639.136 181.467 638.229 179.257 638.229 176.65V106.95C638.229 104.343 639.136 102.133 640.949 100.32C642.876 98.5067 645.086 97.6 647.579 97.6C650.072 97.6 652.226 98.5067 654.039 100.32C655.966 102.133 656.929 104.343 656.929 106.95V176.65C656.929 179.257 655.966 181.467 654.039 183.28ZM746.556 141.8C746.556 120.267 738.736 109.5 723.096 109.5C707.456 109.5 699.636 120.267 699.636 141.8C699.636 163.333 707.456 174.1 723.096 174.1C738.736 174.1 746.556 163.333 746.556 141.8ZM753.696 175.8C746.33 183.733 736.13 187.7 723.096 187.7C710.063 187.7 699.863 183.733 692.496 175.8C685.13 167.753 681.446 156.42 681.446 141.8C681.446 127.18 685.13 115.903 692.496 107.97C699.863 99.9233 710.063 95.9 723.096 95.9C736.13 95.9 746.33 99.9233 753.696 107.97C761.063 115.903 764.746 127.18 764.746 141.8C764.746 156.42 761.063 167.753 753.696 175.8Z"></path>
</g>
<defs>
<clipPath id="clip0_1372_1316">
<rect fill="white" height="263" width="849.2"></rect>
</clipPath>
</defs>
</svg>
