<svg xmlns="http://www.w3.org/2000/svg" fill="none" viewBox="0 0 850 263" height="263" width="850">
<g clip-path="url(#clip0_2147_1355)">
<path fill="white" d="M461.356 187.812C458.509 184.746 455.494 183.213 451.181 183.213C442.724 183.213 438.411 190.051 438.411 197.779C438.411 205.507 443.586 211.732 451.609 211.732C453.505 211.797 455.391 211.415 457.114 210.616C458.838 209.818 460.35 208.624 461.531 207.132L467.05 212.675C462.997 217.183 457.471 219 451.525 219C438.93 219 430.152 210.252 430.152 197.603C430.152 184.953 438.778 175.937 451.525 175.937C457.471 175.937 463.165 178.022 467.218 182.438L461.356 187.812Z"></path>
<path fill="white" d="M493.437 175.853C497.675 175.9 501.804 177.205 505.305 179.604C508.806 182.002 511.522 185.388 513.112 189.334C514.701 193.28 515.093 197.61 514.238 201.779C513.382 205.948 511.318 209.77 508.305 212.763C505.292 215.757 501.464 217.788 497.305 218.601C493.145 219.414 488.838 218.974 484.927 217.334C481.016 215.694 477.675 212.929 475.325 209.387C472.975 205.844 471.721 201.683 471.721 197.426C471.722 194.573 472.286 191.749 473.381 189.116C474.475 186.484 476.079 184.095 478.098 182.089C480.117 180.083 482.513 178.499 485.146 177.428C487.779 176.358 490.597 175.822 493.437 175.853V175.853ZM493.437 211.724C501.719 211.724 506.894 205.745 506.894 197.426C506.894 189.108 501.719 183.128 493.437 183.128C485.155 183.128 479.988 189.108 479.988 197.426C479.988 205.745 485.163 211.724 493.437 211.724Z"></path>
<path fill="white" d="M524.923 176.896H532.686V183.22H532.854C534.839 178.889 540.014 175.853 545.067 175.853C546.237 175.844 547.401 176.02 548.517 176.374L548.173 184.807C546.932 184.443 545.649 184.24 544.357 184.202C536.724 184.202 532.625 188.357 532.625 197.373V217.988H524.923V176.896Z"></path>
<path fill="white" d="M561.317 156.449C562.443 156.447 563.545 156.781 564.483 157.409C565.42 158.036 566.151 158.929 566.583 159.974C567.015 161.019 567.129 162.169 566.91 163.279C566.691 164.389 566.15 165.409 565.354 166.209C564.558 167.01 563.543 167.555 562.438 167.777C561.333 167.998 560.188 167.885 559.147 167.453C558.106 167.02 557.217 166.287 556.591 165.346C555.965 164.405 555.63 163.299 555.63 162.168C555.644 160.657 556.248 159.211 557.311 158.142C558.374 157.073 559.812 156.465 561.317 156.449ZM557.439 176.895H565.202V217.957H557.439V176.895Z"></path>
<path fill="white" d="M577.537 176.896H585.3V183.221H585.452C587.437 178.889 592.612 175.853 598.909 175.853C606.848 175.853 613.748 180.622 613.748 191.539V217.957H606V193.701C606 185.988 601.604 183.129 596.681 183.129C590.215 183.129 585.3 187.291 585.3 196.821V217.957H577.537V176.896Z"></path>
<path fill="white" d="M647.402 183.65H636.273V202.28C636.273 206.879 636.273 211.725 642.143 211.725C644.057 211.809 645.959 211.389 647.661 210.506V217.613C645.845 218.655 642.227 219 640.67 219C628.686 219 628.51 211.633 628.51 205.047V183.65H619.542V176.896H628.51V170.763L636.273 165.396V176.896H647.402V183.65Z"></path>
<path fill="white" d="M661.889 156.449C663.015 156.449 664.116 156.784 665.053 157.413C665.989 158.041 666.719 158.934 667.15 159.979C667.581 161.024 667.694 162.174 667.474 163.284C667.254 164.393 666.712 165.412 665.915 166.212C665.119 167.012 664.105 167.557 663 167.777C661.895 167.998 660.75 167.885 659.71 167.452C658.669 167.019 657.78 166.286 657.154 165.345C656.529 164.405 656.195 163.299 656.195 162.168C656.209 160.655 656.813 159.209 657.878 158.139C658.943 157.07 660.383 156.463 661.889 156.449V156.449ZM658.011 176.895H665.774V205.691H658.011V176.895Z"></path>
<path fill="white" d="M699.84 187.192C698.855 185.9 697.583 184.859 696.125 184.15C694.667 183.442 693.064 183.087 691.444 183.113C687.818 183.113 684.628 184.761 684.628 187.713C684.628 192.65 691.62 193.348 695.07 194.13C701.794 195.77 706.97 198.369 706.97 206.082C706.97 215.351 698.52 218.992 690.406 218.992C683.681 218.992 678.674 217.26 674.621 211.717L680.491 206.864C682.987 209.379 685.926 211.717 690.414 211.717C694.383 211.717 698.695 210.069 698.695 206.519C698.695 201.835 692.23 200.968 688.864 200.194C682.224 198.546 676.354 196.361 676.354 188.495C676.354 179.916 684.208 175.845 691.879 175.845C697.314 175.845 702.924 177.754 705.855 182.607L699.84 187.192Z"></path>
<path fill="white" d="M317.322 153.819L325.642 114.483L366.86 108.349L377.095 105.053C369.508 102.178 365.417 100.2 356.563 100.2C336.19 100.2 316.482 103.535 305.239 117.557H305.193L258.517 167.496C248.327 176.804 239.32 181.028 224.894 181.028C199.018 181.028 179.096 158.948 179.096 128.589C179.096 98.2296 199.018 76.1501 226.039 76.1501C239.32 76.1501 249.625 80.98 256.724 89.4898L284.202 66.9503C270.463 49.2406 247.564 43.0308 229.474 43.0308C178.867 43.0308 142 76.3801 142 128.589C142 180.798 178.867 214.147 229.474 214.147C257.311 214.147 270.974 206.856 286.255 190.097L297.346 177.164L317.322 153.819Z"></path>
<path fill="white" d="M272.501 152.509L312.658 110.419L326.367 129.777L300.56 166.623L295.72 179.027L283.859 192.635L256.388 169.36L272.501 152.509Z"></path>
<path fill="white" d="M353.41 94.979C341.204 94.9775 329.272 98.6115 319.122 105.421C308.973 112.231 301.062 121.911 296.39 133.237C291.718 144.563 290.494 157.026 292.875 169.05C295.255 181.075 301.132 192.12 309.762 200.789C318.393 209.458 329.389 215.363 341.36 217.755C353.331 220.147 365.74 218.92 377.017 214.229C388.294 209.538 397.933 201.593 404.714 191.4C411.495 181.206 415.115 169.222 415.115 156.963C415.116 148.823 413.521 140.763 410.42 133.243C407.32 125.723 402.775 118.89 397.045 113.134C391.315 107.378 384.512 102.812 377.025 99.6974C369.538 96.5823 361.514 94.979 353.41 94.979V94.979ZM353.41 187.744C347.352 187.744 341.429 185.939 336.392 182.558C331.354 179.177 327.428 174.372 325.11 168.75C322.792 163.128 322.186 156.941 323.368 150.973C324.551 145.005 327.469 139.523 331.753 135.221C336.038 130.918 341.497 127.989 347.439 126.803C353.381 125.616 359.54 126.227 365.137 128.556C370.734 130.886 375.518 134.831 378.883 139.891C382.248 144.952 384.043 150.901 384.041 156.986C384.033 165.14 380.802 172.957 375.059 178.721C369.315 184.484 361.529 187.721 353.41 187.721V187.744Z"></path>
</g>
<defs>
<clipPath id="clip0_2147_1355">
<rect transform="translate(142 43)" fill="white" height="176" width="565"></rect>
</clipPath>
</defs>
</svg>
