<svg xmlns="http://www.w3.org/2000/svg" fill="none" viewBox="0 0 850 263" height="263" width="850">
<path fill="white" d="M240.917 89.4964C217.67 89.4964 198.728 108.438 198.728 131.685C198.728 154.932 217.67 173.873 240.917 173.873C264.163 173.873 283.105 154.932 283.105 131.685C283.009 108.438 264.163 89.4964 240.917 89.4964ZM275.93 131.685C275.93 151.009 260.241 166.698 240.917 166.698C221.592 166.698 205.903 151.009 205.903 131.685C205.903 112.36 221.592 96.6713 240.917 96.6713C260.241 96.6713 275.93 112.36 275.93 131.685Z"></path>
<path fill="white" d="M135.972 131.207C140.372 127.093 143.051 121.257 143.051 115.135C143.051 102.985 133.198 93.323 121.239 93.323H86.7042V169.76H128.127C139.224 169.76 148.217 160.767 148.217 149.67C148.121 141.634 143.338 134.459 135.972 131.207ZM94.0704 137.138H127.936C135.015 137.138 140.659 142.878 140.659 149.861C140.659 156.94 134.92 162.489 127.936 162.489H94.0704V137.138ZM121.239 129.58H94.0704V100.785H121.239C129.275 100.785 135.685 107.195 135.685 115.23C135.685 123.171 129.275 129.58 121.239 129.58Z"></path>
<path fill="white" d="M177.778 93.4187H170.411V170.238H177.778V93.4187Z"></path>
<path fill="white" d="M439.996 94.0883H413.975V169.186H439.996C460.66 169.186 477.497 152.349 477.497 131.685C477.497 110.925 460.564 94.0883 439.996 94.0883ZM439.996 156.271H426.699V106.812H439.996C453.581 106.812 464.678 117.909 464.678 131.493C464.678 145.078 453.581 156.271 439.996 156.271Z"></path>
<path fill="white" d="M393.599 94.0883H380.875V169.568H393.599V94.0883Z"></path>
<path fill="white" d="M654 94.0883H641.276V169.568H654V94.0883Z"></path>
<path fill="white" d="M673.611 94.0883V106.812H697.815V169.473H710.729V106.812H733.498V94.0883H673.611Z"></path>
<path fill="white" d="M305.874 169.473H318.693V139.242H356.672V126.423H318.693V106.812H360.881V94.0883H305.874V169.473Z"></path>
<path fill="white" d="M492.325 168.994H547.333V156.271H505.144V139.242H543.124V126.423H505.144V106.812H547.333V94.0883H492.325V168.994Z"></path>
<path fill="white" d="M580.242 94.0883H567.327V168.994H620.995V156.271H580.242V94.0883Z"></path>
<path fill="white" d="M810.126 94.0883L786.688 127.093L763.154 94.0883H747.369L780.278 140.39V170.142H793.097V140.39L825.815 94.0883H810.126Z"></path>
<path fill="white" d="M227.811 180.474L226.854 180.187L226.376 181.144C208.008 214.053 172.229 235.29 135.398 235.29C79.0509 235.29 31.4096 187.649 31.4096 131.302C31.4096 74.9553 79.0509 27.4096 135.302 27.4096C172.325 27.4096 208.104 48.6473 226.28 81.5562L226.758 82.5128L227.715 82.2258C229.054 81.9388 230.298 81.5562 231.637 81.3648L233.455 81.0778L232.594 79.4515C213.461 43.4814 176.151 21 135.206 21C74.459 21 25 70.459 25 131.398C25 192.337 74.459 241.7 135.302 241.7C176.056 241.7 213.365 219.314 232.69 183.248L233.55 181.622L231.733 181.335C230.394 181.144 229.15 180.761 227.811 180.474Z"></path>
</svg>
