<svg xmlns="http://www.w3.org/2000/svg" fill="none" viewBox="0 0 850 263" height="263" width="850">
<path fill="white" d="M407.922 97.2209L375.23 181.7H340.612L307.92 97.2259H338.694L351.627 136.424C351.746 136.648 351.801 136.871 351.801 137.1C351.92 137.324 352.035 137.608 352.149 137.946C353.434 142 354.306 145.83 354.774 149.437C355.356 153.038 355.819 157.659 356.173 163.29H359.146C359.495 159.236 359.903 155.854 360.371 153.153C360.938 149.901 361.697 146.685 362.642 143.522C362.756 142.279 362.93 141.1 363.165 139.97C363.513 138.732 363.862 137.553 364.215 136.424L377.152 97.2259H407.927L407.922 97.2209ZM447.819 97.2209V181.7H417.573V97.2259H447.819V97.2209ZM432.78 88.9386C428.354 88.9386 424.564 87.4762 421.417 84.5463C418.27 81.6164 416.696 78.1294 416.696 74.0703C416.696 70.0162 418.27 66.5789 421.417 63.7634C424.564 60.8336 428.354 59.3711 432.78 59.3711C437.212 59.3711 440.942 60.8336 443.97 63.7634C447.117 66.5789 448.691 70.0162 448.691 74.0703C448.691 78.1244 447.117 81.6164 443.97 84.5463C440.942 87.4762 437.212 88.9386 432.78 88.9386V88.9386ZM511.111 95.1914C519.965 95.1914 527.952 96.8827 535.063 100.265C542.022 103.509 547.861 108.74 551.845 115.298C556.043 121.834 558.139 129.773 558.139 139.125C558.139 148.477 556.043 156.525 551.845 163.285C547.837 169.866 542.009 175.147 535.063 178.492C527.952 181.984 519.965 183.73 511.111 183.73C502.133 183.73 494.09 181.984 486.984 178.492C480.083 175.082 474.271 169.816 470.203 163.285C466.119 156.525 464.078 148.472 464.078 139.125C464.078 129.773 466.119 121.834 470.203 115.298C474.246 108.788 480.069 103.571 486.984 100.26C494.09 96.8777 502.133 95.1914 511.111 95.1914ZM511.634 163.116C515.129 163.116 518.043 162.101 520.373 160.077C522.704 158.047 524.397 155.287 525.447 151.795C526.613 148.188 527.19 144.025 527.19 139.294C527.19 132.31 525.91 126.674 523.346 122.396C520.781 118.004 516.877 115.805 511.634 115.805H510.588C507.087 115.805 504.174 116.82 501.844 118.849C499.513 120.874 497.76 123.689 496.6 127.296C495.549 130.788 495.026 134.787 495.026 139.294C495.026 146.387 496.306 152.133 498.871 156.525C501.435 160.917 505.344 163.116 510.583 163.116H511.634V163.116ZM604.555 64.2758V181.7H574.303V64.2708H604.55L604.555 64.2758ZM665.581 95.1914C674.554 95.1914 682.422 96.9374 689.184 100.429C695.833 103.813 701.314 109.11 704.92 115.636C708.764 122.282 710.687 130.166 710.687 139.294V144.865H650.193V145.542C650.313 150.501 651.827 154.779 654.74 158.386C657.653 161.878 661.617 163.624 666.631 163.624H666.98C670.824 163.624 673.912 162.723 676.242 160.917C678.692 159.002 680.44 156.694 681.491 153.993H710.687C708.356 163.454 703.287 170.777 695.479 175.96C687.666 181.138 677.995 183.73 666.457 183.73C657.016 183.73 648.799 181.869 641.808 178.159C634.926 174.438 629.622 169.254 625.893 162.609C622.163 155.963 620.3 148.357 620.3 139.796C620.3 130.564 622.163 122.62 625.893 115.974C629.592 109.356 635.195 103.999 641.977 100.599C648.854 96.9921 656.722 95.1914 665.581 95.1914V95.1914ZM681.142 129.325C680.967 126.492 680.191 123.728 678.866 121.217C677.79 118.837 676.024 116.834 673.797 115.467C671.581 114.114 668.962 113.442 665.929 113.442H665.232C660.686 113.442 657.13 114.959 654.566 118.004C652.001 120.929 650.547 124.704 650.193 129.325H681.142V129.325ZM768.142 159.062C769.307 159.062 770.473 159.002 771.638 158.893C772.879 158.767 774.108 158.54 775.313 158.216H775.661C775.776 158.102 775.895 158.047 776.01 158.047V181.531C773.331 182.208 770.766 182.66 768.316 182.884C765.986 183.222 763.247 183.392 760.1 183.392C749.493 183.392 741.391 180.521 735.799 174.776C730.207 168.916 727.408 160.808 727.408 150.441V116.815H713.943V97.2159H725.133C728.28 97.2159 731.427 97.39 734.574 97.7283C737.721 97.9522 741.511 98.4595 745.938 99.2455L746.286 96.3753L744.195 96.037C740.46 95.3605 737.432 94.5746 735.102 93.6692C732.808 92.6858 730.816 91.1117 729.331 89.1078C727.817 86.9688 727.06 84.1533 727.06 80.6613V71.5384H758.178V81.6761C758.178 84.9392 758.412 87.6453 758.875 89.7843C759.343 91.8138 760.449 93.5598 762.196 95.0223C763.949 96.4897 766.569 97.2209 770.064 97.2209H775.313V116.82H757.829V147.571C757.829 151.402 758.586 154.272 760.1 156.187C761.733 158.102 764.412 159.062 768.142 159.062V159.062Z"></path>
<path fill="white" d="M170.5 228C223.795 228 267 184.795 267 131.5C267 78.2045 223.795 35 170.5 35C117.205 35 74 78.2045 74 131.5C74 184.795 117.205 228 170.5 228Z"></path>
</svg>
