<svg xmlns="http://www.w3.org/2000/svg" fill="none" viewBox="0 0 850 263" height="263" width="850">
<g clip-path="url(#clip0_5465_120)">
<mask height="109" width="792" y="77" x="29" maskUnits="userSpaceOnUse" style="mask-type:luminance" id="mask0_5465_120">
<path fill="white" d="M820.1 77H29.1001V186H820.1V77Z"></path>
</mask>
<g mask="url(#mask0_5465_120)">
<path fill="white" d="M133.662 105.871H123.536L118.619 114.561L114.07 123.473H113.556L109.08 114.561L104.384 105.871H93.4515L107.539 130.764L92.4976 157.277H102.623L108.347 147.04L112.969 138.055H113.556L118.032 147.04L123.609 157.277H134.469L119.5 130.911L133.662 105.871Z"></path>
<path fill="white" d="M53.5342 157.277H85.8933V149.323H63.1465V135.183H85.0861V127.229H63.1465V113.825H85.8933V105.871H53.5342V157.277Z"></path>
<path fill="white" d="M319.451 148.292C317.91 149.617 315.636 150.28 312.701 150.28C310.132 150.28 307.784 149.765 305.51 148.734C303.308 147.629 301.254 146.009 299.346 143.799L293.549 149.838C295.53 152.342 298.025 154.331 301.107 155.878C304.262 157.424 308.005 158.161 312.407 158.161C315.489 158.161 318.204 157.792 320.552 156.982C322.973 156.172 324.955 155.067 326.569 153.668C328.183 152.195 329.43 150.501 330.238 148.513C331.045 146.524 331.485 144.315 331.485 141.884C331.485 138.055 330.384 134.888 328.256 132.457C326.129 130.027 322.827 128.333 318.351 127.523L312.994 126.565C310.132 126.05 308.151 125.313 306.977 124.282C305.803 123.251 305.216 121.778 305.216 119.79C305.216 115.15 308.005 112.867 313.581 112.867C316.149 112.867 318.424 113.382 320.332 114.34C322.24 115.297 323.854 116.549 325.248 118.169L330.898 112.13C329.137 109.921 326.789 108.153 323.854 106.901C320.992 105.649 317.543 104.986 313.508 104.986C307.858 104.986 303.455 106.312 300.3 108.963C297.145 111.541 295.53 115.297 295.53 120.232C295.53 123.84 296.558 126.934 298.539 129.585C300.52 132.163 303.895 133.93 308.665 134.74L314.095 135.624C316.883 136.066 318.864 136.803 320.038 137.907C321.212 138.938 321.799 140.485 321.799 142.547C321.799 145.051 320.992 146.966 319.451 148.292Z"></path>
<path fill="white" d="M218.485 137.319H224.282L234.041 157.277H244.607L233.674 136.214C236.903 135.551 239.398 133.931 241.085 131.353C242.846 128.775 243.727 125.535 243.727 121.779C243.727 116.844 242.406 113.015 239.765 110.142C237.123 107.27 233.307 105.871 228.318 105.871H208.873V157.277H218.485V137.319ZM218.485 113.751H226.337C228.905 113.751 230.813 114.267 231.913 115.371C233.014 116.402 233.601 118.096 233.601 120.379V123.178C233.601 125.461 233.014 127.155 231.913 128.26C230.813 129.291 228.905 129.806 226.337 129.806H218.485V113.751Z"></path>
<path fill="white" d="M285.404 149.323H262.658V135.183H284.597V127.229H262.658V113.825H285.404V105.871H253.045V157.277H285.404V149.323Z"></path>
<path fill="white" d="M363.404 148.292C361.863 149.617 359.588 150.28 356.653 150.28C354.085 150.28 351.737 149.765 349.462 148.734C347.261 147.629 345.207 146.009 343.299 143.799L337.502 149.838C339.483 152.342 341.978 154.331 345.06 155.878C348.215 157.424 351.957 158.161 356.36 158.161C359.442 158.161 362.157 157.792 364.505 156.982C366.926 156.172 368.907 155.067 370.521 153.668C372.136 152.195 373.383 150.501 374.19 148.513C374.997 146.524 375.438 144.315 375.438 141.884C375.438 138.055 374.337 134.888 372.209 132.457C370.081 130.027 366.779 128.333 362.303 127.523L356.947 126.565C354.085 126.05 352.104 125.313 350.93 124.282C349.756 123.251 349.169 121.778 349.169 119.79C349.169 115.15 351.957 112.867 357.534 112.867C360.102 112.867 362.377 113.382 364.284 114.34C366.192 115.297 367.807 116.549 369.201 118.169L374.851 112.13C373.09 109.921 370.742 108.153 367.807 106.901C364.945 105.649 361.496 104.986 357.46 104.986C351.81 104.986 347.408 106.312 344.253 108.963C341.097 111.541 339.483 115.297 339.483 120.232C339.483 123.84 340.51 126.934 342.492 129.585C344.473 132.163 347.848 133.93 352.618 134.74L358.047 135.624C360.836 136.066 362.817 136.803 363.991 137.907C365.165 138.938 365.752 140.485 365.752 142.547C365.752 145.051 365.018 146.966 363.404 148.292Z"></path>
<path fill="white" d="M417.262 150.06H405.742V113.088H417.262V105.871H384.683V113.088H396.203V150.06H384.683V157.277H417.262V150.06Z"></path>
<path fill="white" d="M174.459 137.687H184.291C189.281 137.687 193.097 136.287 195.738 133.415C198.38 130.543 199.701 126.713 199.701 121.779C199.701 116.844 198.38 113.015 195.738 110.142C193.097 107.27 189.281 105.871 184.291 105.871H164.847V157.277H174.459V137.687ZM174.459 113.751H182.31C184.879 113.751 186.786 114.267 187.887 115.371C188.988 116.402 189.575 118.096 189.575 120.379V123.178C189.575 125.461 188.988 127.155 187.887 128.26C186.786 129.291 184.879 129.806 182.31 129.806H174.459V113.751Z"></path>
<path fill="white" d="M468.626 104.986C465.324 104.986 462.389 105.576 459.967 106.828C457.546 108.006 455.491 109.7 453.877 111.983C452.336 114.266 451.162 117.065 450.355 120.379C449.621 123.693 449.254 127.376 449.254 131.573C449.254 135.771 449.621 139.528 450.355 142.842C451.162 146.156 452.336 148.881 453.877 151.164C455.491 153.447 457.546 155.141 459.967 156.393C462.389 157.571 465.324 158.161 468.626 158.161C475.303 158.161 480.146 155.804 483.301 151.164C486.456 146.524 487.997 139.969 487.997 131.573C487.997 123.178 486.456 116.623 483.301 111.983C480.146 107.343 475.303 104.986 468.626 104.986ZM477.798 135.919C477.798 138.128 477.651 140.117 477.284 141.958C476.991 143.726 476.477 145.198 475.743 146.451C475.083 147.703 474.129 148.66 472.955 149.323C471.781 149.986 470.314 150.28 468.626 150.28C465.177 150.28 462.829 149.028 461.435 146.451C460.114 143.873 459.454 140.411 459.454 135.992V127.155C459.454 122.736 460.114 119.274 461.435 116.696C462.829 114.119 465.177 112.867 468.626 112.867C472.075 112.867 474.423 114.119 475.743 116.696C477.138 119.274 477.798 122.736 477.798 127.155V135.919Z"></path>
<path fill="white" d="M521.53 142.769H520.797L507.369 105.871H495.555V157.277H503.773V120.379H504.507L517.935 157.277H529.749V105.871H521.53V142.769Z"></path>
<path fill="white" d="M638.273 150.722C641.575 146.304 643.189 139.896 643.189 131.574C643.189 123.252 641.575 116.918 638.273 112.499C635.044 108.08 630.128 105.871 623.451 105.871H607.528V157.277H623.451C630.054 157.277 635.044 155.068 638.273 150.722ZM616.993 149.544V113.604H622.79C626.312 113.604 628.88 114.782 630.568 117.065C632.256 119.348 633.136 122.736 633.136 127.081V135.993C633.136 140.412 632.256 143.8 630.568 146.083C628.88 148.366 626.312 149.544 622.79 149.544H616.993Z"></path>
<path fill="white" d="M684.427 150.06H672.907V113.088H684.427V105.871H651.848V113.088H663.368V150.06H651.848V157.277H684.427V150.06Z"></path>
<path fill="white" d="M707.393 157.277H716.932V113.825H732.342V105.871H691.984V113.825H707.393V157.277Z"></path>
<path fill="white" d="M596.595 149.323H573.848V135.183H595.788V127.229H573.848V113.825H596.595V105.871H564.236V157.277H596.595V149.323Z"></path>
<path fill="white" d="M785.1 127.523L779.743 126.565C776.881 126.05 774.9 125.313 773.726 124.282C772.552 123.251 771.965 121.778 771.965 119.79C771.965 115.15 774.754 112.867 780.33 112.867C782.898 112.867 785.173 113.382 787.081 114.34C788.989 115.297 790.603 116.549 791.997 118.169L797.647 112.13C795.886 109.921 793.538 108.153 790.603 106.901C787.741 105.649 784.293 104.986 780.257 104.986C774.607 104.986 770.204 106.312 767.049 108.963C763.894 111.541 762.28 115.297 762.28 120.232C762.28 123.84 763.307 126.934 765.288 129.585C767.269 132.163 770.644 133.93 775.414 134.74L780.844 135.624C783.632 136.066 785.613 136.803 786.787 137.907C787.961 138.938 788.548 140.485 788.548 142.547C788.548 145.051 787.741 146.966 786.2 148.292C784.659 149.617 782.385 150.28 779.45 150.28C776.881 150.28 774.533 149.765 772.259 148.734C770.057 147.629 768.003 146.009 766.095 143.799L760.298 149.838C762.28 152.342 764.774 154.331 767.856 155.878C771.011 157.424 774.754 158.161 779.156 158.161C782.238 158.161 784.953 157.792 787.301 156.982C789.722 156.172 791.704 155.067 793.318 153.668C794.932 152.195 796.18 150.501 796.987 148.513C797.794 146.524 798.234 144.315 798.234 141.884C798.234 138.055 797.133 134.888 795.006 132.457C792.878 130.027 789.576 128.333 785.1 127.523Z"></path>
<path fill="white" d="M806.159 77H753.327C745.623 77 739.386 83.2601 739.386 90.9932V179.372H553.009V90.9932C553.009 83.2601 546.772 77 539.068 77H442.211C434.506 77 428.269 83.2601 428.269 90.9932V179.372H153.84V90.9932C153.84 83.2601 147.603 77 139.899 77H43.0417C35.3371 77 29.1001 83.2601 29.1001 90.9932V172.007C29.1001 179.74 35.3371 186 43.0417 186H150.538H153.84H428.269H553.009H739.386H745.99H806.159C813.863 186 820.1 179.74 820.1 172.007V90.9932C820.1 83.2601 813.863 77 806.159 77ZM147.236 179.372H43.0417C39.0059 179.372 35.704 176.057 35.704 172.007V90.9932C35.704 86.9426 39.0059 83.6284 43.0417 83.6284H139.899C143.935 83.6284 147.236 86.9426 147.236 90.9932V179.372ZM546.405 179.372H434.873V90.9932C434.873 86.9426 438.175 83.6284 442.211 83.6284H539.068C543.103 83.6284 546.405 86.9426 546.405 90.9932V179.372ZM813.496 172.007C813.496 176.057 810.194 179.372 806.159 179.372H745.99V90.9932C745.99 86.9426 749.292 83.6284 753.327 83.6284H806.159C810.194 83.6284 813.496 86.9426 813.496 90.9932V172.007Z"></path>
</g>
</g>
<defs>
<clipPath id="clip0_5465_120">
<rect transform="translate(29.1001 77)" fill="white" height="109" width="791"></rect>
</clipPath>
</defs>
</svg>
