<svg xmlns="http://www.w3.org/2000/svg" fill="none" viewBox="0 0 850 263" height="263" width="850">
<path fill="white" d="M127.857 194.76V78.2002H82.7227V65.5482H186.182V78.2002H141.047V194.76H127.857Z"></path>
<path fill="white" d="M191.633 194.76V97.8511H203.477V121.181L201.144 118.13C202.221 115.259 203.627 112.627 205.361 110.234C207.096 107.781 208.981 105.777 211.014 104.222C213.527 102.009 216.458 100.334 219.808 99.1971C223.158 98.0007 226.538 97.3127 229.948 97.1333C233.357 96.894 236.468 97.1333 239.28 97.8511V110.234C235.75 109.337 231.892 109.127 227.704 109.606C223.517 110.084 219.659 111.759 216.129 114.631C212.899 117.143 210.476 120.164 208.861 123.693C207.246 127.163 206.169 130.872 205.631 134.82C205.092 138.708 204.823 142.567 204.823 146.395V194.76H191.633Z"></path>
<path fill="white" d="M295.017 197.452C285.386 197.452 277.161 195.268 270.342 190.901C263.522 186.535 258.288 180.493 254.639 172.776C250.99 165.059 249.165 156.206 249.165 146.216C249.165 136.046 251.02 127.133 254.729 119.476C258.437 111.819 263.702 105.867 270.521 101.62C277.4 97.3127 285.566 95.1592 295.017 95.1592C304.708 95.1592 312.963 97.3426 319.783 101.71C326.662 106.017 331.897 112.028 335.486 119.745C339.135 127.402 340.959 136.226 340.959 146.216C340.959 156.385 339.135 165.328 335.486 173.045C331.837 180.702 326.573 186.684 319.693 190.991C312.814 195.298 304.589 197.452 295.017 197.452ZM295.017 184.8C305.785 184.8 313.801 181.24 319.065 174.122C324.329 166.943 326.961 157.641 326.961 146.216C326.961 134.491 324.299 125.159 318.975 118.22C313.711 111.281 305.725 107.811 295.017 107.811C287.779 107.811 281.797 109.456 277.071 112.746C272.405 115.977 268.906 120.493 266.573 126.296C264.3 132.038 263.163 138.678 263.163 146.216C263.163 157.881 265.855 167.243 271.239 174.301C276.623 181.3 284.549 184.8 295.017 184.8Z"></path>
<path fill="white" d="M476.326 194.76L476.416 131.141C476.416 123.664 474.322 117.801 470.134 113.554C466.007 109.247 460.743 107.093 454.342 107.093C450.693 107.093 447.134 107.931 443.664 109.606C440.194 111.281 437.323 113.973 435.05 117.682C432.837 121.39 431.73 126.236 431.73 132.218L423.923 129.975C423.744 123.035 425.09 116.964 427.961 111.759C430.892 106.555 434.9 102.517 439.985 99.6457C445.13 96.7145 450.932 95.2489 457.393 95.2489C467.143 95.2489 474.95 98.2699 480.812 104.312C486.675 110.294 489.606 118.399 489.606 128.629L489.516 194.76H476.326ZM360.664 194.76V97.8511H372.508V121.719H373.944V194.76H360.664ZM418.629 194.76L418.719 132.038C418.719 124.322 416.655 118.25 412.528 113.823C408.46 109.337 403.076 107.093 396.376 107.093C389.676 107.093 384.263 109.396 380.135 114.003C376.007 118.549 373.944 124.621 373.944 132.218L366.047 127.911C366.047 121.689 367.513 116.126 370.444 111.221C373.375 106.256 377.383 102.368 382.468 99.556C387.553 96.6846 393.325 95.2489 399.786 95.2489C405.947 95.2489 411.421 96.565 416.207 99.1971C421.052 101.829 424.851 105.658 427.602 110.683C430.354 115.707 431.73 121.809 431.73 128.988L431.64 194.76H418.629Z"></path>
<path fill="white" d="M553.18 197.452C543.728 197.452 535.533 195.358 528.594 191.171C521.714 186.983 516.36 181.091 512.532 173.494C508.703 165.897 506.789 156.983 506.789 146.754C506.789 136.166 508.674 127.013 512.442 119.297C516.211 111.58 521.505 105.628 528.325 101.44C535.204 97.2529 543.309 95.1592 552.641 95.1592C562.213 95.1592 570.378 97.3726 577.138 101.799C583.897 106.166 589.012 112.447 592.482 120.643C595.951 128.838 597.536 138.619 597.237 149.984H583.778V145.318C583.539 132.756 580.817 123.275 575.612 116.874C570.468 110.473 562.93 107.273 553 107.273C542.592 107.273 534.606 110.653 529.042 117.412C523.539 124.172 520.787 133.803 520.787 146.305C520.787 158.509 523.539 167.99 529.042 174.75C534.606 181.45 542.472 184.8 552.641 184.8C559.581 184.8 565.622 183.214 570.767 180.044C575.971 176.814 580.069 172.178 583.06 166.136L595.353 170.892C591.525 179.326 585.872 185.876 578.394 190.542C570.976 195.149 562.572 197.452 553.18 197.452ZM516.121 149.984V138.948H590.149V149.984H516.121Z"></path>
<path fill="white" d="M617.15 194.76V97.8511H628.995V121.181L626.662 118.13C627.739 115.259 629.144 112.627 630.879 110.234C632.614 107.781 634.498 105.777 636.532 104.222C639.045 102.009 641.976 100.334 645.326 99.1971C648.676 98.0007 652.056 97.3127 655.465 97.1333C658.875 96.894 661.986 97.1333 664.797 97.8511V110.234C661.268 109.337 657.409 109.127 653.222 109.606C649.035 110.084 645.176 111.759 641.647 114.631C638.417 117.143 635.994 120.164 634.379 123.693C632.764 127.163 631.687 130.872 631.148 134.82C630.61 138.708 630.341 142.567 630.341 146.395V194.76H617.15Z"></path>
<path fill="white" d="M720.535 197.452C710.904 197.452 702.679 195.268 695.859 190.901C689.04 186.535 683.806 180.493 680.156 172.776C676.507 165.059 674.683 156.206 674.683 146.216C674.683 136.046 676.537 127.133 680.246 119.476C683.955 111.819 689.219 105.867 696.039 101.62C702.918 97.3127 711.084 95.1592 720.535 95.1592C730.226 95.1592 738.481 97.3426 745.301 101.71C752.18 106.017 757.414 112.028 761.003 119.745C764.653 127.402 766.477 136.226 766.477 146.216C766.477 156.385 764.653 165.328 761.003 173.045C757.354 180.702 752.09 186.684 745.211 190.991C738.332 195.298 730.106 197.452 720.535 197.452ZM720.535 184.8C731.303 184.8 739.319 181.24 744.583 174.122C749.847 166.943 752.479 157.641 752.479 146.216C752.479 134.491 749.817 125.159 744.493 118.22C739.229 111.281 731.243 107.811 720.535 107.811C713.297 107.811 707.315 109.456 702.589 112.746C697.923 115.977 694.424 120.493 692.091 126.296C689.818 132.038 688.681 138.678 688.681 146.216C688.681 157.881 691.373 167.243 696.757 174.301C702.14 181.3 710.067 184.8 720.535 184.8Z"></path>
</svg>
