<svg xmlns="http://www.w3.org/2000/svg" fill="none" viewBox="0 0 850 263" height="263" width="850">
<g clip-path="url(#clip0_317_1338)">
<path fill="white" d="M133.947 79.7716C133.947 60.472 143.396 51 162.644 51H187.494V75.2133H171.395C161.945 75.2133 160.894 81.176 160.894 86.4382V98.3671H187.494V122.225H160.894V209.596H133.947V122.228H114V98.0151H133.947V79.7751V79.7716ZM235.436 209.596V98.3671H207.441L208.491 209.948H235.439V209.596H235.436ZM494.414 209.596V98.3671H466.416L467.466 209.948H494.414V209.596V209.596ZM318.38 144.689L291.432 138.723C282.685 136.618 280.935 132.056 280.935 128.198C281.283 121.532 287.234 117.318 296.684 117.318C305.431 117.318 311.73 121.528 313.831 128.547H341.829C339.38 107.142 325.03 96.6178 297.383 96.6178C287.234 96.6178 253.636 99.0711 253.636 128.195C253.636 154.513 274.985 161.528 281.635 162.932L306.482 168.55C311.734 169.599 318.38 172.056 318.38 179.423C318.38 186.442 312.433 190.303 301.581 190.303C291.432 190.303 280.233 186.09 278.136 176.97H250.833C253.285 208.543 289.683 211 300.882 211C330.977 211 345.679 200.476 345.679 179.42C345.679 155.914 330.981 147.491 318.38 144.682V144.689ZM423.719 144.689L396.771 138.723C388.024 136.618 386.275 132.056 386.275 128.198C386.623 121.532 392.574 117.318 402.023 117.318C410.771 117.318 417.069 121.528 419.17 128.547H447.168C444.72 107.142 430.369 96.6178 402.722 96.6178C392.574 96.6178 358.976 99.0711 358.976 128.195C358.976 154.513 380.324 161.528 386.974 162.932L411.821 168.55C417.073 169.599 423.719 172.056 423.719 179.423C423.719 186.442 417.772 190.303 406.92 190.303C396.771 190.303 385.572 186.09 383.475 176.97H356.176C358.624 208.543 395.022 211 406.225 211C436.324 211 451.022 200.476 451.022 179.42C451.022 155.914 436.324 147.491 423.723 144.682L423.719 144.689ZM687.595 95.9173C670.097 95.9173 662.396 102.932 659.596 107.146L656.449 111.704V98.3707H629.501V209.951H656.449V141.876C656.449 123.633 669.745 116.966 680.945 116.966C692.144 116.966 705.444 123.633 705.444 141.876V209.948H732.392V140.472C732.041 107.843 708.943 95.9138 687.595 95.9138V95.9173ZM613.401 145.741V161.18C613.401 193.108 595.204 211.004 561.957 211.004C528.711 211.004 510.51 193.46 510.51 161.18V145.741C510.51 113.812 528.711 95.9173 561.957 95.9173C595.204 95.9173 613.401 113.812 613.401 145.741ZM584.704 141.88C584.704 127.846 576.656 117.318 561.957 117.318C547.259 117.318 539.208 127.843 539.208 141.88V165.037C539.208 179.075 547.259 190.652 561.957 190.652C576.656 190.652 584.704 179.075 584.704 165.037V141.88V141.88ZM235.439 51H207.441V75.2133H235.439V51ZM494.414 51H466.416V75.2133H494.414V51Z"></path>
</g>
<defs>
<clipPath id="clip0_317_1338">
<rect transform="translate(114 51)" fill="white" height="160" width="621"></rect>
</clipPath>
</defs>
</svg>
